<?xml version="1.0" encoding="UTF-8"?>
<!--Generator: Apple Native CoreSVG 361-->
<!DOCTYPE svg
PUBLIC "-//W3C//DTD SVG 1.1//EN"
       "http://www.w3.org/Graphics/SVG/1.1/DTD/svg11.dtd">
<svg version="1.1" xmlns="http://www.w3.org/2000/svg" xmlns:xlink="http://www.w3.org/1999/xlink" viewBox="0 0 1024 1024">
 <g/>
 <g id="blackdots">
  <path d="M534 842c0 12.1503-9.84973 22-22 22s-22-9.84973-22-22s9.84973-22 22-22S534 829.85 534 842zM402 820c-12.1503 0-22 9.84973-22 22s9.84973 22 22 22s22-9.84973 22-22S414.15 820 402 820zM402 682c-12.1503 0-22 9.84973-22 22s9.84973 22 22 22s22-9.84973 22-22S414.15 682 402 682zM402 406c-12.1503 0-22 9.84973-22 22s9.84973 22 22 22s22-9.84973 22-22S414.15 406 402 406zM402 544c-12.1503 0-22 9.84973-22 22s9.84973 22 22 22s22-9.84973 22-22S414.15 544 402 544zM292 544c-12.1503 0-22 9.84973-22 22s9.84973 22 22 22s22-9.84973 22-22S304.15 544 292 544zM182 820c-12.1503 0-22 9.84973-22 22s9.84973 22 22 22s22-9.84973 22-22S194.15 820 182 820zM292 682c-12.1503 0-22 9.84973-22 22s9.84973 22 22 22s22-9.84973 22-22S304.15 682 292 682zM182 682c-12.1503 0-22 9.84973-22 22s9.84973 22 22 22s22-9.84973 22-22S194.15 682 182 682zM842 450c12.1503 0 22-9.84973 22-22s-9.84973-22-22-22s-22 9.84973-22 22S829.85 450 842 450zM292 820c-12.1503 0-22 9.84973-22 22s9.84973 22 22 22s22-9.84973 22-22S304.15 820 292 820zM182 544c-12.1503 0-22 9.84973-22 22s9.84973 22 22 22s22-9.84973 22-22S194.15 544 182 544zM622 544c-12.1503 0-22 9.84973-22 22s9.84973 22 22 22s22-9.84973 22-22S634.15 544 622 544zM732 406c-12.1503 0-22 9.84973-22 22s9.84973 22 22 22s22-9.84973 22-22S744.15 406 732 406zM732 544c-12.1503 0-22 9.84973-22 22s9.84973 22 22 22s22-9.84973 22-22S744.15 544 732 544zM732 682c-12.1503 0-22 9.84973-22 22s9.84973 22 22 22s22-9.84973 22-22S744.15 682 732 682zM842 682c-12.1503 0-22 9.84973-22 22s9.84973 22 22 22s22-9.84973 22-22S854.15 682 842 682zM842 544c-12.1503 0-22 9.84973-22 22s9.84973 22 22 22s22-9.84973 22-22S854.15 544 842 544zM512 682c-12.1503 0-22 9.84973-22 22s9.84973 22 22 22s22-9.84973 22-22S524.15 682 512 682zM512 406c-12.1503 0-22 9.84973-22 22s9.84973 22 22 22s22-9.84973 22-22S524.15 406 512 406zM512 544c-12.1503 0-22 9.84973-22 22s9.84973 22 22 22s22-9.84973 22-22S524.15 544 512 544zM622 820c-12.1503 0-22 9.84973-22 22s9.84973 22 22 22s22-9.84973 22-22S634.15 820 622 820zM622 682c-12.1503 0-22 9.84973-22 22s9.84973 22 22 22s22-9.84973 22-22S634.15 682 622 682zM622 406c-12.1503 0-22 9.84973-22 22s9.84973 22 22 22s22-9.84973 22-22S634.15 406 622 406z"/>
 </g>
</svg>
