<?xml version="1.0" encoding="UTF-8"?>
<!--Generator: Apple Native CoreSVG 361-->
<!DOCTYPE svg
PUBLIC "-//W3C//DTD SVG 1.1//EN"
       "http://www.w3.org/Graphics/SVG/1.1/DTD/svg11.dtd">
<svg version="1.1" xmlns="http://www.w3.org/2000/svg" xmlns:xlink="http://www.w3.org/1999/xlink" viewBox="0 0 1026 1026">
 <g id="screw.stop2">
  <g>
   <path clip-rule="evenodd" d="M685.877 309.987c0-1.62708 0.0079346-3.25262-0.0853882-4.87912c-0.0847778-1.47775-0.264099-2.91736-0.664917-4.35089c-0.843689-3.01743-2.60541-5.65271-5.10223-7.55713c-2.48248-1.89346-5.52045-2.91904-8.64026-2.91904c-3.12219 0-6.1579 1.02557-8.64038 2.91904c-2.49683 1.90442-4.25861 4.5397-5.10223 7.55713c-0.400818 1.43353-0.580139 2.87314-0.664917 4.35089c-0.0933228 1.6265-0.0853882 3.25204-0.0853882 4.87912v23.9063c0 1.62708-0.0079346 3.25262 0.0853882 4.87912c0.0847778 1.47775 0.264099 2.91736 0.664917 4.35089c0.843628 3.01743 2.60541 5.65271 5.10223 7.55713c2.48248 1.89346 5.52045 2.91904 8.64026 2.91904c3.12219 0 6.1579-1.02557 8.64038-2.91904c2.49683-1.90442 4.25854-4.5397 5.10223-7.55713c0.400818-1.43353 0.580139-2.87314 0.664917-4.35089c0.0933228-1.6265 0.0853882-3.25204 0.0853882-4.87912V309.987z" fill="#44494D" fill-rule="evenodd" style="fill-rule:evenodd;clip-rule:evenodd;fill:#44494D;"/>
  </g>
 </g>
</svg>
