<?xml version="1.0" encoding="UTF-8"?>
<!--Generator: Apple Native CoreSVG 361-->
<!DOCTYPE svg
PUBLIC "-//W3C//DTD SVG 1.1//EN"
       "http://www.w3.org/Graphics/SVG/1.1/DTD/svg11.dtd">
<svg version="1.1" xmlns="http://www.w3.org/2000/svg" xmlns:xlink="http://www.w3.org/1999/xlink" viewBox="0 0 1026 1026">
 <g/>
 <g id="legs">
  <path d="M493.588 312.287l8.55548-32.0879c2.40146-9.00677 1.95706-18.536-1.27216-27.2802l-16.2511-44.0051c-2.18213-5.90771-7.6543-9.47559-13.9404-9.08984c-6.28564 0.385742-11.2798 4.59668-12.7227 10.7266l-23.1948 98.5582c-11.2243 47.6938-34.7057 91.6309-68.1214 127.465l-89.7888 96.2869c-33.563 35.9917-51.1011 82.8994-49.3838 132.082c1.71777 49.1826 22.4854 94.7524 58.4771 128.315l4.07666 3.80176c3.01318 2.80957 6.80762 4.27393 10.6948 4.27393c2.11816 0 4.26465-0.435059 6.32568-1.32422c5.84375-2.52148 9.49658-8.0415 9.53271-14.4062c0.0234375-4.21289-1.67432-8.32178-4.6582-11.2749c-26.3999-26.1196-41.3691-60.9863-42.1499-98.1777c-0.782227-37.2661 12.79-72.8066 38.2173-100.074l97.4198-104.47C447.428 426.542 477.714 371.826 493.588 312.287z" fill="#828D93" style="fill:#828D93;"/>
  <path d="M532.482 312.287l-8.55548-32.0879c-2.40143-9.00677-1.95703-18.536 1.27222-27.2802l16.2511-44.0051c2.18213-5.90771 7.6543-9.47559 13.9404-9.08984c6.28564 0.385742 11.2798 4.59668 12.7227 10.7266l23.1948 98.5582c11.2243 47.6938 34.7057 91.6309 68.1214 127.465l89.7888 96.2869c33.563 35.9917 51.1011 82.8994 49.3838 132.082c-1.71777 49.1826-22.4854 94.7524-58.4771 128.315l-4.07666 3.80176c-3.01318 2.80957-6.80762 4.27393-10.6948 4.27393c-2.11816 0-4.26465-0.435059-6.32568-1.32422c-5.84375-2.52148-9.49658-8.0415-9.53271-14.4062c-0.0234375-4.21289 1.67432-8.32178 4.6582-11.2749c26.3999-26.1196 41.3691-60.9863 42.1499-98.1777c0.782227-37.2661-12.79-72.8066-38.2173-100.074l-97.4199-104.47C578.642 426.542 548.357 371.826 532.482 312.287z" fill="#828D93" style="fill:#828D93;"/>
 </g>
</svg>
