<?xml version="1.0" encoding="UTF-8"?>
<!--Generator: Apple Native CoreSVG 361-->
<!DOCTYPE svg
PUBLIC "-//W3C//DTD SVG 1.1//EN"
       "http://www.w3.org/Graphics/SVG/1.1/DTD/svg11.dtd">
<svg version="1.1" xmlns="http://www.w3.org/2000/svg" xmlns:xlink="http://www.w3.org/1999/xlink" viewBox="0 0 1024 1024">
 <g/>
 <g id="chart">
  <g id="element1">
   <g>
    <path d="M603.845 202.202c-0.157532-5.81152-0.499573-11.6738-1.53271-17.4209c-1.04803-5.83105-2.75848-11.2568-5.45489-16.5547c-2.65015-5.20605-6.11316-9.9707-10.2443-14.1016c-4.13104-4.13086-8.89563-7.59473-14.1022-10.2441c-5.2973-2.69629-10.7236-4.40723-16.554-5.45508c-5.74719-1.0332-11.6094-1.375-17.4212-1.5332c-2.66699-0.0722656-5.33429-0.102539-8.00208-0.118164c-0.651123-0.0039062-2.47894-0.0068359-4.98102-0.0097656c-1.50684-0.0019531-3.01367-0.0087891-4.52063-0.0087891h-18.0636c-1.50696 0-3.01373 0.0068359-4.52057 0.0087891c-2.50214 0.0029297-4.32996 0.0058594-4.98108 0.0097656c-2.66785 0.015625-5.33508 0.0458984-8.00214 0.118164c-5.81177 0.158203-11.674 0.5-17.4212 1.5332c-5.83032 1.04785-11.2567 2.75879-16.554 5.45508c-5.20654 2.64941-9.97113 6.11328-14.1022 10.2441s-7.59406 8.89551-10.2443 14.1016c-2.69641 5.29785-4.4068 10.7236-5.45489 16.5547c-1.03308 5.74707-1.37518 11.6094-1.53265 17.4209c-0.0723267 2.66699-0.103088 5.33398-0.118408 8.00195c-0.0200195 3.16797-0.0186768 6.33398-0.0186768 9.50195v470.349c0 3.16797-0.0013428 6.33496 0.0186768 9.50195c0.0153198 2.66797 0.0460815 5.33496 0.118408 8.00195c0.157471 5.81152 0.499573 11.6738 1.53265 17.4209c1.0481 5.83105 2.75848 11.2568 5.45489 16.5547c2.65021 5.20605 6.11322 9.9707 10.2443 14.1016c4.13104 4.13184 8.89563 7.59473 14.1022 10.2441c5.2973 2.69727 10.7236 4.40723 16.554 5.45508c5.74725 1.0332 11.6094 1.375 17.4212 1.5332c2.66705 0.0722656 5.33429 0.102539 8.00214 0.118164c0.651123 0.0039062 2.47894 0.0078125 4.98108 0.0097656c1.50684 0.0019531 3.01361 0.0087891 4.52057 0.0087891h18.0636c1.50696 0 3.01379-0.0068359 4.52063-0.0087891c2.50208-0.0019531 4.32989-0.0058594 4.98102-0.0097656c2.66779-0.015625 5.33508-0.0458984 8.00208-0.118164c5.81177-0.158203 11.674-0.5 17.4212-1.5332c5.83032-1.04785 11.2567-2.75781 16.554-5.45508c5.20654-2.64941 9.97113-6.1123 14.1022-10.2441c4.1311-4.13086 7.59412-8.89551 10.2443-14.1016c2.69641-5.29785 4.40686-10.7236 5.45489-16.5547c1.03314-5.74707 1.37518-11.6094 1.53271-17.4209c0.0722656-2.66699 0.103027-5.33398 0.118408-8.00195c0.0199585-3.16699 0.0186768-6.33398 0.0186768-9.50195v-470.349c0-3.16797 0.0012817-6.33398-0.0186768-9.50195C603.948 207.536 603.917 204.869 603.845 202.202z" fill="#007D10" style="fill:#007D10;"/>
    <path d="M390.353 588.233c-0.157532-5.81152-0.499573-11.6738-1.53271-17.4209c-1.04803-5.83057-2.75848-11.2568-5.45489-16.5542c-2.65015-5.20654-6.11316-9.97119-10.2443-14.1021c-4.13104-4.13086-8.89563-7.59424-14.1022-10.2441c-5.2973-2.69629-10.7236-4.40674-16.554-5.45508c-5.74719-1.0332-11.6094-1.375-17.4212-1.53271c-2.66699-0.0722656-5.33429-0.103027-8.00208-0.118164c-0.651123-0.0043945-2.47894-0.0073242-4.98102-0.0097656c-1.50684-0.0019531-3.01367-0.0092773-4.52063-0.0092773h-18.0636c-1.50696 0-3.01373 0.0073242-4.52057 0.0092773c-2.50214 0.0024414-4.32996 0.0053711-4.98108 0.0097656c-2.66785 0.0151367-5.33508 0.0458984-8.00214 0.118164c-5.81177 0.157715-11.674 0.499512-17.4212 1.53271c-5.83032 1.04834-11.2567 2.75879-16.554 5.45508c-5.20654 2.6499-9.97113 6.11328-14.1022 10.2441s-7.59406 8.89551-10.2443 14.1021c-2.69641 5.29736-4.4068 10.7236-5.45489 16.5542c-1.03308 5.74707-1.37518 11.6094-1.53265 17.4209c-0.0723267 2.66699-0.103088 5.33447-0.118408 8.00244c-0.0200195 3.16748-0.0186768 6.33398-0.0186768 9.50146v84.3172c0 3.16797-0.0013428 6.33496 0.0186768 9.50195c0.0153198 2.66797 0.0460815 5.33496 0.118408 8.00195c0.157471 5.81152 0.499573 11.6738 1.53265 17.4209c1.0481 5.83105 2.75848 11.2568 5.45489 16.5547c2.65021 5.20605 6.11322 9.9707 10.2443 14.1016c4.13104 4.13184 8.89563 7.59473 14.1022 10.2441c5.2973 2.69727 10.7236 4.40723 16.554 5.45508c5.74725 1.0332 11.6094 1.375 17.4212 1.5332c2.66705 0.0722656 5.33429 0.102539 8.00214 0.118164c0.651123 0.0039062 2.47894 0.0078125 4.98108 0.0097656c1.50684 0.0019531 3.01361 0.0087891 4.52057 0.0087891h18.0636c1.50696 0 3.01379-0.0068359 4.52063-0.0087891c2.50208-0.0019531 4.32989-0.0058594 4.98102-0.0097656c2.66779-0.015625 5.33508-0.0458984 8.00208-0.118164c5.81177-0.158203 11.674-0.5 17.4212-1.5332c5.83032-1.04785 11.2567-2.75781 16.554-5.45508c5.20654-2.64941 9.97113-6.1123 14.1022-10.2441c4.1311-4.13086 7.59412-8.89551 10.2443-14.1016c2.69641-5.29785 4.40686-10.7236 5.45489-16.5547c1.03314-5.74707 1.37518-11.6094 1.53271-17.4209c0.0722656-2.66699 0.103027-5.33398 0.118408-8.00195c0.0199585-3.16699 0.0186768-6.33398 0.0186768-9.50195v-84.3172c0-3.16748 0.0012817-6.33398-0.0186768-9.50146C390.456 593.568 390.426 590.9 390.353 588.233z" fill="#007D10" style="fill:#007D10;"/>
    <path d="M817.455 407.211c-0.0153809-2.66797-0.0461426-5.33594-0.118408-8.00293c-0.157593-5.81152-0.499634-11.6738-1.53271-17.4209c-1.0481-5.83008-2.75854-11.2568-5.45496-16.5537c-2.65015-5.20703-6.11316-9.97168-10.2443-14.1025s-8.89563-7.59375-14.1022-10.2441c-5.29724-2.69629-10.7236-4.40625-16.554-5.45508c-5.74719-1.0332-11.6095-1.375-17.4213-1.53223c-2.66699-0.0722656-5.33423-0.103516-8.00195-0.118164c-0.651123-0.0048828-2.479-0.0078125-4.98108-0.0097656c-1.50684-0.0019531-3.01367-0.0097656-4.52063-0.0097656h-18.0636c-1.50696 0-3.01379 0.0078125-4.52063 0.0097656c-2.50208 0.0019531-4.32983 0.0048828-4.98096 0.0097656c-2.66797 0.0146484-5.33521 0.0458984-8.0022 0.118164c-5.81177 0.157227-11.674 0.499023-17.4212 1.53223c-5.83032 1.04883-11.2567 2.75879-16.554 5.45508c-5.20654 2.65039-9.97113 6.11328-14.1022 10.2441s-7.59406 8.89551-10.2443 14.1025c-2.69641 5.29688-4.4068 10.7236-5.45489 16.5537c-1.03308 5.74707-1.37518 11.6094-1.53265 17.4209c-0.0723267 2.66699-0.103088 5.33496-0.118408 8.00293c-0.0200195 3.16699-0.0186768 6.33398-0.0186768 9.50098v273.343c0 3.16797-0.0013428 6.33496 0.0186768 9.50195c0.0153198 2.66797 0.0460815 5.33496 0.118408 8.00195c0.157471 5.81152 0.499573 11.6738 1.53265 17.4209c1.0481 5.83105 2.75848 11.2568 5.45489 16.5547c2.65021 5.20605 6.11322 9.9707 10.2443 14.1016c4.13104 4.13184 8.89563 7.59473 14.1022 10.2441c5.2973 2.69727 10.7236 4.40723 16.554 5.45508c5.74725 1.0332 11.6094 1.375 17.4212 1.5332c2.66699 0.0722656 5.33423 0.102539 8.0022 0.118164c0.651123 0.0039062 2.47888 0.0078125 4.98096 0.0097656c1.50684 0.0019531 3.01367 0.0087891 4.52063 0.0087891h18.0636c1.50696 0 3.01379-0.0068359 4.52063-0.0087891c2.50208-0.0019531 4.32996-0.0058594 4.98108-0.0097656c2.66772-0.015625 5.33496-0.0458984 8.00195-0.118164c5.81177-0.158203 11.6741-0.5 17.4213-1.5332c5.83032-1.04785 11.2567-2.75781 16.554-5.45508c5.20654-2.64941 9.97107-6.1123 14.1022-10.2441c4.1311-4.13086 7.59412-8.89551 10.2443-14.1016c2.69641-5.29785 4.40686-10.7236 5.45496-16.5547c1.03308-5.74707 1.37512-11.6094 1.53271-17.4209c0.0722656-2.66699 0.103027-5.33398 0.118408-8.00195c0.0198975-3.16699 0.0185547-6.33398 0.0185547-9.50195V416.711C817.473 413.544 817.474 410.378 817.455 407.211z" fill="#007D10" style="fill:#007D10;"/>
   </g>
  </g>
 </g>
</svg>
