<?xml version="1.0" encoding="UTF-8"?>
<!--Generator: Apple Native CoreSVG 361-->
<!DOCTYPE svg
PUBLIC "-//W3C//DTD SVG 1.1//EN"
       "http://www.w3.org/Graphics/SVG/1.1/DTD/svg11.dtd">
<svg version="1.1" xmlns="http://www.w3.org/2000/svg" xmlns:xlink="http://www.w3.org/1999/xlink" viewBox="0 0 1024 1024">
 <defs>
  <linearGradient id="SVGID_1_" x1="621.191" y1="733.059" x2="403.575" y2="733.059" gradientUnits="userSpaceOnUse">
   <stop offset="0" stop-color="#66afde" stop-opacity="1"/>
   <stop offset="1" stop-color="#87cbf2" stop-opacity="1"/>
  </linearGradient>
 </defs>
 <g/>
 <g id="folder.tile.bottom">
  <path clip-rule="evenodd" d="M861.978 714.999c-0.228271-8.28235-3.29541-16.5192-9.11945-24.3982c-6.16309-8.33771-14.9682-15.7815-26.3002-22.9559c-11.1705-7.07202-24.2509-13.5433-37.649-19.7694c-6.14844-2.85718-12.3958-5.67126-18.6811-8.46985c-7.45795-3.32452-14.9653-6.62634-22.4706-9.92993l-123.253-54.2527c-4.34393-1.91211-8.6853-3.82471-13.0567-5.72479c-3.67981-1.6012-7.38007-3.19281-11.137-4.75922c-8.18658-3.41333-16.6955-6.74579-25.9944-9.59161c-9.43341-2.88696-19.2212-5.13019-30.1843-6.70032c-10.7751-1.54321-22.059-2.32898-33.3901-2.32898c-11.3311 0-22.615 0.785767-33.3901 2.32898c-10.963 1.57013-20.7508 3.81335-30.1842 6.70032c-9.29898 2.84583-17.8079 6.17828-25.9944 9.59161c-3.7569 1.56641-7.45712 3.15802-11.1369 4.75922c-4.37143 1.90009-8.7128 3.81268-13.0567 5.72479l-120.737 53.1457c-7.50537 3.30365-15.0127 6.60541-22.4706 9.92999c-6.28526 2.79865-12.5327 5.61279-18.6811 8.46997c-13.3981 6.22614-26.4785 12.6974-37.649 19.7695c-11.332 7.17444-20.137 14.6182-26.3001 22.9559C165.084 697.689 162 706.271 162 714.888c0 0.0369263 0.0023499 0.0737915 0.0024872 0.110718H162v35.1148h0.0001984c0 0.0030518-0.0001984 0.0062256-0.0001984 0.0093384c0 8.61761 3.08429 17.1992 9.14171 25.394c6.1631 8.33771 14.9682 15.7815 26.3002 22.9559c11.1704 7.07208 24.2508 13.5433 37.649 19.7694c6.14842 2.85724 12.3958 5.67139 18.6811 8.46997c7.45793 3.32446 14.9653 6.62622 22.4707 9.92993l123.253 54.2529c4.34393 1.91211 8.68539 3.82465 13.0568 5.72473c3.67987 1.6012 7.3801 3.19287 11.1369 4.75922c8.18668 3.41333 16.6956 6.74573 25.9945 9.59161c9.43344 2.8869 19.2212 5.13019 30.1843 6.7002C490.643 919.214 501.927 920 513.258 920c11.3311 0 22.615-0.785767 33.3901-2.32904c10.9631-1.57013 20.7509-3.81335 30.1843-6.70038c9.29895-2.84583 17.8079-6.17828 25.9944-9.59161c3.7569-1.56647 7.45709-3.15802 11.137-4.75934c4.37134-1.89996 8.71277-3.81262 13.0567-5.72473l120.737-53.1456c7.50537-3.30371 15.0127-6.60547 22.4707-9.93011c6.28522-2.79858 12.5326-5.61267 18.681-8.46991c13.3981-6.2262 26.4785-12.6974 37.6489-19.7695c11.332-7.17444 20.137-14.6182 26.3-22.9559C858.916 768.429 862 759.847 862 751.23c0-0.37207-0.0134888-0.743958-0.0249023-1.11584H862v-35.1148H861.978z" fill="url(#SVGID_1_)" fill-rule="evenodd" style="fill-rule:evenodd;clip-rule:evenodd;fill:url(#SVGID_1_);"/>
 </g>
</svg>
