<?xml version="1.0" encoding="UTF-8"?>
<!--Generator: Apple Native CoreSVG 361-->
<!DOCTYPE svg
PUBLIC "-//W3C//DTD SVG 1.1//EN"
       "http://www.w3.org/Graphics/SVG/1.1/DTD/svg11.dtd">
<svg version="1.1" xmlns="http://www.w3.org/2000/svg" xmlns:xlink="http://www.w3.org/1999/xlink" viewBox="0 0 1024 1024">
 <defs>
  <linearGradient id="SVGID_1_" x1="325.548" y1="328.607" x2="698.452" y2="543.903" gradientUnits="userSpaceOnUse">
   <stop offset="0" stop-color="#aaaaaa" stop-opacity="1"/>
   <stop offset="0.85" stop-color="#ffffff" stop-opacity="1"/>
   <stop offset="0.888415" stop-color="#fcfcfc" stop-opacity="1"/>
   <stop offset="0.919262" stop-color="#f2f2f2" stop-opacity="1"/>
   <stop offset="0.947482" stop-color="#e1e1e1" stop-opacity="1"/>
   <stop offset="0.97398" stop-color="#c9c9c9" stop-opacity="1"/>
   <stop offset="0.999331" stop-color="#ababab" stop-opacity="1"/>
   <stop offset="1" stop-color="#aaaaaa" stop-opacity="1"/>
  </linearGradient>
 </defs>
 <g/>
 <g id="scroll.middle">
  <path d="M705.991 530.845c2.49823-4.32703 4.99786-8.65222 7.46869-12.9951c2.08325-3.65674 4.14496-7.32465 6.14978-11.0251c4.36865-8.06372 8.52502-16.3419 11.6467-25.0082c3.16675-8.7915 5.10999-17.5535 5.60455-26.917c0.486023-9.20285-0.486877-18.4431-2.87207-27.345c-2.38519-8.9017-6.16284-17.3905-11.1852-25.1174c-5.11005-7.86163-11.1739-14.4782-18.3121-20.5086c-7.03656-5.94431-14.7752-11.0352-22.5905-15.8342c-3.58636-2.20236-7.20587-4.34811-10.8383-6.47318c-4.31122-2.52554-8.63855-5.02161-12.9656-7.51984l-73.1331-42.2234l-51.8333-29.926l-67.3094-38.861l9.16e-05-0.0002899c-37.1738-21.4623-49.9105-68.9961-28.4482-106.17L318.009 341.664c-2.49823 4.32712-4.99786 8.65225-7.46875 12.9951c-2.08325 3.65674-4.14484 7.32455-6.14972 11.0251c-4.36862 8.0636-8.52505 16.3419-11.6466 25.0081c-3.16678 8.7915-5.11002 17.5535-5.60455 26.917c-0.486054 9.20285 0.486816 18.4432 2.87204 27.345c2.38519 8.9017 6.16281 17.3905 11.1853 25.1174c5.11002 7.86163 11.1739 14.4782 18.312 20.5086c7.03656 5.94431 14.7752 11.0352 22.5905 15.8342c3.5864 2.20236 7.20593 4.34811 10.8383 6.47321c4.31122 2.52551 8.63855 5.02155 12.9656 7.51978l73.1331 42.2234l51.8333 29.9259l67.3094 38.8611l-6.1e-05 0.0002441c37.1738 21.4623 49.9104 68.9962 28.4482 106.17L705.991 530.845z" fill="url(#SVGID_1_)" style="fill:url(#SVGID_1_);"/>
 </g>
</svg>
