<?xml version="1.0" encoding="UTF-8"?>
<!--Generator: Apple Native CoreSVG 361-->
<!DOCTYPE svg
PUBLIC "-//W3C//DTD SVG 1.1//EN"
       "http://www.w3.org/Graphics/SVG/1.1/DTD/svg11.dtd">
<svg version="1.1" xmlns="http://www.w3.org/2000/svg" xmlns:xlink="http://www.w3.org/1999/xlink" viewBox="0 0 1024 1024">
 <defs>
  <linearGradient id="SVGID_1_" x1="512" y1="1024" x2="512" y2="200.338" gradientUnits="userSpaceOnUse">
   <stop offset="0" stop-color="#5e8cf3" stop-opacity="1"/>
   <stop offset="1" stop-color="#a0c8f5" stop-opacity="1"/>
  </linearGradient>
 </defs>
 <g/>
 <g id="wrench.extended">
  <path d="M808.886 207.297C793.664 192.367 768 203.036 768 224.358v153.841v134.545v33.0582c0 2.44379 0.0009155 4.88672-0.0124512 7.3382c-0.0102539 2.06427-0.0308228 4.13409-0.0791626 6.21973c-0.105225 4.5448-0.333801 9.19977-1.02411 14.0326c-0.700256 4.90271-1.84314 9.74921-3.64484 14.8765c-1.77081 5.03949-4.08472 10.0515-6.84503 14.8325c-2.76025 4.78094-5.94391 9.29089-9.42279 13.3442c-3.53955 4.12396-7.16534 7.53699-11.061 10.5948c-3.84021 3.01428-7.7572 5.53967-11.6405 7.90326c-1.7821 1.08459-3.56427 2.13733-5.34686 3.17834c-2.11639 1.2373-4.23248 2.45801-6.34882 3.67987l-145.149 83.8017c-2.11633 1.22186-4.23151 2.44409-6.36127 3.65826c-1.79285 1.02325-3.59564 2.04034-5.42596 3.04138c-3.98859 2.18121-8.13416 4.31079-12.6647 6.12933c-4.59601 1.84491-9.36462 3.27838-14.7059 4.28174c-5.24969 0.986206-10.7472 1.48834-16.2678 1.48834s-11.0181-0.502136-16.2678-1.48834c-5.34125-1.00336-10.1099-2.43683-14.7059-4.28174c-4.53052-1.81854-8.67609-3.94812-12.6647-6.12933c-1.83032-1.00104-3.63312-2.01813-5.42596-3.04138c-2.12976-1.21417-4.24493-2.4364-6.36127-3.65826l-145.149-83.8017c-2.11633-1.22186-4.23242-2.44257-6.34882-3.67987c-1.78259-1.04102-3.56476-2.09375-5.34686-3.17834c-3.8833-2.36359-7.80029-4.88898-11.6405-7.90326c-3.89569-3.0578-7.52148-6.47083-11.061-10.5948c-3.47888-4.05328-6.66254-8.56323-9.42279-13.3442c-2.76031-4.78101-5.07422-9.79303-6.84503-14.8325c-1.8017-5.12732-2.94458-9.97382-3.64484-14.8765c-0.690308-4.83282-0.918884-9.48779-1.02411-14.0326c-0.0483398-2.08563-0.0689087-4.15546-0.0791626-6.21973C255.999 550.688 256 548.245 256 545.802v-33.0582V378.198V224.363c0-21.3324-25.6727-31.9897-40.9012-17.051C136.217 284.693 87.4488 392.661 88.0047 512.019c0.718567 154.271 83.329 288.695 206.618 362.285C318.943 888.821 334 914.898 334 943.222V1024h356v-80.9771c0-28.2843 15.0074-54.3452 39.283-68.8606C853.097 800.129 936 664.748 936 510C936 391.436 887.332 284.243 808.886 207.297z" fill="url(#SVGID_1_)" style="fill:url(#SVGID_1_);"/>
 </g>
</svg>
