<?xml version="1.0" encoding="UTF-8"?>
<!--Generator: Apple Native CoreSVG 361-->
<!DOCTYPE svg
PUBLIC "-//W3C//DTD SVG 1.1//EN"
       "http://www.w3.org/Graphics/SVG/1.1/DTD/svg11.dtd">
<svg version="1.1" xmlns="http://www.w3.org/2000/svg" xmlns:xlink="http://www.w3.org/1999/xlink" viewBox="0 0 1024 1024">
 <g/>
 <g id="Layer_16">
  <g>
   <g>
    <path d="M537.263 403.274c-6.14899 2.11139-11.6982 4.25146-16.6415 6.4212c-4.94537 2.17075-9.2869 3.25665-13.0225 3.25665c-3.8605 0-8.17133-1.02347-12.9325-3.0755c-4.76523-2.04898-9.85797-4.06927-15.2844-6.0589c-5.42639-1.98959-11.2141-2.98441-17.364-2.98441c-11.5764 0-22.7617 3.16455-33.5531 9.49567c-10.7934 6.33115-19.6249 15.6774-26.4984 28.0357c-6.87357 12.3614-10.3093 27.6457-10.3093 45.8531c0 17.0017 2.86264 33.8561 8.59094 50.5549c5.72626 16.7039 12.6305 30.842 20.7108 42.4174c6.99228 9.76788 13.8065 18.15 20.4395 25.1423c6.62997 6.99432 14.3489 10.4905 23.1517 10.4905c5.7887 0 10.8221-0.966186 15.1032-2.89435c4.27911-1.92615 8.80179-3.85846 13.566-5.7887c4.76114-1.92615 10.6993-2.89233 17.8164-2.89233c7.35458 0 13.2047 0.935486 17.5442 2.80225c4.34149 1.87091 8.56226 3.73975 12.6622 5.60858c4.09796 1.86682 9.34424 2.80225 15.7368 2.80225c9.52435 0 17.6957-3.61694 24.5078-10.8528c6.81213-7.23383 13.174-15.1309 19.0834-23.6952c6.75281-9.88458 11.604-18.8705 14.5618-26.9498c2.95166-8.07715 4.48889-12.3604 4.61169-12.8434c-0.243591-0.118774-2.26184-1.20361-6.0589-3.25665c-3.79907-2.04901-8.14056-5.27289-13.0245-9.67584c-4.88397-4.40088-9.16406-10.2203-12.8424-17.4561c-3.67828-7.23383-5.51642-16.0356-5.51642-26.4073c0-9.0433 1.44714-16.8503 4.34149-23.4229c2.89435-6.57062 6.2677-11.997 10.1282-16.2792c3.85846-4.28012 7.35461-7.53473 10.4925-9.76791c3.13385-2.23013 4.88196-3.52686 5.24426-3.88916c-6.27179-9.0433-13.2354-15.5239-20.8909-19.4437c-7.65955-3.91782-14.6826-6.30045-21.0731-7.14481c-6.39252-0.842285-10.9142-1.26602-13.5649-1.26602C549.985 400.11 543.412 401.166 537.263 403.274z"/>
    <path d="M557.702 358.959c2.77356-6.81113 4.16138-13.8372 4.16138-21.072c0-2.17078-0.18219-4.03857-0.542419-5.60754c-6.9964 0.243591-14.353 2.3519-22.0679 6.33112c-7.71893 3.97922-14.1074 8.98395-19.1735 15.0132c-3.97925 4.46231-7.5368 10.1006-10.6706 16.9117c-3.13794 6.81421-4.70383 13.8372-4.70383 21.072c0 1.08591 0.0593567 2.11142 0.18219 3.0755c0.118713 0.966156 0.239471 1.62732 0.36026 1.98962c1.20358 0.242554 2.47061 0.361267 3.79907 0.361267c6.39047 0 13.1413-1.89954 20.2584-5.6976c7.11304-3.79807 13.0225-8.52951 17.7263-14.1985C551.373 371.833 554.926 365.774 557.702 358.959z"/>
   </g>
  </g>
 </g>
</svg>
