<?xml version="1.0" encoding="UTF-8"?>
<!--Generator: Apple Native CoreSVG 361-->
<!DOCTYPE svg
PUBLIC "-//W3C//DTD SVG 1.1//EN"
       "http://www.w3.org/Graphics/SVG/1.1/DTD/svg11.dtd">
<svg version="1.1" xmlns="http://www.w3.org/2000/svg" xmlns:xlink="http://www.w3.org/1999/xlink" viewBox="0 0 1024 1024">
 <g/>
 <g id="camera">
  <path d="M679 643.356c0 4.53033 0.0018921 9.06-0.0267334 13.5903c-0.0219116 3.8158-0.065918 7.6308-0.169373 11.4454c-0.225281 8.31262-0.714539 16.6974-2.1922 24.9177c-1.49908 8.33917-3.9455 16.1005-7.80219 23.6772c-3.79059 7.44696-8.74371 14.2618-14.6524 20.1705s-12.7235 10.8618-20.1705 14.6524c-7.57678 3.85669-15.3381 6.3031-23.6772 7.80219c-8.22034 1.47766-16.6051 1.96692-24.9177 2.1922c-3.81464 0.103455-7.62964 0.147461-11.4454 0.169373C569.416 762.002 564.886 762 560.356 762H267.644c-4.53033 0-9.05997 0.0018921-13.5903-0.0267334c-3.81581-0.0219116-7.63081-0.065918-11.4455-0.169373c-8.31259-0.225281-16.6974-0.714539-24.9177-2.1922c-8.33919-1.49908-16.1005-3.9455-23.6773-7.80219c-7.44693-3.79059-14.2618-8.74371-20.1705-14.6524c-5.90871-5.90869-10.8618-12.7235-14.6524-20.1705c-3.85669-7.57678-6.3031-15.3381-7.80215-23.6772c-1.47769-8.22034-1.96693-16.6051-2.19225-24.9177c-0.103394-3.81464-0.1474-7.62964-0.169327-11.4454c-0.0286255-4.53033-0.0267181-9.06-0.0267181-13.5903V380.644c0-4.53033-0.0019073-9.05994 0.0267181-13.5903c0.0219269-3.8158 0.0659332-7.6308 0.169327-11.4455c0.225311-8.31259 0.714554-16.6974 2.19225-24.9177c1.49905-8.33917 3.94547-16.1005 7.80215-23.6773c3.79059-7.44693 8.74373-14.2617 14.6524-20.1705c5.90869-5.90869 12.7235-10.8618 20.1705-14.6524c7.57681-3.85672 15.3381-6.30313 23.6773-7.80219c8.22031-1.47766 16.6051-1.96692 24.9177-2.19223c3.81467-0.103394 7.62967-0.1474 11.4455-0.169342c4.53032-0.0286255 9.05995-0.0267029 13.5903-0.0267029H560.356c4.53033 0 9.06-0.0019226 13.5903 0.0267029c3.8158 0.0219421 7.6308 0.0659485 11.4454 0.169342c8.31262 0.225311 16.6974 0.714569 24.9177 2.19223c8.33917 1.49905 16.1005 3.94547 23.6772 7.80219c7.44696 3.79059 14.2618 8.74371 20.1705 14.6524c5.90869 5.90872 10.8618 12.7235 14.6524 20.1705c3.85669 7.57681 6.3031 15.3381 7.80219 23.6773c1.47766 8.22031 1.96692 16.6051 2.1922 24.9177c0.103455 3.81467 0.147461 7.62967 0.169373 11.4455C679.002 371.584 679 376.114 679 380.644V643.356z" fill="#FFFFFF" style="fill:#FFFFFF;"/>
 </g>
</svg>
