<?xml version="1.0" encoding="UTF-8"?>
<!--Generator: Apple Native CoreSVG 361-->
<!DOCTYPE svg
PUBLIC "-//W3C//DTD SVG 1.1//EN"
       "http://www.w3.org/Graphics/SVG/1.1/DTD/svg11.dtd">
<svg version="1.1" xmlns="http://www.w3.org/2000/svg" xmlns:xlink="http://www.w3.org/1999/xlink" viewBox="0 0 1024 1024">
 <defs>
  <linearGradient id="SVGID_1_" x1="512" y1="812" x2="512" y2="212" gradientUnits="userSpaceOnUse">
   <stop offset="0" stop-color="#fd3159" stop-opacity="1"/>
   <stop offset="1" stop-color="#fd5464" stop-opacity="1"/>
  </linearGradient>
 </defs>
 <g/>
 <g id="news">
  <path d="M811.969 665.805c-0.0352173-1.87445-0.111816-3.80609-0.342956-5.85602c-0.234497-2.07959-0.617248-4.1795-1.22064-6.45923c-0.593018-2.24066-1.36792-4.52338-2.2923-6.75507c-0.924439-2.23169-1.9906-4.39374-3.15564-6.39746c-1.18542-2.03864-2.3996-3.79419-3.70422-5.43048c-1.28607-1.61298-2.59784-3.03296-3.89832-4.38336c-0.596863-0.61969-1.19366-1.2262-1.79065-1.82806c-0.70874-0.715088-1.41736-1.42328-2.12616-2.13208L397.437 230.562c-0.708801-0.708786-1.41702-1.4174-2.13208-2.12621c-0.601868-0.59697-1.20847-1.19379-1.82809-1.79059c-1.35034-1.30051-2.77039-2.61229-4.3833-3.89832c-1.63635-1.30463-3.39188-2.51891-5.43051-3.70422c-2.00369-1.16507-4.16577-2.23126-6.39749-3.15565s-4.51434-1.69928-6.75504-2.29231c-2.27972-0.603394-4.37967-0.98613-6.45923-1.22063c-2.04993-0.231171-3.98157-0.307724-5.85599-0.342972c-0.860199-0.0162048-1.71112-0.0230713-2.55878-0.0265045c-1.00687-0.0044556-2.00873-0.0041656-3.01108-0.0041656h-35.625c-4.00934 0-8.0181-0.0017242-12.0274 0.0236206c-3.37698 0.0194092-6.75327 0.0583649-10.1293 0.149872c-7.35663 0.199402-14.7771 0.632401-22.0522 1.94011c-7.38016 1.32666-14.2489 3.49176-20.9543 6.90491c-6.59055 3.35472-12.6217 7.7382-17.8509 12.9674c-5.2292 5.22922-9.61269 11.2604-12.9673 17.8509c-3.41321 6.70544-5.57825 13.5742-6.90491 20.9543c-1.30777 7.27496-1.74077 14.6955-1.94017 22.0522c-0.091507 3.37601-0.130463 6.75223-0.149872 10.1293c-0.0253448 4.00931-0.0236206 8.01801-0.0236206 12.0274V352.625c0 1.00235-0.0002899 2.00421 0.0041656 3.01108c0.0034332 0.847656 0.0102997 1.69858 0.0265045 2.55878c0.0352478 1.87442 0.111801 3.80606 0.342972 5.85599c0.234497 2.07956 0.617233 4.1795 1.22063 6.45923c0.593033 2.24063 1.36792 4.52332 2.29231 6.75504s1.99059 4.39374 3.15565 6.39749c1.18538 2.03864 2.3996 3.79416 3.70422 5.43045c1.28603 1.61298 2.59781 3.03302 3.89832 4.38336c0.596802 0.619629 1.19362 1.22623 1.79059 1.82809c0.708801 0.715057 1.41742 1.42328 2.12621 2.13208l396.002 396.002c0.708801 0.708801 1.41699 1.41742 2.13208 2.12616c0.601868 0.596985 1.20844 1.19379 1.82806 1.79065c1.3504 1.30048 2.77039 2.61218 4.38336 3.89832c1.63629 1.30463 3.39185 2.5188 5.43048 3.70422c2.00372 1.16504 4.16577 2.2312 6.39746 3.15564c2.23175 0.924377 4.5144 1.69928 6.75507 2.2923c2.27972 0.603394 4.37964 0.986084 6.45923 1.22064c2.04993 0.23114 3.98157 0.307739 5.85602 0.342956c0.860169 0.0161743 1.71112 0.0230713 2.55878 0.0264893C669.371 812 670.373 812 671.375 812H707c4.00928 0 8.01807 0.0016479 12.0274-0.0236816c3.37695-0.0193481 6.75323-0.0583496 10.1293-0.149841c7.35657-0.199402 14.7771-0.632385 22.0521-1.94019c7.38019-1.32666 14.2489-3.4917 20.9543-6.90491c6.59052-3.35468 12.6217-7.73822 17.8509-12.9673c5.22919-5.22919 9.61267-11.2604 12.9673-17.8509c3.41321-6.70551 5.57825-13.5742 6.90491-20.9543c1.3078-7.27502 1.74078-14.6956 1.94019-22.0521c0.0914917-3.37604 0.130493-6.75232 0.149841-10.1293C812.002 715.018 812 711.009 812 707v-35.625c0-1.00232 0.0002441-2.00421-0.0042114-3.01105C811.992 667.516 811.985 666.665 811.969 665.805zM811.976 304.973c-0.0193481-3.37704-0.0583496-6.75327-0.149841-10.1293c-0.199402-7.35663-0.632385-14.7772-1.94019-22.0522c-1.32666-7.38016-3.4917-14.2489-6.90491-20.9543c-3.35468-6.59055-7.73816-12.6217-12.9673-17.8509c-5.22919-5.2292-11.2604-9.61269-17.8509-12.9674c-6.70544-3.41315-13.5742-5.57825-20.9543-6.90491c-7.27502-1.30771-14.6956-1.74071-22.0521-1.94011c-3.37604-0.091507-6.75232-0.130463-10.1293-0.149872c-4.00934-0.0253448-8.01813-0.0236206-12.0274-0.0236206H568.25c-3.06244 0-9.375 0-10.8989 5.62494c-1.51874 5.60606 3.34894 8.26172 7.14893 10.3875c96.928 54.2231 177.264 134.56 231.487 231.488c1.93842 3.46506 4.81024 8.65982 10.3875 7.1489C812 465.125 812 459.303 812 455.75V317C812 312.991 812.002 308.982 811.976 304.973zM459.5 795.905c-96.9281-54.2231-177.264-134.56-231.488-231.487c-1.9384-3.46509-4.81023-8.65979-10.3874-7.14893c-5.625 1.52386-5.625 7.34631-5.625 10.8989v138.75c0 4.00934-0.0016632 8.01807 0.0236816 12.0273c0.0193939 3.37708 0.0583038 6.7533 0.149857 10.1293c0.199356 7.35663 0.632355 14.7772 1.94012 22.0521c1.32666 7.38019 3.4917 14.2489 6.90491 20.9543c3.35466 6.59052 7.7382 12.6217 12.9674 17.8509s11.2603 9.61267 17.8508 12.9674c6.70547 3.41315 13.5742 5.57825 20.9544 6.90491c7.27496 1.30774 14.6955 1.74072 22.0521 1.94012c3.37598 0.0914917 6.75226 0.130432 10.1292 0.149841c4.00937 0.0253906 8.01807 0.0236206 12.0274 0.0236206H455.75c3.0625 0 9.375 0 10.8989-5.62494C468.168 800.687 463.3 798.031 459.5 795.905z" fill="url(#SVGID_1_)" style="fill:url(#SVGID_1_);"/>
 </g>
</svg>
