<?xml version="1.0" encoding="UTF-8"?>
<!--Generator: Apple Native CoreSVG 361-->
<!DOCTYPE svg
PUBLIC "-//W3C//DTD SVG 1.1//EN"
       "http://www.w3.org/Graphics/SVG/1.1/DTD/svg11.dtd">
<svg version="1.1" xmlns="http://www.w3.org/2000/svg" xmlns:xlink="http://www.w3.org/1999/xlink" viewBox="0 0 1024 1024">
 <g/>
 <g id="lines">
  <path d="M896 512c0 2.15259-0.707703 4.24878-2.0141 5.96167c-1.31403 1.72266-3.13232 2.93823-5.21436 3.52051c-0.989075 0.276611-1.98236 0.400391-3.00208 0.45874c-1.12225 0.0644531-2.24384 0.0588379-3.36652 0.0588379H141.597c-1.12268 0-2.24426 0.0056152-3.36652-0.0588379c-1.01971-0.0583496-2.013-0.182129-3.00208-0.45874c-2.08203-0.582275-3.90033-1.79785-5.21436-3.52051C128.708 516.249 128 514.153 128 512c0-2.1543 0.707703-4.24902 2.0141-5.96191c1.31403-1.72266 3.13232-2.93823 5.21436-3.52051c0.989075-0.276367 1.98236-0.400147 3.00208-0.458496c1.12225-0.0644531 2.24384-0.059082 3.36652-0.059082h740.806c1.12268 0 2.24426-0.0053711 3.36652 0.059082c1.01971 0.0583496 2.013 0.182129 3.00208 0.458496c2.08203 0.582275 3.90033 1.79785 5.21436 3.52051C895.292 507.751 896 509.846 896 512z" fill="#C8C8C8" style="fill:#C8C8C8;"/>
  <path d="M896 768c0 2.15259-0.707703 4.24878-2.0141 5.96167c-1.31403 1.72266-3.13232 2.93823-5.21436 3.52051c-0.989075 0.276611-1.98236 0.400391-3.00208 0.45874c-1.12225 0.0644531-2.24384 0.0588379-3.36652 0.0588379H141.597c-1.12268 0-2.24426 0.0056152-3.36652-0.0588379c-1.01971-0.0583496-2.013-0.182129-3.00208-0.45874c-2.08203-0.582275-3.90033-1.79785-5.21436-3.52051C128.708 772.249 128 770.153 128 768c0-2.1543 0.707703-4.24902 2.0141-5.96191c1.31403-1.72266 3.13232-2.93823 5.21436-3.52051c0.989075-0.276367 1.98236-0.400147 3.00208-0.458496c1.12225-0.0644531 2.24384-0.059082 3.36652-0.059082h740.806c1.12268 0 2.24426-0.0053711 3.36652 0.059082c1.01971 0.0583496 2.013 0.182129 3.00208 0.458496c2.08203 0.582275 3.90033 1.79785 5.21436 3.52051C895.292 763.751 896 765.846 896 768z" fill="#C8C8C8" style="fill:#C8C8C8;"/>
  <g>
   <circle cx="960" cy="290" fill="#C8C8C8" r="12" style="fill:#C8C8C8;"/>
   <circle cx="768" cy="290" fill="#C8C8C8" r="12" style="fill:#C8C8C8;"/>
   <circle cx="832" cy="290" fill="#C8C8C8" r="12" style="fill:#C8C8C8;"/>
   <circle cx="896" cy="290" fill="#C8C8C8" r="12" style="fill:#C8C8C8;"/>
   <circle cx="640" cy="290" fill="#C8C8C8" r="12" style="fill:#C8C8C8;"/>
   <circle cx="704" cy="290" fill="#C8C8C8" r="12" style="fill:#C8C8C8;"/>
   <circle cx="448" cy="290" fill="#C8C8C8" r="12" style="fill:#C8C8C8;"/>
   <circle cx="512" cy="290" fill="#C8C8C8" r="12" style="fill:#C8C8C8;"/>
   <circle cx="576" cy="290" fill="#C8C8C8" r="12" style="fill:#C8C8C8;"/>
   <circle cx="320" cy="290" fill="#C8C8C8" r="12" style="fill:#C8C8C8;"/>
   <circle cx="384" cy="290" fill="#C8C8C8" r="12" style="fill:#C8C8C8;"/>
   <circle cx="128" cy="290" fill="#C8C8C8" r="12" style="fill:#C8C8C8;"/>
   <circle cx="192" cy="290" fill="#C8C8C8" r="12" style="fill:#C8C8C8;"/>
   <circle cx="256" cy="290" fill="#C8C8C8" r="12" style="fill:#C8C8C8;"/>
   <circle cx="64" cy="290" fill="#C8C8C8" r="12" style="fill:#C8C8C8;"/>
  </g>
 </g>
</svg>
