<?xml version="1.0" encoding="UTF-8"?>
<!--Generator: Apple Native CoreSVG 361-->
<!DOCTYPE svg
PUBLIC "-//W3C//DTD SVG 1.1//EN"
       "http://www.w3.org/Graphics/SVG/1.1/DTD/svg11.dtd">
<svg version="1.1" xmlns="http://www.w3.org/2000/svg" xmlns:xlink="http://www.w3.org/1999/xlink" viewBox="0 0 1024 1024">
 <path d="M512 185c-217.784 0-375 130.037-375 309c0 59.0772 17.1421 112.817 47.9296 158.313c-0.0830536 0.0169678-0.165802 0.032959-0.249161 0.0496216c34.7938 50.2125 33.5051 84.975 14.1752 114.587c-7.1049 11.155-13.5712 16.4932-18.9164 20.4661c-7.33708 5.45337-4.70285 15.4577 4.5119 15.4577c42.04 0 90.8774-20.0685 123.281-45.2066C365.371 786.677 434.88 803 512 803c217.784 0 375-130.038 375-309S729.784 185 512 185z" fill="#FFFFFF" style="fill:#FFFFFF;"/>
</svg>
