<?xml version="1.0" encoding="UTF-8"?>
<!--Generator: Apple Native CoreSVG 361-->
<!DOCTYPE svg
PUBLIC "-//W3C//DTD SVG 1.1//EN"
       "http://www.w3.org/Graphics/SVG/1.1/DTD/svg11.dtd">
<svg version="1.1" xmlns="http://www.w3.org/2000/svg" xmlns:xlink="http://www.w3.org/1999/xlink" viewBox="0 0 1024 1024">
 <g/>
 <g id="keyyellow">
  <g>
   <path d="M477 351c0-96.0975-77.9023-174-174-174s-174 77.9025-174 174c0 82.6888 57.6807 151.903 135 169.609v86.3832v174v16.834c0 13.0278 0.632324 23.821 8.61523 34.2279C279.79 841.414 291.146 847 303 847s23.2104-5.58643 30.3848-14.9462C341.368 821.647 342 810.854 342 797.826v-16.834h30c1.06934 0 2.13818 0.0003662 3.20703-0.0063477c0.900879-0.005249 1.80127-0.015625 2.70117-0.0400391c1.96191-0.0532227 3.94092-0.168579 5.88086-0.517334c1.96777-0.35376 3.7998-0.931152 5.58789-1.84131c1.75732-0.894531 3.36572-2.06348 4.76025-3.45801c1.39404-1.39453 2.56299-3.00269 3.45801-4.76025c0.910156-1.78809 1.4873-3.61975 1.84131-5.58789c0.348633-1.93994 0.463867-3.9187 0.51709-5.88049c0.0244141-0.900269 0.034668-1.80066 0.0400391-2.70117C400 755.13 400 754.061 400 752.992V634.992c0-1.06921 0.0004883-2.13818-0.0063477-3.20728c-0.0053711-0.900635-0.015625-1.80103-0.0400391-2.70117c-0.0532227-1.96179-0.168457-3.94067-0.51709-5.88062c-0.354004-1.96802-0.931152-3.7998-1.84131-5.58789c-0.895019-1.75745-2.06396-3.36572-3.45801-4.76025c-1.39453-1.39441-3.00293-2.56335-4.76025-3.45801c-1.78809-0.910156-3.62012-1.48755-5.58789-1.84131c-1.93994-0.348633-3.91895-0.464111-5.88086-0.517334c-0.899902-0.0244141-1.80029-0.034668-2.70117-0.039917c-1.06885-0.0067139-2.1377-0.0062256-3.20703-0.0062256h-30v-86.3832C419.319 502.903 477 433.689 477 351zM303 245c24.3008 0 44 19.6995 44 44s-19.6992 44-44 44s-44-19.6995-44-44S278.699 245 303 245z" fill="#F6CC46" style="fill:#F6CC46;"/>
  </g>
 </g>
</svg>
