<?xml version="1.0" encoding="UTF-8"?>
<!--Generator: Apple Native CoreSVG 361-->
<!DOCTYPE svg
PUBLIC "-//W3C//DTD SVG 1.1//EN"
       "http://www.w3.org/Graphics/SVG/1.1/DTD/svg11.dtd">
<svg version="1.1" xmlns="http://www.w3.org/2000/svg" xmlns:xlink="http://www.w3.org/1999/xlink" viewBox="0 0 1024 1024">
 <g/>
 <g id="keygreen">
  <g>
   <path d="M686 351c0-96.0975-77.9023-174-174-174s-174 77.9025-174 174c0 73.4988 45.572 136.352 110 161.85V529v66v24v66v78c0 1.06909-0.0004883 2.13782 0.0043945 3.21179c0.0039062 0.904175 0.0112305 1.81189 0.0283203 2.72937c0.0375977 1.99939 0.119141 4.05981 0.365723 6.24634c0.25 2.21826 0.658691 4.45825 1.30225 6.88989c0.632324 2.39014 1.45898 4.82495 2.44482 7.20532c0.986328 2.38062 2.12354 4.68677 3.36621 6.82397c1.26465 2.17456 2.55957 4.04712 3.95117 5.7926c1.37158 1.72046 2.771 3.23523 4.1582 4.67554c0.636719 0.661011 1.27344 1.30798 1.91016 1.94995c0.755859 0.762817 1.51172 1.51819 2.26758 2.27429l24.4023 24.4019c0.755859 0.756104 1.51123 1.51233 2.27246 2.26355c0.640137 0.633179 1.28418 1.26233 1.93799 1.88171c1.4248 1.34961 2.90576 2.66724 4.52393 3.79236c1.64209 1.14148 3.34521 2.02844 5.25342 2.64917c1.875 0.610229 3.83887 0.920776 5.81104 0.920776s3.93604-0.310547 5.81104-0.920776c1.9082-0.620727 3.61133-1.50769 5.25342-2.64917c1.61816-1.12512 3.09912-2.44275 4.52393-3.79236c0.653809-0.619385 1.29785-1.24854 1.93799-1.88171c0.761231-0.751221 1.5166-1.50745 2.27246-2.26355l59.5112-59.511c0.358887-0.358887 0.717773-0.717529 1.07666-1.07959c0.302246-0.304688 0.604492-0.611816 0.906738-0.925537c0.658203-0.683838 1.32275-1.40283 1.97363-2.21948c0.660644-0.828613 1.27539-1.71741 1.87549-2.74976c0.589844-1.0144 1.12988-2.10925 1.59814-3.23926c0.467773-1.12988 0.860352-2.28577 1.16064-3.42029c0.305664-1.15442 0.499023-2.21765 0.618164-3.27063c0.116699-1.03784 0.155762-2.01599 0.17334-2.96509c0.0083008-0.435547 0.0117188-0.866455 0.0136719-1.29565c0.0019531-0.509766 0.0019531-1.01709 0.0019531-1.52454v-6.00024c0-0.507446 0-1.01477-0.0019531-1.52454c-0.0019531-0.429199-0.0053711-0.860107-0.0136719-1.29565c-0.0175781-0.949097-0.0566406-1.92725-0.17334-2.96509c-0.119141-1.05298-0.3125-2.11621-0.618164-3.27063c-0.300293-1.13452-0.692871-2.29041-1.16064-3.42029c-0.468262-1.13-1.0083-2.22485-1.59814-3.23926c-0.600098-1.03235-1.21484-1.92114-1.87549-2.74976c-0.650879-0.81665-1.31543-1.53564-1.97363-2.21948c-0.302246-0.313721-0.604492-0.62085-0.906738-0.925537c-0.358887-0.362061-0.717773-0.720703-1.07666-1.07959L564 697l25.2012-25.201c0.755859-0.755981 1.51221-1.5116 2.26318-2.27234c0.633301-0.640381 1.2627-1.28442 1.88184-1.93823c1.34961-1.4248 2.66699-2.90564 3.79248-4.52405c1.1416-1.64172 2.02832-3.34521 2.64893-5.25317c0.610352-1.87537 0.920898-3.83911 0.920898-5.81116s-0.310547-3.93579-0.920898-5.81116c-0.620606-1.90796-1.50732-3.61145-2.64893-5.25317c-1.12549-1.61841-2.44287-3.09924-3.79248-4.52405c-0.619141-0.653809-1.24854-1.29785-1.88184-1.93823c-0.750977-0.760742-1.50732-1.51636-2.26318-2.27234L564 607l25.2012-25.2009c0.755859-0.756104 1.51221-1.51172 2.26318-2.27246c0.633301-0.640381 1.2627-1.28442 1.88184-1.93823c1.34961-1.4248 2.66699-2.90564 3.79248-4.52405c1.1416-1.64172 2.02832-3.34521 2.64893-5.25317c0.610352-1.87537 0.920898-3.83911 0.920898-5.81116s-0.310547-3.93579-0.920898-5.81116c-0.620606-1.90796-1.50732-3.61145-2.64893-5.25317c-1.12549-1.61841-2.44287-3.09924-3.79248-4.52405c-0.619141-0.653809-1.24854-1.29785-1.88184-1.93823c-0.750977-0.760742-1.50732-1.51636-2.26318-2.27246l-25.1304-25.1302C634.73 494.938 686 428.958 686 351zM512 333c-24.3008 0-44-19.6995-44-44s19.6992-44 44-44s44 19.6995 44 44S536.301 333 512 333z" fill="#62D467" style="fill:#62D467;"/>
  </g>
 </g>
</svg>
