<?xml version="1.0" encoding="UTF-8"?>
<!--Generator: Apple Native CoreSVG 361-->
<!DOCTYPE svg
PUBLIC "-//W3C//DTD SVG 1.1//EN"
       "http://www.w3.org/Graphics/SVG/1.1/DTD/svg11.dtd">
<svg version="1.1" xmlns="http://www.w3.org/2000/svg" xmlns:xlink="http://www.w3.org/1999/xlink" viewBox="0 0 1024 1024">
 <g/>
 <g id="keyblue">
  <g>
   <path d="M721.425 245c24.4648 0 44.2981 19.833 44.2981 44.2983c0 24.4648-19.8333 44.2981-44.2981 44.2981c-24.4651 0-44.2985-19.8333-44.2985-44.2981C677.127 264.833 696.96 245 721.425 245zM794.159 529.702v-19.6623c60.1008-27.8258 101.665-88.8982 101.051-159.624c-0.834045-96.0461-78.4116-172.763-174.461-172.579c-95.9804 0.183243-173.48 77.5399-173.783 173.564c-0.221985 70.308 41.235 130.943 101.057 158.64v19.6623c0 5.96307 0.224182 10.9033 3.87811 15.6667c3.28381 4.28412 8.48163 6.84113 13.9077 6.84113l0 0l0 0v254.489c0 10.5999 0.398438 19.3817 6.89362 27.8491c5.83728 7.61542 15.0769 12.1607 24.7221 12.1607h14.7215c5.77246 0 11.3544-2.06555 15.7365-5.82318l42.4886-36.4343c3.84351-3.84351 6.00275-9.05646 6.00275-14.492v-60.7844c-6.1e-05-8.1709-4.58978-15.5048-11.6935-19.5423c-7.40497-4.20868-11.9731-12.067-11.9731-20.576v-11.9634c0-8.28754 4.61945-15.7296 11.7759-19.9091c7.22821-4.22144 11.8907-11.7386 11.8907-20.1028v-84.8707h6.1e-05h-6.1e-05c5.42603 0 10.6238-2.55701 13.9077-6.84113c3.65393-4.76343 3.87811-9.70367 3.87811-15.6667H794.159z" fill="#3090FF" style="fill:#3090FF;"/>
  </g>
 </g>
</svg>
