<?xml version="1.0" encoding="UTF-8"?>
<!--Generator: Apple Native CoreSVG 361-->
<!DOCTYPE svg
PUBLIC "-//W3C//DTD SVG 1.1//EN"
       "http://www.w3.org/Graphics/SVG/1.1/DTD/svg11.dtd">
<svg version="1.1" xmlns="http://www.w3.org/2000/svg" xmlns:xlink="http://www.w3.org/1999/xlink" viewBox="0 0 1024 1024">
 <g/>
 <g id="hexagon_copy">
  <path d="M567.426 755.603c-2.11633 1.22192-4.23151 2.44409-6.36127 3.65833c-1.79285 1.02325-3.59564 2.04034-5.42596 3.04132c-3.98859 2.18121-8.13416 4.31079-12.6647 6.12933c-4.59601 1.84491-9.36462 3.27838-14.7059 4.2818c-5.24969 0.986145-10.7472 1.48828-16.2678 1.48828c-5.5206 0-11.0181-0.502136-16.2678-1.48828c-5.34125-1.00342-10.1099-2.43689-14.7059-4.2818c-4.53049-1.81854-8.67609-3.94812-12.6646-6.12933c-1.83035-1.00098-3.63312-2.01807-5.42596-3.04132c-2.12976-1.21423-4.2449-2.4364-6.3613-3.65833l-145.149-83.8016c-2.11639-1.22192-4.23245-2.44263-6.34882-3.67993c-1.78259-1.04102-3.56482-2.09369-5.34686-3.17834c-3.8833-2.36359-7.80032-4.88898-11.6405-7.9032c-3.89572-3.05786-7.52145-6.47083-11.061-10.5948c-3.47891-4.05328-6.66251-8.56323-9.42282-13.3442c-2.76028-4.78101-5.07419-9.79303-6.845-14.8325c-1.8017-5.12732-2.94455-9.97382-3.64484-14.8765c-0.690338-4.83282-0.918884-9.48779-1.02414-14.0326c-0.0483093-2.08563-0.0688477-4.1554-0.0791016-6.21967C255.999 580.688 256 578.245 256 575.802v-167.603c0-2.44379-0.000885-4.88669 0.0124817-7.3382c0.0102539-2.06427 0.0307922-4.13406 0.0791016-6.2197c0.105255-4.54483 0.333801-9.19977 1.02414-14.0326c0.700287-4.90271 1.84314-9.74921 3.64484-14.8766c1.77081-5.03946 4.08472-10.0515 6.845-14.8325c2.76031-4.78098 5.94391-9.29089 9.42282-13.3442c3.53958-4.12396 7.16531-7.53696 11.061-10.5948c3.84021-3.01425 7.75723-5.53964 11.6405-7.90323c1.78204-1.08463 3.56427-2.13733 5.34686-3.17834c2.11636-1.23734 4.23242-2.45801 6.34882-3.6799l145.149-83.8017c2.11639-1.22191 4.23154-2.44412 6.3613-3.65829c1.79285-1.02327 3.59561-2.04036 5.42596-3.04134c3.98856-2.18126 8.13416-4.31079 12.6646-6.12938c4.59604-1.84488 9.36465-3.27838 14.7059-4.28174c5.24969-0.986175 10.7472-1.4883 16.2678-1.4883c5.52063 0 11.0181 0.502121 16.2678 1.4883c5.34125 1.00336 10.1099 2.43686 14.7059 4.28174c4.53052 1.81859 8.67609 3.94812 12.6647 6.12938c1.83032 1.00098 3.63312 2.01807 5.42596 3.04134c2.12976 1.21417 4.24493 2.43639 6.36127 3.65829l145.149 83.8017c2.11633 1.22189 4.23242 2.44257 6.34882 3.6799c1.78259 1.04102 3.56476 2.09372 5.34686 3.17834c3.8833 2.36359 7.80029 4.88898 11.6405 7.90323c3.89569 3.05783 7.52148 6.47083 11.061 10.5948c3.47888 4.05331 6.66254 8.56323 9.42279 13.3442c2.76031 4.78098 5.07422 9.79303 6.84503 14.8325c1.8017 5.12735 2.94458 9.97385 3.64484 14.8766c0.690308 4.83282 0.918884 9.48776 1.02411 14.0326c0.0483398 2.08563 0.0689087 4.15543 0.0791626 6.2197C768.001 403.312 768 405.755 768 408.198v167.603c0 2.44379 0.0009155 4.88666-0.0124512 7.3382c-0.0102539 2.06427-0.0308228 4.13403-0.0791626 6.21967c-0.105225 4.5448-0.333801 9.19977-1.02411 14.0326c-0.700256 4.90271-1.84314 9.74921-3.64484 14.8765c-1.77081 5.03949-4.08472 10.0515-6.84503 14.8325c-2.76025 4.78094-5.94391 9.29089-9.42279 13.3442c-3.53955 4.12402-7.16534 7.53699-11.061 10.5948c-3.84021 3.01422-7.7572 5.53961-11.6405 7.9032c-1.7821 1.08466-3.56427 2.13733-5.34686 3.17834c-2.11639 1.2373-4.23248 2.45801-6.34882 3.67993L567.426 755.603zM354.67 483.4c1.57169 1.5726 3.353 2.33453 5.34705 2.28061c1.99002-0.0519409 3.72043-0.864746 5.18921-2.43735c19.2882-20.5464 41.4352-36.1411 66.4388-46.7822c25.0027-10.6391 51.7598-15.9612 80.2762-15.9612c28.7231 0 55.6129 5.34601 80.6706 16.039c25.0546 10.6941 47.1746 26.3157 66.3589 46.8611c1.46686 1.46979 3.1463 2.17773 5.03253 2.1228c1.88715-0.0509338 3.61755-0.864654 5.19025-2.43735l21.6996-21.6996c1.362-1.46783 2.06891-2.98859 2.12384-4.56119c0.0509644-1.57266-0.500244-3.03946-1.65259-4.4025c-12.2646-15.1993-27.7805-28.75-46.5455-40.6493c-18.767-11.8973-39.524-21.2812-62.2711-28.149c-22.751-6.86475-46.2869-10.2996-70.6066-10.2996c-24.3227 0-47.8576 3.40787-70.6066 10.2217c-22.749 6.81589-43.506 16.1969-62.271 28.148c-18.767 11.9512-34.2798 25.5289-46.5455 40.7281c-1.05045 1.36304-1.54871 2.82983-1.4938 4.4025c0.0509338 1.5726 0.70694 3.09335 1.96509 4.56119L354.67 483.4M419.928 549.131c1.67651 1.57269 3.51178 2.28058 5.50381 2.12384c1.99103-0.157776 3.77536-1.0744 5.34702-2.75189c9.43591-10.4824 21.3861-19.1304 35.8545-25.9473c14.4664-6.81281 29.5619-10.1668 45.2874-10.064c15.9332-0.102844 31.1355 3.33002 45.6039 10.3006c14.4664 6.9726 26.5204 15.7006 36.1671 26.1819c1.4668 1.57263 3.11829 2.35846 4.95258 2.35846s3.58966-0.785828 5.26917-2.35846l24.3736-24.2169c1.25812-1.25812 1.93811-2.698 2.04395-4.32458c0.102844-1.62354-0.420349-3.11731-1.57263-4.48132c-7.8623-9.74939-17.7964-18.4505-29.7995-26.104c-12.0042-7.65057-25.4231-13.7056-40.256-18.1619c-14.8358-4.45538-30.4276-6.68307-46.7821-6.68307s-31.9493 2.22769-46.7822 6.68307c-14.8358 4.4563-28.2269 10.5113-40.177 18.1619c-11.9511 7.65353-21.9133 16.3546-29.8784 26.104c-1.1543 1.36401-1.70447 2.83081-1.65158 4.40344c0.0519409 1.57269 0.759888 3.04144 2.12286 4.40247L419.928 549.131M511.921 634.676c1.78134 0 3.56265-0.49823 5.34702-1.49377c1.78131-0.997498 4.19171-3.01447 7.23322-6.05389l38.3697-36.7971c1.15228-1.15228 1.85925-2.54016 2.1228-4.16681c0.259644-1.62451-0.184692-3.11829-1.33698-4.4823c-5.13727-6.60413-12.2926-12.3685-21.465-17.2972c-9.17426-4.92664-19.2632-7.39093-30.2708-7.39093c-11.3221 0-21.5968 2.57013-30.821 7.70551c-9.2262 5.13733-16.4075 11.1124-21.5438 17.9262c-0.734924 1.25812-0.97055 2.57019-0.70694 3.93115c0.259613 1.36395 1.02148 2.62207 2.28058 3.77435l38.211 36.7971c3.03949 2.93359 5.44989 4.9256 7.23318 5.97504C508.356 634.15 510.138 634.676 511.921 634.676" fill="#FFFFFF" style="fill:#FFFFFF;"/>
 </g>
</svg>
