<?xml version="1.0" encoding="UTF-8"?>
<!--Generator: Apple Native CoreSVG 361-->
<!DOCTYPE svg
PUBLIC "-//W3C//DTD SVG 1.1//EN"
       "http://www.w3.org/Graphics/SVG/1.1/DTD/svg11.dtd">
<svg version="1.1" xmlns="http://www.w3.org/2000/svg" xmlns:xlink="http://www.w3.org/1999/xlink" viewBox="0 0 1024 1024">
 <defs>
  <linearGradient id="SVGID_1_" x1="-7.21581" y1="509.415" x2="908.832" y2="509.415" gradientUnits="userSpaceOnUse">
   <stop offset="0.395689" stop-color="#46d58e" stop-opacity="1"/>
   <stop offset="0.635873" stop-color="#48d58f" stop-opacity="1"/>
   <stop offset="0.722388" stop-color="#4fd793" stop-opacity="1"/>
   <stop offset="0.784077" stop-color="#5ada9b" stop-opacity="1"/>
   <stop offset="0.833969" stop-color="#6bdda5" stop-opacity="1"/>
   <stop offset="0.876692" stop-color="#81e2b2" stop-opacity="1"/>
   <stop offset="0.914515" stop-color="#9de9c3" stop-opacity="1"/>
   <stop offset="0.948742" stop-color="#bdf0d7" stop-opacity="1"/>
   <stop offset="0.979165" stop-color="#e1f8ed" stop-opacity="1"/>
   <stop offset="1" stop-color="#ffffff" stop-opacity="1"/>
  </linearGradient>
 </defs>
 <g/>
 <g id="ecgline">
  <path d="M918.603 607.346c-4.03125-6.70508-11.4004-10.8701-19.2324-10.8701c-4.05371 0-8.04102 1.10938-11.5322 3.20801c-2.75586 1.65625-5.73633 2.96875-9.37207 4.12988c-3.16699 0.99707-6.36816 1.75586-9.51465 2.25293c-1.53418 0.244141-3.1416 0.447266-4.75098 0.601562l-0.479492 0.0400391c-0.636719 0.0537109-1.27344 0.108398-1.91992 0.141602l-1.18164 0.0673828l-1.06738 0.0371094c-0.705078 0.0263672-1.40723 0.0410156-2.10742 0.0410156c-2.07422 0-3.92773-0.125-5.68652-0.386719c-5.07129-0.699219-9.71094-2.44336-13.7949-5.18457c-3.97559-2.65137-7.73828-6.43066-11.1875-11.2383c-3.44824-4.7627-6.42871-10.2773-9.13965-15.5332c-0.826172-1.58887-1.6416-3.2041-2.46777-4.84082c-2.13477-4.22754-4.34277-8.59961-7.0166-13.0811c-1.57715-2.625-3.75684-6.0791-6.62598-9.51953c-3.0127-3.63965-6.42578-6.65918-10.1602-8.98438c-4.38184-2.66992-9.45801-4.36523-14.2549-4.76953c-1.13477-0.118164-2.29883-0.178711-3.45898-0.178711c-3.91699 0-7.88574 0.688477-11.4902 1.99316c-4.37695 1.61523-8.6084 4.25195-12.2295 7.61816c-3.63672 3.34277-6.32715 6.88477-8.04199 9.26953c-3.86133 5.43945-6.8418 10.7588-9.72461 15.9023l-1.11816 1.99219c-3.27637 5.86816-6.25488 11.1143-9.52148 15.8975c-3.54199 5.20312-7.04004 9.24805-10.6914 12.3613c-3.91113 3.31836-8.18457 5.67383-12.7109 7.00098c-2.29883 0.686523-4.75098 1.15332-7.2793 1.38672c-1.29004 0.112305-2.59863 0.175781-3.89062 0.1875l-0.308594 0.0019531c-1.05469 0-2.02832-0.0556641-3.05371-0.171875c-4.30566-0.519531-8.32715-2.18652-12.2969-5.09863c-3.67285-2.67969-7.39941-6.54199-11.0752-11.4785c-3.13477-4.21484-6.22852-9.16895-9.45801-15.1455c-2.61914-4.84277-5.24902-10.1973-8.27539-16.8496c-3.35254-7.37793-6.62207-15.1104-9.7832-22.5889c-1.85449-4.38672-3.71973-8.79883-5.63379-13.2207c-5.09961-11.7334-10.6924-24.2197-18.0254-36.543c-4.21094-7.01123-8.20117-12.6226-12.5586-17.6616c-5.66016-6.52588-11.5127-11.4971-17.8799-15.1909c-7.21094-4.24902-15.7549-6.78662-24.0547-7.14551c-0.961914-0.0424805-1.9043-0.0649414-2.83691-0.0649414c-1.14062 0-2.22656 0.0327148-3.31055 0.0996094c-2.18066 0.123535-4.18066 0.339844-6.09863 0.658691c-4.05762 0.644043-8.07617 1.74756-11.9395 3.27832c-7.13867 2.81006-13.9062 7.16406-20.1138 12.9399c-5.01221 4.65283-9.70703 10.2031-14.3564 16.9736c-8.10449 11.9043-14.1587 24.5405-19.4956 36.4272c-3.09229 6.93652-6.03613 13.9404-8.8833 20.7148c-2.13867 5.08887-4.3501 10.3516-6.5625 15.4316c-4.90771 11.2246-10.3535 22.999-16.9131 33.0557c-3.52783 5.37988-6.9751 9.61133-10.541 12.9414c-3.83984 3.60449-7.89697 6.10449-12.0469 7.42773c-2.21338 0.69043-4.37061 1.0752-6.62598 1.17969c-0.567871 0.0351562-1.07178 0.0351562-1.73877 0.0371094l-0.678223-0.0078125c-0.472168-0.0048828-0.943848-0.0087891-1.46191-0.0341797c-1.40967-0.0361328-2.81836-0.149414-4.11279-0.264648c-5.52588-0.541992-10.7393-1.82812-15.5029-3.82617c-4.56738-1.89355-9.12256-4.58105-14.3442-8.46484c-1.97803-1.45215-3.95557-3.02051-6.04932-4.68066c-3.06104-2.42871-6.22656-4.93848-9.85498-7.46094c-3.72803-2.56641-7.06885-4.46094-10.5103-5.96191c-4.10596-1.80176-8.53467-3.01465-12.8135-3.50879c-1.13623-0.12793-2.25439-0.217773-3.31982-0.264648c-0.408691-0.0185547-0.81543-0.0253906-1.22266-0.0322266l-0.729004-0.0107422c-0.345215 0-0.727539 0.0107422-1.10107 0.0214844l-0.470215 0.0126953c-2.51221 0.116211-5.04297 0.527344-7.51807 1.22168c-4.35742 1.21387-8.61572 3.37305-12.6597 6.41992c-3.14746 2.38086-6.08887 5.22656-8.99561 8.70508c-2.3623 2.83984-4.54443 5.88965-6.6709 9.32129c-3.45508 5.57422-6.54053 11.6523-9.7124 19.1357c-4.71875 11.2344-8.66943 23.2041-12.8101 38.8145c-3.11963 11.8652-5.97119 24.6465-8.71777 39.0752c-3.27051 17.2793-7.72845 70.0078-8.854 90.5813l-41.9795-600.604c-0.0112305-0.187012-0.0288086-0.452148-0.0893555-0.970703c-0.0917969-0.822754-0.208496-1.71289-0.421387-2.58105c-0.788086-3.74902-2.80273-7.44873-5.52393-10.1475c-2.73193-2.72119-6.1875-4.625-9.99512-5.50635c-1.6416-0.378418-3.31348-0.569824-4.97021-0.569824c-1.95703 0-3.91455 0.266602-5.81445 0.791992c-3.7666 1.03564-7.24805 3.16455-9.78467 5.97412c-2.55225 2.75098-4.34521 6.40381-5.04053 10.2437c-0.0708008 0.348145-0.115234 0.685059-0.158203 1.02441l-0.0400391 0.309082c-0.0478516 0.385254-0.112793 0.973144-0.127441 1.18213l-36.2124 462.529c-0.215332-0.237305-0.431152-0.472656-0.647949-0.706055c-2.32861-2.56641-4.74121-5.0957-7.1665-7.51074c-4.93018-4.94434-10.2383-9.64551-15.7861-13.9795c-2.78906-2.15234-5.7002-4.24707-8.6626-6.23438c-2.91846-1.93164-5.98193-3.80664-9.1084-5.57617c-5.72314-3.22559-11.9136-6.20996-18.9243-9.12598c-6.5791-2.73926-13.3481-5.21973-18.7847-7.21191l-9.14404-3.3623l-2.23486-0.834961l-2.03809-0.794922c-1.28174-0.525391-2.65234-1.09863-4.00342-1.72266c-5.30029-2.42285-10.314-5.3291-14.9053-8.63965c-8.41699-6.04688-15.7344-13.6904-21.7495-22.7188L0 556.446v37.0906c3.01105 2.72131 6.15607 5.27942 9.38477 7.5976c5.8584 4.22461 12.2363 7.92383 18.9512 10.9932c1.43164 0.660156 2.97607 1.32422 5.03809 2.16699l2.52148 0.983398l2.33887 0.87207l9.24902 3.40234c12.6099 4.59863 23.8853 8.87988 34.1904 14.7158c9.90625 5.53125 19.1909 12.6855 28.3877 21.875c2.14697 2.13574 4.28613 4.37891 6.37842 6.68652c0.727539 0.779297 1.43506 1.58496 2.14209 2.3916l1.84229 2.08301c0.596191 0.666992 1.22803 1.2959 1.87793 1.86719c1.3833 1.21484 2.90088 2.24902 4.5166 3.0752c3.00342 1.52539 6.38623 2.33105 9.78369 2.33105c0.297852 0 0.595215-0.0058594 0.895019-0.0185547c3.57812-0.157227 7.10889-1.19531 10.2119-3.00098c3.18115-1.85449 5.85205-4.51367 7.7251-7.68945c0.919922-1.56055 1.64551-3.26953 2.15137-5.05957c0.270508-0.921875 0.436523-1.80273 0.584473-2.67285c0.111328-0.78418 0.216309-1.87402 0.226074-2.13574l33.5459-426.26l43.8501 609.173c0.0478516 0.515625 0.108398 1.03027 0.190918 1.59961c0.0927734 0.538086 0.211914 1.08594 0.349121 1.66113c0.154297 0.594727 0.349609 1.18164 0.529297 1.70312c0.862793 2.39453 2.32617 4.68457 4.11279 6.43945c1.76367 1.75391 3.93994 3.14844 6.28906 4.03027c2.06641 0.780273 4.24658 1.17676 6.48047 1.17676l0.383301-0.0039062c2.37451-0.0498047 4.67627-0.540039 6.83936-1.45508c2.32715-0.979492 4.45801-2.48926 6.15625-4.3584c1.6792-1.83008 3.01904-4.15625 3.77002-6.54004c0.354004-1.10449 0.601074-2.22754 0.73291-3.32227c0.0830078-0.641602 0.115234-1.02441 0.120606-1.11035l0.477051-5.45703c1.18311-13.3008 2.49609-26.3271 3.90186-38.7148c3.2915-28.8711 6.98291-70.2572 11.2842-92.9769c2.64062-13.876 5.37158-26.123 8.34766-37.4395c3.77539-14.2656 7.49756-25.5762 11.7119-35.5928c2.62598-6.20996 5.23828-11.3799 7.98779-15.8066c3.19873-5.15918 6.56738-9.14941 9.7417-11.5381c1.64697-1.2373 3.22119-2.06738 4.68701-2.46777c0.736816-0.204102 1.43701-0.320312 2.10254-0.351562c0.105957 0 0.588867-0.0097656 0.588867-0.0097656l0.819824 0.0195312c0.530762 0.0244141 1.05469 0.0683594 1.55566 0.12207c2.01758 0.237305 3.99072 0.786133 6.0332 1.67578c1.96924 0.856445 4.09082 2.07617 6.4873 3.72754c2.60693 1.79395 5.32471 3.94531 8.20264 6.22363c2.24365 1.77637 4.56348 3.6123 7.02344 5.43555c6.71826 5.00293 13.0625 8.70898 19.3848 11.3271c6.9668 2.92871 14.5103 4.80176 22.4307 5.56641c2.26025 0.206055 4.00244 0.318359 5.61035 0.362305c0.706543 0.0332031 1.4082 0.0410156 2.11084 0.0478516l0.727051 0.0087891c1.01221 0 2.09082-0.0087891 3.09473-0.0693359c4.24854-0.200195 8.50439-0.963867 12.6533-2.27246c7.49902-2.375 14.8193-6.78809 21.1665-12.7607c5.0415-4.72168 9.56396-10.2266 14.2378-17.333c7.8584-12.0898 13.6147-24.7168 18.8398-36.6201c2.31201-5.31348 4.56689-10.6777 6.74707-15.8652c2.7915-6.63965 5.67773-13.5068 8.61328-20.0869c4.61621-10.3174 10.2915-22.2656 17.3828-32.6504c7.39258-10.8555 15.293-17.9707 23.4932-21.1533c2.25391-0.891113 4.58301-1.53027 6.94238-1.90332c1.10156-0.186035 2.28613-0.313477 3.6377-0.390625c0.614258-0.0395508 1.27246-0.0600586 1.95605-0.0600586c0.572266 0 1.13477 0.0141602 1.66602 0.0371094c4.65527 0.228027 9.08691 1.55225 13.1787 3.93945c3.98438 2.30273 7.94629 5.71533 11.7764 10.1436c3.37695 3.8999 6.68164 8.56836 10.0996 14.2676c6.30176 10.5703 11.7012 22.4692 16.5957 33.7524c1.85059 4.27441 3.67383 8.58789 5.50781 12.9268c3.21777 7.61328 6.54492 15.4854 10.0859 23.2842c3.2666 7.1748 6.12988 12.998 9.01172 18.3291c3.84082 7.09863 7.4375 12.8369 11.3203 18.0635c5.26562 7.04102 10.3975 12.2881 16.1504 16.5127c3.45117 2.53613 7.14551 4.63477 10.9834 6.23926c4.01367 1.66992 8.25684 2.78613 12.6182 3.32031c1.89258 0.224609 3.93359 0.34375 5.90527 0.34375l0.507812-0.0029297c1.95117-0.015625 3.9375-0.112305 5.9082-0.288086c4.11523-0.379883 8.12988-1.14844 11.9316-2.2832c4.00293-1.19336 7.83984-2.79883 11.4092-4.77441c3.46582-1.92676 6.8291-4.2627 10.002-6.94824c5.30176-4.52637 10.1973-10.125 14.9648-17.1162c4.10156-6.01562 7.57715-12.2275 10.6436-17.709l0.462891-0.827148c3.02832-5.41309 5.88867-10.5264 8.94922-14.8135c1.66699-2.3291 3.2627-4.19434 4.75781-5.55859c1.38574-1.29199 2.7793-2.19629 4.2002-2.74121c1.05859-0.368164 2.11914-0.546875 3.24121-0.546875c0.374023 0 0.760742 0.0205078 1.18555 0.0644531c1.46582 0.124023 2.71973 0.537109 4.18555 1.37598c2.70996 1.57031 5.99316 5.24414 9.24609 10.3486c2.41406 3.7627 4.74707 7.91504 7.21777 12.3115c0.755859 1.3457 1.51953 2.70605 2.29688 4.07324c3.07812 5.40625 6.83789 11.748 11.3877 17.791c5.20801 6.88184 10.5615 12.2031 16.3467 16.2529c6.31055 4.5459 13.9375 7.90137 22.0664 9.70508c3.90234 0.847656 7.82324 1.38281 11.6494 1.5918l2.62207 0.149414c0.609375 0.0322266 1.21875 0.0839844 1.82715 0.134766l0.537109 0.0449219c1.63574 0.15625 3.24316 0.359375 4.7793 0.603516c3.14453 0.49707 6.3457 1.25488 9.50488 2.25098c3.64453 1.16309 6.625 2.47656 9.38379 4.13574c3.49609 2.09082 7.5 3.19629 11.5801 3.19629c0.0009766 0 0.0009766 0 0.0019531 0c4.05176 0 8.03418-1.10645 11.5156-3.19922c5.13281-3.08496 8.75586-7.98438 10.2031-13.7959C922.591 618.505 921.688 612.478 918.603 607.346z" fill="url(#SVGID_1_)" style="fill:url(#SVGID_1_);"/>
 </g>
</svg>
