<?xml version="1.0" encoding="UTF-8"?>
<!--Generator: Apple Native CoreSVG 361-->
<!DOCTYPE svg
PUBLIC "-//W3C//DTD SVG 1.1//EN"
       "http://www.w3.org/Graphics/SVG/1.1/DTD/svg11.dtd">
<svg version="1.1" xmlns="http://www.w3.org/2000/svg" xmlns:xlink="http://www.w3.org/1999/xlink" viewBox="0 0 1024 1024">
 <g/>
 <g id="back">
  <g id="back_00000142856688756444789970000014907704630977824156_">
   <path clip-rule="evenodd" d="M798.729 679.595v-0.0005493h14.2979c2.54474 0 5.0882 0.0062256 7.63153-0.0240479c1.27161-0.0151367 2.54321-0.0393677 3.81488-0.078125c1.27167-0.0386963 2.5434-0.0919189 3.81531-0.164917c4.62231-0.265137 9.12549-0.826111 13.6094-2.07971c9.43823-2.63904 17.6812-8.14978 23.6382-15.9597c5.92261-7.76514 9.13062-17.2605 9.13062-27.0266c0-9.75854-3.20801-19.261-9.13062-27.0261c-1.48926-1.95245-3.1214-3.76123-4.87933-5.41736c-3.95538-3.72632-8.54785-6.67981-13.5831-8.75873c-1.67847-0.692932-3.40607-1.28876-5.17572-1.78357c-1.77124-0.495178-3.5459-0.879028-5.32935-1.18256c-1.54205-0.262451-3.09088-0.463745-4.65057-0.616943c-0.109924-0.0108032-0.21991-0.0218506-0.329956-0.0322266c-1.09406-0.102783-2.19324-0.18457-3.29956-0.248047c-5.08759-0.291931-10.1722-0.26709-15.2617-0.26709h-14.2979v-0.0004883H607.557l52.3463 90.6667H798.729z" fill="#FFFFFF" fill-rule="evenodd" style="fill-rule:evenodd;clip-rule:evenodd;fill:#FFFFFF;"/>
   <path clip-rule="evenodd" d="M500.478 222.129c-0.636169-1.10193-1.27087-2.20428-1.90875-3.30469c-0.637817-1.10034-1.27893-2.19867-1.92786-3.29242c-1.29785-2.18738-2.62714-4.35638-4.02545-6.48645c-0.534424-0.814148-1.08398-1.61041-1.63947-2.40125c-2.08533-2.96899-4.33862-5.77332-6.96631-8.34473c-7.00464-6.85461-15.8984-11.2379-25.6404-12.4918c-1.81616-0.233704-3.63757-0.354248-5.45404-0.363648c-7.87122-0.0407715-15.6502 2.005-22.5169 5.9693c-0.528564 0.305176-1.05005 0.620727-1.56403 0.946289c-6.16785 3.90674-11.2659 9.25934-14.8649 15.5697c-0.89978 1.57758-1.70581 3.21503-2.41144 4.90472c-1.65601 3.96539-2.7121 8.08966-3.17242 12.2698c-0.13147 1.19427-0.214417 2.39319-0.248718 3.59424c-0.0172119 0.600525-0.0222168 1.2016-0.0151367 1.80292c0.0141602 1.20258 0.0767822 2.40613 0.187866 3.60822c0.055542 0.601074 0.123169 1.20172 0.20282 1.80176c0.239075 1.80005 0.586975 3.59412 1.04333 5.37415c0.2547 0.993347 0.54364 1.96832 0.854248 2.93268c0.923523 2.86694 2.07581 5.62177 3.38403 8.33984c0.249756 0.518921 0.505005 1.03656 0.765198 1.55353c2.29102 4.552 4.85492 8.94293 7.39935 13.3503l90.2566 156.329l52.3461-90.666L500.478 222.129z" fill="#FFFFFD" fill-rule="evenodd" style="fill-rule:evenodd;clip-rule:evenodd;fill:#FFFFFD;"/>
   <g>
    <path clip-rule="evenodd" d="M222.926 743.523c-2.54468 4.40741-5.1084 8.79858-7.39941 13.3506c-2.08154 4.13544-3.84717 8.3158-5.00342 12.8257c-2.43408 9.49341-1.7832 19.3875 2.0022 28.4512c3.76343 9.01184 10.3889 16.5413 18.8401 21.4205c8.45752 4.88306 18.2849 6.8526 27.9709 5.6059c9.74194-1.25385 18.636-5.6369 25.6404-12.4915c3.32764-3.25635 6.06519-6.87573 8.60596-10.746c2.79639-4.26013 5.31738-8.67615 7.86206-13.0836l115.428-199.927H312.181L222.926 743.523z" fill="#FFFFFD" fill-rule="evenodd" style="fill-rule:evenodd;clip-rule:evenodd;fill:#FFFFFD;"/>
   </g>
  </g>
 </g>
</svg>
