<?xml version="1.0" encoding="UTF-8"?>
<!--Generator: Apple Native CoreSVG 361-->
<!DOCTYPE svg
PUBLIC "-//W3C//DTD SVG 1.1//EN"
       "http://www.w3.org/Graphics/SVG/1.1/DTD/svg11.dtd">
<svg version="1.1" xmlns="http://www.w3.org/2000/svg" xmlns:xlink="http://www.w3.org/1999/xlink" viewBox="0 0 1024 1024">
 <g/>
 <g id="up">
  <path clip-rule="evenodd" d="M469.013 588.928v0.0003662l-52.1403 0.0001221H312.181H210.973h-6.1e-05c-5.08929 0-10.1739-0.0248413-15.2615 0.26709c-4.62238 0.265137-9.12549 0.826172-13.6094 2.07977c-5.89899 1.64941-11.3311 4.42059-16.0298 8.17371c-2.34937 1.87659-4.51544 3.9986-6.46503 6.34869c-0.389893 0.470032-0.771179 0.949158-1.14349 1.43726c-1.48065 1.94128-2.79163 3.99115-3.92523 6.1264c-0.283447 0.533875-0.555725 1.07306-0.816833 1.61719c-2.87225 5.9856-4.38855 12.5735-4.38855 19.2825c0 6.71417 1.5163 13.3004 4.38855 19.2844c0.261108 0.543945 0.533386 1.08301 0.816833 1.6167c1.13361 2.13477 2.44458 4.1842 3.92523 6.12549c1.11694 1.46436 2.31421 2.8479 3.58472 4.14679c0.423462 0.432983 0.855164 0.856506 1.29462 1.27057c2.84106 2.67645 6.01532 4.94653 9.44177 6.7879c0.540894 0.29071 1.08801 0.570312 1.64142 0.839111c2.44855 1.18921 5.01245 2.17059 7.6759 2.91528c2.06238 0.576599 4.12946 1.0014 6.20972 1.32355c0.85614 0.132568 1.71448 0.249023 2.57593 0.347717c0.978943 0.112183 1.96155 0.205994 2.94928 0.28186c0.622925 0.0478516 1.24738 0.0906372 1.87439 0.126587c5.08759 0.291931 10.1722 0.26709 15.2615 0.26709h6.1e-05h48.8622h104.692l104.486 0.0001831v0.0003662h189.313l-52.3463-90.6667H469.013z" fill="#FFFFFF" fill-rule="evenodd" style="fill-rule:evenodd;clip-rule:evenodd;fill:#FFFFFF;"/>
  <path clip-rule="evenodd" d="M616.294 228.699c-0.0343628-1.20099-0.11731-2.3999-0.248779-3.59424c-0.460327-4.18018-1.5163-8.30457-3.1723-12.27c-1.90143-4.55304-4.53406-8.72498-7.76233-12.3702c-0.765198-0.864075-1.56189-1.70032-2.39252-2.50299c-1.30048-1.25671-2.67896-2.43573-4.12885-3.52948c-1.44983-1.09375-2.97101-2.10223-4.55682-3.01776c-0.528198-0.304993-1.06183-0.598572-1.60046-0.880737c-1.61584-0.846558-3.27698-1.59015-4.97321-2.22894c-1.82159-0.685913-3.68506-1.24469-5.5752-1.68604c-3.38129-0.789551-6.85095-1.18933-10.3403-1.1734c-0.0092163 0-0.0183105-0.0004883-0.0275269-0.0004272c-1.81641 0.0093994-3.6377 0.129944-5.45386 0.363648c-2.43555 0.313477-4.81805 0.82251-7.13129 1.51691c-6.93976 2.08313-13.2559 5.83398-18.5094 10.9746c-0.415955 0.407044-0.797363 0.836121-1.19562 1.25427c-2.20782 2.31793-4.17163 4.79706-5.99066 7.4129c-0.478088 0.687561-0.956787 1.37415-1.41949 2.07904c-2.44702 3.7276-4.68225 7.57495-6.90771 11.431c-0.317932 0.550903-0.636352 1.10138-0.954468 1.65228l-5.86877 10.165l-5.86884 10.1651l-52.3459 90.6657L312.967 587.567h104.692l94.5565-163.776l52.3461-90.666l37.9105-65.663c2.54443-4.40765 5.1084-8.79858 7.39941-13.3503c2.08154-4.13562 3.84717-8.3158 5.00342-12.826c0.324402-1.26544 0.589844-2.53833 0.804504-3.81512C616.169 234.557 616.378 231.621 616.294 228.699z" fill="#FFFFFE" fill-rule="evenodd" style="fill-rule:evenodd;clip-rule:evenodd;fill:#FFFFFE;"/>
  <path clip-rule="evenodd" d="M808.904 756.873c-2.29102-4.55176-4.85474-8.94269-7.39941-13.3503L764.596 679.595l-52.3463-90.6667L608.546 409.309l0.0002441-0.0004272l-42.9103-74.3225l-52.3461 90.666l38.5399 66.7531l38.4268 66.5573l17.3008 29.9659l52.3463 90.6667l63.0818 109.261c2.54492 4.40741 5.06567 8.82318 7.8623 13.0833c2.54077 3.87048 5.27808 7.48987 8.60571 10.7462c7.00464 6.85437 15.8984 11.2377 25.6406 12.4915c9.68604 1.2467 19.5132-0.722839 27.9709-5.6059c8.45142-4.87939 15.0767-12.4086 18.8401-21.4205c3.78516-9.06396 4.43604-18.9578 2.0022-28.4512C812.751 765.189 810.986 761.009 808.904 756.873z" fill="#FFFFFF" fill-rule="evenodd" style="fill-rule:evenodd;clip-rule:evenodd;fill:#FFFFFF;"/>
 </g>
</svg>
