<?xml version="1.0" encoding="UTF-8"?>
<!--Generator: Apple Native CoreSVG 361-->
<!DOCTYPE svg
PUBLIC "-//W3C//DTD SVG 1.1//EN"
       "http://www.w3.org/Graphics/SVG/1.1/DTD/svg11.dtd">
<svg version="1.1" xmlns="http://www.w3.org/2000/svg" xmlns:xlink="http://www.w3.org/1999/xlink" viewBox="0 0 1024 1024">
 <g/>
 <g id="note">
  <path d="M734.832 153.489c-2.47363 0.213867-24.4693 4.11972-27.1096 4.65884c0 0-228.434 45.6663-304.469 61.4271c-7.95334 1.64844-14.1514 4.48184-18.9757 8.53165c-5.80325 4.87141-9.02121 11.7476-10.2377 19.7625c-0.260223 1.71628-0.694488 5.16875-0.694488 10.3014c0 0 0.0056152 310.945 0.006073 380.913c0 8.89038-0.710175 17.562-6.73392 24.9219c-6.01999 7.35925-13.491 9.58942-22.2028 11.3451c-6.62347 1.33545-13.2481 2.67139-19.8715 4.00696c-25.143 5.07056-41.5005 8.50366-56.3242 14.2546c-14.1642 5.49622-24.7727 12.5-33.2189 21.3521c-16.7405 17.5455-23.5639 41.3598-21.2195 63.6531c2.00143 19.0231 10.5611 37.2252 25.2543 50.6991c9.91348 9.09119 22.3154 16.0078 36.9471 18.948c15.168 3.05072 31.3158 1.97699 54.9123-2.78192c12.5701-2.5343 24.3427-6.49487 35.5668-13.1219c11.0831-6.54279 20.5969-15.2658 28.0145-25.9083c7.44257-10.6754 12.2694-22.5293 14.9176-35.1317c2.72852-12.9877 3.39828-24.756 3.39828-37.721l0.0018921-330.39c0-17.7035 5.01517-22.3689 19.285-25.8168c0 0 252.991-51.0219 264.773-53.3187c16.4805-3.16849 24.2205 1.53601 24.2205 18.7937l-0.0054321 225.534c0 8.94489-0.0969849 17.963-6.16541 25.3778c-6.02277 7.35974-13.4905 9.58997-22.2038 11.3445c-6.62445 1.33594-13.2472 2.67151-19.8706 4.00702c-25.1451 5.07056-41.5026 8.5036-56.3242 14.2546c-14.1642 5.49622-24.7747 12.5005-33.2211 21.3527c-16.7404 17.5449-24.1631 41.3593-21.8197 63.6525c2.00128 19.0237 11.1625 37.2263 25.8546 50.6992c9.91443 9.09167 22.3163 15.8181 36.9481 18.7598c15.168 3.05078 31.3169 1.97607 54.9125-2.78186c12.5709-2.5343 24.3416-6.30627 35.5656-12.9327c11.084-6.54333 20.5967-15.2664 28.0164-25.9089c7.44159-10.6754 12.2683-22.5293 14.9166-35.1317c2.72748-12.9882 2.84534-24.7564 2.84534-37.7215V180.4C760.521 162.869 751.282 152.068 734.832 153.489z" fill="#FFFFFF" style="fill:#FFFFFF;"/>
 </g>
</svg>
