<?xml version="1.0" encoding="UTF-8"?>
<!--Generator: Apple Native CoreSVG 361-->
<!DOCTYPE svg
PUBLIC "-//W3C//DTD SVG 1.1//EN"
       "http://www.w3.org/Graphics/SVG/1.1/DTD/svg11.dtd">
<svg version="1.1" xmlns="http://www.w3.org/2000/svg" xmlns:xlink="http://www.w3.org/1999/xlink" viewBox="0 0 1024 1024">
 <defs>
  <linearGradient id="SVGID_1_" x1="514.943" y1="694.191" x2="514.943" y2="446.838" gradientUnits="userSpaceOnUse">
   <stop offset="0.0643601" stop-color="#ffffff" stop-opacity="0.1"/>
   <stop offset="0.999359" stop-color="#ffffff" stop-opacity="1"/>
  </linearGradient>
 </defs>
 <g/>
 <g id="tfilament">
  <path clip-rule="evenodd" d="M437.147 446.839v-0.0006104c-1.95154 0-3.90128-0.0095215-5.85211 0.102387c-1.77243 0.101685-3.49915 0.316773-5.21854 0.797516c-3.61917 1.01193-6.78 3.125-9.06418 6.11975c-2.27106 2.97754-3.50116 6.62131-3.50116 10.3633c0 3.74481 1.2301 7.38589 3.50116 10.3634c2.28418 2.99475 5.44501 5.10785 9.06418 6.11975c1.71939 0.480743 3.44611 0.695862 5.21854 0.797516c1.95084 0.111938 3.90057 0.102387 5.85211 0.102417v0.0001831h58.8943v193.18c0 5.82489 1.74854 10.5601 5.19623 14.0739c3.46713 3.53857 8.07794 5.33282 13.7042 5.33282c5.62256 0 10.2333-1.79358 13.7068-5.33234c3.44812-3.5177 5.19617-8.25287 5.19617-14.0743V481.604h58.8943v-0.0001831c1.95154-3.05e-05 3.90125 0.0095215 5.85211-0.102417c1.7724-0.101654 3.49915-0.316773 5.21851-0.797516c3.6192-1.0119 6.77997-3.125 9.06415-6.11975c2.27112-2.97751 3.50122-6.61859 3.50122-10.3634c0-3.74197-1.2301-7.38574-3.50122-10.3633c-2.28418-2.99475-5.44495-5.10782-9.06415-6.11975c-1.71936-0.480743-3.44611-0.695831-5.21851-0.797516c-1.95087-0.111908-3.90057-0.102387-5.85211-0.102387v0.0006104H437.147z" fill="url(#SVGID_1_)" fill-rule="evenodd" style="fill-rule:evenodd;clip-rule:evenodd;fill:url(#SVGID_1_);"/>
 </g>
</svg>
