<?xml version="1.0" encoding="UTF-8"?>
<!--Generator: Apple Native CoreSVG 361-->
<!DOCTYPE svg
PUBLIC "-//W3C//DTD SVG 1.1//EN"
       "http://www.w3.org/Graphics/SVG/1.1/DTD/svg11.dtd">
<svg version="1.1" xmlns="http://www.w3.org/2000/svg" xmlns:xlink="http://www.w3.org/1999/xlink" viewBox="0 0 1024 1024">
 <g/>
 <g id="house1">
  <g>
   <path d="M875.114 460.696H812v258c0 4.27661 0.00177 8.55255-0.0252686 12.8292c-0.0206909 3.60211-0.0621948 7.20349-0.159851 10.8045c-0.212646 7.84711-0.6745 15.7623-2.06946 23.5223c-1.4151 7.87219-3.72449 15.1989-7.36523 22.3514c-3.57831 7.02991-8.25409 13.4631-13.8319 19.0409c-5.57776 5.57782-12.011 10.2536-19.0409 13.8319c-7.15253 3.64069-14.4792 5.95013-22.3513 7.36523c-7.76001 1.39496-15.6752 1.85681-23.5223 2.06946c-3.60101 0.0976562-7.20239 0.13916-10.8045 0.159851c-4.27661 0.0270386-8.55261 0.0252686-12.8292 0.0252686H324c-4.27664 0-8.55258 0.00177-12.8292-0.0252686c-3.60214-0.0206909-7.20349-0.0621948-10.8045-0.159851c-7.84711-0.212646-15.7623-0.6745-23.5223-2.06946c-7.87219-1.4151-15.1989-3.72455-22.3513-7.36523c-7.02991-3.57831-13.4631-8.25409-19.0409-13.8319c-5.57782-5.57782-10.2536-12.011-13.8319-19.0409c-3.64072-7.15253-5.95013-14.4792-7.36523-22.3514c-1.39494-7.75995-1.8568-15.6752-2.06949-23.5223c-0.0975952-3.60101-0.139145-7.20239-0.159836-10.8045c-0.0270386-4.27667-0.0252228-8.55261-0.0252228-12.8292V460.696h-63.1141c-15.2169 0-21.8417-19.2397-9.85057-28.6082l337.662-263.81c1.34802-1.05319 2.69525-2.10664 4.05179-3.15318c1.14194-0.881973 2.29019-1.75864 3.45602-2.6214c2.54047-1.88008 5.18097-3.71559 8.06662-5.28307c2.9274-1.59015 5.96475-2.82571 9.36682-3.69055c3.34375-0.850006 6.84534-1.28279 10.3616-1.28279c3.51633 0 7.01791 0.432785 10.3617 1.28279c3.4021 0.864838 6.43939 2.1004 9.36682 3.69055c2.88562 1.56747 5.52612 3.40298 8.06659 5.28307c1.16583 0.862762 2.31409 1.73943 3.45605 2.6214c1.35651 1.04654 2.70374 2.09999 4.05176 3.15318L732 312.578v-54.8827c0-1.06915-0.0004883-2.13815 0.0062866-3.20731c0.005188-0.900528 0.015564-1.80087 0.039978-2.70113c0.0531616-1.96178 0.16864-3.94058 0.517334-5.88058c0.353821-1.96805 0.931152-3.7997 1.84131-5.58783c0.894592-1.75748 2.06354-3.36578 3.45801-4.76022c1.39441-1.39446 3.00275-2.5634 4.76019-3.45798c1.78815-0.910187 3.61981-1.48753 5.58783-1.84131c1.94-0.34874 3.91882-0.464203 5.88062-0.51738c0.900269-0.0243988 1.8006-0.0347748 2.70111-0.0399628c1.06915-0.0067444 2.13818-0.0063019 3.20734-0.0063019h24c1.06915 0 2.13812-0.0004425 3.20728 0.0063019c0.900574 0.005188 1.8009 0.015564 2.70117 0.0399628c1.96173 0.0531769 3.94055 0.16864 5.88055 0.51738c1.96802 0.353775 3.79968 0.931122 5.58783 1.84131c1.75745 0.894577 3.36578 2.06352 4.76025 3.45798c1.39441 1.39444 2.56335 3.00275 3.45795 4.76022c0.910156 1.78813 1.48755 3.61978 1.84131 5.58783c0.348755 1.94 0.464172 3.91881 0.517395 5.88058c0.024353 0.900253 0.03479 1.8006 0.039917 2.70113c0.0067749 1.06915 0.0063477 2.13815 0.0063477 3.20731v117.385l72.9648 57.0063C896.956 441.456 890.331 460.696 875.114 460.696z" fill="#FF9500" style="fill:#FF9500;"/>
  </g>
 </g>
</svg>
