<?xml version="1.0" encoding="UTF-8"?>
<!--Generator: Apple Native CoreSVG 361-->
<!DOCTYPE svg
PUBLIC "-//W3C//DTD SVG 1.1//EN"
       "http://www.w3.org/Graphics/SVG/1.1/DTD/svg11.dtd">
<svg version="1.1" xmlns="http://www.w3.org/2000/svg" xmlns:xlink="http://www.w3.org/1999/xlink" viewBox="0 0 1024 1024">
 <g/>
 <g id="house2">
  <g>
   <path d="M706.784 394.399c0.962891 0.752289 1.9256 1.50394 2.88843 2.26392c0.811035 0.639557 1.62189 1.28491 2.43262 1.94623c1.76672 1.4411 3.54883 2.96536 5.29596 4.72891c1.7724 1.78906 3.42194 3.7377 5.03229 6.03604c1.58276 2.25897 3.03119 4.7265 4.28699 7.30133c1.25586 2.57483 2.30859 5.23535 3.1142 7.87335c0.819702 2.68396 1.33966 5.18353 1.65826 7.68164c0.314087 2.46252 0.41803 4.80527 0.465942 7.08469c0.0219727 1.04605 0.031311 2.08231 0.0360107 3.11514c0.0060425 1.22665 0.0056763 2.44803 0.0056763 3.66992v259.796c0 1.71069 0.0006714 3.42108-0.0101318 5.13171c-0.0082397 1.44086-0.0249023 2.88141-0.0639038 4.32184c-0.085083 3.13879-0.269836 6.30493-0.82782 9.40887c-0.56604 3.14886-1.48981 6.07953-2.94611 8.94055c-1.43127 2.81195-3.30164 5.38525-5.53271 7.61639c-2.23114 2.23108-4.80444 4.10138-7.61639 5.53271c-2.86102 1.4563-5.79163 2.38007-8.94055 2.94611c-3.10394 0.557983-6.27008 0.742737-9.40887 0.82782c-1.44043 0.0390015-2.88098 0.0556641-4.32184 0.0639038c-1.71063 0.0108032-3.42102 0.0101318-5.13171 0.0101318H336.8c-1.71066 0-3.42105 0.0006714-5.13171-0.0101318c-1.44083-0.0082397-2.88138-0.0249023-4.32181-0.0639038c-3.13882-0.085083-6.30493-0.269836-9.40891-0.82782c-3.14886-0.56604-6.07953-1.48981-8.94055-2.94611c-2.81195-1.43134-5.38522-3.30164-7.61636-5.53271c-2.23111-2.23114-4.10144-4.80444-5.53275-7.61639c-1.4563-2.86102-2.38007-5.79169-2.94611-8.94055c-0.557983-3.10394-0.742706-6.27008-0.827789-9.40887c-0.039032-1.44043-0.0556641-2.88098-0.0639343-4.32184c-0.0108032-1.71063-0.0101013-3.42102-0.0101013-5.13171V446.1c0-1.22189-0.0003967-2.44327 0.0056763-3.66992c0.0046692-1.03284 0.0140381-2.06909 0.0360107-3.11514c0.0478821-2.27942 0.151856-4.62216 0.465912-7.08469c0.318603-2.49811 0.838562-4.99768 1.65826-7.68164c0.805634-2.638 1.85837-5.29852 3.1142-7.87335s2.70422-5.04236 4.28699-7.30133c1.61035-2.29834 3.25992-4.24698 5.03232-6.03604c1.74713-1.76355 3.52921-3.28781 5.29593-4.72891c0.81076-0.661316 1.62161-1.30667 2.43262-1.94623c0.96286-0.759979 1.92557-1.51163 2.88846-2.26392l169.567-132.48c0.96286-0.752289 1.92517-1.50476 2.89413-2.25226c0.815674-0.630005 1.63583-1.2562 2.4686-1.87244c1.81461-1.34293 3.70068-2.65399 5.76187-3.77364c2.091-1.13582 4.26053-2.01836 6.69055-2.63609c2.3884-0.607147 4.88956-0.91629 7.40118-0.91629s5.01279 0.309143 7.40121 0.91629c2.43005 0.617737 4.59955 1.50027 6.69055 2.63609c2.06116 1.11964 3.94727 2.43071 5.7619 3.77364c0.832703 0.616241 1.65289 1.24243 2.46857 1.87244c0.968933 0.747498 1.93127 1.49997 2.8941 2.25226L706.784 394.399z" fill="#FFB54A" style="fill:#FFB54A;"/>
  </g>
 </g>
</svg>
