<?xml version="1.0" encoding="UTF-8"?>
<!--Generator: Apple Native CoreSVG 361-->
<!DOCTYPE svg
PUBLIC "-//W3C//DTD SVG 1.1//EN"
       "http://www.w3.org/Graphics/SVG/1.1/DTD/svg11.dtd">
<svg version="1.1" xmlns="http://www.w3.org/2000/svg" xmlns:xlink="http://www.w3.org/1999/xlink" viewBox="0 0 1024 1024">
 <g/>
 <g id="house3">
  <path d="M629.936 435.88c0.842529 0.658234 1.68488 1.31592 2.5274 1.9809c0.709595 0.559601 1.41913 1.1243 2.12854 1.70297c1.5459 1.26096 3.10516 2.5947 4.63391 4.13779c1.55084 1.56543 2.9942 3.27048 4.40332 5.28152c1.38489 1.97659 2.65222 4.13571 3.7511 6.38867c1.09882 2.25296 2.01996 4.58093 2.72491 6.88916c0.717224 2.34848 1.17218 4.53561 1.45099 6.72147c0.27478 2.15469 0.365784 4.20459 0.407654 6.1991c0.0192261 0.915283 0.0274048 1.82202 0.0314941 2.72574c0.0053101 1.0733 0.0050049 2.14203 0.0050049 3.21118v150.377c0 1.49683 0.0006104 2.99341-0.0088501 4.49023c-0.0072632 1.26074-0.0217896 2.52118-0.0559692 3.78156c-0.0744019 2.74652-0.236084 5.51685-0.724304 8.23279c-0.4953 2.75531-1.30359 5.31964-2.57782 7.823c-1.25244 2.46045-2.88892 4.7121-4.84119 6.66431c-1.95221 1.95227-4.20386 3.58875-6.66431 4.84119c-2.50336 1.27423-5.06769 2.08252-7.82294 2.57782c-2.716 0.48822-5.48633 0.649902-8.23285 0.724304c-1.26031 0.0341797-2.52081 0.0487061-3.78156 0.0559692c-1.49683 0.0094604-2.99341 0.0088501-4.49023 0.0088501H411.2c-1.49683 0-2.99341 0.0006104-4.49023-0.0088501c-1.26074-0.0072632-2.52121-0.0217896-3.78159-0.0559692c-2.74649-0.0744019-5.51682-0.236084-8.23279-0.724304c-2.75528-0.4953-5.31961-1.30359-7.823-2.57782c-2.46045-1.25244-4.71207-2.88892-6.66431-4.84119c-1.95224-1.95221-3.58875-4.20386-4.84116-6.66431c-1.27426-2.50336-2.08255-5.06769-2.57785-7.823c-0.48822-2.71594-0.649872-5.48627-0.724304-8.23279c-0.0341797-1.26038-0.0487061-2.52081-0.0559387-3.78156c-0.0094604-1.49683-0.0088501-2.99341-0.0088501-4.49023V481.119c0-1.06915-0.0003357-2.13788 0.0049744-3.21118c0.0040894-0.903717 0.0122681-1.81046 0.0314941-2.72574c0.0419006-1.99451 0.132874-4.0444 0.407684-6.1991c0.278778-2.18585 0.733765-4.37299 1.45099-6.72147c0.704925-2.30823 1.62607-4.6362 2.72491-6.88916s2.36621-4.41208 3.7511-6.38867c1.40909-2.01105 2.85245-3.7161 4.40329-5.28152c1.52875-1.54309 3.08807-2.87683 4.63394-4.13779c0.709442-0.578674 1.41891-1.14337 2.12854-1.70297c0.842499-0.664978 1.68488-1.32266 2.5274-1.9809l95.8714-74.9029c0.842499-0.658264 1.68454-1.31665 2.53238-1.97073c0.713684-0.551239 1.43137-1.09915 2.16-1.6384c1.5878-1.17505 3.2381-2.32224 5.04166-3.30191c1.82962-0.993835 3.72794-1.76608 5.85425-2.30658c2.08984-0.53125 4.27832-0.801758 6.47601-0.801758c2.19772 0 4.3862 0.270508 6.47604 0.801758c2.12628 0.540497 4.0246 1.31274 5.85425 2.30658c1.80353 0.979675 3.45386 2.12686 5.04163 3.30191c0.728638 0.539246 1.44635 1.08716 2.16003 1.6384c0.847839 0.654083 1.68988 1.31247 2.53235 1.97073L629.936 435.88z" fill="#FFD073" style="fill:#FFD073;"/>
 </g>
</svg>
