<?xml version="1.0" encoding="UTF-8"?>
<!--Generator: Apple Native CoreSVG 361-->
<!DOCTYPE svg
PUBLIC "-//W3C//DTD SVG 1.1//EN"
       "http://www.w3.org/Graphics/SVG/1.1/DTD/svg11.dtd">
<svg version="1.1" xmlns="http://www.w3.org/2000/svg" xmlns:xlink="http://www.w3.org/1999/xlink" viewBox="0 0 1024 1024">
 <g/>
 <g id="house4">
  <path d="M556.24 479.824c0.601807 0.470184 1.20349 0.939941 1.8053 1.41495c0.506836 0.399719 1.01361 0.80307 1.52039 1.2164c1.10419 0.900665 2.21796 1.85333 3.30994 2.95557c1.10773 1.11816 2.13873 2.33603 3.1452 3.77249c0.989197 1.41187 1.89447 2.95407 2.67938 4.56335c0.784851 1.60925 1.44281 3.27209 1.94635 4.92081c0.512329 1.67749 0.83728 3.23972 1.03644 4.80106c0.196289 1.53906 0.261292 3.00327 0.291199 4.42792c0.0137329 0.653778 0.0195923 1.30145 0.022522 1.94696c0.0037842 0.766663 0.00354 1.53003 0.00354 2.29373v50.5586c0 1.06915 0.0004272 2.13812-0.0063477 3.20728c-0.005127 0.900513-0.015564 1.8009-0.039917 2.70111c-0.0532227 1.96179-0.16864 3.94061-0.517395 5.88062c-0.35376 1.96802-0.931152 3.79968-1.84131 5.58783c-0.894592 1.75745-2.06354 3.36578-3.45795 4.76019c-1.39447 1.39447-3.00281 2.56342-4.76025 3.45801c-1.78815 0.910156-3.61981 1.48755-5.58783 1.84131c-1.94 0.348755-3.91882 0.464172-5.88055 0.517395c-0.900269 0.024353-1.8006 0.034729-2.70117 0.039917c-1.06915 0.0067749-2.13812 0.0063477-3.20728 0.0063477h-64c-1.06915 0-2.13815 0.0004272-3.20731-0.0063477c-0.900513-0.005188-1.80087-0.015564-2.70114-0.039917c-1.96176-0.0532227-3.94055-0.16864-5.88055-0.517395c-1.96805-0.35376-3.79971-0.931152-5.58783-1.84131c-1.75748-0.894592-3.36578-2.06354-4.76025-3.45801c-1.39444-1.39441-2.56338-3.00275-3.45795-4.76019c-0.910187-1.78815-1.48755-3.61981-1.84131-5.58783c-0.348755-1.94-0.464203-3.91882-0.517395-5.88062c-0.0243835-0.900208-0.03479-1.8006-0.0399475-2.70111c-0.0067444-1.06915-0.0063171-2.13812-0.0063171-3.20728V512.137c0-0.763702-0.0002441-1.52707 0.0035706-2.29373c0.0028992-0.645508 0.0087585-1.29318 0.0224915-1.94696c0.0299072-1.42465 0.0949097-2.88885 0.291199-4.42792c0.199127-1.56134 0.524109-3.12357 1.03641-4.80106c0.50354-1.64871 1.1615-3.31155 1.94638-4.92081c0.784882-1.60928 1.69016-3.15149 2.67938-4.56335c1.00647-1.43646 2.03745-2.65433 3.14517-3.77249c1.09198-1.10223 2.20578-2.0549 3.31-2.95557c0.506714-0.41333 1.01349-0.816681 1.52036-1.2164c0.601807-0.475006 1.20349-0.944763 1.8053-1.41495l28.4795-22.2505c0.601776-0.470184 1.20322-0.94046 1.80884-1.40765c0.509766-0.393738 1.0224-0.785126 1.54285-1.17029c1.13416-0.839294 2.31296-1.65872 3.6012-2.35849c1.30688-0.7099 2.66281-1.26147 4.18161-1.64755c1.49274-0.379486 3.05597-0.572693 4.62573-0.572693c1.56979 0 3.13303 0.193207 4.62576 0.572693c1.5188 0.386078 2.87476 0.937653 4.18158 1.64755c1.28827 0.699768 2.46704 1.5192 3.6012 2.35849c0.520447 0.385162 1.03308 0.77655 1.54285 1.17029c0.605652 0.467194 1.20709 0.937469 1.80884 1.40765L556.24 479.824z" fill="#FFF7CA" opacity="0.8" style="opacity:0.8;fill:#FFF7CA;"/>
 </g>
</svg>
