<?xml version="1.0" encoding="UTF-8"?>
<!--Generator: Apple Native CoreSVG 361-->
<!DOCTYPE svg
PUBLIC "-//W3C//DTD SVG 1.1//EN"
       "http://www.w3.org/Graphics/SVG/1.1/DTD/svg11.dtd">
<svg version="1.1" xmlns="http://www.w3.org/2000/svg" xmlns:xlink="http://www.w3.org/1999/xlink" viewBox="0 0 1024 1024">
 <g/>
 <g id="paper">
  <path clip-rule="evenodd" d="M808 130v654c0 4.27661 0.0018311 8.55261-0.0252075 12.8292c-0.0206909 3.60211-0.0622559 7.20349-0.159851 10.8045c-0.212707 7.84711-0.674561 15.7623-2.06952 23.5223c-1.4151 7.87213-3.72449 15.1988-7.36523 22.3513c-3.57831 7.02991-8.25403 13.4631-13.8318 19.0409c-5.57782 5.57782-12.011 10.2536-19.041 13.8319c-7.15247 3.64075-14.4791 5.95013-22.3513 7.36523c-7.76001 1.39496-15.6752 1.85681-23.5223 2.06952c-3.60107 0.0975952-7.20245 0.139099-10.8046 0.159851C704.553 896.002 700.277 896 696 896H328c-4.27661 0-8.55261 0.00177-12.8292-0.0252075c-3.60211-0.020752-7.20349-0.0622559-10.8046-0.159851c-7.84705-0.212707-15.7623-0.674561-23.5223-2.06952c-7.87219-1.4151-15.1989-3.72449-22.3513-7.36523c-7.02991-3.57831-13.4631-8.25409-19.041-13.8319c-5.57782-5.57776-10.2535-12.011-13.8318-19.0409c-3.64075-7.15253-5.95013-14.4792-7.36523-22.3513c-1.39496-7.76001-1.85681-15.6752-2.06952-23.5223c-0.0975952-3.60101-0.13916-7.20239-0.159851-10.8045C215.998 792.553 216 788.277 216 784V130H808z" fill="#FFFFFF" fill-rule="evenodd" style="fill-rule:evenodd;clip-rule:evenodd;fill:#FFFFFF;"/>
 </g>
</svg>
