<?xml version="1.0" encoding="UTF-8"?>
<!--Generator: Apple Native CoreSVG 361-->
<!DOCTYPE svg
PUBLIC "-//W3C//DTD SVG 1.1//EN"
       "http://www.w3.org/Graphics/SVG/1.1/DTD/svg11.dtd">
<svg version="1.1" xmlns="http://www.w3.org/2000/svg" xmlns:xlink="http://www.w3.org/1999/xlink" viewBox="0 0 1024 1024">
 <g/>
 <g id="tiles">
  <path clip-rule="evenodd" d="M768 800c0 2.13831 0.0009155 4.27631-0.0126343 6.41461c-0.0103149 1.80109-0.0311279 3.60175-0.079895 5.40228c-0.106323 3.92352-0.33728 7.88116-1.03473 11.7611c-0.707581 3.9361-1.8623 7.59943-3.68262 11.1757c-1.78918 3.51495-4.12708 6.73151-6.91595 9.52045c-2.78894 2.78888-6.00549 5.12677-9.52045 6.91595c-3.57629 1.82031-7.23962 2.97504-11.1757 3.68262c-3.87994 0.697449-7.83759 0.928406-11.7611 1.03473c-1.80054 0.0487671-3.6012 0.0695801-5.40228 0.079895C716.276 856.001 714.138 856 712 856H312c-2.13831 0-4.27631 0.0009155-6.41461-0.0126343c-1.80106-0.0103149-3.60175-0.0311279-5.40228-0.079895c-3.92352-0.106323-7.88113-0.33728-11.7611-1.03473c-3.9361-0.707581-7.59943-1.8623-11.1757-3.68262c-3.51495-1.78918-6.73157-4.12708-9.52048-6.91595c-2.78891-2.78894-5.12677-6.00549-6.91592-9.52045c-1.82037-3.57629-2.97507-7.23962-3.68262-11.1757c-0.697479-3.87994-0.928406-7.83759-1.03476-11.7611c-0.0487976-1.80054-0.0695801-3.6012-0.0799255-5.40228C255.999 804.276 256 802.138 256 800V539.446c0-2.13837-0.0009003-4.27631 0.0126038-6.41461c0.0103455-1.80109 0.0311279-3.60175 0.0799255-5.40228c0.106354-3.92352 0.33728-7.88116 1.03476-11.7612c0.70755-3.93607 1.86224-7.5994 3.68262-11.1757c1.78915-3.51495 4.12701-6.73154 6.91592-9.52045s6.00552-5.1268 9.52048-6.91595c3.57623-1.82037 7.23956-2.97507 11.1757-3.68262c3.88-0.697479 7.83762-0.928406 11.7611-1.03473c1.80054-0.0488281 3.60123-0.0695801 5.40228-0.0799255c2.13831-0.0135193 4.27631-0.0126343 6.41461-0.0126343h400c2.13831 0 4.27631-0.000885 6.41461 0.0126343c1.80109 0.0103455 3.60175 0.0310974 5.40228 0.0799255c3.92352 0.106323 7.88116 0.33725 11.7611 1.03473c3.9361 0.70755 7.59943 1.86224 11.1757 3.68262c3.51495 1.78915 6.73151 4.12704 9.52045 6.91595c2.78888 2.78891 5.12677 6.00549 6.91595 9.52045c1.82031 3.57626 2.97504 7.23959 3.68262 11.1757c0.697449 3.88 0.928406 7.83765 1.03473 11.7612c0.0487671 1.80054 0.0695801 3.6012 0.079895 5.40228C768.001 535.169 768 537.307 768 539.446V800z" fill="#C8C8C8" fill-rule="evenodd" style="fill-rule:evenodd;clip-rule:evenodd;fill:#C8C8C8;"/>
  <g>
   <path d="M256.013 393.858c0.0103149 1.80103 0.0311279 3.60168 0.079895 5.40222c0.106323 3.92358 0.33728 7.88116 1.03473 11.7612c0.707581 3.9361 1.8623 7.59943 3.68262 11.1757c1.78918 3.51495 4.12708 6.73157 6.91595 9.52045c2.78894 2.78894 6.00549 5.12683 9.52045 6.91595c3.57629 1.82037 7.23962 2.9751 11.1757 3.68262c3.87994 0.697449 7.83759 0.928406 11.7611 1.03473c1.80054 0.0488281 3.6012 0.0695801 5.40228 0.0799561c2.13831 0.0134888 4.27631 0.0125732 6.41461 0.0125732h400c2.13831 0 4.27631 0.0009155 6.41461-0.0125732c1.80109-0.010376 3.60175-0.0311279 5.40228-0.0799561c3.92352-0.106323 7.88116-0.33728 11.7611-1.03473c3.9361-0.707519 7.59943-1.86224 11.1757-3.68262c3.51495-1.78912 6.73151-4.12701 9.52045-6.91595c2.78888-2.78888 5.12677-6.00549 6.91595-9.52045c1.82031-3.57623 2.97504-7.23956 3.68262-11.1757c0.697449-3.88 0.928406-7.83759 1.03473-11.7612c0.0487671-1.80054 0.0695801-3.6012 0.079895-5.40222C768.001 391.72 768 389.582 768 387.443V130H256v257.443C256 389.582 255.999 391.72 256.013 393.858z" fill="#C8C8C8" style="fill:#C8C8C8;"/>
  </g>
 </g>
</svg>
