<?xml version="1.0" encoding="UTF-8"?>
<!--Generator: Apple Native CoreSVG 361-->
<!DOCTYPE svg
PUBLIC "-//W3C//DTD SVG 1.1//EN"
       "http://www.w3.org/Graphics/SVG/1.1/DTD/svg11.dtd">
<svg version="1.1" xmlns="http://www.w3.org/2000/svg" xmlns:xlink="http://www.w3.org/1999/xlink" viewBox="0 0 1024 1024">
 <g/>
 <g id="people">
  <g>
   <path d="M588.222 663.982c-8.1734 14.7291-18.9632 26.3995-32.3635 35.0152c-13.4022 8.61572-27.9839 12.9236-43.7405 12.9236c-15.7606 0-30.3412-4.30786-43.741-12.9236c-13.4033-8.61572-24.1901-20.2488-32.364-34.9051c-8.17389-14.6525-12.2606-31.1104-12.2606-49.3738c0-17.9666 4.08673-34.166 12.2606-48.6013c8.17395-14.4323 18.9608-25.8471 32.364-34.2417c13.3997-8.39557 27.9804-12.5923 43.741-12.5923c15.7567 0 30.3383 4.12506 43.7405 12.3712c13.4003 8.25006 24.1901 19.551 32.3635 33.9105c8.17541 14.3596 12.2621 30.5963 12.2621 48.7114C600.484 632.688 596.398 649.257 588.222 663.982z" fill="none" style="fill:none;"/>
   <path d="M657.115 795.014c-17.225-14.7076-38.0696-26.6636-62.5298-35.8661c-24.4622-9.20251-52.0277-13.8037-82.7026-13.8037c-30.5201 0-58.0094 4.6012-82.468 13.8037c-24.4622 9.20245-45.3447 21.1585-62.6473 35.8661c-17.3063 14.7108-30.5201 30.4387-39.6412 47.1913c-2.53638 4.65668-4.70685 9.25354-6.53796 13.7949h382.763c-1.84674-4.54138-4.03571-9.13824-6.59351-13.7949C687.555 825.452 674.34 809.724 657.115 795.014z" fill="#787878" style="fill:#787878;"/>
   <path d="M555.859 531.654c-13.4022-8.24615-27.9839-12.3712-43.7405-12.3712c-15.7606 0-30.3412 4.19678-43.741 12.5923c-13.4033 8.39459-24.1901 19.8094-32.364 34.2417c-8.17389 14.4352-12.2606 30.6346-12.2606 48.6013c0 18.2634 4.08673 34.7213 12.2606 49.3738c8.17395 14.6563 18.9608 26.2894 32.364 34.9051c13.3997 8.61572 27.9804 12.9236 43.741 12.9236c15.7567 0 30.3383-4.30786 43.7405-12.9236c13.4003-8.61572 24.1901-20.2861 32.3635-35.0152c8.17541-14.7252 12.2621-31.2941 12.2621-49.7059c0-18.1151-4.08667-34.3518-12.2621-48.7114C580.049 551.205 569.259 539.904 555.859 531.654z" fill="#787878" style="fill:#787878;"/>
  </g>
  <path d="M657.115 382.457c-17.225-14.7076-38.0696-26.6636-62.5298-35.8661c-24.4622-9.20245-52.0277-13.8037-82.7026-13.8037c-30.5201 0-58.0094 4.60126-82.468 13.8037c-24.4622 9.20251-45.3447 21.1586-62.6473 35.8661c-17.3063 14.7108-30.5201 30.4387-39.6412 47.1913c-2.53638 4.65668-4.70685 9.25354-6.53796 13.7949h382.763c-1.84674-4.54138-4.03571-9.13824-6.59351-13.7949C687.555 412.896 674.34 397.168 657.115 382.457z" fill="#787878" style="fill:#787878;"/>
  <g>
   <path d="M436.013 153.56c-8.17389 14.4352-12.2606 30.6346-12.2606 48.6013c0 18.2634 4.08673 34.7213 12.2606 49.3737c8.17395 14.6564 18.9608 26.2894 32.364 34.9052c13.3997 8.61572 27.9804 12.9236 43.741 12.9236c15.7567 0 30.3383-4.30786 43.7405-12.9236c13.4003-8.61572 24.1901-20.2861 32.3635-35.0152c8.17541-14.7252 12.2621-31.2941 12.2621-49.706c0-18.115-4.08667-34.3518-12.2621-48.7113c-5.02368-8.82587-11.0399-16.4913-18.0391-23.008H454.443C447.275 136.67 441.131 144.523 436.013 153.56z" fill="#787878" style="fill:#787878;"/>
  </g>
 </g>
</svg>
