<?xml version="1.0" encoding="UTF-8"?>
<!--Generator: Apple Native CoreSVG 361-->
<!DOCTYPE svg
PUBLIC "-//W3C//DTD SVG 1.1//EN"
       "http://www.w3.org/Graphics/SVG/1.1/DTD/svg11.dtd">
<svg version="1.1" xmlns="http://www.w3.org/2000/svg" xmlns:xlink="http://www.w3.org/1999/xlink" viewBox="0 0 1024 1024">
 <g/>
 <g id="dial">
  <path d="M476.603 117.816c0.209534 1.99329 0.286316 3.65479-0.767639 5.37543c-0.947205 1.54742-2.59479 2.58478-4.40857 2.77545c-1.81378 0.190613-3.64105-0.481445-4.88928-1.79816c-1.38873-1.46387-1.65906-3.10504-1.86859-5.09833L458.689 62.1838c-0.209534-1.99329-0.286316-3.65485 0.767639-5.37549c0.947205-1.54742 2.59479-2.58478 4.40857-2.77539c1.81378-0.190674 3.64105 0.481445 4.88928 1.7981c1.38873 1.46387 1.65906 3.1051 1.86859 5.09839L476.603 117.816zM422.119 60.2837c-0.416687-1.96051-0.857056-3.56451-2.39117-4.87524c-1.37897-1.17908-3.26648-1.65656-5.05042-1.2774s-3.31415 1.58301-4.09448 3.22095c-0.868408 1.82135-0.618408 3.46582-0.201721 5.42633l12.1023 56.938c0.416687 1.96045 0.857056 3.56445 2.39117 4.87524c1.37897 1.17902 3.26648 1.65649 5.05042 1.27734c1.78394-0.379089 3.31415-1.58295 4.09448-3.22095c0.868408-1.82135 0.618408-3.46582 0.201721-5.42627L422.119 60.2837zM371.327 59.6349c-0.619385-1.90613-1.2251-3.45532-2.88788-4.59845c-1.49475-1.02838-3.42188-1.30585-5.15637-0.742188c-1.7345 0.563599-3.13043 1.9209-3.73517 3.63147c-0.673218 1.90222-0.252563 3.51154 0.366821 5.41766l18.5276 57.0222c0.619385 1.90619 1.2251 3.45532 2.88788 4.59845c1.49475 1.02838 3.42188 1.30585 5.15637 0.742248c1.7345-0.56366 3.13043-1.9209 3.73517-3.63153c0.673218-1.90216 0.252563-3.51147-0.366821-5.41766L371.327 59.6349zM317 59.2703c-0.815186-1.83105-1.57947-3.30847-3.35266-4.27161c-1.59406-0.866577-3.53967-0.941162-5.20581-0.199402c-1.6662 0.741821-2.91266 2.23755-3.33533 4.00208c-0.470764 1.96216 0.115723 3.51874 0.930908 5.34979l25.3375 56.9097c0.815186 1.83105 1.57947 3.30847 3.35266 4.27161c1.59406 0.866577 3.53967 0.941162 5.20581 0.199341c1.6662-0.741821 2.91266-2.23755 3.33533-4.00201c0.470764-1.96222-0.115723-3.51874-0.930908-5.34979L317 59.2703zM200.085 72.4783c-1.17816-1.62146-2.23291-2.90759-4.16754-3.48096c-1.73938-0.516113-3.65796-0.184509-5.13336 0.887512c-1.47546 1.07208-2.38361 2.79425-2.43018 4.60803c-0.0524292 2.01715 0.84491 3.41766 2.02307 5.03912l35.855 49.3495c1.17816 1.62146 2.23291 2.90765 4.16754 3.48102c1.73938 0.516113 3.65796 0.184448 5.13336-0.887573c1.47546-1.07202 2.38361-2.79425 2.43018-4.60797c0.0524292-2.01715-0.84491-3.41772-2.02307-5.03918L200.085 72.4783zM139.112 106.833l38.3481 42.59c1.34119 1.4895 2.5246 2.65845 4.50861 3.02649c1.78387 0.331543 3.65729-0.198792 5.01263-1.41913c1.35541-1.2204 2.07861-3.02814 1.93536-4.83685c-0.15863-2.01166-1.19745-3.31079-2.53864-4.80029l-38.3481-42.59c-1.34119-1.4895-2.5246-2.65839-4.50861-3.02649c-1.78387-0.331543-3.65729 0.198792-5.01263 1.41919c-1.35541 1.2204-2.07861 3.02808-1.93536 4.83685C136.732 104.044 137.771 105.344 139.112 106.833zM98.8033 148.03l42.5901 38.3481c1.4895 1.34113 2.78864 2.37994 4.80023 2.53864c1.80872 0.14325 3.61646-0.580017 4.83685-1.93536s1.75067-3.22882 1.41913-5.01263c-0.368042-1.98401-1.53693-3.16748-3.02643-4.50861l-42.5901-38.3481c-1.4895-1.34119-2.78864-2.38-4.80023-2.53864c-1.80872-0.14325-3.61646 0.579956-4.83685 1.93536c-1.2204 1.35535-1.75067 3.22876-1.41913 5.01263C96.145 145.505 97.3138 146.689 98.8033 148.03zM72.4778 200.085l49.3496 35.855c1.62146 1.1781 3.02197 2.07544 5.03912 2.02301c1.81372-0.0465088 3.53595-0.954651 4.60797-2.43011c1.07208-1.47546 1.40369-3.39398 0.887573-5.13336c-0.573364-1.93463-1.8595-2.98944-3.48096-4.16754l-49.3496-35.855c-1.62146-1.17816-3.02197-2.0755-5.03912-2.02307c-1.81372 0.0465088-3.53595 0.954712-4.60797 2.43011c-1.07208 1.47546-1.40369 3.39398-0.887573 5.13336C69.5702 197.852 70.8563 198.907 72.4778 200.085zM59.2717 317l56.9058 25.336c1.83105 0.815247 3.38763 1.40173 5.34979 0.930969c1.76447-0.422729 3.26025-1.66919 4.00201-3.33533c0.741821-1.6662 0.667236-3.61176-0.199341-5.20587c-0.963135-1.77313-2.44055-2.53741-4.27161-3.35266l-56.9058-25.336c-1.83105-0.815186-3.38763-1.40167-5.34979-0.930908c-1.76447 0.422669-3.26025 1.66913-4.00201 3.33533c-0.741821 1.66614-0.667236 3.61176 0.199341 5.20581C55.9633 315.421 57.4407 316.185 59.2717 317zM59.6344 371.326l57.0227 18.528c1.90613 0.619385 3.51544 1.04004 5.41766 0.366821c1.71057-0.604736 3.06787-2.00061 3.63147-3.73517c0.56366-1.7345 0.286194-3.66162-0.742188-5.15637c-1.14313-1.66278-2.69232-2.26849-4.59845-2.88788l-57.0227-18.528c-1.90613-0.619385-3.51544-1.03998-5.41766-0.366821c-1.71057 0.604736-3.06787 2.00067-3.63147 3.73517c-0.56366 1.7345-0.286194 3.66162 0.742188 5.15637C56.1791 370.101 57.7283 370.707 59.6344 371.326zM60.2837 422.119l56.938 12.1023c1.96051 0.416626 3.60492 0.666687 5.42633-0.201782c1.63794-0.780273 2.8418-2.31049 3.22095-4.09442c0.379089-1.78394-0.0983887-3.67145-1.2774-5.05048c-1.31073-1.53412-2.91473-1.97449-4.87524-2.39111l-56.938-12.1023c-1.96051-0.416687-3.60492-0.666687-5.42633 0.201721c-1.63794 0.780335-2.8418 2.31049-3.22095 4.09442c-0.379089 1.78394 0.0983887 3.67145 1.2774 5.05048C56.7192 421.262 58.3232 421.702 60.2837 422.119zM60.9294 470.623l56.8867 5.97937c1.99329 0.209534 3.65485 0.286316 5.37543-0.7677c1.54749-0.947144 2.58478-2.59479 2.77545-4.40851c0.190674-1.81378-0.481445-3.64105-1.79816-4.88928c-1.46387-1.38873-3.10504-1.65906-5.09833-1.86859L62.1838 458.689c-1.99329-0.209534-3.65485-0.286377-5.37543 0.767639c-1.54749 0.947205-2.58478 2.59479-2.77545 4.40857s0.481445 3.64105 1.79816 4.88928C57.295 470.143 58.9362 470.414 60.9294 470.623zM967.192 459.457c-1.72058-1.05402-3.38214-0.977173-5.37543-0.767639l-56.8867 5.97937c-1.99329 0.209534-3.63446 0.479858-5.09833 1.86859c-1.31671 1.24823-1.98883 3.0755-1.79816 4.88928c0.190674 1.81372 1.22797 3.46136 2.77545 4.40851c1.72058 1.05402 3.38214 0.977234 5.37543 0.7677l56.8867-5.97937c1.99329-0.209534 3.63446-0.479858 5.09833-1.86859c1.31671-1.24823 1.98883-3.0755 1.79816-4.88928S968.739 460.404 967.192 459.457zM966.648 410.583c-1.82141-0.868408-3.46582-0.618408-5.42633-0.201721l-56.938 12.1023c-1.96051 0.416626-3.56451 0.856995-4.87524 2.39111c-1.17902 1.37903-1.65649 3.26654-1.2774 5.05048c0.37915 1.78394 1.58301 3.31415 3.22095 4.09442c1.82141 0.868469 3.46582 0.618408 5.42633 0.201782l56.938-12.1023c1.96051-0.416687 3.56451-0.857056 4.87524-2.39117c1.17902-1.37903 1.65649-3.26654 1.2774-5.05048C969.49 412.893 968.286 411.363 966.648 410.583zM966.074 359.547c-1.90222-0.673218-3.51154-0.252563-5.41766 0.366821l-57.0222 18.5276c-1.90613 0.619385-3.45532 1.2251-4.59845 2.88788c-1.02832 1.49475-1.30579 3.42188-0.742188 5.15637s1.9209 3.13043 3.63147 3.73517c1.90222 0.673157 3.51154 0.252563 5.41766-0.366821l57.0222-18.5276c1.90613-0.619385 3.45532-1.2251 4.59845-2.88788c1.02832-1.49475 1.30579-3.42188 0.742188-5.15637C969.142 361.548 967.785 360.152 966.074 359.547zM898.668 334.727c-0.866577 1.59406-0.941162 3.53967-0.199341 5.20581c0.74176 1.6662 2.23755 2.91266 4.00201 3.33533c1.96216 0.470764 3.51874-0.115723 5.34979-0.930969l56.9097-25.3375c1.83105-0.815186 3.30847-1.57947 4.27161-3.35266c0.866577-1.59406 0.941162-3.53967 0.199341-5.20587c-0.74176-1.66614-2.23755-2.9126-4.00201-3.33533c-1.96216-0.470764-3.51874 0.115784-5.34979 0.930969l-56.9097 25.3375C901.108 332.19 899.631 332.954 898.668 334.727zM891.637 230.399c-0.516113 1.73938-0.184509 3.6579 0.887573 5.13336c1.07202 1.47546 2.79425 2.38361 4.60797 2.43011c2.01715 0.0524292 3.41766-0.84491 5.03912-2.02301l49.3496-35.855c1.62146-1.17816 2.90759-2.23291 3.48096-4.1676c0.516113-1.73938 0.184509-3.6579-0.887573-5.13336c-1.07202-1.4754-2.79425-2.38361-4.60797-2.43011c-2.01715-0.0524292-3.41766 0.84491-5.03912 2.02307l-49.3496 35.855C893.497 227.41 892.211 228.465 891.637 230.399zM871.55 181.969c-0.331543 1.78381 0.198731 3.65729 1.41913 5.01263s3.02814 2.07861 4.83685 1.93536c2.0116-0.158691 3.31073-1.19751 4.80023-2.53864l42.5901-38.3481c1.4895-1.34119 2.65839-2.5246 3.02643-4.50861c0.331543-1.78387-0.198731-3.65729-1.41913-5.01263c-1.2204-1.35541-3.02814-2.07861-4.83685-1.93536c-2.0116 0.15863-3.31073 1.19745-4.80023 2.53864l-42.5901 38.3481C873.087 178.801 871.918 179.985 871.55 181.969zM837.019 151.031c1.35535 1.22034 3.22876 1.75067 5.01263 1.41913c1.98401-0.368042 3.16742-1.53699 4.50861-3.02649l38.3481-42.59c1.34119-1.4895 2.38-2.78864 2.53864-4.80023c0.14325-1.80878-0.579956-3.61646-1.93536-4.83685c-1.35535-1.2204-3.22876-1.75073-5.01263-1.41919c-1.98401 0.368103-3.16742 1.53699-4.50861 3.02649l-38.3481 42.59c-1.34119 1.4895-2.38 2.78864-2.53864 4.80029C834.94 148.002 835.663 149.81 837.019 151.031zM788.467 131.474c1.4754 1.07202 3.39398 1.40369 5.13336 0.887573c1.93463-0.573364 2.98938-1.85956 4.16754-3.48102l35.855-49.3495c1.17816-1.62146 2.0755-3.02197 2.02307-5.03912c-0.0465698-1.81378-0.954712-3.53595-2.43018-4.60803c-1.4754-1.07202-3.39398-1.40363-5.13336-0.887512c-1.93463 0.573364-2.98938 1.8595-4.16754 3.48096l-35.855 49.3495c-1.17816 1.62146-2.0755 3.02203-2.02307 5.03918C786.084 128.68 786.992 130.402 788.467 131.474zM684.068 125.529c1.66614 0.741821 3.61176 0.667236 5.20587-0.199341c1.77313-0.963135 2.53741-2.44055 3.35266-4.27161l25.3359-56.9058c0.815247-1.83105 1.40173-3.38763 0.930969-5.34985c-0.422669-1.76447-1.66919-3.26019-3.33533-4.00201c-1.66614-0.74176-3.61176-0.667175-5.20587 0.199341c-1.77313 0.963196-2.53741 2.44061-3.35266 4.27167l-25.3359 56.9058c-0.815247 1.83105-1.40173 3.38763-0.930969 5.34979C681.155 123.292 682.402 124.787 684.068 125.529zM660.718 54.2938c-1.73456-0.56366-3.66162-0.286194-5.15643 0.742188c-1.66278 1.14313-2.26843 2.69226-2.88788 4.59845l-18.528 57.0226c-0.619446 1.90619-1.04004 3.5155-0.366821 5.41772c0.604736 1.71057 2.00061 3.06781 3.73511 3.63147c1.73456 0.563599 3.66162 0.286133 5.15643-0.742188c1.66278-1.14319 2.26843-2.69232 2.88788-4.59851l18.528-57.0226c0.619446-1.90619 1.04004-3.51544 0.366821-5.41766C663.849 56.2147 662.453 54.8574 660.718 54.2938zM609.323 54.131c-1.78394-0.37915-3.67145 0.0983276-5.05042 1.2774c-1.53412 1.31073-1.97449 2.91473-2.39117 4.87524l-12.1023 56.938c-0.416687 1.96045-0.666687 3.60492 0.201721 5.42627c0.780335 1.638 2.31055 2.84186 4.09448 3.22095c1.78394 0.37915 3.67145-0.0983276 5.05042-1.27734c1.53412-1.31079 1.97449-2.91479 2.39117-4.87524l12.1023-56.938c0.416687-1.96051 0.666687-3.60498-0.201721-5.42633C612.637 55.7141 611.107 54.5102 609.323 54.131zM560.135 54.033c-1.81378-0.190674-3.64105 0.481445-4.88928 1.7981c-1.38873 1.46387-1.65906 3.1051-1.86859 5.09839l-5.97937 56.8867c-0.209534 1.99329-0.286316 3.65479 0.767639 5.37543c0.947205 1.54742 2.59479 2.58478 4.40857 2.77545c1.81378 0.190613 3.64105-0.481445 4.88928-1.79816c1.38873-1.46387 1.65906-3.10504 1.86859-5.09833l5.97937-56.8867c0.209534-1.99329 0.286316-3.65485-0.767639-5.37549C563.596 55.2609 561.948 54.2236 560.135 54.033zM559.331 904.929c-0.209534-1.99329-0.479858-3.63452-1.86859-5.09839c-1.24823-1.31665-3.0755-1.98877-4.88928-1.7981c-1.81378 0.190613-3.46136 1.22797-4.40857 2.77539c-1.05396 1.72064-0.977173 3.3822-0.767639 5.37549l5.97937 56.8867c0.209534 1.99329 0.479858 3.63446 1.86859 5.09833c1.24823 1.31671 3.0755 1.98877 4.88928 1.79816c1.81378-0.190674 3.46136-1.22803 4.40857-2.77545c1.05396-1.72064 0.977173-3.38214 0.767639-5.37543L559.331 904.929zM601.517 904.284c-0.416687-1.96051-0.857056-3.56451-2.39117-4.87524c-1.37897-1.17908-3.26648-1.65656-5.05042-1.2774s-3.31415 1.58301-4.09448 3.22095c-0.868408 1.82135-0.618408 3.46582-0.201721 5.42633l12.1023 56.938c0.416687 1.96045 0.857056 3.56445 2.39117 4.87524c1.37897 1.17902 3.26648 1.65649 5.05042 1.27734c1.78394-0.379089 3.31415-1.58295 4.09448-3.22095c0.868408-1.82135 0.618408-3.46582 0.201721-5.42627L601.517 904.284zM645.558 903.634c-0.619385-1.90613-1.2251-3.45532-2.88788-4.59845c-1.49475-1.02838-3.42188-1.30585-5.15637-0.742188c-1.7345 0.563599-3.13043 1.9209-3.73517 3.63147c-0.673218 1.90222-0.252563 3.51154 0.366821 5.41766l18.5276 57.0222c0.619385 1.90619 1.2251 3.45532 2.88788 4.59845c1.49475 1.02838 3.42188 1.30585 5.15637 0.742248c1.7345-0.56366 3.13043-1.9209 3.73517-3.63153c0.673218-1.90216 0.252563-3.51147-0.366821-5.41766L645.558 903.634zM692.625 902.939c-0.815186-1.83105-1.57947-3.30847-3.35266-4.27161c-1.59406-0.866577-3.53967-0.941162-5.20581-0.199402c-1.6662 0.741821-2.91266 2.23755-3.33533 4.00208c-0.470764 1.96216 0.115723 3.51874 0.930908 5.34979l25.3375 56.9097c0.815186 1.83105 1.57947 3.30847 3.35266 4.27161c1.59406 0.866577 3.53967 0.941162 5.20581 0.199341c1.6662-0.741821 2.91266-2.23755 3.33533-4.00201c0.470764-1.96222-0.115723-3.51874-0.930908-5.34979L692.625 902.939zM797.768 895.118c-1.17816-1.62146-2.23291-2.90759-4.16754-3.48096c-1.73938-0.516113-3.65796-0.184509-5.13336 0.887512c-1.47546 1.07208-2.38361 2.79425-2.43018 4.60803c-0.0524292 2.01715 0.84491 3.41766 2.02307 5.03912l35.855 49.3495c1.17816 1.62146 2.23291 2.90765 4.16754 3.48102c1.73938 0.516113 3.65796 0.184448 5.13336-0.887573c1.47546-1.07202 2.38361-2.79425 2.43018-4.60797c0.0524292-2.01715-0.84491-3.41772-2.02307-5.03918L797.768 895.118zM884.888 917.167l-38.3481-42.59c-1.34119-1.4895-2.5246-2.65839-4.50861-3.02649c-1.78387-0.331543-3.65729 0.198792-5.01263 1.41919c-1.35541 1.2204-2.07861 3.02808-1.93536 4.83685c0.15863 2.0116 1.19745 3.31073 2.53864 4.80023l38.3481 42.59c1.34119 1.4895 2.5246 2.65845 4.50861 3.02649c1.78387 0.331543 3.65729-0.198792 5.01263-1.41913c1.35541-1.2204 2.07861-3.02814 1.93536-4.83685C887.268 919.955 886.229 918.656 884.888 917.167zM925.197 875.97l-42.5901-38.3481c-1.4895-1.34119-2.78864-2.38-4.80023-2.53864c-1.80872-0.14325-3.61646 0.579956-4.83685 1.93536c-1.2204 1.35535-1.75067 3.22876-1.41913 5.01263c0.368042 1.98401 1.53693 3.16742 3.02643 4.50861l42.5901 38.3481c1.4895 1.34113 2.78864 2.37994 4.80023 2.53864c1.80872 0.14325 3.61646-0.580017 4.83685-1.93536s1.75067-3.22882 1.41913-5.01263C927.855 878.495 926.686 877.311 925.197 875.97zM951.522 823.915l-49.3496-35.855c-1.62146-1.17816-3.02197-2.0755-5.03912-2.02307c-1.81372 0.0465088-3.53595 0.954712-4.60797 2.43011c-1.07208 1.47546-1.40369 3.39398-0.887573 5.13336c0.573364 1.93469 1.8595 2.98944 3.48096 4.1676l49.3496 35.855c1.62146 1.1781 3.02197 2.07544 5.03912 2.02301c1.81372-0.0465088 3.53595-0.954651 4.60797-2.43011c1.07208-1.47546 1.40369-3.39398 0.887573-5.13336C954.43 826.148 953.144 825.093 951.522 823.915zM964.728 707l-56.9058-25.336c-1.83105-0.815186-3.38763-1.40167-5.34979-0.930908c-1.76447 0.422669-3.26025 1.66913-4.00201 3.33533c-0.741821 1.66614-0.667236 3.61176 0.199341 5.20581c0.963135 1.77319 2.44055 2.53748 4.27161 3.35266l56.9058 25.336c1.83105 0.815247 3.38763 1.40173 5.34979 0.930969c1.76447-0.422729 3.26025-1.66919 4.00201-3.33533c0.741821-1.6662 0.667236-3.61176-0.199341-5.20587C968.037 708.579 966.559 707.815 964.728 707zM964.366 652.674l-57.0227-18.528c-1.90613-0.619385-3.51544-1.03998-5.41766-0.366821c-1.71057 0.604736-3.06787 2.00067-3.63147 3.73517c-0.56366 1.7345-0.286194 3.66162 0.742188 5.15637c1.14313 1.66278 2.69232 2.26849 4.59845 2.88788l57.0227 18.528c1.90613 0.619385 3.51544 1.04004 5.41766 0.366821c1.71057-0.604736 3.06787-2.00061 3.63147-3.73517c0.56366-1.7345 0.286194-3.66162-0.742188-5.15637C967.821 653.899 966.272 653.293 964.366 652.674zM963.716 601.881l-56.938-12.1023c-1.96051-0.416687-3.60492-0.666687-5.42633 0.201721c-1.63794 0.780335-2.8418 2.31049-3.22095 4.09442c-0.379089 1.78394 0.0983887 3.67145 1.2774 5.05048c1.31073 1.53412 2.91473 1.97449 4.87524 2.39117l56.938 12.1023c1.96051 0.416626 3.60492 0.666687 5.42633-0.201782c1.63794-0.780273 2.8418-2.31049 3.22095-4.09442c0.379089-1.78394-0.0983887-3.67145-1.2774-5.05048C967.281 602.738 965.677 602.298 963.716 601.881zM963.071 553.377l-56.8867-5.97937c-1.99329-0.209534-3.65485-0.286377-5.37543 0.767639c-1.54749 0.947205-2.58478 2.59479-2.77545 4.40857s0.481445 3.64105 1.79816 4.88928c1.46387 1.38873 3.10504 1.65906 5.09833 1.86859l56.8867 5.97937c1.99329 0.209534 3.65485 0.286316 5.37543-0.7677c1.54749-0.947144 2.58478-2.59479 2.77545-4.40851c0.190674-1.81378-0.481445-3.64105-1.79816-4.88928C966.705 553.857 965.064 553.586 963.071 553.377zM56.8084 564.543c1.72058 1.05402 3.38214 0.977234 5.37543 0.7677l56.8867-5.97937c1.99329-0.209534 3.63446-0.479858 5.09833-1.86859c1.31671-1.24823 1.98883-3.0755 1.79816-4.88928s-1.22797-3.46136-2.77545-4.40857c-1.72058-1.05402-3.38214-0.977173-5.37543-0.767639l-56.8867 5.97937c-1.99329 0.209534-3.63446 0.479858-5.09833 1.86859c-1.31671 1.24823-1.98883 3.0755-1.79816 4.88928C54.2236 561.948 55.2609 563.596 56.8084 564.543zM57.352 613.417c1.82141 0.868469 3.46582 0.618408 5.42633 0.201782l56.938-12.1023c1.96051-0.416687 3.56451-0.857056 4.87524-2.39117c1.17902-1.37903 1.65649-3.26654 1.2774-5.05048c-0.37915-1.78394-1.58301-3.31409-3.22095-4.09442c-1.82141-0.868408-3.46582-0.618408-5.42633-0.201721l-56.938 12.1023c-1.96051 0.416626-3.56451 0.856995-4.87524 2.39111c-1.17902 1.37903-1.65649 3.26654-1.2774 5.05048C54.5102 611.107 55.7141 612.637 57.352 613.417zM57.9257 664.453c1.90222 0.673157 3.51154 0.252563 5.41766-0.366821l57.0222-18.5276c1.90613-0.619385 3.45532-1.2251 4.59845-2.88788c1.02832-1.49475 1.30579-3.42188 0.742188-5.15637c-0.563599-1.73456-1.9209-3.13043-3.63147-3.73517c-1.90222-0.673218-3.51154-0.252563-5.41766 0.366821l-57.0222 18.5276c-1.90613 0.619385-3.45532 1.2251-4.59845 2.88788c-1.02832 1.49475-1.30579 3.42188-0.742188 5.15637S56.2151 663.848 57.9257 664.453zM125.332 689.273c0.866577-1.59406 0.941162-3.53967 0.199341-5.20587c-0.74176-1.66614-2.23755-2.9126-4.00201-3.33533c-1.96216-0.470764-3.51874 0.115784-5.34979 0.930969L59.2703 707c-1.83105 0.815247-3.30847 1.57953-4.27161 3.35272c-0.866577 1.59406-0.941162 3.53967-0.199341 5.20581c0.74176 1.6662 2.23755 2.91266 4.00201 3.33533c1.96216 0.470764 3.51874-0.115723 5.34979-0.930969l56.9097-25.3375C122.892 691.81 124.369 691.046 125.332 689.273zM132.363 793.6c0.516113-1.73938 0.184509-3.6579-0.887573-5.13336c-1.07202-1.4754-2.79425-2.38361-4.60797-2.43011c-2.01715-0.0524292-3.41766 0.84491-5.03912 2.02307l-49.3496 35.855c-1.62146 1.1781-2.90759 2.23291-3.48096 4.16754c-0.516113 1.73938-0.184509 3.6579 0.887573 5.13336c1.07202 1.47546 2.79425 2.38361 4.60797 2.43011c2.01715 0.0524292 3.41766-0.84491 5.03912-2.02301l49.3496-35.855C130.503 796.59 131.789 795.535 132.363 793.6zM152.45 842.031c0.331543-1.78387-0.198731-3.65729-1.41913-5.01263c-1.2204-1.35541-3.02814-2.07861-4.83685-1.93536c-2.0116 0.15863-3.31073 1.19745-4.80023 2.53864l-42.5901 38.3481c-1.4895 1.34113-2.65839 2.5246-3.02643 4.50861c-0.331543 1.78381 0.198731 3.65729 1.41913 5.01263s3.02814 2.07861 4.83685 1.93536c2.0116-0.158691 3.31073-1.19751 4.80023-2.53864l42.5901-38.3481C150.913 845.199 152.082 844.015 152.45 842.031zM186.981 872.969c-1.35535-1.2204-3.22876-1.75073-5.01263-1.41919c-1.98401 0.368103-3.16742 1.53699-4.50861 3.02649l-38.3481 42.59c-1.34119 1.4895-2.38 2.78864-2.53864 4.80029c-0.14325 1.80872 0.579956 3.61646 1.93536 4.83685c1.35535 1.22034 3.22876 1.75067 5.01263 1.41913c1.98401-0.368042 3.16742-1.53699 4.50861-3.02649l38.3481-42.59c1.34119-1.4895 2.38-2.78864 2.53864-4.80023C189.06 875.998 188.337 874.19 186.981 872.969zM235.533 892.525c-1.4754-1.07202-3.39398-1.40363-5.13336-0.887512c-1.93463 0.573364-2.98938 1.8595-4.16754 3.48096l-35.855 49.3495c-1.17816 1.62146-2.0755 3.02203-2.02307 5.03918c0.0465698 1.81372 0.954712 3.53595 2.43018 4.60797c1.4754 1.07202 3.39398 1.40369 5.13336 0.887573c1.93463-0.573364 2.98938-1.85956 4.16754-3.48102l35.855-49.3495c1.17816-1.62146 2.0755-3.02197 2.02307-5.03912C237.916 895.32 237.008 893.598 235.533 892.525zM339.932 898.471c-1.66614-0.74176-3.61176-0.667175-5.20587 0.199341c-1.77313 0.963196-2.53741 2.44061-3.35266 4.27167l-25.3359 56.9058c-0.815247 1.83105-1.40173 3.38763-0.930969 5.34979c0.422669 1.76447 1.66919 3.26019 3.33533 4.00201s3.61176 0.667236 5.20587-0.199341c1.77313-0.963135 2.53741-2.44055 3.35266-4.27161l25.3359-56.9058c0.815247-1.83105 1.40173-3.38763 0.930969-5.34985C342.845 900.708 341.598 899.212 339.932 898.471zM386.486 898.294c-1.73456-0.56366-3.66162-0.286194-5.15643 0.742188c-1.66278 1.14313-2.26843 2.69226-2.88788 4.59845l-18.528 57.0226c-0.619446 1.90619-1.04004 3.5155-0.366821 5.41772c0.604736 1.71057 2.00061 3.06781 3.73511 3.63147c1.73456 0.563599 3.66162 0.286133 5.15643-0.742188c1.66278-1.14319 2.26843-2.69232 2.88788-4.59851l18.528-57.0226c0.619446-1.90619 1.04004-3.51544 0.366821-5.41766C389.616 900.215 388.22 898.857 386.486 898.294zM429.925 898.131c-1.78394-0.37915-3.67145 0.0983276-5.05042 1.2774c-1.53412 1.31073-1.97449 2.91473-2.39117 4.87524l-12.1023 56.938c-0.416687 1.96045-0.666687 3.60492 0.201721 5.42627c0.780335 1.638 2.31055 2.84186 4.09448 3.22095c1.78394 0.37915 3.67145-0.0983276 5.05042-1.27734c1.53412-1.31079 1.97449-2.91479 2.39117-4.87524l12.1023-56.938c0.416687-1.96051 0.666687-3.60498-0.201721-5.42633C433.239 899.714 431.709 898.51 429.925 898.131zM471.427 898.033c-1.81378-0.190674-3.64105 0.481445-4.88928 1.7981c-1.38873 1.46387-1.65906 3.1051-1.86859 5.09839l-5.97937 56.8867c-0.209534 1.99329-0.286316 3.65479 0.767639 5.37543c0.947205 1.54742 2.59479 2.58478 4.40857 2.77545c1.81378 0.190613 3.64105-0.481445 4.88928-1.79816c1.38873-1.46387 1.65906-3.10504 1.86859-5.09833l5.97937-56.8867c0.209534-1.99329 0.286316-3.65485-0.767639-5.37549C474.888 899.261 473.24 898.224 471.427 898.033z" fill="#C8C8C8" style="fill:#C8C8C8;"/>
 </g>
</svg>
