<?xml version="1.0" encoding="UTF-8"?>
<!--Generator: Apple Native CoreSVG 361-->
<!DOCTYPE svg
PUBLIC "-//W3C//DTD SVG 1.1//EN"
       "http://www.w3.org/Graphics/SVG/1.1/DTD/svg11.dtd">
<svg version="1.1" xmlns="http://www.w3.org/2000/svg" xmlns:xlink="http://www.w3.org/1999/xlink" viewBox="0 0 1024 1024">
 <g/>
 <g id="dialnumbers">
  <path d="M55.0659 518.233C53.1459 516.761 52 514.432 52 512s1.14594-4.76111 3.06586-6.23279C57.2006 504.13 59.4146 504 62.087 504h82.826c2.67236 0 4.88635 0.1297 7.02112 1.76721C153.854 507.239 155 509.568 155 512s-1.14594 4.76105-3.06586 6.23279C149.799 519.87 147.585 520 144.913 520H62.087C59.4146 520 57.2006 519.87 55.0659 518.233zM512 155c2.4317 0 4.76111-1.14594 6.23279-3.06592C519.87 149.799 520 147.585 520 144.913V62.087c0-2.67236-0.1297-4.88641-1.76721-7.02112C516.761 53.1459 514.432 52 512 52s-4.76111 1.14594-6.23279 3.06586C504.13 57.2006 504 59.4146 504 62.087v82.826c0 2.67236 0.1297 4.88635 1.76721 7.02106C507.239 153.854 509.568 155 512 155zM260.751 60.8235c-1.33618-2.31433-2.55554-4.16687-5.04095-5.19684c-2.23456-0.92688-4.82483-0.754639-6.93073 0.461243c-2.10596 1.21582-3.55029 3.37292-3.86487 5.77155c-0.350708 2.66742 0.643921 4.64972 1.9801 6.96405L321.5 198.045c1.33618 2.31433 2.55554 4.16687 5.04095 5.19684c2.23456 0.92688 4.82483 0.754578 6.93073-0.461243c2.10596-1.21588 3.55029-3.37299 3.86487-5.77155c0.350708-2.66748-0.643921-4.64972-1.9801-6.96405L260.751 60.8235zM60.8235 260.751l129.221 74.6054c2.31433 1.33618 4.29657 2.33087 6.96405 1.9801c2.39862-0.314514 4.55566-1.75885 5.77155-3.86481c1.21582-2.10596 1.38812-4.69617 0.461243-6.93073c-1.02997-2.48547-2.88251-3.70483-5.19684-5.04102L68.8235 246.895c-2.31433-1.33618-4.29657-2.33081-6.96405-1.9801c-2.39862 0.314575-4.55566 1.75891-5.77155 3.86487c-1.21582 2.1059-1.38812 4.69617-0.461243 6.93066C56.6566 258.195 58.5092 259.415 60.8235 260.751zM968.934 505.767C966.799 504.13 964.585 504 961.913 504h-82.826c-2.67236 0-4.88635 0.1297-7.02112 1.76721C870.146 507.239 869 509.568 869 512s1.14594 4.76105 3.06586 6.23279C874.201 519.87 876.415 520 879.087 520h82.826c2.67236 0 4.88635-0.129761 7.02112-1.76721C970.854 516.761 972 514.432 972 512S970.854 507.239 968.934 505.767zM826.991 337.336c2.66748 0.350769 4.64972-0.643921 6.96405-1.9801l129.221-74.6054c2.31433-1.33618 4.16687-2.55554 5.19684-5.04102c0.92688-2.2345 0.754578-4.82477-0.461243-6.93066c-1.21588-2.10596-3.37292-3.55029-5.77155-3.86487c-2.66748-0.350708-4.64972 0.643921-6.96405 1.9801L825.955 321.5c-2.31433 1.33618-4.16687 2.55554-5.19684 5.04102c-0.92688 2.23456-0.754578 4.82477 0.461243 6.93073C822.436 335.578 824.593 337.022 826.991 337.336zM690.528 202.78c2.1059 1.21582 4.69617 1.38812 6.93073 0.461243c2.48541-1.02997 3.70477-2.88251 5.04095-5.19684l74.6055-129.221c1.33618-2.31433 2.33081-4.29663 1.9801-6.96405c-0.314575-2.39862-1.75891-4.55573-3.86487-5.77155c-2.1059-1.21588-4.69617-1.38812-6.93073-0.461243c-2.48541 1.02997-3.70477 2.88251-5.04095 5.19684l-74.6055 129.221c-1.33618 2.31433-2.33081 4.29657-1.9801 6.96405C686.978 199.407 688.422 201.564 690.528 202.78zM512 869c-2.4317 0-4.76111 1.14594-6.23279 3.06586C504.13 874.201 504 876.415 504 879.087v82.826c0 2.67236 0.1297 4.88635 1.76721 7.02106C507.239 970.854 509.568 972 512 972s4.76111-1.14594 6.23279-3.06592C519.87 966.799 520 964.585 520 961.913v-82.826c0-2.67236-0.1297-4.88641-1.76721-7.02112C516.761 870.146 514.432 869 512 869zM702.5 825.955c-1.33618-2.31433-2.55554-4.16687-5.04095-5.19684c-2.23456-0.92688-4.82483-0.754639-6.93073 0.461243c-2.10596 1.21582-3.55029 3.37292-3.86487 5.77155c-0.350708 2.66742 0.643921 4.64972 1.9801 6.96405l74.6055 129.221c1.33618 2.31433 2.55554 4.16687 5.04095 5.19684c2.23456 0.92688 4.82483 0.754578 6.93073-0.461243c2.10596-1.21588 3.55029-3.37299 3.86487-5.77155c0.350708-2.66748-0.643921-4.64972-1.9801-6.96405L702.5 825.955zM963.177 763.249l-129.221-74.6054c-2.31433-1.33618-4.29657-2.33081-6.96405-1.9801c-2.39862 0.314575-4.55566 1.75891-5.77155 3.86487c-1.21582 2.1059-1.38812 4.69617-0.461243 6.93066c1.02997 2.48547 2.88251 3.70483 5.19684 5.04102l129.221 74.6054c2.31433 1.33618 4.29657 2.33087 6.96405 1.9801c2.39862-0.314514 4.55566-1.75885 5.77155-3.86481c1.21582-2.10596 1.38812-4.69617 0.461243-6.93073C967.343 765.805 965.491 764.585 963.177 763.249zM197.009 686.663c-2.66748-0.350708-4.64972 0.643921-6.96405 1.9801L60.8235 763.249c-2.31433 1.33618-4.16687 2.55554-5.19684 5.04102c-0.92688 2.23456-0.754578 4.82477 0.461243 6.93073c1.21588 2.10596 3.37292 3.55029 5.77155 3.86481c2.66748 0.350769 4.64972-0.643921 6.96405-1.9801L198.045 702.5c2.31433-1.33618 4.16687-2.55554 5.19684-5.04102c0.92688-2.2345 0.754578-4.82477-0.461243-6.93066C201.564 688.422 199.407 686.978 197.009 686.663zM333.472 821.22c-2.1059-1.21588-4.69617-1.38812-6.93073-0.461243c-2.48541 1.02997-3.70477 2.88251-5.04095 5.19684l-74.6055 129.221c-1.33618 2.31433-2.33081 4.29657-1.9801 6.96405c0.314575 2.39856 1.75891 4.55566 3.86487 5.77155c2.1059 1.21582 4.69617 1.38812 6.93073 0.461243c2.48541-1.02997 3.70477-2.88251 5.04095-5.19684l74.6055-129.221c1.33618-2.31433 2.33081-4.29663 1.9801-6.96405C337.022 824.593 335.578 822.436 333.472 821.22zM482.379 284.367c5.12695 0 8.68164-3.55469 8.68164-8.88672v-82.6465c0-6.08398-3.75977-9.84375-9.98047-9.84375c-3.69141 0-6.42578 0.615234-10.8008 3.69141l-20.166 14.1504c-2.93945 2.05078-4.0332 4.10156-4.0332 6.83594c0 3.89648 2.66602 6.5625 6.35742 6.5625c1.91406 0 3.28125-0.478516 4.99023-1.70898l15.9277-11.0742h0.341797v74.0332C473.698 280.812 477.252 284.367 482.379 284.367zM569.92 268.576h-39.375v-0.341797l22.627-22.2852c16.3379-15.9961 21.875-23.7891 21.875-35.3418c0-16.543-13.6035-28.2324-33.3594-28.2324c-19.209 0-31.0347 11.2793-33.7007 21.9434c-0.341797 1.16211-0.546875 2.39258-0.546875 3.69141c0 4.375 2.87109 7.31445 7.65576 7.31445c4.0332 0 6.08398-1.8457 7.86133-5.40039c3.48633-8.88672 9.70703-13.3984 18.5938-13.3984c9.50195 0 16.2695 6.35742 16.2695 15.1758c0 7.51953-3.14453 12.5098-15.7227 24.9512l-30.146 29.873c-3.75977 3.55469-4.92188 5.60547-4.92188 9.02344c0 4.44336 2.87109 7.45117 8.33936 7.45117h54.5508c4.64844 0 7.51953-2.87109 7.51953-7.17773C577.439 271.447 574.568 268.576 569.92 268.576zM550.622 802.766c0 20.0293-15.5176 34.4531-36.8457 34.4531c-15.3809 0-27.5488-7.51953-34.3848-21.9434c-3.62305-7.58789-5.46875-17.0215-5.46875-28.2324c0-32.8809 15.0391-52.5 40.127-52.5c15.0391 0 26.5234 6.5625 31.4453 15.9277c1.09375 1.98242 1.57227 3.69141 1.57227 5.60547c0 4.0332-2.87109 7.10938-7.51953 7.10938c-3.48633 0-5.67383-1.64062-8.4082-5.12695c-4.58008-6.28906-9.84375-9.16016-17.1582-9.16016c-14.9023 0-22.832 13.7402-23.1738 36.4355v1.02539h0.341797c3.89648-9.0918 13.7402-15.9277 27.1387-15.9277C537.292 770.432 550.622 784.104 550.622 802.766zM533.259 803.449c0.0683594-11.3477-8.20312-19.4141-19.5508-19.4141s-19.8926 8.06641-19.8926 19.0723c0 11.0742 8.68164 19.7559 19.6875 19.7559S533.259 814.25 533.259 803.449zM258.076 510.55c0 32.9492-15.1074 52.4316-40.5371 52.4316c-16.1328 0-27.4121-7.86133-31.5137-16.1328c-0.957031-1.98242-1.43555-3.62305-1.43555-5.40039c0-4.10156 2.73438-7.10938 7.45117-7.10938c3.55469 0 5.74219 1.64062 8.47656 5.12695c4.64844 6.2207 9.36523 9.22852 17.5684 9.22852c15.2441 0 22.832-14.082 23.0371-36.4355v-1.09375h-0.273438c-3.75977 9.57031-13.9453 15.9961-26.7285 15.9961c-18.457 0-32.7441-13.2617-32.7441-32.334c0-20.0977 15.5176-34.5215 36.8457-34.5215c15.3809 0 27.6172 7.58789 34.3848 21.9434C256.162 489.837 258.076 499.271 258.076 510.55zM238.184 494.485c0-11.0742-8.61328-19.6875-19.7559-19.6875c-11.0059 0-19.7559 8.54492-19.7559 19.3457c0 11.2793 8.33984 19.3457 19.5508 19.3457C229.639 513.489 238.184 505.491 238.184 494.485zM836.537 533.587c0-13.7402-9.63867-22.4902-24.1992-23.8574v-0.341797c11.8945-2.46094 20.7129-10.7324 20.7129-23.1055c0-15.2441-13.125-25.9082-33.5645-25.9082c-16.0645 0-27.002 7.17773-31.6504 16.9531c-1.23047 2.39258-1.70898 4.58008-1.70898 7.04102c0 4.51172 2.59766 7.38281 7.51953 7.38281c4.10156 0 6.01562-1.57227 7.92969-5.81055c3.28125-7.72461 8.68164-11.5527 17.9785-11.5527c10.9375 0 16.543 5.74219 16.543 14.2871c0 8.75-7.24609 14.9707-18.1152 14.9707h-5.19531c-4.375 0-6.97266 2.66602-6.97266 6.5625s2.59766 6.5625 6.97266 6.5625h5.60547c12.6465 0 20.3027 5.87891 20.2344 16.4062c0 8.95508-7.58789 15.3809-18.7988 15.3809c-10.8008 0-16.748-4.44336-20.166-11.8945c-1.8457-3.62305-4.0332-5.19531-7.65625-5.19531c-4.92188 0-7.86133 2.93945-7.86133 7.58789c0 2.32422 0.546875 4.58008 1.8457 6.97266c5.12695 9.91211 16.3379 16.9531 33.6328 16.9531C821.225 562.981 836.537 551.087 836.537 533.587z" fill="#3C3C3C" style="fill:#3C3C3C;"/>
 </g>
</svg>
