<?xml version="1.0" encoding="UTF-8"?>
<!--Generator: Apple Native CoreSVG 361-->
<!DOCTYPE svg
PUBLIC "-//W3C//DTD SVG 1.1//EN"
       "http://www.w3.org/Graphics/SVG/1.1/DTD/svg11.dtd">
<svg version="1.1" xmlns="http://www.w3.org/2000/svg" xmlns:xlink="http://www.w3.org/1999/xlink" viewBox="0 0 1024 1024">
 <g/>
 <g id="hourhand">
  <path d="M493.286 486.04l-27.5552-20.02c0.180298-1.21252 0.263763-2.44284 0.235077-3.68076c-0.111175-4.76523-1.77551-9.28009-4.72833-13.0088c-1.40286-1.77097-3.01053-3.27579-4.75-4.69833c-1.91434-1.56586-3.91754-3.00647-5.91577-4.45828L337.169 357.783c-1.99826-1.45181-3.9874-2.9118-6.06818-4.24857c-1.89044-1.21475-3.81839-2.27869-5.93622-3.06564c-4.45871-1.65604-9.26688-1.84375-13.8333-0.476959c-4.54022 1.3595-8.51053 4.17514-11.2941 8.00656c-2.78564 3.83417-4.23465 8.47739-4.12454 13.2153c0.111145 4.7655 1.77542 9.2803 4.72827 13.0088c1.4028 1.77121 3.01068 3.27618 4.75006 4.69833c1.91412 1.56604 3.91748 3.00677 5.91574 4.45859l113.402 82.3915c1.99823 1.45181 3.98752 2.9119 6.06842 4.24841c1.89005 1.21478 3.81824 2.2789 5.93622 3.0657c4.45847 1.65616 9.26663 1.84384 13.8332 0.476898c1.18625-0.355194 2.33063-0.814728 3.42792-1.36069l27.5551 20.02c-4.1102 12.8032 0.18927 27.331 11.6608 35.6656c14.2978 10.388 34.3097 7.21838 44.6977-7.07941c10.388-14.2979 7.21844-34.3097-7.07941-44.6977C519.338 477.775 504.192 478.175 493.286 486.04zM512 522c-5.52417 0-10.0022-4.47815-10.0022-10.0023s4.47803-10.0023 10.0022-10.0023s10.0022 4.47815 10.0022 10.0023S517.524 522 512 522z"/>
 </g>
</svg>
