<?xml version="1.0" encoding="UTF-8"?>
<!--Generator: Apple Native CoreSVG 361-->
<!DOCTYPE svg
PUBLIC "-//W3C//DTD SVG 1.1//EN"
       "http://www.w3.org/Graphics/SVG/1.1/DTD/svg11.dtd">
<svg version="1.1" xmlns="http://www.w3.org/2000/svg" xmlns:xlink="http://www.w3.org/1999/xlink" viewBox="0 0 1024 1024">
 <g/>
 <g id="minutehand">
  <path d="M542.47 502.221l27.5552-20.0201c1.09741 0.546173 2.24176 1.00574 3.42798 1.36099c4.56635 1.36679 9.37451 1.17908 13.8333-0.476959c2.1178-0.786957 4.04572-1.85092 5.93616-3.06567c2.08081-1.33673 4.06995-2.79672 6.06818-4.24854l226.665-164.681c1.99823-1.45181 4.00146-2.89243 5.91577-4.45831c1.7395-1.42252 3.34717-2.92734 4.75-4.6983c2.95282-3.72873 4.61719-8.24359 4.72833-13.0088c0.110046-4.73813-1.34088-9.38419-4.12463-13.2155c-2.78564-3.83414-6.75385-6.64706-11.2939-8.00644c-4.56659-1.36691-9.37469-1.17923-13.8332 0.476929c-2.11798 0.786804-4.0462 1.85092-5.93622 3.0657c-2.08087 1.33652-4.07019 2.7966-6.06842 4.24841L573.429 440.174c-1.99823 1.45181-4.00159 2.89255-5.91577 4.45859c-1.73932 1.42215-3.34723 2.92715-4.75 4.69836c-2.95288 3.72845-4.61719 8.24329-4.72827 13.0088c-0.0288086 1.23795 0.0546265 2.46832 0.234802 3.68063l-27.5551 20.02c-10.9064-7.86545-26.0518-8.26575-37.5233 0.0687866c-14.2978 10.388-17.4674 30.3998-7.07941 44.6977c10.388 14.2978 30.3998 17.4674 44.6977 7.07941C542.281 529.552 546.58 515.024 542.47 502.221zM512 522c-5.52417 0-10.0022-4.47815-10.0022-10.0023s4.47803-10.0023 10.0022-10.0023c5.52414 0 10.0022 4.47815 10.0022 10.0023S517.524 522 512 522z"/>
 </g>
</svg>
