<?xml version="1.0" encoding="UTF-8"?>
<!--Generator: Apple Native CoreSVG 361-->
<!DOCTYPE svg
PUBLIC "-//W3C//DTD SVG 1.1//EN"
       "http://www.w3.org/Graphics/SVG/1.1/DTD/svg11.dtd">
<svg version="1.1" xmlns="http://www.w3.org/2000/svg" xmlns:xlink="http://www.w3.org/1999/xlink" viewBox="0 0 1024 1024">
 <g/>
 <g id="secondhand">
  <path d="M522 494.697v-38.1004c0-1.12274 0.0053711-2.24432-0.059082-3.36658c-0.0583496-1.01965-0.182129-2.013-0.458618-3.00208c-0.582153-2.08203-1.79773-3.90033-3.52051-5.21429C516.249 443.708 514.153 443 512 443c-2.15405 0-4.24878 0.707642-5.96167 2.0141c-1.72266 1.31396-2.93835 3.13226-3.52051 5.21429c-0.276611 0.989075-0.400391 1.98242-0.45874 3.00208c-0.0644531 1.12225-0.0588379 2.24384-0.0588379 3.36658v38.1003C496.028 498.157 492 504.601 492 512c0 7.3985 4.02783 13.843 10.0002 17.3026v370.1c0 1.12268-0.0056152 2.24426 0.0588379 3.36652c0.0583496 1.01971 0.182129 2.013 0.45874 3.00208c0.582153 2.08203 1.79785 3.90033 3.52051 5.21436C507.751 912.292 509.847 913 512 913c2.1543 0 4.2489-0.707703 5.96179-2.0141c1.72278-1.31403 2.93835-3.13232 3.52051-5.21436c0.276489-0.989075 0.400269-1.98236 0.458618-3.00208c0.0644531-1.12225 0.059082-2.24384 0.059082-3.36652V529.303c5.97217-3.45959 10-9.90405 10-17.3026S527.972 498.157 522 494.697zM512 522c-5.52283 0-10-4.47717-10-10c0-5.52289 4.47717-10 10-10c5.52295 0 10 4.47711 10 10C522 517.523 517.523 522 512 522z" fill="#FF9500" style="fill:#FF9500;"/>
 </g>
</svg>
