<?xml version="1.0" encoding="UTF-8"?>
<!--Generator: Apple Native CoreSVG 361-->
<!DOCTYPE svg
PUBLIC "-//W3C//DTD SVG 1.1//EN"
       "http://www.w3.org/Graphics/SVG/1.1/DTD/svg11.dtd">
<svg version="1.1" xmlns="http://www.w3.org/2000/svg" xmlns:xlink="http://www.w3.org/1999/xlink" viewBox="0 0 1024 1024">
 <g/>
 <g id="yellowplus">
  <path d="M558 432c0 2.4317-1.14594 4.76105-3.06586 6.23279C552.799 439.87 550.585 440 547.913 440H440v107.913c0 2.67236-0.1297 4.88635-1.76721 7.02106C436.761 556.854 434.432 558 432 558s-4.76111-1.14594-6.23279-3.06592C424.13 552.799 424 550.585 424 547.913V440H316.087c-2.67236 0-4.88635-0.129761-7.02112-1.76721C307.146 436.761 306 434.432 306 432s1.14594-4.76111 3.06586-6.23279C311.201 424.13 313.415 424 316.087 424H424V316.087c0-2.67236 0.1297-4.88641 1.76721-7.02112C427.239 307.146 429.568 306 432 306s4.76111 1.14587 6.23279 3.06586C439.87 311.201 440 313.415 440 316.087V424h107.913c2.67236 0 4.88635 0.1297 7.02112 1.76721C556.854 427.239 558 429.568 558 432z" fill="#FFCC00" style="fill:#FFCC00;"/>
 </g>
</svg>
