<?xml version="1.0" encoding="UTF-8"?>
<!--Generator: Apple Native CoreSVG 361-->
<!DOCTYPE svg
PUBLIC "-//W3C//DTD SVG 1.1//EN"
       "http://www.w3.org/Graphics/SVG/1.1/DTD/svg11.dtd">
<svg version="1.1" xmlns="http://www.w3.org/2000/svg" xmlns:xlink="http://www.w3.org/1999/xlink" viewBox="0 0 1024 1024">
 <g/>
 <g id="magnifier">
  <path d="M837.07 804.016c-1.31854-10.0026-6.84534-16.2173-13.9315-23.3035L643.288 600.861c-2.61798-2.61798-5.11774-5.02075-7.73273-7.07947C672.13 547.946 692 491.504 692 432c0-69.4487-27.0449-134.74-76.1523-183.848S501.449 172 432 172c-69.4482 0-134.74 27.0449-183.848 76.1523S172 362.552 172 432c0 69.4487 27.0449 134.74 76.1523 183.848S362.551 692 432 692c59.5043 0 115.946-19.8705 161.782-56.4451c2.05872 2.61505 4.46143 5.11481 7.07941 7.73279l179.851 179.851c7.08618 7.08618 13.301 12.613 23.3035 13.9315c8.99353 1.1886 18.2087-1.94946 24.6568-8.39752S838.259 813.009 837.07 804.016zM273.608 590.393C231.3 548.084 208 491.833 208 432s23.3003-116.084 65.6079-158.392C315.916 231.3 372.167 208 432 208s116.084 23.3003 158.393 65.6079C632.7 315.916 656 372.167 656 432c0 59.833-23.2998 116.084-65.6074 158.393C548.084 632.7 491.833 656 432 656C372.167 656 315.916 632.7 273.608 590.393z" fill="#FFFFFF" style="fill:#FFFFFF;"/>
 </g>
</svg>
