<?xml version="1.0" encoding="UTF-8"?>
<!--Generator: Apple Native CoreSVG 361-->
<!DOCTYPE svg
PUBLIC "-//W3C//DTD SVG 1.1//EN"
       "http://www.w3.org/Graphics/SVG/1.1/DTD/svg11.dtd">
<svg version="1.1" xmlns="http://www.w3.org/2000/svg" xmlns:xlink="http://www.w3.org/1999/xlink" viewBox="0 0 1024 1024">
 <g/>
 <g id="eyes.2">
  <g>
   <path d="M472.289 548.376c-46.1206 0-73.9448-1.76465-96.0386-6.08984c-24.644-4.8252-43.187-13.042-62.0034-27.4746c-33.5449-25.7158-54.3882-68.1816-54.3882-110.821c0-42.6387 20.8271-85.0933 54.3545-110.795c37.707-28.9233 77.4834-33.5918 158.076-33.5918h79.4199c46.1221 0 73.9463 1.76465 96.04 6.09082c24.6455 4.8252 43.1885 13.0425 62.0049 27.4766c33.5439 25.7119 54.3867 68.1782 54.3867 110.82c0 42.6421-20.8281 85.0962-54.3564 110.795c-37.7031 28.9209-77.4805 33.5898-158.075 33.5898H472.289z" fill="#054AAD" style="fill:#054AAD;"/>
   <path d="M260.758 403.991c0-42.3846 20.7173-84.5935 54.0592-110.142c37.5003-28.7512 77.0672-33.4074 157.523-33.4074h79.3181c46.0173 0 73.782 1.75748 95.8062 6.06494c24.5322 4.79947 42.9682 12.9677 61.6855 27.3181c33.3587 25.5582 54.0916 67.7787 54.0916 110.166c0 42.388-20.7183 84.5964-54.0612 110.142c-37.4965 28.7488-77.0644 33.4055-157.522 33.4055h-79.3181c-46.0159 0-73.7806-1.75745-95.8048-6.06396c-24.5307-4.7995-42.9667-12.9672-61.6841-27.3162C281.492 488.596 260.758 446.376 260.758 403.991z" fill="#064BAE" style="fill:#064BAE;"/>
   <path d="M261.657 403.991c0-42.1305 20.6074-84.0937 53.764-109.488c37.2936-28.5791 76.6511-33.2231 156.969-33.2231h79.2163c45.9125 0 73.6179 1.75027 95.5724 6.03909c24.4187 4.77371 42.7479 12.8929 61.3661 27.1595c33.1735 25.4044 53.7964 67.3792 53.7964 109.513c0 42.1339-20.6084 84.0966-53.7659 109.488c-37.2898 28.5767-76.6482 33.2211-156.969 33.2211h-79.2163c-45.9111 0-73.6164-1.75031-95.571-6.03815c-24.4172-4.77368-42.7464-12.8924-61.3646-27.1576C282.281 488.096 261.657 446.122 261.657 403.991z" fill="#064CAE" style="fill:#064CAE;"/>
   <path d="M262.557 403.991c0-41.8764 20.4976-83.5939 53.4688-108.835c37.0869-28.407 76.2349-33.0387 156.416-33.0387h79.1145c45.8078 0 73.4536 1.74313 95.3386 6.01324c24.3054 4.74799 42.5276 12.8181 61.0467 27.0011c32.9882 25.2507 53.5013 66.9797 53.5013 108.859c0 41.8798-20.4985 83.5967-53.4706 108.835c-37.0831 28.4046-76.2321 33.0368-156.416 33.0368h-79.1145c-45.8064 0-73.4522-1.7431-95.3372-6.01227c-24.3039-4.74799-42.5261-12.8176-61.0453-26.9991C283.07 487.596 262.557 445.868 262.557 403.991z" fill="#074DAF" style="fill:#074DAF;"/>
   <path d="M263.456 403.991c0-41.6224 20.3877-83.0941 53.1735-108.181c36.8801-28.2348 75.8188-32.8544 155.863-32.8544h79.0127c45.7031 0 73.2894 1.73596 95.1048 5.9874c24.192 4.72223 42.3073 12.7433 60.7273 26.8425c32.803 25.097 53.2061 66.5803 53.2061 108.206c0 41.6257-20.3886 83.0969-53.1752 108.181c-36.8765 28.2325-75.816 32.8525-155.863 32.8525h-79.0127c-45.7016 0-73.288-1.7359-95.1035-5.98639c-24.1905-4.72223-42.3058-12.7429-60.7259-26.8407C283.86 487.096 263.456 445.614 263.456 403.991z" fill="#084EAF" style="fill:#084EAF;"/>
   <path d="M264.355 403.991c0-41.3683 20.2778-82.5944 52.8782-107.527c36.6734-28.0627 75.4026-32.67 155.31-32.67h78.9109c45.5983 0 73.1252 1.72879 94.871 5.96152c24.0786 4.6965 42.087 12.6686 60.4079 26.6841c32.6177 24.9432 52.9109 66.1808 52.9109 107.552c0 41.3716-20.2787 82.5971-52.88 107.527c-36.6698 28.0604-75.3998 32.6682-155.31 32.6682h-78.9109c-45.5969 0-73.1238-1.72882-94.8697-5.96063c-24.0771-4.69647-42.0855-12.6681-60.4065-26.6822C284.649 486.597 264.355 445.359 264.355 403.991z" fill="#084FB0" style="fill:#084FB0;"/>
   <path d="M265.254 403.991c0-41.1142 20.168-82.0945 52.5829-106.874c36.4667-27.8906 74.9865-32.4856 154.757-32.4856h78.8091c45.4935 0 72.961 1.72159 94.6372 5.93567c23.9652 4.67075 41.8667 12.5938 60.0885 26.5255c32.4325 24.7895 52.6158 65.7813 52.6158 106.898c0 41.1175-20.1689 82.0973-52.5847 106.874c-36.4631 27.8883-74.9838 32.4839-154.757 32.4839h-78.8091c-45.4921 0-72.9596-1.72162-94.6359-5.93475c-23.9637-4.67072-41.8652-12.5933-60.0871-26.5237C285.438 486.097 265.254 445.105 265.254 403.991z" fill="#0950B0" style="fill:#0950B0;"/>
   <path d="M266.154 403.991c0-40.8601 20.0581-81.5948 52.2877-106.22c36.26-27.7185 74.5703-32.3013 154.204-32.3013h78.7073c45.3888 0 72.7968 1.71442 94.4034 5.90979c23.8518 4.64502 41.6464 12.519 59.769 26.367c32.2473 24.6358 52.3207 65.3818 52.3207 106.245c0 40.8634-20.059 81.5975-52.2894 106.22c-36.2564 27.7162-74.5676 32.2995-154.204 32.2995h-78.7073c-45.3874 0-72.7953-1.71448-94.4021-5.90887c-23.8503-4.64502-41.6449-12.5186-59.7677-26.3652C286.228 485.597 266.154 444.851 266.154 403.991z" fill="#0A51B1" style="fill:#0A51B1;"/>
   <path d="M267.053 403.991c0-40.606 19.9483-81.095 51.9925-105.567c36.0533-27.5463 74.1541-32.1169 153.651-32.1169h78.6055c45.284 0 72.6325 1.70728 94.1696 5.88394c23.7384 4.61929 41.4261 12.4442 59.4497 26.2086c32.062 24.482 52.0255 64.9823 52.0255 105.591c0 40.6093-19.9492 81.0977-51.9941 105.567c-36.0497 27.5441-74.1515 32.1152-153.651 32.1152h-78.6055c-45.2826 0-72.6311-1.70728-94.1683-5.88306c-23.7368-4.61926-41.4246-12.4437-59.4483-26.2067C287.017 485.097 267.053 444.597 267.053 403.991z" fill="#0A52B2" style="fill:#0A52B2;"/>
   <path d="M267.952 403.991c0-40.352 19.8384-80.5952 51.6972-104.913c35.8465-27.3742 73.738-31.9326 153.098-31.9326h78.5036c45.1793 0 72.4683 1.7001 93.9358 5.85809c23.6251 4.59354 41.2058 12.3694 59.1303 26.05c31.8768 24.3283 51.7304 64.5828 51.7304 104.938c0 40.3552-19.8393 80.5979-51.6989 104.913c-35.8431 27.372-73.7354 31.9308-153.098 31.9308h-78.5036c-45.1779 0-72.4669-1.70007-93.9346-5.85718c-23.6235-4.59351-41.2043-12.369-59.1289-26.0482C287.806 484.597 267.952 444.343 267.952 403.991z" fill="#0B53B2" style="fill:#0B53B2;"/>
   <path d="M268.851 403.991c0-40.0979 19.7285-80.0954 51.4019-104.26c35.6398-27.2021 73.3218-31.7482 152.545-31.7482h78.4018c45.0745 0 72.3041 1.6929 93.702 5.83221c23.5117 4.56781 40.9855 12.2947 58.8109 25.8915c31.6915 24.1746 51.4352 64.1833 51.4352 104.284c0 40.1011-19.7294 80.0981-51.4036 104.259c-35.6364 27.2-73.3193 31.7465-152.545 31.7465h-78.4018c-45.0731 0-72.3027-1.69293-93.7008-5.8313c-23.5101-4.56781-40.984-12.2942-58.8095-25.8897C288.596 484.097 268.851 444.089 268.851 403.991z" fill="#0C54B3" style="fill:#0C54B3;"/>
   <path d="M269.751 403.991c0-39.8438 19.6187-79.5956 51.1067-103.606c35.4331-27.03 72.9057-31.5638 151.992-31.5638h78.3c44.9697 0 72.1399 1.68573 93.4682 5.80637c23.3983 4.54205 40.7652 12.2199 58.4915 25.733c31.5062 24.0208 51.1401 63.7838 51.1401 103.63c0 39.847-19.6195 79.5982-51.1083 103.606c-35.4297 27.0278-72.9031 31.5621-151.992 31.5621h-78.3c-44.9684 0-72.1385-1.68573-93.467-5.80548c-23.3967-4.54199-40.7637-12.2194-58.4901-25.7312C289.385 483.598 269.751 443.835 269.751 403.991z" fill="#0C55B3" style="fill:#0C55B3;"/>
   <path d="M270.65 403.991c0-39.5898 19.5088-79.0959 50.8115-102.952c35.2263-26.8578 72.4895-31.3795 151.439-31.3795h78.1982c44.865 0 71.9756 1.67856 93.2344 5.78049c23.2849 4.51633 40.5449 12.1451 58.1721 25.5745c31.321 23.8671 50.8449 63.3844 50.8449 102.977c0 39.5929-19.5096 79.0984-50.8129 102.952c-35.2231 26.8558-72.4871 31.3778-151.438 31.3778h-78.1982c-44.8636 0-71.9743-1.67853-93.2332-5.7796c-23.2833-4.5163-40.5434-12.1447-58.1707-25.5728C290.174 483.098 270.65 443.581 270.65 403.991z" fill="#0D56B4" style="fill:#0D56B4;"/>
   <path d="M271.549 403.991c0-39.3357 19.399-78.5961 50.5162-102.299c35.0196-26.6857 72.0734-31.1951 150.885-31.1951h78.0964c44.7603 0 71.8115 1.67142 93.0006 5.75467c23.1715 4.4906 40.3246 12.0703 57.8527 25.416c31.1358 23.7133 50.5498 62.9849 50.5498 102.323c0 39.3388-19.3998 78.5986-50.5177 102.299c-35.0164 26.6837-72.0709 31.1935-150.885 31.1935h-78.0964c-44.7589 0-71.8101-1.67139-92.9995-5.75372c-23.1699-4.49054-40.3231-12.0699-57.8513-25.4143C290.964 482.598 271.549 443.327 271.549 403.991z" fill="#0E57B5" style="fill:#0E57B5;"/>
   <path d="M272.448 403.991c0-39.0816 19.2891-78.0963 50.2209-101.645c34.8129-26.5136 71.6572-31.0108 150.332-31.0108h77.9946c44.6555 0 71.6472 1.66422 92.7668 5.72879c23.0581 4.46487 40.1043 11.9955 57.5333 25.2575c30.9505 23.5596 50.2546 62.5854 50.2546 101.67c0 39.0847-19.2899 78.0988-50.2224 101.645c-34.8098 26.5115-71.6548 31.0091-150.332 31.0091h-77.9946c-44.6541 0-71.6459-1.66418-92.7657-5.72791c-23.0565-4.46478-40.1028-11.9951-57.5319-25.2558C291.753 482.098 272.448 443.073 272.448 403.991z" fill="#0E58B5" style="fill:#0E58B5;"/>
   <path d="M273.348 403.991c0-38.8275 19.1792-77.5965 49.9257-100.992c34.6062-26.3415 71.241-30.8264 149.779-30.8264h77.8928c44.5507 0 71.483 1.65704 92.533 5.70291c22.9448 4.43915 39.884 11.9208 57.2139 25.099c30.7653 23.4059 49.9595 62.1859 49.9595 101.016c0 38.8306-19.18 77.599-49.9271 100.991c-34.6031 26.3395-71.2387 30.8248-149.779 30.8248h-77.8928c-44.5494 0-71.4817-1.65704-92.5319-5.70209c-22.9431-4.43909-39.8825-11.9203-57.2126-25.0973C292.543 481.598 273.348 442.819 273.348 403.991z" fill="#0F59B6" style="fill:#0F59B6;"/>
   <path d="M274.247 403.991c0-38.5734 19.0694-77.0967 49.6304-100.338c34.3995-26.1693 70.8249-30.642 149.226-30.642h77.791c44.446 0 71.3188 1.64987 92.2992 5.67706c22.8314 4.41339 39.6637 11.846 56.8945 24.9405c30.5801 23.2522 49.6644 61.7864 49.6644 100.362c0 38.5765-19.0701 77.0992-49.6318 100.338c-34.3964 26.1674-70.8226 30.6405-149.226 30.6405h-77.791c-44.4446 0-71.3175-1.6499-92.2981-5.67621c-22.8297-4.41333-39.6622-11.8455-56.8931-24.9388C293.332 481.098 274.247 442.565 274.247 403.991z" fill="#105AB6" style="fill:#105AB6;"/>
   <path d="M275.146 403.991c0-38.3193 18.9595-76.5969 49.3352-99.6844c34.1927-25.9972 70.4088-30.4577 148.673-30.4577h77.6892c44.3412 0 71.1545 1.64267 92.0654 5.65118c22.718 4.38766 39.4434 11.7712 56.5751 24.782c30.3948 23.0984 49.3691 61.3869 49.3691 99.7089c0 38.3224-18.9602 76.5994-49.3365 99.6841c-34.1898 25.9953-70.4064 30.4561-148.673 30.4561h-77.6892c-44.3399 0-71.1533-1.6427-92.0643-5.65039c-22.7163-4.38757-39.4419-11.7707-56.5738-24.7803C294.121 480.599 275.146 442.31 275.146 403.991z" fill="#105BB7" style="fill:#105BB7;"/>
   <path d="M276.045 403.991c0-38.0653 18.8496-76.0971 49.0399-99.0308c33.986-25.8251 69.9926-30.2733 148.12-30.2733h77.5874c44.2365 0 70.9904 1.63553 91.8316 5.62537c22.6046 4.36191 39.2231 11.6964 56.2557 24.6235c30.2096 22.9447 49.074 60.9874 49.074 99.0553c0 38.0683-18.8503 76.0995-49.0412 99.0305c-33.9832 25.8232-69.9904 30.2718-148.12 30.2718h-77.5874c-44.2351 0-70.989-1.63556-91.8305-5.62451c-22.6029-4.36182-39.2216-11.6959-56.2544-24.6218C294.911 480.099 276.045 442.056 276.045 403.991z" fill="#115CB7" style="fill:#115CB7;"/>
   <path d="M276.945 403.991c0-37.8112 18.7398-75.5974 48.7447-98.3772c33.7793-25.653 69.5764-30.089 147.567-30.089h77.4856c44.1317 0 70.8261 1.62836 91.5978 5.59949c22.4911 4.33618 39.0028 11.6216 55.9363 24.465c30.0244 22.791 48.7789 60.5879 48.7789 98.4017c0 37.8142-18.7405 75.5997-48.746 98.3769c-33.7764 25.6511-69.5742 30.0875-147.567 30.0875h-77.4856c-44.1304 0-70.8249-1.62836-91.5968-5.59863c-22.4895-4.33612-39.0013-11.6212-55.935-24.4633C295.7 479.599 276.945 441.802 276.945 403.991z" fill="#125DB8" style="fill:#125DB8;"/>
   <path d="M277.844 403.991c0-37.5571 18.6299-75.0976 48.4494-97.7236c33.5726-25.4808 69.1603-29.9046 147.014-29.9046h77.3838c44.0269 0 70.6619 1.62119 91.364 5.57364c22.3778 4.31042 38.7825 11.5468 55.6169 24.3065c29.8391 22.6372 48.4837 60.1884 48.4837 97.7481c0 37.5601-18.6306 75.0999-48.4506 97.7233c-33.5698 25.479-69.1581 29.9031-147.014 29.9031h-77.3838c-44.0256 0-70.6606-1.62115-91.363-5.57281c-22.3761-4.3103-38.781-11.5464-55.6156-24.3048C296.489 479.099 277.844 441.548 277.844 403.991z" fill="#125EB9" style="fill:#125EB9;"/>
   <path d="M278.743 403.991c0-37.303 18.5201-74.5978 48.1542-97.0701c33.3658-25.3087 68.7441-29.7202 146.461-29.7202h77.282c43.9222 0 70.4977 1.61398 91.1302 5.54776c22.2644 4.2847 38.5622 11.4721 55.2975 24.148c29.6539 22.4835 48.1886 59.789 48.1886 97.0945c0 37.306-18.5208 74.6001-48.1554 97.0697c-33.363 25.3069-68.7419 29.7188-146.461 29.7188h-77.282c-43.9209 0-70.4964-1.61401-91.1292-5.54694c-22.2627-4.28461-38.5607-11.4716-55.2962-24.1464C297.279 478.599 278.743 441.294 278.743 403.991z" fill="#135FB9" style="fill:#135FB9;"/>
   <path d="M279.642 403.991c0-37.049 18.4102-74.098 47.8589-96.4165c33.1591-25.1366 68.3279-29.5359 145.908-29.5359h77.1801c43.8174 0 70.3334 1.60681 90.8964 5.52188c22.151 4.25897 38.3419 11.3973 54.9781 23.9895c29.4686 22.3297 47.8935 59.3895 47.8935 96.4409c0 37.0518-18.4109 74.1003-47.8601 96.4161c-33.1564 25.1348-68.3259 29.5344-145.908 29.5344h-77.1801c-43.8161 0-70.3322-1.60681-90.8954-5.52106c-22.1493-4.25891-38.3404-11.3969-54.9768-23.9879C298.068 478.099 279.642 441.04 279.642 403.991z" fill="#1460BA" style="fill:#1460BA;"/>
   <path d="M280.542 403.991c0-36.7949 18.3004-73.5982 47.5637-95.7629c32.9524-24.9644 67.9118-29.3515 145.354-29.3515h77.0783c43.7126 0 70.1693 1.59967 90.6625 5.49606c22.0377 4.23322 38.1216 11.3225 54.6588 23.831c29.2833 22.176 47.5983 58.99 47.5983 95.7874c0 36.7978-18.301 73.6005-47.5648 95.7625c-32.9498 24.9627-67.9097 29.3501-145.355 29.3501h-77.0783c-43.7114 0-70.168-1.59961-90.6617-5.49518c-22.0359-4.23315-38.1201-11.3221-54.6574-23.8294C298.857 477.6 280.542 440.786 280.542 403.991z" fill="#1461BA" style="fill:#1461BA;"/>
   <path d="M281.441 403.991c0-36.5408 18.1905-73.0984 47.2684-95.1093c32.7457-24.7923 67.4956-29.1671 144.801-29.1671h76.9765c43.6079 0 70.005 1.5925 90.4288 5.47018c21.9243 4.20749 37.9013 11.2477 54.3393 23.6725c29.0981 22.0223 47.3032 58.5905 47.3032 95.1338c0 36.5436-18.1911 73.1006-47.2695 95.1089c-32.743 24.7906-67.4936 29.1657-144.802 29.1657h-76.9765c-43.6066 0-70.0038-1.59247-90.4279-5.46936C361.16 518.589 345.183 511.549 328.745 499.125C299.647 477.1 281.441 440.532 281.441 403.991z" fill="#1562BB" style="fill:#1562BB;"/>
   <path d="M282.34 403.991c0-36.2867 18.0806-72.5986 46.9732-94.4557c32.5389-24.6202 67.0795-28.9828 144.248-28.9828h76.8747c43.5032 0 69.8408 1.5853 90.1949 5.44434c21.8109 4.18173 37.681 11.1729 54.0199 23.514c28.9129 21.8685 47.008 58.191 47.008 94.4802c0 36.2896-18.0812 72.6008-46.9742 94.4552c-32.5364 24.6186-67.0775 28.9815-144.249 28.9815H473.562c-43.5019 0-69.8396-1.58533-90.1941-5.44354c-21.8091-4.18164-37.6794-11.1725-54.0186-23.5124C300.436 476.6 282.34 440.278 282.34 403.991z" fill="#1663BB" style="fill:#1663BB;"/>
   <path d="M283.24 403.991c0-36.0327 17.9708-72.0988 46.6779-93.8021c32.3322-24.4481 66.6633-28.7984 143.695-28.7984h76.7729c43.3984 0 69.6766 1.57812 89.9612 5.41846c21.6974 4.15601 37.4607 11.0981 53.7005 23.3555c28.7276 21.7148 46.7128 57.7915 46.7128 93.8266c0 36.0355-17.9714 72.101-46.6789 93.8017c-32.3298 24.4464-66.6614 28.7971-143.696 28.7971h-76.7729c-43.3971 0-69.6754-1.57819-89.9603-5.41766c-21.6957-4.15594-37.4592-11.0977-53.6992-23.3539C301.226 476.1 283.24 440.024 283.24 403.991z" fill="#1664BC" style="fill:#1664BC;"/>
   <path d="M284.139 403.991c0-35.7786 17.8609-71.5991 46.3826-93.1485c32.1255-24.276 66.2472-28.6141 143.142-28.6141h76.6711c43.2936 0 69.5124 1.57095 89.7274 5.39258c21.5841 4.13028 37.2404 11.0234 53.3811 23.197c28.5424 21.5611 46.4177 57.392 46.4177 93.173c0 35.7814-17.8615 71.6012-46.3837 93.1481c-32.123 24.2743-66.2452 28.6128-143.143 28.6128h-76.6711c-43.2924 0-69.5112-1.57098-89.7266-5.39185c-21.5823-4.13013-37.2388-11.0229-53.3798-23.1954C302.015 475.6 284.139 439.77 284.139 403.991z" fill="#1765BD" style="fill:#1765BD;"/>
   <path d="M285.038 403.991c0-35.5245 17.7511-71.0993 46.0874-92.4949c31.9188-24.1038 65.831-28.4297 142.589-28.4297h76.5693c43.1889 0 69.3481 1.56378 89.4935 5.36676c21.4707 4.10452 37.0201 10.9486 53.0617 23.0385c28.3572 21.4074 46.1226 56.9926 46.1226 92.5194c0 35.5273-17.7516 71.1014-46.0883 92.4944c-31.9164 24.1023-65.8292 28.4284-142.589 28.4284h-76.5693c-43.1877 0-69.347-1.56378-89.4928-5.36597c-21.4689-4.10443-37.0186-10.9482-53.0605-23.037C302.804 475.1 285.038 439.515 285.038 403.991z" fill="#1866BD" style="fill:#1866BD;"/>
   <path d="M285.937 403.991c0-35.2704 17.6412-70.5995 45.7921-91.8413c31.712-23.9317 65.4149-28.2454 142.036-28.2454h76.4675c43.0841 0 69.1839 1.55661 89.2598 5.34088c21.3573 4.0788 36.7998 10.8738 52.7422 22.88c28.1719 21.2536 45.8275 56.593 45.8275 91.8658c0 35.2732-17.6417 70.6016-45.793 91.8409c-31.7098 23.9302-65.413 28.2441-142.036 28.2441h-76.4675c-43.0829 0-69.1828-1.55664-89.259-5.34009c-21.3555-4.07867-36.7982-10.8734-52.7411-22.8785C303.594 474.601 285.937 439.261 285.937 403.991z" fill="#1867BE" style="fill:#1867BE;"/>
   <path d="M286.837 403.991c0-35.0164 17.5313-70.0997 45.4969-91.1877c31.5053-23.7596 64.9987-28.061 141.483-28.061h76.3657c42.9794 0 69.0197 1.54944 89.0259 5.31503c21.244 4.05304 36.5795 10.799 52.4229 22.7214c27.9866 21.0999 45.5322 56.1936 45.5322 91.2123c0 35.019-17.5319 70.1018-45.4977 91.1872c-31.5031 23.7581-64.9969 28.0598-141.483 28.0598h-76.3657c-42.9781 0-69.0186-1.54944-89.0252-5.31427c-21.2421-4.05292-36.5779-10.7986-52.4217-22.72C304.383 474.101 286.837 439.007 286.837 403.991z" fill="#1968BE" style="fill:#1968BE;"/>
   <path d="M287.736 403.991c0-34.7623 17.4215-69.5999 45.2016-90.5342c31.2986-23.5874 64.5825-27.8766 140.93-27.8766h76.2639c42.8746 0 68.8555 1.54227 88.7921 5.28915c21.1306 4.02731 36.3593 10.7242 52.1035 22.563c27.8015 20.9462 45.2371 55.7941 45.2371 90.5587c0 34.765-17.422 69.602-45.2025 90.5336c-31.2964 23.586-64.5808 27.8754-140.93 27.8754h-76.2639c-42.8734 0-68.8543-1.54224-88.7914-5.28839c-21.1287-4.02722-36.3576-10.7238-52.1023-22.5615C305.172 473.601 287.736 438.753 287.736 403.991z" fill="#1A69BF" style="fill:#1A69BF;"/>
   <path d="M288.635 403.991c0-34.5082 17.3116-69.1001 44.9064-89.8806c31.0919-23.4153 64.1664-27.6923 140.377-27.6923h76.162c42.7698 0 68.6913 1.53506 88.5583 5.26331c21.0172 4.00156 36.1389 10.6494 51.7841 22.4044c27.6162 20.7924 44.942 55.3946 44.942 89.9051c0 34.5108-17.3121 69.1021-44.9072 89.88c-31.0898 23.4139-64.1647 27.6911-140.377 27.6911h-76.162c-42.7686 0-68.6901-1.5351-88.5576-5.26251c-21.0153-4.00146-36.1374-10.649-51.7829-22.403C305.962 473.101 288.635 438.499 288.635 403.991z" fill="#1A6ABF" style="fill:#1A6ABF;"/>
   <path d="M289.534 403.991c0-34.2541 17.2018-68.6003 44.6111-89.227c30.8851-23.2432 63.7502-27.5079 139.824-27.5079h76.0602c42.6651 0 68.527 1.52792 88.3245 5.23746c20.9038 3.97583 35.9186 10.5747 51.4647 22.2459c27.4309 20.6387 44.6468 54.9951 44.6468 89.2515c0 34.2567-17.2022 68.6023-44.6119 89.2264c-30.8831 23.2418-63.7485 27.5067-139.824 27.5067h-76.0602c-42.6639 0-68.5259-1.52789-88.3239-5.23669c-20.9019-3.97571-35.917-10.5742-51.4635-22.2445C306.751 472.601 289.534 438.245 289.534 403.991z" fill="#1B6BC0" style="fill:#1B6BC0;"/>
   <path d="M290.434 403.991c0-34 17.0919-68.1006 44.3159-88.5734c30.6784-23.0711 63.3341-27.3235 139.27-27.3235h75.9584c42.5604 0 68.3629 1.52075 88.0907 5.21158c20.7904 3.9501 35.6984 10.4999 51.1453 22.0875c27.2457 20.485 44.3517 54.5956 44.3517 88.5979c0 34.0026-17.0923 68.1025-44.3166 88.5728c-30.6764 23.0697-63.3325 27.3224-139.271 27.3224h-75.9584c-42.5591 0-68.3617-1.52069-88.0901-5.21082c-20.7885-3.94998-35.6967-10.4995-51.1441-22.086C307.54 472.102 290.434 437.991 290.434 403.991z" fill="#1C6CC1" style="fill:#1C6CC1;"/>
   <path d="M291.333 403.991c0-33.746 16.982-67.6008 44.0206-87.9198c30.4717-22.899 62.9179-27.1392 138.717-27.1392h75.8566c42.4556 0 68.1986 1.51358 87.8569 5.18573c20.677 3.92435 35.478 10.4251 50.8259 21.9289c27.0605 20.3312 44.0566 54.1961 44.0566 87.9444c0 33.7485-16.9825 67.6027-44.0214 87.9192c-30.4697 22.8976-62.9163 27.1381-138.718 27.1381h-75.8566c-42.4544 0-68.1975-1.51361-87.8563-5.185c-20.6751-3.92426-35.4764-10.4247-50.8247-21.9276C308.33 471.602 291.333 437.737 291.333 403.991z" fill="#1C6DC1" style="fill:#1C6DC1;"/>
   <path d="M292.232 403.991c0-33.4919 16.8722-67.101 43.7254-87.2662c30.265-22.7268 62.5017-26.9548 138.164-26.9548h75.7548c42.3508 0 68.0344 1.50638 87.6231 5.15985c20.5637 3.89862 35.2578 10.3503 50.5065 21.7704c26.8752 20.1775 43.7614 53.7966 43.7614 87.2908c0 33.4944-16.8726 67.1029-43.726 87.2656c-30.2631 22.7255-62.5002 26.9538-138.165 26.9538h-75.7548c-42.3496 0-68.0333-1.50641-87.6225-5.15918c-20.5617-3.89847-35.2561-10.3499-50.5053-21.769C309.119 471.102 292.232 437.483 292.232 403.991z" fill="#1D6EC2" style="fill:#1D6EC2;"/>
   <path d="M293.131 403.991c0-33.2378 16.7623-66.6012 43.4301-86.6126c30.0582-22.5547 62.0856-26.7704 137.611-26.7704h75.653c42.2461 0 67.8702 1.49921 87.3893 5.134c20.4502 3.87289 35.0374 10.2755 50.1871 21.6119c26.69 20.0237 43.4662 53.3971 43.4662 86.6371c0 33.2404-16.7628 66.6031-43.4307 86.612c-30.0564 22.5534-62.0841 26.7694-137.612 26.7694h-75.653c-42.2449 0-67.8691-1.49927-87.3887-5.1333c-20.4483-3.87274-35.0359-10.2751-50.1859-21.6106C309.909 470.602 293.131 437.229 293.131 403.991z" fill="#1D6FC2" style="fill:#1D6FC2;"/>
   <path d="M294.031 403.991c0-32.9837 16.6524-66.1014 43.1349-85.959c29.8515-22.3826 61.6695-26.5861 137.058-26.5861h75.5512c42.1413 0 67.7059 1.49207 87.1555 5.10815c20.3369 3.84717 34.8171 10.2008 49.8677 21.4534c26.5048 19.87 43.1711 52.9977 43.1711 85.9836c0 32.9862-16.6528 66.1033-43.1354 85.9584c-29.8497 22.3813-61.6679 26.5851-137.059 26.5851h-75.5512c-42.1401 0-67.7049-1.49207-87.155-5.10745c-20.3349-3.84698-34.8155-10.2003-49.8665-21.4521C310.698 470.102 294.031 436.975 294.031 403.991z" fill="#1E70C3" style="fill:#1E70C3;"/>
   <path d="M294.93 403.991c0-32.7296 16.5426-65.6016 42.8396-85.3055c29.6448-22.2104 61.2533-26.4018 136.505-26.4018h75.4494c42.0366 0 67.5417 1.48489 86.9217 5.08231c20.2235 3.82141 34.5969 10.126 49.5483 21.2949c26.3195 19.7163 42.8759 52.5981 42.8759 85.33c0 32.7321-16.543 65.6035-42.8401 85.3048c-29.6431 22.2092-61.2518 26.4007-136.506 26.4007H474.274c-42.0354 0-67.5406-1.48486-86.9212-5.08157c-20.2215-3.82126-34.5952-10.1256-49.5471-21.2936C311.487 469.602 294.93 436.721 294.93 403.991z" fill="#1F71C4" style="fill:#1F71C4;"/>
   <path d="M295.829 403.991c0-32.4756 16.4327-65.1018 42.5443-84.6519c29.4381-22.0383 60.8371-26.2174 135.952-26.2174h75.3476c41.9318 0 67.3775 1.47769 86.6879 5.05643c20.11 3.79568 34.3765 10.0512 49.2289 21.1364c26.1343 19.5626 42.5808 52.1987 42.5808 84.6764c0 32.478-16.4331 65.1036-42.5449 84.6512c-29.4364 22.0371-60.8358 26.2164-135.953 26.2164h-75.3476c-41.9306 0-67.3764-1.47772-86.6874-5.05573c-20.1081-3.79553-34.3749-10.0508-49.2278-21.1351C312.277 469.103 295.829 436.466 295.829 403.991z" fill="#1F72C4" style="fill:#1F72C4;"/>
   <path d="M296.728 403.991c0-32.2215 16.3229-64.6021 42.2491-83.9983c29.2314-21.8662 60.421-26.033 135.399-26.033h75.2458c41.827 0 67.2133 1.47052 86.4541 5.03055c19.9967 3.76996 34.1562 9.97644 48.9095 20.9779c25.949 19.4088 42.2856 51.7992 42.2856 84.0228c0 32.2239-16.3232 64.6038-42.2496 83.9976c-29.2297 21.865-60.4196 26.032-135.4 26.032h-75.2458c-41.8259 0-67.2122-1.47052-86.4536-5.02988c-19.9948-3.76978-34.1546-9.97598-48.9084-20.9766C313.066 468.603 296.728 436.212 296.728 403.991z" fill="#2073C5" style="fill:#2073C5;"/>
   <path d="M297.628 403.991c0-31.9674 16.213-64.1023 41.9539-83.3447c29.0246-21.6941 60.0048-25.8487 134.846-25.8487h75.144c41.7223 0 67.0491 1.46335 86.2203 5.0047c19.8834 3.7442 33.936 9.90164 48.5901 20.8194c25.7637 19.2551 41.9905 51.3997 41.9905 83.3693c0 31.9698-16.2134 64.104-41.9543 83.344c-29.0231 21.6929-60.0035 25.8477-134.847 25.8477H474.427c-41.7211 0-67.048-1.46335-86.2198-5.004c-19.8813-3.74405-33.9343-9.90125-48.589-20.8181C313.855 468.103 297.628 435.958 297.628 403.991z" fill="#2174C5" style="fill:#2174C5;"/>
   <path d="M298.527 403.991c0-31.7133 16.1031-63.6025 41.6586-82.6911c28.8179-21.5219 59.5887-25.6643 134.293-25.6643h75.0422c41.6176 0 66.8848 1.45618 85.9865 4.97885c19.7699 3.71848 33.7156 9.82687 48.2707 20.6609c25.5786 19.1013 41.6954 51.0002 41.6954 82.7157c0 31.7157-16.1035 63.6042-41.659 82.6903c-28.8164 21.5208-59.5874 25.6634-134.294 25.6634h-75.0422c-41.6164 0-66.8838-1.45615-85.9861-4.97815c-19.7679-3.71829-33.714-9.82645-48.2696-20.6596C314.645 467.603 298.527 435.704 298.527 403.991z" fill="#2175C6" style="fill:#2175C6;"/>
   <path d="M299.426 403.991c0-31.4593 15.9933-63.1027 41.3633-82.0375c28.6112-21.3498 59.1725-25.4799 133.739-25.4799h74.9404c41.5128 0 66.7206 1.44901 85.7527 4.953c19.6566 3.69272 33.4954 9.75208 47.9513 20.5024c25.3933 18.9476 41.4002 50.6007 41.4002 82.0621c0 31.4616-15.9936 63.1044-41.3637 82.0367c-28.6097 21.3487-59.1712 25.479-133.74 25.479h-74.9404c-41.5116 0-66.7196-1.44901-85.7523-4.95233c-19.6545-3.69254-33.4937-9.75165-47.9502-20.5011C315.434 467.103 299.426 435.45 299.426 403.991z" fill="#2276C6" style="fill:#2276C6;"/>
   <path d="M300.325 403.991c0-31.2052 15.8834-62.6029 41.0681-81.3839c28.4044-21.1777 58.7563-25.2956 133.186-25.2956h74.8385c41.408 0 66.5564 1.44183 85.5189 4.92712c19.5432 3.66699 33.2751 9.67731 47.632 20.3439c25.208 18.7939 41.105 50.2012 41.105 81.4085c0 31.2075-15.8837 62.6046-41.0684 81.3831c-28.4031 21.1767-58.7551 25.2947-133.187 25.2947h-74.8385c-41.4069 0-66.5554-1.44183-85.5185-4.92645c-19.5411-3.66681-33.2734-9.67688-47.6308-20.3427C316.223 466.603 300.325 435.196 300.325 403.991z" fill="#2377C7" style="fill:#2377C7;"/>
   <path d="M301.225 403.991c0-30.9511 15.7736-62.1031 40.7729-80.7303c28.1977-21.0056 58.3402-25.1112 132.633-25.1112h74.7367c41.3033 0 66.3922 1.43466 85.2851 4.90128c19.4297 3.64124 33.0547 9.60251 47.3125 20.1854c25.0228 18.6401 40.8099 49.8017 40.8099 80.7549c0 30.9534-15.7738 62.1047-40.7731 80.7295c-28.1964 21.0045-58.339 25.1104-132.634 25.1104h-74.7367c-41.3022 0-66.3912-1.43466-85.2848-4.9006c-19.4277-3.64105-33.0531-9.60211-47.3114-20.1842C317.013 466.104 301.225 434.942 301.225 403.991z" fill="#2378C8" style="fill:#2378C8;"/>
   <path d="M302.124 403.991c0-30.697 15.6637-61.6033 40.4776-80.0768c27.991-20.8334 57.924-24.9268 132.08-24.9268h74.6349c41.1985 0 66.228 1.42746 85.0513 4.8754c19.3164 3.61551 32.8345 9.52774 46.9931 20.0269c24.8376 18.4864 40.5148 49.4023 40.5148 80.1013c0 30.6993-15.664 61.605-40.4778 80.0759c-27.9897 20.8325-57.9229 24.926-132.081 24.926h-74.6349c-41.1974 0-66.227-1.42746-85.051-4.87476c-19.3144-3.6153-32.8328-9.52731-46.992-20.0257C317.802 465.604 302.124 434.688 302.124 403.991z" fill="#2479C8" style="fill:#2479C8;"/>
   <path d="M303.023 403.991c0-30.4429 15.5538-61.1036 40.1823-79.4232c27.7843-20.6613 57.5079-24.7425 131.527-24.7425h74.5331c41.0938 0 66.0638 1.42032 84.8175 4.84955c19.203 3.58978 32.6141 9.45297 46.6737 19.8684c24.6523 18.3327 40.2196 49.0027 40.2196 79.4477c0 30.4452-15.5541 61.1051-40.1826 79.4223c-27.7831 20.6604-57.5068 24.7417-131.528 24.7417h-74.5331c-41.0927 0-66.0628-1.42032-84.8172-4.84891c-19.2009-3.5896-32.6125-9.45255-46.6726-19.8672C318.592 465.104 303.023 434.434 303.023 403.991z" fill="#257AC9" style="fill:#257AC9;"/>
   <path d="M303.922 403.991c0-30.1889 15.444-60.6038 39.8871-78.7696c27.5776-20.4892 57.0917-24.5582 130.974-24.5582h74.4313c40.989 0 65.9064 1.37555 84.5837 4.8237c19.0967 3.5256 32.3939 9.37817 46.3543 19.7099c24.467 18.1789 39.9244 48.6032 39.9244 78.7941c0 30.1911-15.4442 60.6053-39.8873 78.7687c-27.5764 20.4883-57.0906 24.5574-130.975 24.5574h-74.4313c-40.9879 0-65.9055-1.37509-84.5834-4.82306c-19.0948-3.52493-32.3922-9.37775-46.3532-19.7087C319.381 464.604 303.922 434.18 303.922 403.991z" fill="#257BC9" style="fill:#257BC9;"/>
   <path d="M304.822 403.991c0-29.9348 15.3341-60.104 39.5918-78.116c27.3708-20.317 56.6756-24.3738 130.421-24.3738h74.3295c40.8843 0 65.7423 1.36777 84.3499 4.79782c18.9835 3.49936 32.1736 9.30341 46.0349 19.5514c24.2819 18.0252 39.6293 48.2038 39.6293 78.1406c0 29.937-15.3344 60.1055-39.592 78.1151c-27.3697 20.3162-56.6745 24.373-130.422 24.373h-74.3295c-40.8831 0-65.7415-1.36731-84.3496-4.79721c-18.9814-3.49869-32.1719-9.30298-46.0338-19.5502C320.17 464.104 304.822 433.926 304.822 403.991z" fill="#267CCA" style="fill:#267CCA;"/>
   <path d="M305.721 403.991c0-29.6807 15.2243-59.6042 39.2966-77.4624c27.1641-20.1449 56.2594-24.1894 129.868-24.1894h74.2277c40.7795 0 65.5782 1.36002 84.1161 4.77197c18.8701 3.47308 31.9532 9.22861 45.7155 19.3929c24.0966 17.8715 39.3341 47.8043 39.3341 77.487c0 29.6829-15.2244 59.6057-39.2966 77.4615c-27.1631 20.1441-56.2584 24.1887-129.869 24.1887h-74.2277c-40.7784 0-65.5773-1.35956-84.1158-4.77133c-18.8681-3.47244-31.9516-9.22821-45.7144-19.3917C320.96 463.604 305.721 433.672 305.721 403.991z" fill="#277DCA" style="fill:#277DCA;"/>
   <path d="M306.62 403.991c0-29.4266 15.1144-59.1044 39.0013-76.8088c26.9574-19.9728 55.8433-24.0051 129.315-24.0051h74.1259c40.6747 0 65.4141 1.35226 83.8823 4.74609c18.7568 3.44687 31.733 9.15384 45.3961 19.2344c23.9113 17.7177 39.039 47.4048 39.039 76.8334c0 29.4288-15.1146 59.1059-39.0014 76.8079c-26.9564 19.972-55.8423 24.0043-129.316 24.0043h-74.1259c-40.6736 0-65.4132-1.35181-83.882-4.74548c-18.7549-3.44623-31.7313-9.15341-45.395-19.2332C321.749 463.105 306.62 433.417 306.62 403.991z" fill="#277ECB" style="fill:#277ECB;"/>
   <path d="M307.519 403.991c0-29.1726 15.0045-58.6046 38.7061-76.1552c26.7507-19.8007 55.4271-23.8207 128.762-23.8207h74.0241c40.57 0 65.2499 1.34454 83.6484 4.72028c18.6436 3.42065 31.5127 9.07904 45.0767 19.0759c23.7261 17.564 38.7439 47.0053 38.7439 76.1798c0 29.1747-15.0048 58.606-38.7061 76.1543c-26.7497 19.7999-55.4261 23.82-128.763 23.82H474.987c-40.5689 0-65.2491-1.34412-83.6483-4.71967c-18.6415-3.41998-31.511-9.07861-45.0757-19.0747C322.538 462.605 307.519 433.163 307.519 403.991z" fill="#287FCC" style="fill:#287FCC;"/>
   <path d="M308.419 403.991c0-28.9185 14.8947-58.1049 38.4108-75.5016c26.5439-19.6286 55.0109-23.6364 128.208-23.6364h73.9223c40.4652 0 65.0858 1.33682 83.4147 4.6944c18.5302 3.39447 31.2924 9.00427 44.7573 18.9174c23.5408 17.4103 38.4487 46.6058 38.4487 75.5262c0 28.9206-14.8948 58.1062-38.4108 75.5007c-26.5431 19.6278-55.0101 23.6357-128.21 23.6357h-73.9223c-40.4641 0-65.085-1.33636-83.4145-4.69379c-18.5282-3.3938-31.2907-9.00388-44.7563-18.9163C323.328 462.105 308.419 432.909 308.419 403.991z" fill="#2980CC" style="fill:#2980CC;"/>
   <path d="M309.318 403.991c0-28.6644 14.7848-57.6051 38.1156-74.8481c26.3372-19.4565 54.5948-23.452 127.655-23.452h73.8205c40.3605 0 64.9217 1.3291 83.1808 4.66852c18.4169 3.36829 31.0721 8.9295 44.4379 18.7589c23.3556 17.2565 38.1536 46.2063 38.1536 74.8727c0 28.6665-14.785 57.6064-38.1155 74.8471c-26.3364 19.4557-54.5939 23.4513-127.657 23.4513h-73.8205c-40.3594 0-64.9208-1.32864-83.1807-4.66794c-18.4149-3.36761-31.0704-8.92908-44.4369-18.7578C324.117 461.605 309.318 432.655 309.318 403.991z" fill="#2981CD" style="fill:#2981CD;"/>
   <path d="M310.217 403.991c0-28.4103 14.675-57.1053 37.8203-74.1945c26.1305-19.2843 54.1786-23.2676 127.102-23.2676h73.7187c40.2557 0 64.7575 1.32138 82.9471 4.64267c18.3036 3.3421 30.8517 8.85471 44.1185 18.6004c23.1704 17.1028 37.8585 45.8068 37.8585 74.2191c0 28.4124-14.6751 57.1066-37.8203 74.1935c-26.1297 19.2836-54.1778 23.267-127.104 23.267H475.14c-40.2546 0-64.7567-1.32095-82.9469-4.64206c-18.3015-3.34146-30.8501-8.85431-44.1175-18.5993C324.906 461.105 310.217 432.401 310.217 403.991z" fill="#2A82CD" style="fill:#2A82CD;"/>
   <path d="M311.116 403.991c0-28.1563 14.5651-56.6055 37.5251-73.5409c25.9238-19.1122 53.7625-23.0833 126.549-23.0833h73.6169c40.1509 0 64.5934 1.31369 82.7133 4.61679c18.1902 3.31595 30.6315 8.77994 43.7991 18.4419c22.9851 16.9491 37.5632 45.4073 37.5632 73.5655c0 28.1583-14.5652 56.6068-37.5249 73.5399c-25.9231 19.1115-53.7617 23.0826-126.551 23.0826h-73.6169c-40.1499 0-64.5926-1.31326-82.7132-4.61621c-18.1882-3.31528-30.6298-8.77951-43.7981-18.4408C325.696 460.605 311.116 432.147 311.116 403.991z" fill="#2B83CE" style="fill:#2B83CE;"/>
   <path d="M312.016 403.991c0-27.9022 14.4553-56.1057 37.2298-72.8873c25.717-18.9401 53.3463-22.8989 125.996-22.8989h73.515c40.0462 0 64.4293 1.30603 82.4794 4.59097c18.077 3.28979 30.4112 8.70514 43.4797 18.2834c22.7999 16.7953 37.2681 45.0078 37.2681 72.9119c0 27.9042-14.4553 56.107-37.2297 72.8863c-25.7164 18.9394-53.3455 22.8983-125.998 22.8983h-73.515c-40.0451 0-64.4284-1.3056-82.4794-4.59039c-18.0749-3.28912-30.4095-8.70474-43.4787-18.2823C326.485 460.106 312.016 431.893 312.016 403.991z" fill="#2B84CE" style="fill:#2B84CE;"/>
   <path d="M312.915 403.991c0-27.6481 14.3454-55.6059 36.9345-72.2337c25.5103-18.7679 52.9302-22.7146 125.443-22.7146h73.4132c39.9415 0 64.2651 1.29837 82.2457 4.56509c17.9636 3.26367 30.1909 8.63037 43.1603 18.1248c22.6147 16.6416 36.973 44.6084 36.973 72.2583c0 27.6501-14.3455 55.6072-36.9343 72.2327c-25.5097 18.7673-52.9294 22.714-125.445 22.714H475.292c-39.9404 0-64.2643-1.29791-82.2456-4.56451c-17.9615-3.26303-30.1892-8.62997-43.1593-18.1238C327.275 459.606 312.915 431.639 312.915 403.991z" fill="#2C85CF" style="fill:#2C85CF;"/>
   <path d="M313.814 403.991c0-27.394 14.2355-55.1061 36.6393-71.5801c25.3036-18.5958 52.514-22.5302 124.89-22.5302h73.3114c39.8367 0 64.101 1.29071 82.0118 4.53925c17.8503 3.23755 29.9706 8.55557 42.8409 17.9663c22.4294 16.4879 36.6778 44.2089 36.6778 71.6047c0 27.396-14.2356 55.1074-36.6391 71.579c-25.303 18.5952-52.5133 22.5297-124.891 22.5297h-73.3114c-39.8357 0-64.1002-1.29025-82.0118-4.53867c-17.8482-3.23691-29.9689-8.55518-42.8399-17.9653C328.064 459.106 313.814 431.385 313.814 403.991z" fill="#2D86D0" style="fill:#2D86D0;"/>
   <path d="M314.713 403.991c0-27.14 14.1256-54.6064 36.344-70.9265c25.0969-18.4237 52.0978-22.3458 124.337-22.3458h73.2096c39.7319 0 63.9368 1.28305 81.778 4.51337c17.737 3.21146 29.7503 8.4808 42.5215 17.8079c22.2441 16.3341 36.3827 43.8094 36.3827 70.9511c0 27.1419-14.1257 54.6076-36.3438 70.9254c-25.0964 18.4231-52.0972 22.3453-124.338 22.3453h-73.2096c-39.7309 0-63.936-1.28262-81.778-4.51282c-17.7348-3.21078-29.7486-8.48038-42.5205-17.8069C328.853 458.606 314.713 431.131 314.713 403.991z" fill="#2D87D0" style="fill:#2D87D0;"/>
   <path d="M315.613 403.991c0-26.8859 14.0158-54.1066 36.0488-70.2729c24.8902-18.2516 51.6817-22.1615 123.784-22.1615h73.1078c39.6272 0 63.7726 1.27542 81.5443 4.48752c17.6236 3.18536 29.53 8.40604 42.2021 17.6494c22.059 16.1804 36.0875 43.4099 36.0875 70.2975c0 26.8878-14.0158 54.1078-36.0485 70.2718c-24.8897 18.251-51.6811 22.161-123.785 22.161h-73.1078c-39.6262 0-63.7719-1.27499-81.5443-4.48697c-17.6215-3.18472-29.5283-8.40564-42.2011-17.6484C329.643 458.106 315.613 430.877 315.613 403.991z" fill="#2E88D1" style="fill:#2E88D1;"/>
   <path d="M316.512 403.991c0-26.6318 13.9059-53.6068 35.7535-69.6194c24.6834-18.0794 51.2655-21.9771 123.231-21.9771h73.006c39.5224 0 63.6085 1.26779 81.3104 4.46167c17.5103 3.15927 29.3097 8.33124 41.8828 17.4908c21.8737 16.0266 35.7924 43.0104 35.7924 69.644c0 26.6337-13.9059 53.6079-35.7532 69.6182c-24.683 18.0789-51.265 21.9767-123.232 21.9767h-73.006c-39.5214 0-63.6078-1.2674-81.3105-4.46112c-17.5081-3.15863-29.308-8.33084-41.8817-17.4899C330.432 457.606 316.512 430.622 316.512 403.991z" fill="#2F89D1" style="fill:#2F89D1;"/>
   <path d="M317.411 403.991c0-26.3777 13.7961-53.107 35.4583-68.9658c24.4767-17.9073 50.8494-21.7928 122.678-21.7928h72.9042c39.4177 0 63.4443 1.26019 81.0766 4.43579c17.397 3.13324 29.0894 8.25647 41.5634 17.3323c21.6884 15.8729 35.4972 42.6109 35.4972 68.9904c0 26.3796-13.796 53.1081-35.4579 68.9646c-24.4764 17.9068-50.8488 21.7923-122.679 21.7923h-72.9042c-39.4167 0-63.4436-1.25977-81.0767-4.43527c-17.3948-3.13257-29.0877-8.25604-41.5623-17.3314C331.221 457.107 317.411 430.368 317.411 403.991z" fill="#2F8AD2" style="fill:#2F8AD2;"/>
   <path d="M318.31 403.991c0-26.1237 13.6862-52.6072 35.163-68.3122c24.27-17.7352 50.4332-21.6084 122.124-21.6084h72.8024c39.3129 0 63.2802 1.25256 80.8428 4.40994c17.2836 3.10718 28.8691 8.18167 41.2439 17.1738c21.5032 15.7192 35.2021 42.2114 35.2021 68.3368c0 26.1255-13.6862 52.6083-35.1626 68.311c-24.2697 17.7347-50.4327 21.608-122.126 21.608h-72.8024c-39.3119 0-63.2795-1.25217-80.843-4.40939c-17.2814-3.10654-28.8674-8.18127-41.2429-17.1729C332.011 456.607 318.31 430.114 318.31 403.991z" fill="#308BD3" style="fill:#308BD3;"/>
   <path d="M319.21 403.991c0-25.8696 13.5763-52.1075 34.8678-67.6586c24.0633-17.563 50.0171-21.424 121.571-21.424h72.7006c39.2081 0 63.116 1.245 80.609 4.38406c17.1703 3.08118 28.6488 8.1069 40.9246 17.0153c21.3179 15.5655 34.9069 41.812 34.9069 67.6832c0 25.8714-13.5764 52.1085-34.8674 67.6574c-24.063 17.5627-50.0166 21.4236-121.573 21.4236h-72.7006c-39.2072 0-63.1153-1.24457-80.6092-4.38354c-17.1681-3.08051-28.6471-8.10651-40.9236-17.0144C332.8 456.107 319.21 429.86 319.21 403.991z" fill="#318CD3" style="fill:#318CD3;"/>
   <path d="M320.109 403.991c0-25.6155 13.4665-51.6077 34.5725-67.005c23.8565-17.3909 49.6009-21.2397 121.018-21.2397h72.5988c39.1034 0 62.9518 1.23743 80.3752 4.35825c17.0569 3.05515 28.4285 8.0321 40.6051 16.8568c21.1327 15.4117 34.6118 41.4124 34.6118 67.0296c0 25.6173-13.4664 51.6087-34.572 67.0038c-23.8564 17.3906-49.6005 21.2393-121.02 21.2393H475.7c-39.1024 0-62.9512-1.23703-80.3754-4.35773c-17.0547-3.0545-28.4268-8.03171-40.6042-16.8559C333.589 455.607 320.109 429.606 320.109 403.991z" fill="#318DD4" style="fill:#318DD4;"/>
   <path d="M321.008 403.991c0-25.3614 13.3566-51.1078 34.2773-66.3514c23.6498-17.2188 49.1847-21.0553 120.465-21.0553h72.4969c38.9987 0 62.7877 1.22986 80.1414 4.33237c16.9435 3.02917 28.2082 7.95734 40.2857 16.6983c20.9474 15.258 34.3167 41.013 34.3167 66.376c0 25.3632-13.3566 51.1089-34.2767 66.3502c-23.6497 17.2185-49.1844 21.055-120.467 21.055h-72.4969c-38.9977 0-62.787-1.22946-80.1416-4.33185c-16.9413-3.0285-28.2065-7.95694-40.2848-16.6974C334.379 455.107 321.008 429.352 321.008 403.991z" fill="#328ED4" style="fill:#328ED4;"/>
   <path d="M321.907 403.991c0-25.1073 13.2468-50.6081 33.982-65.6978c23.4431-17.0467 48.7686-20.8709 119.912-20.8709h72.3951c38.8939 0 62.6235 1.22232 79.9076 4.30649c16.8302 3.0032 27.9879 7.88257 39.9664 16.5398c20.7622 15.1042 34.0215 40.6135 34.0215 65.7224c0 25.1091-13.2467 50.6091-33.9815 65.6966c-23.443 17.0464-48.7682 20.8706-119.914 20.8706h-72.3951c-38.8929 0-62.6228-1.22192-79.9078-4.306c-16.828-3.00253-27.9862-7.88217-39.9654-16.5389C335.168 454.607 321.907 429.098 321.907 403.991z" fill="#338FD5" style="fill:#338FD5;"/>
   <path d="M322.807 403.991c0-24.8532 13.1369-50.1083 33.6867-65.0442c23.2364-16.8745 48.3524-20.6866 119.359-20.6866h72.2933c38.7891 0 62.4594 1.21478 79.6738 4.28064c16.7168 2.97723 27.7676 7.80777 39.6469 16.3813c20.577 14.9505 33.7263 40.214 33.7263 65.0688c0 24.855-13.1368 50.1093-33.6862 65.043c-23.2363 16.8743-48.3521 20.6863-119.361 20.6863h-72.2933c-38.7882 0-62.4587-1.21439-79.674-4.28015c-16.7146-2.97656-27.7659-7.80737-39.646-16.3805C335.957 454.108 322.807 428.844 322.807 403.991z" fill="#3390D5" style="fill:#3390D5;"/>
   <path d="M323.706 403.991c0-24.5992 13.0271-49.6085 33.3915-64.3906c23.0297-16.7024 47.9363-20.5022 118.806-20.5022h72.1915c38.6844 0 62.2952 1.20724 79.44 4.25476c16.6035 2.95129 27.5473 7.733 39.3275 16.2228c20.3917 14.7968 33.4312 39.8145 33.4312 64.4153c0 24.6009-13.027 49.6094-33.3909 64.3894c-23.0297 16.7022-47.936 20.502-118.808 20.502h-72.1915c-38.6834 0-62.2945-1.20685-79.4402-4.25427c-16.6012-2.95062-27.5456-7.73261-39.3266-16.222C336.747 453.608 323.706 428.59 323.706 403.991z" fill="#3491D6" style="fill:#3491D6;"/>
   <path d="M324.605 403.991c0-24.3451 12.9172-49.1087 33.0963-63.7371c22.8229-16.5303 47.5201-20.3179 118.253-20.3179h72.0897c38.5796 0 62.131 1.19977 79.2062 4.22894c16.4901 2.92535 27.327 7.6582 39.0082 16.0643c20.2065 14.643 33.136 39.415 33.136 63.7617c0 24.3468-12.9171 49.1096-33.0956 63.7358c-22.823 16.5301-47.5199 20.3176-118.255 20.3176h-72.0897c-38.5787 0-62.1303-1.1994-79.2065-4.22845c-16.4878-2.92471-27.3253-7.65781-39.0072-16.0635C337.536 453.108 324.605 428.336 324.605 403.991z" fill="#3592D7" style="fill:#3592D7;"/>
   <path d="M325.504 403.991c0-24.091 12.8073-48.6089 32.801-63.0835c22.6162-16.3582 47.104-20.1335 117.7-20.1335h71.9879c38.4749 0 61.9668 1.19229 78.9724 4.20306c16.3767 2.89944 27.1067 7.58344 38.6887 15.9058c20.0212 14.4893 32.8409 39.0155 32.8409 63.1081c0 24.0927-12.8072 48.6098-32.8003 63.0822c-22.6163 16.358-47.1038 20.1333-117.702 20.1333h-71.9879c-38.4739 0-61.9662-1.19189-78.9727-4.20261c-16.3745-2.89877-27.105-7.58304-38.6878-15.905C338.326 452.608 325.504 428.082 325.504 403.991z" fill="#3593D7" style="fill:#3593D7;"/>
   <path d="M326.404 403.991c0-23.8369 12.6974-48.1092 32.5057-62.4299c22.4095-16.1861 46.6878-19.9492 117.147-19.9492h71.8861c38.3701 0 61.8026 1.18481 78.7386 4.17722c16.2634 2.87354 26.8864 7.50864 38.3693 15.7473c19.836 14.3356 32.5458 38.616 32.5458 62.4545c0 23.8386-12.6973 48.11-32.5051 62.4286c-22.4097 16.1859-46.6876 19.9489-117.149 19.9489h-71.8861c-38.3692 0-61.802-1.18442-78.7389-4.17673c-16.261-2.87289-26.8846-7.50827-38.3684-15.7465C339.115 452.108 326.404 427.828 326.404 403.991z" fill="#3694D8" style="fill:#3694D8;"/>
   <path d="M327.303 403.991c0-23.5829 12.5876-47.6094 32.2105-61.7763c22.2027-16.0139 46.2716-19.7648 116.593-19.7648h71.7843c38.2653 0 61.6384 1.17734 78.5048 4.15134c16.15 2.84769 26.6661 7.43387 38.05 15.5888c19.6508 14.1818 32.2505 38.2165 32.2505 61.8009c0 23.5845-12.5874 47.6102-32.2097 61.7749c-22.203 16.0138-46.2715 19.7646-116.596 19.7646h-71.7843c-38.2644 0-61.6378-1.17697-78.5051-4.15088c-16.1477-2.84702-26.6644-7.43347-38.049-15.588C339.904 451.608 327.303 427.573 327.303 403.991z" fill="#3795D8" style="fill:#3795D8;"/>
   <path d="M328.202 403.991c0-23.3288 12.4778-47.1096 31.9153-61.1227c21.996-15.8418 45.8555-19.5804 116.04-19.5804h71.6825c38.1606 0 61.4742 1.16989 78.271 4.12546c16.0366 2.82184 26.4458 7.35907 37.7305 15.4303c19.4655 14.0281 31.9554 37.8171 31.9554 61.1474c0 23.3304-12.4776 47.1104-31.9144 61.1213c-21.9963 15.8417-45.8554 19.5803-116.043 19.5803h-71.6825c-38.1597 0-61.4736-1.16953-78.2714-4.125c-16.0343-2.8212-26.444-7.3587-37.7296-15.4296C340.694 451.109 328.202 427.319 328.202 403.991z" fill="#3796D9" style="fill:#3796D9;"/>
   <path d="M329.101 403.991c0-23.0747 12.3679-46.6098 31.62-60.4691c21.7893-15.6697 45.4393-19.3961 115.487-19.3961h71.5807c38.0558 0 61.3101 1.16248 78.0372 4.09964c15.9232 2.79599 26.2255 7.28427 37.4111 15.2718c19.2803 13.8744 31.6603 37.4176 31.6603 60.4938c0 23.0763-12.3677 46.6105-31.6191 60.4677c-21.7897 15.6696-45.4393 19.3959-115.489 19.3959h-71.5807c-38.0549 0-61.3094-1.16211-78.0376-4.09918c-15.9209-2.79535-26.2238-7.28394-37.4102-15.2711C341.483 450.609 329.101 427.065 329.101 403.991z" fill="#3897D9" style="fill:#3897D9;"/>
   <path d="M330.001 403.99c0-22.8206 12.258-46.11 31.3247-59.8155c21.5826-15.4976 45.0232-19.2117 114.934-19.2117h71.4789c37.951 0 61.1459 1.15506 77.8034 4.07376c15.8098 2.77017 26.0052 7.2095 37.0917 15.1133c19.095 13.7207 31.3651 37.0181 31.3651 59.8402c0 22.8222-12.2578 46.1107-31.3239 59.8141c-21.583 15.4975-45.0232 19.2116-114.936 19.2116h-71.4789c-37.9502 0-61.1452-1.15469-77.8038-4.07333c-15.8075-2.7695-26.0034-7.20914-37.0909-15.1125C342.272 450.109 330.001 426.811 330.001 403.99z" fill="#3998DA" style="fill:#3998DA;"/>
   <path d="M330.9 403.99c0-22.5665 12.1482-45.6102 31.0295-59.1619c21.3758-15.3254 44.607-19.0273 114.381-19.0273h71.3771c37.8463 0 60.9817 1.14767 77.5696 4.04791c15.6964 2.74435 25.7849 7.1347 36.7723 14.9548c18.9098 13.5669 31.07 36.6186 31.07 59.1866c0 22.5681-12.1479 45.6109-31.0286 59.1606c-21.3763 15.3254-44.6071 19.0273-114.383 19.0273h-71.3771c-37.8454 0-60.981-1.14731-77.57-4.04745c-15.6941-2.74371-25.7831-7.13437-36.7715-14.9541C343.062 449.609 330.9 426.557 330.9 403.99z" fill="#3999DB" style="fill:#3999DB;"/>
   <path d="M331.799 403.99c0-22.3125 12.0383-45.1104 30.7342-58.5083c21.1691-15.1533 44.1909-18.843 113.828-18.843h71.2752c37.7416 0 60.8174 1.14029 77.3358 4.02203c15.5831 2.71857 25.5646 7.05994 36.4529 14.7963c18.7245 13.4132 30.7748 36.2191 30.7748 58.533c0 22.314-12.038 45.1111-30.7333 58.5069c-21.1697 15.1534-44.1909 18.8429-113.83 18.8429h-71.2752c-37.7407 0-60.8169-1.13992-77.3363-4.02161c-15.5807-2.71793-25.5783-7.03778-36.4521-14.7956C343.824 449.147 331.799 426.303 331.799 403.99z" fill="#3A9ADB" style="fill:#3A9ADB;"/>
   <path d="M332.698 403.99c0-22.0584 11.9284-44.6107 30.439-57.8547c20.9624-14.9812 43.7747-18.6586 113.275-18.6586h71.1734c37.6368 0 60.6533 1.13293 77.102 3.99615c15.4696 2.69281 25.3443 6.98517 36.1335 14.6378c18.5393 13.2595 30.4797 35.8196 30.4797 57.8794c0 22.0599-11.9282 44.6113-30.438 57.8533c-20.963 14.9812-43.7748 18.6586-113.277 18.6586H476.412c-37.636 0-60.6527-1.13257-77.1025-3.99576c-15.4673-2.69217-25.3582-6.96283-36.1327-14.6371C344.613 448.647 332.698 426.049 332.698 403.99z" fill="#3B9BDC" style="fill:#3B9BDC;"/>
   <path d="M333.598 403.99c0-21.8043 11.8186-44.1109 30.1437-57.2012c20.7557-14.8091 43.3586-18.4743 112.722-18.4743h71.0716c37.532 0 60.489 1.12561 76.8682 3.97034c15.3563 2.66705 25.1392 6.88901 35.8141 14.4793c18.3802 13.069 30.1846 35.4201 30.1846 57.2258c0 21.8058-11.8184 44.1115-30.1427 57.1997c-20.7563 14.8091-43.3587 18.4743-112.724 18.4743h-71.0716c-37.5312 0-60.4885-1.12524-76.8687-3.96991c-15.3538-2.66644-25.1379-6.88788-35.8133-14.4786C345.403 448.148 333.598 425.795 333.598 403.99z" fill="#3B9CDC" style="fill:#3B9CDC;"/>
   <path d="M334.497 403.99c0-21.5502 11.7087-43.6111 29.8484-56.5476c20.549-14.6369 42.9424-18.2899 112.169-18.2899h70.9698c37.4273 0 60.3248 1.11829 76.6343 3.94446c15.2429 2.64136 24.919 6.81406 35.4948 14.3208c18.1952 12.915 29.8894 35.0206 29.8894 56.5723c0 21.5517-11.7084 43.6117-29.8474 56.5461c-20.5496 14.6371-42.9426 18.2899-112.171 18.2899h-70.9698c-37.4265 0-60.3243-1.11792-76.6349-3.94406c-15.2404-2.64069-24.9177-6.81293-35.4939-14.3201C346.192 447.648 334.497 425.541 334.497 403.99z" fill="#3C9DDD" style="fill:#3C9DDD;"/>
   <path d="M335.396 403.99c0-21.2962 11.5989-43.1113 29.5532-55.894c20.3422-14.4648 42.5262-18.1056 111.616-18.1056h70.868c37.3225 0 60.1606 1.11096 76.4006 3.91861c15.1294 2.61563 24.6987 6.73911 35.1754 14.1623c18.01 12.761 29.5942 34.6212 29.5942 55.9187c0 21.2975-11.5986 43.1118-29.5521 55.8925c-20.343 14.465-42.5265 18.1056-111.618 18.1056H476.565c-37.3217 0-60.1601-1.11063-76.4012-3.91821c-15.127-2.61499-24.6975-6.73798-35.1745-14.1616C346.981 447.149 335.396 425.287 335.396 403.99z" fill="#3D9EDE" style="fill:#3D9EDE;"/>
   <path d="M336.296 403.99c0-21.0421 11.489-42.6115 29.258-55.2404c20.1355-14.2927 42.1101-17.9212 111.063-17.9212h70.7662c37.2178 0 59.9964 1.1037 76.1667 3.89273c15.016 2.58997 24.4786 6.66418 34.856 14.0038c17.8249 12.607 29.2991 34.2216 29.2991 55.2651c0 21.0435-11.4886 42.612-29.2568 55.2389c-20.1363 14.2928-42.1103 17.9212-111.065 17.9212h-70.7662c-37.2169 0-59.9958-1.10333-76.1674-3.89233c-15.0135-2.58933-24.4773-6.66306-34.8551-14.0031C347.77 446.649 336.296 425.033 336.296 403.99z" fill="#3D9FDE" style="fill:#3D9FDE;"/>
   <path d="M337.195 403.99c0-20.788 11.3792-42.1118 28.9627-54.5868c19.9288-14.1205 41.6939-17.7368 110.509-17.7368h70.6644c37.113 0 59.8322 1.09641 75.933 3.86688c14.9026 2.56427 24.2583 6.58923 34.5365 13.8452c17.6398 12.453 29.004 33.8222 29.004 54.6115s-11.3788 42.1122-28.9615 54.5853c-19.9296 14.1208-41.6942 17.7369-110.512 17.7369h-70.6644c-37.1122 0-59.8316-1.09607-75.9336-3.86649c-14.9001-2.56363-24.2571-6.5881-34.5357-13.8447C348.56 446.149 337.195 424.779 337.195 403.99z" fill="#3EA0DF" style="fill:#3EA0DF;"/>
   <path d="M338.094 403.99c0-20.5339 11.2693-41.612 28.6674-53.9332c19.722-13.9484 41.2778-17.5525 109.956-17.5525h70.5626c37.0082 0 59.6679 1.0892 75.6992 3.84103c14.7892 2.53864 24.0381 6.51431 34.2171 13.6868c17.4547 12.2991 28.7089 33.4227 28.7089 53.9579s-11.2689 41.6124-28.6663 53.9317c-19.723 13.9487-41.2781 17.5526-109.959 17.5526H476.718c-37.0074 0-59.6674-1.08887-75.6998-3.84067c-14.7867-2.53796-24.0368-6.51318-34.2163-13.6862C349.349 445.65 338.094 424.524 338.094 403.99z" fill="#3FA1DF" style="fill:#3FA1DF;"/>
   <path d="M338.993 403.99c0-20.2799 11.1594-41.1122 28.3722-53.2797c19.5153-13.7763 40.8616-17.3681 109.403-17.3681h70.4608c36.9035 0 59.5037 1.08197 75.4653 3.81515c14.6758 2.51303 23.8179 6.43939 33.8978 13.5283c17.2695 12.1451 28.4136 33.0232 28.4136 53.3044c0 20.2811-11.1591 41.1126-28.371 53.278c-19.5163 13.7766-40.8619 17.3683-109.406 17.3683h-70.4608c-36.9027 0-59.5032-1.08163-75.466-3.81479c-14.6733-2.51236-23.8166-6.43829-33.8969-13.5277C350.138 445.15 338.993 424.27 338.993 403.99z" fill="#3FA2E0" style="fill:#3FA2E0;"/>
   <path d="M339.893 403.99c0-20.0258 11.0496-40.6124 28.077-52.626c19.3086-13.6042 40.4454-17.1837 108.85-17.1837h70.359c36.7988 0 59.3395 1.07477 75.2316 3.78931c14.5623 2.4874 23.5976 6.36447 33.5783 13.3698c17.0844 11.9912 28.1185 32.6237 28.1185 52.6507c0 20.0271-11.0492 40.6128-28.0757 52.6245c-19.3096 13.6045-40.4459 17.1839-108.853 17.1839h-70.359c-36.7979 0-59.339-1.07443-75.2322-3.78894c-14.5598-2.48676-23.5963-6.36337-33.5775-13.3692C350.927 444.651 339.893 424.016 339.893 403.99z" fill="#40A3E0" style="fill:#40A3E0;"/>
   <path d="M340.792 403.99c0-19.7717 10.9397-40.1126 27.7817-51.9724c19.1019-13.432 40.0293-16.9994 108.297-16.9994h70.2572c36.694 0 59.1752 1.06757 74.9977 3.76343c14.4489 2.46182 23.3774 6.28958 33.2589 13.2112c16.8992 11.8373 27.8234 32.2242 27.8234 51.9972s-10.9393 40.113-27.7803 51.9709c-19.103 13.4324-40.0298 16.9995-108.3 16.9995h-70.2572c-36.6932 0-59.1747-1.06723-74.9984-3.76309c-14.4464-2.46118-23.3761-6.28845-33.2581-13.2107C351.717 444.151 340.792 423.762 340.792 403.99z" fill="#41A4E1" style="fill:#41A4E1;"/>
   <path d="M341.691 403.99c0-19.5176 10.8298-39.6128 27.4864-51.3188c18.8952-13.2599 39.6132-16.815 107.744-16.815h70.1554c36.5892 0 59.011 1.06039 74.7639 3.73758c14.3354 2.43625 23.1572 6.21466 32.9396 13.0527c16.714 11.6834 27.5282 31.8247 27.5282 51.3436c0 19.5189-10.8294 39.6132-27.4851 51.3173c-18.8963 13.2603-39.6136 16.8152-107.747 16.8152h-70.1554c-36.5884 0-59.0105-1.06009-74.7647-3.73721c-14.3329-2.43564-23.1559-6.21359-32.9388-13.0522C352.506 443.651 341.691 423.508 341.691 403.99z" fill="#41A5E2" style="fill:#41A5E2;"/>
   <path d="M342.59 403.99c0-19.2635 10.72-39.113 27.1912-50.6653c18.6884-13.0878 39.197-16.6307 107.191-16.6307h70.0536c36.4845 0 58.8467 1.05328 74.5302 3.71173c14.222 2.41074 22.9369 6.13977 32.6201 12.8943c16.5288 11.5295 27.2331 31.4252 27.2331 50.69s-10.7195 39.1133-27.1898 50.6637c-18.6896 13.0882-39.1975 16.6309-107.194 16.6309h-70.0536c-36.4837 0-58.8463-1.05298-74.5309-3.7114c-14.2195-2.41006-22.9356-6.13867-32.6194-12.8937C353.295 443.151 342.59 423.254 342.59 403.99z" fill="#42A6E2" style="fill:#42A6E2;"/>
   <path d="M343.49 403.99c0-19.0095 10.6101-38.6133 26.8959-50.0117c18.4817-12.9157 38.7809-16.4463 106.638-16.4463h69.9518c36.3797 0 58.6825 1.04617 74.2963 3.68588c14.1086 2.38519 22.7166 6.06488 32.3007 12.7357c16.3436 11.3756 26.9379 31.0258 26.9379 50.0364s-10.6097 38.6135-26.8945 50.01c-18.483 12.9161-38.7814 16.4466-106.641 16.4466h-69.9518c-36.3789 0-58.682-1.04587-74.2971-3.68555c-14.106-2.38455-22.7153-6.06378-32.3-12.7352C354.085 442.652 343.49 423 343.49 403.99z" fill="#43A7E3" style="fill:#43A7E3;"/>
   <path d="M344.389 403.99c0-18.7554 10.5002-38.1135 26.6007-49.3581c18.275-12.7436 38.3647-16.262 106.085-16.262h69.8499c36.275 0 58.5182 1.03909 74.0625 3.66c13.9951 2.35971 22.4964 5.99002 31.9814 12.5772c16.1584 11.2218 26.6428 30.6263 26.6428 49.3828c0 18.7565-10.4998 38.1137-26.5992 49.3564c-18.2763 12.744-38.3652 16.2622-106.087 16.2622h-69.8499c-36.2742 0-58.5177-1.03876-74.0633-3.65967c-13.9926-2.35907-22.4951-5.98895-31.9806-12.5768C354.874 442.152 344.389 422.746 344.389 403.99z" fill="#43A8E3" style="fill:#43A8E3;"/>
   <path d="M345.288 403.99c0-18.5013 10.3904-37.6137 26.3054-48.7045c18.0683-12.5714 37.9485-16.0776 105.532-16.0776h69.7481c36.1702 0 58.3539 1.03201 73.8287 3.63412c13.8817 2.33426 22.2761 5.91516 31.6619 12.4187c15.9731 11.068 26.3477 30.2268 26.3477 48.7292c0 18.5024-10.39 37.6139-26.304 48.7028c-18.0696 12.5719-37.9492 16.0779-105.534 16.0779h-69.7481c-36.1694 0-58.3535-1.03171-73.8296-3.63382c-13.8791-2.33359-22.2747-5.91409-31.6612-12.4183C355.663 441.652 345.288 422.492 345.288 403.99z" fill="#44A9E4" style="fill:#44A9E4;"/>
   <path d="M346.187 403.99c0-18.2473 10.2805-37.1139 26.0102-48.0509c17.8615-12.3993 37.5323-15.8932 104.978-15.8932h69.6463c36.0654 0 58.1897 1.02496 73.5949 3.60828c13.7682 2.30878 22.0558 5.8403 31.3425 12.2602c15.7879 10.9142 26.0525 29.8273 26.0525 48.0757c0 18.2483-10.28 37.1141-26.0086 48.0492c-17.863 12.3998-37.5331 15.8935-104.981 15.8935h-69.6463c-36.0647 0-58.1892-1.02466-73.5958-3.60797c-13.7656-2.30814-22.0545-5.83923-31.3418-12.2598C356.453 441.153 346.187 422.238 346.187 403.99z" fill="#45AAE4" style="fill:#45AAE4;"/>
   <path d="M347.087 403.99c0-17.9932 10.1707-36.6141 25.7149-47.3973c17.6548-12.2272 37.1162-15.7089 104.425-15.7089h69.5445c35.9607 0 58.0254 1.01797 73.3611 3.58243c13.6547 2.28339 21.8354 5.76547 31.0231 12.1017c15.6026 10.7603 25.7573 29.4278 25.7573 47.4221c0 17.9942-10.1702 36.6143-25.7134 47.3956c-17.6563 12.2278-37.1169 15.7092-104.428 15.7092h-69.5445c-35.9599 0-58.025-1.01767-73.362-3.58212c-13.6521-2.28275-21.8341-5.7644-31.0224-12.1013C357.242 440.653 347.087 421.984 347.087 403.99z" fill="#45ABE5" style="fill:#45ABE5;"/>
   <path d="M347.986 403.99c0-17.7391 10.0608-36.1143 25.4197-46.7438c17.4481-12.055 36.7-15.5245 103.872-15.5245h69.4427c35.856 0 57.8611 1.01099 73.1273 3.55658c13.5413 2.25797 21.6152 5.69061 30.7037 11.9432c15.4174 10.6066 25.4622 29.0283 25.4622 46.7685c0 17.7401-10.0602 36.1144-25.418 46.742c-17.4496 12.0556-36.7008 15.5249-103.875 15.5249h-69.4427c-35.8552 0-57.8607-1.01068-73.1282-3.55627c-13.5387-2.25732-21.6138-5.68958-30.703-11.9428C358.032 440.153 347.986 421.729 347.986 403.99z" fill="#46ACE6" style="fill:#46ACE6;"/>
   <path d="M348.885 403.99c0-17.485 9.95096-35.6145 25.1244-46.0901c17.2414-11.8829 36.2839-15.3401 103.319-15.3401h69.3409c35.7512 0 57.6968 1.00403 72.8935 3.5307c13.4279 2.2326 21.3949 5.61581 30.3843 11.7847c15.2321 10.4528 25.1671 28.6288 25.1671 46.1149s-9.95044 35.6147-25.1228 46.0884c-17.2429 11.8835-36.2847 15.3405-103.322 15.3405h-69.3409c-35.7505 0-57.6965-1.00372-72.8945-3.5304c-13.4252-2.23196-21.3935-5.61478-30.3836-11.7843C358.821 439.653 348.885 421.475 348.885 403.99z" fill="#47ADE6" style="fill:#47ADE6;"/>
   <path d="M349.784 403.99c0-17.2309 9.84109-35.1147 24.8292-45.4366c17.0346-11.7108 35.8677-15.1558 102.766-15.1558h69.2391c35.6464 0 57.5326 0.99707 72.6597 3.50485c13.3143 2.20721 21.1746 5.54099 30.0649 11.6262c15.0468 10.2991 24.8719 28.2293 24.8719 45.4613c0 17.2319-9.84058 35.1148-24.8275 45.4348c-17.0363 11.7115-35.8685 15.1562-102.769 15.1562h-69.2391c-35.6457 0-57.5322-0.996796-72.6607-3.50455c-13.3117-2.2066-21.1732-5.53995-30.0642-11.6258C359.61 439.153 349.784 421.221 349.784 403.99z" fill="#47AEE7" style="fill:#47AEE7;"/>
   <path d="M350.684 403.99c0-16.9768 9.73123-34.615 24.5339-44.783c16.8279-11.5387 35.4516-14.9714 102.213-14.9714h69.1373c35.5417 0 57.3683 0.990173 72.4259 3.47897c13.2009 2.18192 20.9542 5.46619 29.7455 11.4677c14.8615 10.1454 24.5767 27.8298 24.5767 44.8077c0 16.9778-9.73065 34.615-24.5322 44.7812c-16.8297 11.5393-35.4525 14.9718-102.216 14.9718H477.43c-35.541 0-57.3679-0.989899-72.4269-3.4787c-13.1982-2.18127-20.9529-5.46515-29.7448-11.4673C360.4 438.654 350.684 420.967 350.684 403.99z" fill="#48AFE7" style="fill:#48AFE7;"/>
   <path d="M351.583 403.99c0-16.7227 9.62137-34.1152 24.2386-44.1294c16.6212-11.3665 35.0354-14.7871 101.66-14.7871h69.0355c35.4369 0 57.204 0.983337 72.1921 3.45312c13.0874 2.15662 20.7339 5.39142 29.4261 11.3092c14.6761 9.99167 24.2816 27.4304 24.2816 44.1541c0 16.7237-9.62079 34.1152-24.2369 44.1276c-16.6229 11.3672-35.0363 14.7875-101.663 14.7875h-69.0355c-35.4362 0-57.2036-0.983032-72.1931-3.45285c-13.0847-2.15598-20.7325-5.39038-29.4254-11.3089C361.189 438.154 351.583 420.713 351.583 403.99z" fill="#49B0E8" style="fill:#49B0E8;"/>
   <path d="M352.482 403.99c0-16.4687 9.51151-33.6154 23.9434-43.4758c16.4145-11.1944 34.6193-14.6027 101.107-14.6027h68.9337c35.3322 0 57.0397 0.976471 71.9583 3.42728c12.9739 2.13132 20.5135 5.31662 29.1068 11.1507c14.4907 9.83801 23.9864 27.0309 23.9864 43.5005c0 16.4696-9.51086 33.6154-23.9416 43.474c-16.4163 11.1952-34.6202 14.6032-101.11 14.6032h-68.9337c-35.3315 0-57.0393-0.976196-71.9593-3.427c-12.9713-2.13071-20.5122-5.31561-29.1061-11.1504C361.979 437.654 352.482 420.459 352.482 403.99z" fill="#49B1E8" style="fill:#49B1E8;"/>
   <path d="M353.381 403.99c0-16.2146 9.40164-33.1156 23.6481-42.8222c16.2078-11.0223 34.2031-14.4183 100.554-14.4183h68.8318c35.2274 0 56.8754 0.969665 71.7245 3.4014c12.8604 2.10608 20.2932 5.24188 28.7874 10.9922c14.3054 9.68433 23.6913 26.6313 23.6913 42.847c0 16.2155-9.401 33.1156-23.6463 42.8204c-16.2097 11.0231-34.2041 14.4189-100.557 14.4189h-68.8318c-35.2267 0-56.875-0.969391-71.7256-3.40115c-12.8577-2.10544-20.2918-5.24084-28.7867-10.9919C362.768 437.154 353.381 420.205 353.381 403.99z" fill="#4AB2E9" style="fill:#4AB2E9;"/>
   <path d="M354.281 403.99c0-15.9605 9.29178-32.6158 23.3529-42.1686c16.001-10.8502 33.787-14.234 100.001-14.234h68.73c35.1226 0 56.7111 0.96286 71.4907 3.37555c12.7469 2.08084 20.0728 5.16711 28.468 10.8337c14.12 9.53073 23.3962 26.2319 23.3962 42.1934c0 15.9614-9.2912 32.6158-23.3511 42.1668c-16.0029 10.851-33.788 14.2345-100.004 14.2345h-68.73c-35.1219 0-56.7107-0.962585-71.4918-3.37527c-12.7442-2.08023-20.0714-5.16614-28.4673-10.8334C363.558 436.654 354.281 419.951 354.281 403.99z" fill="#4BB3EA" style="fill:#4BB3EA;"/>
   <path d="M355.18 403.99c0-15.7065 9.18195-32.116 23.0576-41.515c15.7943-10.678 33.3708-14.0496 99.4475-14.0496h68.6282c35.0179 0 56.5468 0.956116 71.2569 3.34967c12.6334 2.05566 19.8524 5.09238 28.1486 10.6752c13.9345 9.37714 23.101 25.8324 23.101 41.5398c0 15.7073-9.18127 32.1159-23.0557 41.5132c-15.7963 10.6789-33.3718 14.0502-99.4507 14.0502h-68.6282c-35.0172 0-56.5464-0.955841-71.258-3.34943c-12.6307-2.05502-19.851-5.0914-28.1479-10.6749C364.347 436.154 355.18 419.697 355.18 403.99z" fill="#4BB4EA" style="fill:#4BB4EA;"/>
   <path d="M356.079 403.99c0-15.4524 9.07205-31.6163 22.7624-40.8615c15.5876-10.5059 32.9547-13.8653 98.8944-13.8653h68.5264c34.9131 0 56.3824 0.949402 71.0231 3.32385c12.52 2.03049 19.6321 5.01767 27.8292 10.5167c13.7491 9.22357 22.8058 25.4329 22.8058 40.8862c0 15.4532-9.07141 31.6161-22.7604 40.8596c-15.5897 10.5068-32.9557 13.8658-98.8976 13.8658h-68.5264c-34.9124 0-56.3821-0.949158-71.0242-3.32361c-12.5172-2.02985-19.6306-5.01666-27.8285-10.5164C365.137 435.654 356.079 419.443 356.079 403.99z" fill="#4CB5EB" style="fill:#4CB5EB;"/>
   <path d="M356.978 403.99c0-15.1983 8.96219-31.1165 22.4671-40.2079c15.3809-10.3338 32.5385-13.6809 98.3413-13.6809h68.4246c34.8083 0 56.2181 0.942719 70.7893 3.29797c12.4064 2.00534 19.4116 4.94296 27.5097 10.3582c13.5637 9.07001 22.5107 25.0334 22.5107 40.2326c0 15.1991-8.96155 31.1163-22.4652 40.2059c-15.3829 10.3347-32.5396 13.6815-98.3445 13.6815h-68.4246c-34.8077 0-56.2178-0.942474-70.7904-3.29773c-12.4037-2.00473-19.4102-4.94199-27.5091-10.3579C365.927 435.154 356.978 419.189 356.978 403.99z" fill="#4CB6EB" style="fill:#4CB6EB;"/>
   <path d="M357.878 403.99c0-14.9442 8.85233-30.6167 22.1719-39.5543c15.1741-10.1617 32.1223-13.4966 97.7882-13.4966h68.3228c34.7036 0 56.0538 0.936066 70.5555 3.27209c12.2929 1.98026 19.1912 4.86829 27.1904 10.1997c13.3782 8.9165 22.2155 24.6339 22.2155 39.579c0 14.945-8.85162 30.6165-22.1699 39.5524c-15.1763 10.1626-32.1235 13.4972-97.7915 13.4972h-68.3228c-34.7029 0-56.0535-0.935821-70.5566-3.27188c-12.2902-1.97961-19.1898-4.86731-27.1897-10.1994C366.716 434.654 357.878 418.935 357.878 403.99z" fill="#4DB7EC" style="fill:#4DB7EC;"/>
   <path d="M358.777 403.99c0-14.6901 8.74249-30.1169 21.8766-38.9007c14.9674-9.98953 31.7061-13.3122 97.2351-13.3122h68.221c34.5989 0 55.8895 0.929474 70.3217 3.24625c12.1794 1.95514 18.9708 4.79361 26.871 10.0412c13.1927 8.76303 21.9204 24.2344 21.9204 38.9254c0 14.6909-8.74176 30.1167-21.8746 38.8987c-14.9697 9.99051-31.7074 13.3128-97.2385 13.3128h-68.221c-34.5982 0-55.8892-0.929199-70.3229-3.24603c-12.1766-1.9545-18.9693-4.79263-26.8703-10.041C367.506 434.154 358.777 418.68 358.777 403.99z" fill="#4EB8ED" style="fill:#4EB8ED;"/>
   <path d="M359.676 403.99c0-14.4361 8.63263-29.6171 21.5814-38.2471c14.7607-9.81741 31.29-13.1278 96.682-13.1278h68.1192c34.4941 0 55.7252 0.922882 70.0879 3.22037c12.0659 1.93008 18.7503 4.71899 26.5515 9.88269c13.0072 8.60956 21.6252 23.8349 21.6252 38.2719c0 14.4368-8.6319 29.6169-21.5793 38.2451c-14.7629 9.81839-31.2913 13.1285-96.6854 13.1285h-68.1192c-34.4934 0-55.7248-0.922638-70.0891-3.22015c-12.0631-1.92947-18.7489-4.71802-26.5509-9.88248C368.296 433.654 359.676 418.426 359.676 403.99z" fill="#4EB9ED" style="fill:#4EB9ED;"/>
   <path d="M360.575 403.99c0-14.182 8.52277-29.1173 21.2861-37.5935c14.554-9.64529 30.8739-12.9435 96.1289-12.9435h68.0174c34.3893 0 55.5608 0.916382 69.8541 3.19455c11.9523 1.90506 18.5299 4.64435 26.2322 9.72415c12.8216 8.45618 21.3301 23.4355 21.3301 37.6183c0 14.1827-8.52203 29.1171-21.284 37.5915c-14.5563 9.64633-30.8751 12.9442-96.1323 12.9442h-68.0174c-34.3887 0-55.5605-0.916138-69.8553-3.19434c-11.9496-1.90442-18.5284-4.6434-26.2315-9.72397C369.085 433.153 360.575 418.172 360.575 403.99z" fill="#4FBAEE" style="fill:#4FBAEE;"/>
   <path d="M361.475 403.99c0-13.9279 8.4129-28.6175 20.9908-36.9399c14.3473-9.47317 30.4577-12.7591 95.5758-12.7591h67.9156c34.2846 0 55.3964 0.909882 69.6202 3.16867c11.8389 1.88007 18.3094 4.56973 25.9128 9.56567c12.636 8.30276 21.035 23.0359 21.035 36.9647c0 13.9286-8.41217 28.6172-20.9888 36.9379c-14.3496 9.47421-30.459 12.7598-95.5792 12.7598h-67.9156c-34.2839 0-55.3961-0.909637-69.6215-3.16849c-11.836-1.87942-18.308-4.56879-25.9121-9.56549C369.875 432.653 361.475 417.918 361.475 403.99z" fill="#50BBEE" style="fill:#50BBEE;"/>
   <path d="M362.374 403.99c0-13.6738 8.30304-28.1177 20.6956-36.2863c14.1405-9.30103 30.0416-12.5747 95.0227-12.5747h67.8138c34.1798 0 55.2321 0.903412 69.3865 3.14282c11.7253 1.85507 18.0889 4.49515 25.5933 9.40714c12.4505 8.14944 20.7398 22.6365 20.7398 36.3111c0 13.6745-8.30225 28.1174-20.6934 36.2843c-14.1429 9.30209-30.0429 12.5755-95.0262 12.5755h-67.8138c-34.1792 0-55.2318-0.903168-69.3878-3.14261c-11.7225-1.85446-18.0875-4.49423-25.5927-9.40701C370.665 432.153 362.374 417.664 362.374 403.99z" fill="#50BCEF" style="fill:#50BCEF;"/>
   <path d="M363.273 403.99c0-13.4198 8.19318-27.618 20.4004-35.6328c13.9338-9.12891 29.6254-12.3904 94.4696-12.3904h67.712c34.0751 0 55.0677 0.897003 69.1526 3.11694c11.6118 1.83014 17.8685 4.42059 25.274 9.24866c12.2648 7.99612 20.4446 22.237 20.4446 35.6575c0 13.4204-8.19238 27.6176-20.3981 35.6307c-13.9363 9.13004-29.6268 12.3911-94.4731 12.3911h-67.712c-34.0744 0-55.0674-0.896759-69.154-3.11676c-11.6089-1.82953-17.867-4.41965-25.2733-9.2485C371.454 431.653 363.273 417.41 363.273 403.99z" fill="#51BDEF" style="fill:#51BDEF;"/>
   <path d="M364.172 403.99c0-13.1657 8.08331-27.1182 20.1051-34.9792c13.7271-8.95679 29.2092-12.206 93.9166-12.206h67.6101c33.9703 0 54.9033 0.890625 68.9189 3.09106c11.4982 1.80527 17.6479 4.34607 24.9545 9.09018c12.0792 7.84286 20.1495 21.8375 20.1495 35.0039c0 13.1663-8.08258 27.1178-20.1029 34.9771c-13.7296 8.95792-29.2106 12.2068-93.92 12.2068h-67.6101c-33.9697 0-54.9031-0.890411-68.9202-3.09091c-11.4954-1.8046-17.6464-4.34512-24.9539-9.09003C372.244 431.152 364.172 417.156 364.172 403.99z" fill="#52BEF0" style="fill:#52BEF0;"/>
   <path d="M365.072 403.99c0-12.9116 7.97345-26.6184 19.8098-34.3256c13.5204-8.78464 28.7931-12.0217 93.3635-12.0217h67.5083c33.8655 0 54.739 0.884308 68.6851 3.06525c11.3847 1.78036 17.4274 4.27155 24.6351 8.93164c11.8936 7.68964 19.8544 21.438 19.8544 34.3504c0 12.9122-7.97266 26.618-19.8076 34.3235c-13.5229 8.78583-28.7946 12.0225-93.367 12.0225h-67.5083c-33.865 0-54.7387-0.884094-68.6864-3.06506c-11.3818-1.77975-17.4259-4.27063-24.6346-8.93155C373.034 430.652 365.072 416.902 365.072 403.99z" fill="#52BFF1" style="fill:#52BFF1;"/>
   <path d="M365.971 403.99c0-12.6575 7.86359-26.1186 19.5146-33.672c13.3136-8.61252 28.3769-11.8373 92.8104-11.8373h67.4065c33.7608 0 54.5746 0.878021 68.4512 3.03937c11.2712 1.75552 17.2068 4.19708 24.3158 8.77316c11.7078 7.53644 19.5592 21.0385 19.5592 33.6968c0 12.6581-7.86279 26.1182-19.5123 33.6699c-13.3163 8.61374-28.3784 11.8381-92.814 11.8381h-67.4065c-33.7602 0-54.5744-0.877838-68.4527-3.03922c-11.2682-1.75488-17.2053-4.19614-24.3152-8.77304C373.824 430.152 365.971 416.648 365.971 403.99z" fill="#53C0F1" style="fill:#53C0F1;"/>
   <path d="M366.87 403.99c0-12.4035 7.75375-25.6188 19.2194-33.0184c13.1069-8.4404 27.9608-11.653 92.2573-11.653h67.3047c33.6561 0 54.4102 0.871796 68.2175 3.01352c11.1575 1.73071 16.9863 4.12259 23.9963 8.61462c11.5221 7.38333 19.264 20.639 19.264 33.0432c0 12.404-7.75287 25.6183-19.217 33.0163c-13.1096 8.44165-27.9623 11.6538-92.2609 11.6538h-67.3047c-33.6555 0-54.41-0.871582-68.2189-3.01334c-11.1547-1.7301-16.9847-4.1217-23.9958-8.61456C374.614 429.651 366.87 416.394 366.87 403.99z" fill="#54C1F2" style="fill:#54C1F2;"/>
   <path d="M367.769 403.99c0-12.1494 7.64389-25.119 18.9241-32.3648c12.9002-8.26828 27.5446-11.4686 91.7042-11.4686h67.2029c33.5513 0 54.2458 0.865601 67.9836 2.98764c11.044 1.70593 16.7657 4.04819 23.6769 8.45615c11.3364 7.23026 18.9689 20.2395 18.9689 32.3896c0 12.1499-7.64301 25.1186-18.9217 32.3627c-12.903 8.26953-27.5462 11.4695-91.7078 11.4695h-67.2029c-33.5507 0-54.2456-0.865417-67.9851-2.98749c-11.0411-1.70532-16.7642-4.0473-23.6764-8.45609C375.404 429.151 367.769 416.14 367.769 403.99z" fill="#54C2F2" style="fill:#54C2F2;"/>
   <path d="M368.669 403.99c0-11.8953 7.534-24.6192 18.6288-31.7112c12.6934-8.09616 27.1284-11.2842 91.1511-11.2842h67.1011c33.4465 0 54.0814 0.859467 67.7498 2.96179c10.9305 1.68118 16.5451 3.97379 23.3576 8.29764c11.1505 7.07721 18.6738 19.84 18.6738 31.736c0 11.8958-7.53314 24.6187-18.6264 31.7091c-12.6963 8.09747-27.1301 11.2851-91.1548 11.2851h-67.1011c-33.446 0-54.0812-0.859283-67.7513-2.96164c-10.9276-1.68057-16.5435-3.9729-23.357-8.29758C376.193 428.65 368.669 415.885 368.669 403.99z" fill="#55C3F3" style="fill:#55C3F3;"/>
   <path d="M369.568 403.99c0-11.6412 7.42413-24.1195 18.3336-31.0576c12.4867-7.92404 26.7123-11.0999 90.598-11.0999h66.9993c33.3418 0 53.917 0.853424 67.5161 2.93594c10.8169 1.65646 16.3245 3.89941 23.0381 8.13913c10.9647 6.92422 18.3786 19.4406 18.3786 31.0824c0 11.6417-7.42328 24.1189-18.3311 31.0555c-12.4896 7.92535-26.7139 11.1008-90.6017 11.1008h-66.9993c-33.3412 0-53.9168-0.85321-67.5175-2.93579c-10.814-1.65588-16.3229-3.89856-23.0376-8.1391C376.983 428.15 369.568 415.631 369.568 403.99z" fill="#56C4F3" style="fill:#56C4F3;"/>
   <path d="M370.467 403.99c0-11.3871 7.3143-23.6197 18.0383-30.404c12.28-7.75192 26.2961-10.9155 90.0449-10.9155h66.8975c33.237 0 53.7526 0.847382 67.2822 2.91006c10.7033 1.63181 16.1038 3.8251 22.7188 7.98065c10.7789 6.7713 18.0835 19.0411 18.0835 30.4288c0 11.3876-7.31342 23.6191-18.0358 30.4019c-12.283 7.7533-26.2979 10.9165-90.0486 10.9165h-66.8975c-33.2365 0-53.7524-0.847198-67.2838-2.90994c-10.7004-1.6312-16.1022-3.82422-22.7182-7.98062C377.773 427.649 370.467 415.377 370.467 403.99z" fill="#56C5F4" style="fill:#56C5F4;"/>
   <path d="M371.366 403.99c0-11.1331 7.20444-23.1199 17.7431-29.7505c12.0733-7.57977 25.88-10.7311 89.4918-10.7311h66.7957c33.1323 0 53.5881 0.8414 67.0484 2.88422c10.5898 1.60715 15.8832 3.75079 22.3994 7.82211c10.5929 6.61847 17.7883 18.6416 17.7883 29.7753c0 11.1335-7.20349 23.1193-17.7405 29.7483c-12.0762 7.58118-25.8817 10.7321-89.4955 10.7321h-66.7957c-33.1317 0-53.588-0.841217-67.05-2.88409c-10.5868-1.60654-15.8816-3.74994-22.3988-7.82211C378.563 427.148 371.366 415.123 371.366 403.99z" fill="#57C6F5" style="fill:#57C6F5;"/>
   <path d="M372.266 403.99c0-10.879 7.09457-22.6201 17.4478-29.0969c11.8665-7.40765 25.4638-10.5468 88.9387-10.5468h66.6939c33.0275 0 53.4237 0.83548 66.8146 2.85834c10.4762 1.58255 15.6624 3.67657 22.08 7.66364c10.407 6.46564 17.4932 18.2421 17.4932 29.1217c0 10.8794-7.09363 22.6195-17.4453 29.0946c-11.8696 7.40909-25.4656 10.5478-88.9425 10.5478h-66.6939c-33.027 0-53.4236-0.835297-66.8162-2.85822c-10.4732-1.58197-15.6609-3.67572-22.0794-7.66364C379.353 426.647 372.266 414.869 372.266 403.99z" fill="#58C7F5" style="fill:#58C7F5;"/>
   <path d="M373.165 403.99c0-10.6249 6.98471-22.1203 17.1526-28.4433c11.6598-7.23553 25.0477-10.3624 88.3856-10.3624h66.5921c32.9227 0 53.2593 0.82962 66.5808 2.83249c10.3626 1.55798 15.4418 3.60236 21.7606 7.5051c10.2211 6.31293 17.1981 17.8426 17.1981 28.4681c0 10.6253-6.98376 22.1197-17.15 28.441c-11.663 7.237-25.0495 10.3634-88.3895 10.3634h-66.5921c-32.9222 0-53.2591-0.829468-66.5824-2.83237c-10.3596-1.55737-15.4401-3.60153-21.76-7.50516C380.144 426.147 373.165 414.615 373.165 403.99z" fill="#58C8F6" style="fill:#58C8F6;"/>
   <path d="M374.064 403.99c0-10.3708 6.87488-21.6205 16.8573-27.7897c11.4531-7.06339 24.6315-10.1781 87.8325-10.1781h66.4903c32.818 0 53.0948 0.823852 66.347 2.80664c10.249 1.53345 15.2209 3.5282 21.4412 7.34662c10.035 6.16028 16.9028 17.4431 16.9028 27.8145c0 10.3712-6.87384 21.6198-16.8547 27.7874c-11.4562 7.06488-24.6333 10.1791-87.8364 10.1791h-66.4903c-32.8175 0-53.0947-0.8237-66.3486-2.80655c-10.246-1.53284-15.2194-3.52737-21.4406-7.34665C380.934 425.646 374.064 414.361 374.064 403.99z" fill="#59C9F6" style="fill:#59C9F6;"/>
   <path d="M374.963 403.99c0-10.1168 6.76498-21.1208 16.5621-27.1361c11.2464-6.89127 24.2154-9.99371 87.2794-9.99371h66.3885c32.7133 0 52.9304 0.818115 66.1132 2.78076c10.1354 1.50897 15.0002 3.4541 21.1218 7.18814c9.84894 6.00766 16.6077 17.0436 16.6077 27.1609c0 10.1171-6.76404 21.12-16.5594 27.1338c-11.2496 6.89279-24.2172 9.99478-87.2833 9.99478h-66.3885c-32.7127 0-52.9302-0.817963-66.1148-2.78067c-10.1324-1.50836-14.9986-3.45328-21.1213-7.18817C381.724 425.145 374.963 414.107 374.963 403.99z" fill="#5ACAF7" style="fill:#5ACAF7;"/>
   <path d="M375.863 403.99c0-9.8627 6.65512-20.621 16.2668-26.4825c11.0396-6.71915 23.7992-9.80936 86.7263-9.80936h66.2867c32.6085 0 52.7659 0.812439 65.8794 2.75491c10.0219 1.4845 14.7794 3.38004 20.8024 7.0296c9.6629 5.85519 16.3126 16.6441 16.3126 26.5074c0 9.86298-6.65417 20.6202-16.2641 26.4802c-11.043 6.7207-23.8011 9.81042-86.7303 9.81042h-66.2867c-32.608 0-52.7658-0.812286-65.8811-2.75482c-10.0188-1.48389-14.7778-3.37921-20.8018-7.02969C382.514 424.644 375.863 413.853 375.863 403.99z" fill="#5ACBF7" style="fill:#5ACBF7;"/>
   <path d="M376.762 403.99c0-9.60858 6.54526-20.1212 15.9716-25.8289c10.8329-6.54703 23.383-9.62497 86.1732-9.62497h66.1848c32.5037 0 52.5978 0.832062 65.6456 2.72903c9.90533 1.47925 14.5586 3.30603 20.483 6.87112c9.47668 5.70276 16.0174 16.2446 16.0174 25.8537c0 9.60889-6.54425 20.1204-15.9688 25.8266c-10.8362 6.54861-23.3849 9.6261-86.1772 9.6261h-66.1848c-32.5032 0-52.5976-0.832062-65.6473-2.72897c-9.90234-1.47873-14.5569-3.30521-20.4825-6.87119C383.304 424.142 376.762 413.599 376.762 403.99z" fill="#5BCCF8" style="fill:#5BCCF8;"/>
   <path d="M377.661 403.99c0-9.35452 6.43542-19.6214 15.6763-25.1753c10.6262-6.37491 22.9669-9.44061 85.6201-9.44061h66.083c32.399 0 52.4335 0.82489 65.4118 2.70319c9.79199 1.45349 14.3377 3.23209 20.1636 6.71259c9.29053 5.55045 15.7223 15.8452 15.7223 25.2002c0 9.3548-6.43439 19.6206-15.6735 25.173c-10.6296 6.3765-22.9689 9.44174-85.6241 9.44174h-66.083c-32.3985 0-52.4334-0.82489-65.4135-2.70309c-9.78894-1.453-14.3361-3.23132-20.1631-6.71271C384.095 423.641 377.661 413.345 377.661 403.99z" fill="#5CCDF9" style="fill:#5CCDF9;"/>
   <path d="M378.56 403.99c0-9.10043 6.32556-19.1216 15.3811-24.5217c10.4195-6.20279 22.5507-9.25629 85.067-9.25629h65.9812c32.2943 0 52.2693 0.817749 65.178 2.67734c9.67865 1.42776 14.1169 3.1582 19.8442 6.55411c9.10431 5.39819 15.4271 15.4457 15.4271 24.5466c0 9.10068-6.32446 19.1208-15.3782 24.5194c-10.423 6.20444-22.5528 9.25745-85.0711 9.25745h-65.9812c-32.2937 0-52.2692-0.817749-65.1797-2.67728c-9.67554-1.42725-14.1152-3.15744-19.8437-6.55423C384.885 423.14 378.56 413.091 378.56 403.99z" fill="#5CCEF9" style="fill:#5CCEF9;"/>
   <path d="M379.46 403.99c0-8.84637 6.2157-18.6218 15.0858-23.8682c10.2128-6.03064 22.1346-9.0719 84.5139-9.0719h65.8794c32.1895 0 52.1051 0.810547 64.9442 2.65149c9.56519 1.40201 13.8959 3.08438 19.5248 6.3956c8.91797 5.24606 15.132 15.0462 15.132 23.893c0 8.84659-6.21466 18.621-15.0829 23.8658c-10.2162 6.03232-22.1366 9.07309-84.518 9.07309h-65.8794c-32.189 0-52.105-0.810547-64.946-2.65143c-9.56213-1.40149-13.8942-3.08362-19.5243-6.39572C385.676 422.638 379.46 412.836 379.46 403.99z" fill="#5DCFFA" style="fill:#5DCFFA;"/>
   <path d="M380.359 403.99c0-8.59229 6.10583-18.122 14.7905-23.2146c10.006-5.85852 21.7184-8.88754 83.9608-8.88754h65.7776c32.0847 0 51.9409 0.803375 64.7104 2.62561c9.45184 1.37631 13.6749 3.01065 19.2054 6.23709c8.73169 5.09406 14.8369 14.6467 14.8369 23.2394c0 8.59247-6.1048 18.1212-14.7877 23.2122c-10.0096 5.86023-21.7205 8.88876-83.965 8.88876h-65.7776c-32.0842 0-51.9408-0.803375-64.7122-2.62555c-9.44873-1.37576-13.6732-3.00992-19.2049-6.23724C386.466 422.137 380.359 412.582 380.359 403.99z" fill="#5ED0FA" style="fill:#5ED0FA;"/>
   <path d="M381.258 403.99c0-8.3382 5.99594-17.6223 14.4953-22.561c9.79932-5.6864 21.3023-8.70319 83.4077-8.70319h65.6758c31.98 0 51.7767 0.796204 64.4766 2.59973c9.3385 1.35059 13.4482 2.94696 18.886 6.07861c8.53625 4.95779 14.5417 14.2472 14.5417 22.5858c0 8.33838-5.99487 17.6213-14.4923 22.5586c-9.80292 5.68814-21.3044 8.70441-83.4119 8.70441h-65.6758c-31.9795 0-51.7766-0.796204-64.4784-2.5997c-9.33533-1.35004-13.4462-2.94666-18.8855-6.07877C387.266 421.619 381.258 412.328 381.258 403.99z" fill="#5ED1FB" style="fill:#5ED1FB;"/>
   <path d="M382.157 403.99c0-8.08414 5.88611-17.1225 14.2-21.9074c9.59259-5.51425 20.8861-8.5188 82.8546-8.5188h65.574c31.8752 0 51.6124 0.789032 64.2428 2.57388c9.22504 1.32483 13.2279 2.87216 18.5666 5.92007c8.35095 4.80408 14.2465 13.8477 14.2465 21.9323c0 8.08426-5.88501 17.1215-14.1971 21.905c-9.59625 5.51605-20.8882 8.52008-82.8588 8.52008h-65.574c-31.8747 0-51.6124-0.789032-64.2446-2.57385c-9.22195-1.32428-13.2259-2.87189-18.5661-5.92026C388.055 421.119 382.157 412.074 382.157 403.99z" fill="#5FD2FC" style="fill:#5FD2FC;"/>
   <path d="M383.057 403.99c0-7.83005 5.77625-16.6227 13.9048-21.2538c9.38586-5.34213 20.4699-8.33447 82.3015-8.33447h65.4722c31.7704 0 51.4482 0.78186 64.009 2.54803c9.11169 1.2991 13.0076 2.79739 18.2472 5.7616c8.16571 4.65033 13.9514 13.4482 13.9514 21.2787c0 7.83017-5.77509 16.6217-13.9017 21.2514c-9.38959 5.34393-20.4722 8.33575-82.3058 8.33575h-65.4722c-31.77 0-51.4482-0.78186-64.0108-2.548c-9.10855-1.29855-13.0056-2.79712-18.2467-5.76178C388.845 420.619 383.057 411.82 383.057 403.99z" fill="#60D3FC" style="fill:#60D3FC;"/>
   <path d="M383.956 403.99c0-7.57599 5.66638-16.1229 13.6095-20.6002c9.17914-5.17001 20.0538-8.15012 81.7484-8.15012h65.3704c31.6657 0 51.284 0.774689 63.7752 2.52219c8.99829 1.27335 12.7873 2.7226 17.9277 5.60306c7.98053 4.49661 13.6562 13.0487 13.6562 20.6251c0 7.57605-5.66522 16.1219-13.6065 20.5977c-9.18286 5.17188-20.056 8.15143-81.7527 8.15143h-65.3704c-31.6653 0-51.2839-0.774689-63.7771-2.52216c-8.99515-1.2728-12.7853-2.72232-17.9273-5.6033C389.634 420.119 383.956 411.566 383.956 403.99z" fill="#60D4FD" style="fill:#60D4FD;"/>
   <path d="M384.855 403.99c0-7.3219 5.55652-15.6231 13.3143-19.9466c8.97241-4.99789 19.6376-7.96576 81.1953-7.96576h65.2686c31.5609 0 51.1198 0.767517 63.5414 2.49631c8.88489 1.24762 12.567 2.64783 17.6084 5.44458c7.79523 4.34286 13.3611 12.6493 13.3611 19.9715c0 7.32196-5.55542 15.6221-13.3112 19.9442c-8.97626 4.99976-19.6399 7.96707-81.1996 7.96707h-65.2686c-31.5605 0-51.1198-0.767517-63.5433-2.49631c-8.88177-1.24704-12.565-2.64752-17.608-5.44479C390.423 419.619 384.855 411.312 384.855 403.99z" fill="#61D5FD" style="fill:#61D5FD;"/>
   <path d="M385.754 403.99c0-7.06784 5.44669-15.1234 13.019-19.2931c8.76569-4.82578 19.2215-7.78137 80.6422-7.78137h65.1667c31.4562 0 50.9556 0.760315 63.3076 2.47046c8.77155 1.22186 12.3467 2.57303 17.289 5.28607c7.60999 4.18912 13.0659 12.2498 13.0659 19.3179c0 7.06787-5.4455 15.1223-13.0159 19.2906c-8.76959 4.82764-19.2238 7.78271-80.6466 7.78271h-65.1667c-31.4557 0-50.9555-0.760315-63.3095-2.47043c-8.76834-1.22131-12.3447-2.57278-17.2885-5.28632C391.213 419.12 385.754 411.058 385.754 403.99z" fill="#62D6FE" style="fill:#62D6FE;"/>
   <path d="M386.654 403.99c0-6.81372 5.33682-14.6235 12.7238-18.6394c8.55896-4.65366 18.8053-7.59702 80.0891-7.59702h65.0649c31.3514 0 50.7913 0.753143 63.0738 2.44458c8.65814 1.19614 12.1264 2.49826 16.9695 5.12756c7.42474 4.0354 12.7708 11.8503 12.7708 18.6643c0 6.81378-5.33563 14.6225-12.7206 18.637c-8.56287 4.65558-18.8077 7.59839-80.0935 7.59839h-65.0649c-31.351 0-50.7913-0.753143-63.0757-2.44458c-8.65497-1.19556-12.1244-2.49799-16.9692-5.12784C392.002 418.62 386.654 410.804 386.654 403.99z" fill="#62D7FE" style="fill:#62D7FE;"/>
   <path d="M479.518 429.388c-31.2462 0-50.6271-0.746002-62.8419-2.41873c-8.54156-1.16986-11.9041-2.42322-16.6498-4.96936c-7.23431-3.8797-12.4728-11.45-12.4728-18.0093c0-6.55966 5.22693-14.1237 12.4285-17.9858c8.35223-4.48154 18.3892-7.41269 79.536-7.41269h64.9631c31.2466 0 50.6271 0.746002 62.84 2.41873c8.54474 1.17041 11.9061 2.42349 16.6502 4.96909c7.2395 3.88165 12.4756 11.4508 12.4756 18.0107c0 6.55969-5.22577 14.1227-12.4254 17.9834c-8.35626 4.48346-18.3915 7.41406-79.5405 7.41406H479.518z" fill="#63D8FF" style="fill:#63D8FF;"/>
  </g>
 </g>
</svg>
