<?xml version="1.0" encoding="UTF-8"?>
<!--Generator: Apple Native CoreSVG 361-->
<!DOCTYPE svg
PUBLIC "-//W3C//DTD SVG 1.1//EN"
       "http://www.w3.org/Graphics/SVG/1.1/DTD/svg11.dtd">
<svg version="1.1" xmlns="http://www.w3.org/2000/svg" xmlns:xlink="http://www.w3.org/1999/xlink" viewBox="0 0 1024 1024">
 <g/>
 <g id="square">
  <path d="M897.118 293.133c-0.034668-6.04053-0.104492-12.0801-0.268066-18.1191c-0.356689-13.1597-1.13135-26.4341-3.47046-39.4473c-2.37329-13.2017-6.24609-25.4888-12.3516-37.4834c-6.00098-11.7896-13.8423-22.5781-23.1965-31.9321c-9.354-9.354-20.1426-17.1953-31.9316-23.1958c-11.9949-6.10596-24.2817-9.979-37.4836-12.3521c-13.0137-2.33887-26.2874-3.11328-39.447-3.47021c-6.03906-0.163574-12.0786-0.233398-18.1196-0.268555c-7.17188-0.0454102-14.3428-0.0419922-21.5146-0.0419922l-201.788 2.77733c-7.17212 0-14.3428-0.003418-21.5149 0.0419922c-6.04077 0.0351562-12.0803 0.104981-18.1194 0.268555c-13.1597 0.356934-26.4336 1.13135-39.4471 3.47021c-13.2018 2.37305-25.4886 6.24609-37.4835 12.3521c-11.7893 6.00049-22.5779 13.8418-31.9319 23.1958s-17.1953 20.1426-23.1963 31.9321c-6.10547 11.9946-9.97852 24.2817-12.3516 37.4834c-2.33936 13.0132-3.11401 26.2876-3.4707 39.4473c-0.163574 6.03906-0.233276 12.0786-0.267944 18.1191c-0.0452881 7.17236-0.0423584 14.3428-0.0423584 21.5151v204.547c0 7.17188-0.0029297 14.3428 0.0423584 21.5146c0.034668 6.04102 0.10437 12.0806 0.267944 18.1196c0.356689 13.1597 1.13135 26.4331 3.4707 39.4468c2.37305 13.2021 6.24609 25.4893 12.3516 37.4839c6.00098 11.7891 13.8423 22.5776 23.1963 31.9316s20.1426 17.1953 31.9319 23.1968c11.9949 6.10498 24.2817 9.97803 37.4835 12.3516c13.0135 2.33887 26.2875 3.11377 39.4471 3.46973c6.03906 0.164062 12.0786 0.233887 18.1194 0.268555c7.17212 0.0454102 14.3428 0.0419922 21.5149 0.0419922l201.788-2.77734c7.17188 0 14.3428 0.003418 21.5146-0.0419922c6.04102-0.034668 12.0806-0.104492 18.1196-0.268555c13.1597-0.355957 26.4333-1.13086 39.447-3.46973c13.2019-2.37354 25.4888-6.24658 37.4836-12.3516c11.7891-6.00146 22.5776-13.8428 31.9316-23.1968c9.35425-9.354 17.1956-20.1426 23.1965-31.9316c6.10547-11.9946 9.97827-24.2817 12.3516-37.4839c2.33911-13.0137 3.11377-26.2871 3.47046-39.4468c0.163574-6.03906 0.233398-12.0786 0.268066-18.1196c0.0454102-7.17188 0.0424805-14.3428 0.0424805-21.5146v-204.547C897.16 307.475 897.163 300.305 897.118 293.133z" fill="#217E94" style="fill:#217E94;"/>
 </g>
</svg>
