<?xml version="1.0" encoding="UTF-8"?>
<!--Generator: Apple Native CoreSVG 361-->
<!DOCTYPE svg
PUBLIC "-//W3C//DTD SVG 1.1//EN"
       "http://www.w3.org/Graphics/SVG/1.1/DTD/svg11.dtd">
<svg version="1.1" xmlns="http://www.w3.org/2000/svg" xmlns:xlink="http://www.w3.org/1999/xlink" viewBox="0 0 1024 1024">
 <g/>
 <g id="squiggle">
  <path d="M206.769 603.916C268.923 398.422 359.87 318.266 426.714 318.266c45.685 0 80.1102 37.4429 86.3872 97.9038c6.55414 66.1978-2.36768 108.065 13.5943 108.065c19.7584 0 41.5318-64.9205 67.4051-107.73c18.119-30.5766 47.7572-45.0136 76.2362-45.0136c32.2421 0 62.9985 18.5043 73.8713 53.0421c8.23846 25.1365 5.45776 91.0921 20.5971 91.0921c12.9232 0 17.5546-26.1354 34.3557-53.056c24.5089-38.7136 60.5118-67.2846 105.596-73.8426c19.8101-2.88159 31.5254 2.5314 34.7043 17.746c4.71661 22.5742-12.4468 31.456-26.7806 35.5627c-61.2885 17.5594-71.4455 80.532-91.7595 105.828c-14.9033 18.8223-35.7678 28.7052-56.4584 28.7052c-33.465 0-66.0766-26.2083-72.0718-81.5533c-3.39038-31.2987-4.15271-61.1506-21.9107-61.1506c-37.7 0-46.374 96.0311-94.4882 135.855c-15.2556 12.775-33.1818 19.235-50.5988 19.235c-37.7209 0-73.0539-30.3005-73.6994-92.3742c-1.62915-73.2565-2.03674-110.897-26.4156-110.897c-9.0318 0-20.0988 5.43085-31.8473 14.0064C318.623 457.09 275.025 609.757 269.675 625.985c-8.70654 26.412-25.0641 31.7493-43.9745 26.7502C208.437 648.172 198.309 631.885 206.769 603.916z" fill="#1AFAFB" style="fill:#1AFAFB;"/>
 </g>
</svg>
