<?xml version="1.0" encoding="UTF-8"?>
<!--Generator: Apple Native CoreSVG 361-->
<!DOCTYPE svg
PUBLIC "-//W3C//DTD SVG 1.1//EN"
       "http://www.w3.org/Graphics/SVG/1.1/DTD/svg11.dtd">
<svg version="1.1" xmlns="http://www.w3.org/2000/svg" xmlns:xlink="http://www.w3.org/1999/xlink" viewBox="0 0 1024 1024">
 <g/>
 <g id="buttonsorange">
  <path d="M604 498c0-27.6143 22.3857-50 50-50s50 22.3857 50 50c0 27.6142-22.3857 50-50 50S604 525.614 604 498zM654 590c-27.6143 0-50 22.3857-50 50c0 27.6142 22.3857 50 50 50s50-22.3858 50-50C704 612.386 681.614 590 654 590zM654 732c-27.6143 0-50 22.3857-50 50c0 27.6142 22.3857 50 50 50s50-22.3858 50-50C704 754.386 681.614 732 654 732z" fill="#FF8E00" style="fill:#FF8E00;"/>
 </g>
</svg>
