<?xml version="1.0" encoding="UTF-8"?>
<!--Generator: Apple Native CoreSVG 361-->
<!DOCTYPE svg
PUBLIC "-//W3C//DTD SVG 1.1//EN"
       "http://www.w3.org/Graphics/SVG/1.1/DTD/svg11.dtd">
<svg version="1.1" xmlns="http://www.w3.org/2000/svg" xmlns:xlink="http://www.w3.org/1999/xlink" viewBox="0 0 1024 1024">
 <g/>
 <g id="buttonsgrey">
  <path d="M420 498c0 27.6142-22.3857 50-50 50s-50-22.3858-50-50c0-27.6143 22.3857-50 50-50S420 470.386 420 498zM512 548c27.6143 0 50-22.3858 50-50c0-27.6143-22.3857-50-50-50s-50 22.3857-50 50C462 525.614 484.386 548 512 548zM370 590c-27.6143 0-50 22.3857-50 50c0 27.6142 22.3857 50 50 50s50-22.3858 50-50C420 612.386 397.614 590 370 590zM512 590c-27.6143 0-50 22.3857-50 50c0 27.6142 22.3857 50 50 50s50-22.3858 50-50C562 612.386 539.614 590 512 590zM370 732c-27.6143 0-50 22.3857-50 50c0 27.6142 22.3857 50 50 50s50-22.3858 50-50C420 754.386 397.614 732 370 732zM512 732c-27.6143 0-50 22.3857-50 50c0 27.6142 22.3857 50 50 50s50-22.3858 50-50C562 754.386 539.614 732 512 732z" fill="#D4D4D2" style="fill:#D4D4D2;"/>
 </g>
</svg>
