<?xml version="1.0" encoding="UTF-8"?>
<!--Generator: Apple Native CoreSVG 361-->
<!DOCTYPE svg
PUBLIC "-//W3C//DTD SVG 1.1//EN"
       "http://www.w3.org/Graphics/SVG/1.1/DTD/svg11.dtd">
<svg version="1.1" xmlns="http://www.w3.org/2000/svg" xmlns:xlink="http://www.w3.org/1999/xlink" viewBox="0 0 1024 1024">
 <g/>
 <g id="screen">
  <path d="M704 226v124c0 1.29828 0.0005493 2.59631-0.0076294 3.89459c-0.0062866 1.09351-0.0189209 2.18677-0.0485229 3.27991c-0.0645752 2.3822-0.204773 4.78503-0.628235 7.14069c-0.429627 2.38983-1.13068 4.61395-2.2359 6.78528c-1.0863 2.13403-2.50574 4.08698-4.19897 5.78027c-1.69324 1.69324-3.64618 3.11267-5.78027 4.19897c-2.17133 1.10522-4.39545 1.80627-6.78522 2.23584c-2.35571 0.423462-4.75854 0.56366-7.14069 0.628235c-1.0932 0.0296631-2.18646 0.0422363-3.27997 0.0485229C672.596 384.001 671.298 384 670 384H354c-1.29828 0-2.59631 0.0005493-3.89459-0.0076904c-1.09351-0.0062866-2.18677-0.0188599-3.27997-0.0485229c-2.38214-0.0645752-4.78497-0.204773-7.14069-0.628235c-2.38977-0.429565-4.61389-1.13062-6.78522-2.23584c-2.13409-1.0863-4.08704-2.50574-5.78027-4.19897c-1.69324-1.6933-3.11267-3.64624-4.19897-5.78027c-1.10522-2.17133-1.80627-4.39545-2.2359-6.78528c-0.423462-2.35565-0.56366-4.75848-0.628235-7.14069c-0.0296021-1.09314-0.0422363-2.1864-0.0485229-3.27991C319.999 352.596 320 351.298 320 350V226c0-1.29828-0.0005493-2.59631 0.0076294-3.89459c0.0062866-1.09351 0.0189209-2.18677 0.0485229-3.27997c0.0645752-2.38214 0.204773-4.78497 0.628235-7.14069c0.429627-2.38977 1.13068-4.61395 2.2359-6.78522c1.0863-2.13409 2.50574-4.08704 4.19897-5.78027c1.69324-1.6933 3.64618-3.11273 5.78027-4.19897c2.17133-1.10522 4.39545-1.80627 6.78522-2.2359c2.35571-0.423462 4.75854-0.56366 7.14069-0.628235c1.0932-0.0296021 2.18646-0.0422363 3.27997-0.0485229C351.404 191.999 352.702 192 354 192h316c1.29828 0 2.59631-0.0005493 3.89459 0.0076294c1.09351 0.0062866 2.18677 0.0189209 3.27997 0.0485229c2.38214 0.0645752 4.78497 0.204773 7.14069 0.628235c2.38977 0.429627 4.61389 1.13068 6.78522 2.2359c2.13409 1.08624 4.08704 2.50568 5.78027 4.19897c1.69324 1.69324 3.11267 3.64618 4.19897 5.78027c1.10522 2.17126 1.80627 4.39545 2.2359 6.78522c0.423462 2.35571 0.56366 4.75854 0.628235 7.14069c0.0296021 1.0932 0.0422363 2.18646 0.0485229 3.27997C704.001 223.404 704 224.702 704 226z" fill="#5A5A5A" style="fill:#5A5A5A;"/>
 </g>
</svg>
