<?xml version="1.0" encoding="UTF-8"?>
<!--Generator: Apple Native CoreSVG 361-->
<!DOCTYPE svg
PUBLIC "-//W3C//DTD SVG 1.1//EN"
       "http://www.w3.org/Graphics/SVG/1.1/DTD/svg11.dtd">
<svg version="1.1" xmlns="http://www.w3.org/2000/svg" xmlns:xlink="http://www.w3.org/1999/xlink" viewBox="0 0 1024 1024">
 <g/>
 <g id="vito">
  <path d="M717.148 385.995c0 10.5785-6.68042 19.2233-16.7027 22.0078c-12.8034 3.89471-103.268 13.9159-114.681 16.4069c-11.1336 2.78455-17.2578 11.4271-17.5364 25.3452c0 20.0446 0 85.7336 4.73187 116.056c4.73187 29.8018 39.5261 172.582 40.9183 178.442c4.17566 15.588-5.28815 28.6552-20.5985 28.6552c-10.856 0-18.9276-5.56903-22.2683-20.3016c-7.23663-29.2467-32.567-128.043-39.5261-151.985c-5.28925-16.6981-10.2987-23.3819-19.4849-23.3819c-9.18512 0-14.4744 6.68378-19.4849 23.3819c-7.23773 23.9415-32.2894 122.738-39.5261 151.985c-3.61945 14.7326-11.6909 20.3016-22.2683 20.3016c-15.3104 0-25.0517-13.0673-20.5985-28.6552c1.39111-5.86029 36.1865-148.64 40.9183-178.442c4.73187-30.3228 4.73187-96.0118 4.73187-116.056c-0.278687-13.9182-6.68036-22.5607-17.8151-25.3452c-11.1336-2.49103-101.599-12.5122-114.404-16.4069c-10.2987-2.78455-16.7015-11.4293-16.7015-22.0078c0-14.7371 10.2999-23.0862 20.5985-23.0862c3.61945 0 6.95905 0.557373 10.5774 1.11475C375.607 370.965 455.772 379.873 512 379.873s136.393-8.90869 173.972-15.8495c3.61835-0.557373 6.95795-1.11475 10.5774-1.11475C706.569 362.909 717.148 371.258 717.148 385.995zM512 353.591c28.3049 0 51.25-22.9451 51.25-51.25s-22.9451-51.25-51.25-51.25s-51.25 22.9451-51.25 51.25S483.695 353.591 512 353.591zM922 512c0 226.435-183.563 410-410 410S102 738.435 102 512c0-226.437 183.563-410 410-410S922 285.563 922 512zM875.409 512c0-200.384-163.025-363.409-363.409-363.409S148.591 311.616 148.591 512c0 200.386 163.025 363.409 363.409 363.409S875.409 712.386 875.409 512z"/>
 </g>
</svg>
