<?xml version="1.0" encoding="UTF-8"?>
<!--Generator: Apple Native CoreSVG 361-->
<!DOCTYPE svg
PUBLIC "-//W3C//DTD SVG 1.1//EN"
       "http://www.w3.org/Graphics/SVG/1.1/DTD/svg11.dtd">
<svg version="1.1" xmlns="http://www.w3.org/2000/svg" xmlns:xlink="http://www.w3.org/1999/xlink" viewBox="0 0 2048 1024">
 <g/>
 <g id="magnifier">
  <path d="M319.843 330.938l-22.6128-22.7663c5.56607-7.65732 8.83954-17.0698 8.83954-27.2837c0-26.1817-21.2855-47.4568-47.4673-47.4568c-26.1828 0-47.4683 21.2751-47.4683 47.4568c0 26.1932 21.2855 47.4672 47.4683 47.4672c9.73706 0 18.6726-2.99277 26.1222-8.0434l22.8194 22.8675c1.67712 1.67691 3.89865 2.47522 6.23712 2.47522c4.96204 0 8.51089-3.7504 8.51089-8.65381C322.292 334.694 321.446 332.541 319.843 330.938zM258.591 316.233c-19.4927 0-35.3334-15.851-35.3334-35.3448c0-19.4834 15.8407-35.3333 35.3334-35.3333c19.5157 0 35.3449 15.8499 35.3449 35.3333C293.936 300.382 278.107 316.233 258.591 316.233z" fill="#F0F0F0" style="fill:#F0F0F0;"/>
  <path d="M1235.13 337.001c0 4.90341 3.54883 8.65381 8.51086 8.65381c2.3385 0 4.56006-0.798309 6.23718-2.47522l22.8193-22.8675c7.44958 5.05063 16.3851 8.0434 26.1222 8.0434c26.1829 0 47.4683-21.274 47.4683-47.4672c0-26.1817-21.2854-47.4568-47.4683-47.4568c-26.1818 0-47.4673 21.2751-47.4673 47.4568c0 10.2139 3.27344 19.6263 8.8396 27.2837l-22.6128 22.7663C1235.98 332.541 1235.13 334.694 1235.13 337.001zM1263.49 280.888c0-19.4834 15.8292-35.3333 35.3448-35.3333c19.4927 0 35.3334 15.8499 35.3334 35.3333c0 19.4938-15.8407 35.3448-35.3334 35.3448C1279.32 316.233 1263.49 300.382 1263.49 280.888z" fill="#F0F0F0" style="fill:#F0F0F0;"/>
 </g>
</svg>
