<?xml version="1.0" encoding="UTF-8"?>
<!--Generator: Apple Native CoreSVG 361-->
<!DOCTYPE svg
PUBLIC "-//W3C//DTD SVG 1.1//EN"
       "http://www.w3.org/Graphics/SVG/1.1/DTD/svg11.dtd">
<svg version="1.1" xmlns="http://www.w3.org/2000/svg" xmlns:xlink="http://www.w3.org/1999/xlink" viewBox="0 0 1024 1024">
 <g/>
 <g id="logo">
  <path d="M567.578 393.077h52.9349v48.2053h-52.9349v152.473c0 22.5801 9.6637 32.6495 31.3326 32.6495c5.57947 0 14.9988-0.7724 18.6259-1.29333l2.71429-0.389465v2.74176v43.7156v1.93231l-1.8913 0.394104c-6.84497 1.42603-19.9323 2.42194-31.8269 2.42194c-55.7452 0-78.4839-22.2046-78.4839-76.6418V441.283h-40.5562v-48.2053h40.5562V327.24h59.5294V393.077zM842.08 393.118l-67.4774 218.179l-67.4781-218.179h-62.9785l99.4504 280.655h61.4887L904 393.118H842.08zM387.961 492.315c-0.467224-49.8571 40.6954-73.8228 42.5672-74.9763c-23.366-34.413-59.4566-38.2072-72.1702-39.1497c-32.4382-2.39969-59.9583 18.1188-75.3128 18.1188c-15.5778 0-39.5945-17.6011-65.0616-17.12c-33.4395 0.489838-64.2585 19.458-81.5013 49.3975c-34.7313 60.2856-8.86562 149.616 24.964 198.536c16.5487 23.9038 36.2857 50.841 62.2092 49.8602c24.9529-0.982361 34.3938-16.1395 64.5559-16.1395c30.1439 0 38.6485 16.1395 65.0351 15.6562c26.8585-0.499146 43.8754-24.3991 60.3025-48.4354c19.0091-27.745 26.8202-54.6095 27.2841-56.0294C440.238 571.808 388.479 551.949 387.961 492.315zM338.342 345.895c13.7769-16.6501 23.046-39.8383 20.4939-62.9023c-19.8287 0.786865-43.8096 13.2078-58.0318 29.8474c-12.736 14.7402-23.9208 38.348-20.884 60.941C302.021 375.489 324.577 362.556 338.342 345.895z" fill="#FFFFFF" style="fill:#FFFFFF;"/>
 </g>
</svg>
