<?xml version="1.0" encoding="UTF-8"?>
<!--Generator: Apple Native CoreSVG 361-->
<!DOCTYPE svg
PUBLIC "-//W3C//DTD SVG 1.1//EN"
       "http://www.w3.org/Graphics/SVG/1.1/DTD/svg11.dtd">
<svg version="1.1" xmlns="http://www.w3.org/2000/svg" xmlns:xlink="http://www.w3.org/1999/xlink" viewBox="0 0 1024 1024">
 <g/>
 <g id="screen">
  <path clip-rule="evenodd" d="M896.795 551.105c0 7.40771 0.0031128 14.8143-0.0437012 22.222c-0.0358276 6.23938-0.107788 12.4775-0.276855 18.715c-0.368408 13.5922-1.1684 27.3026-3.58466 40.744c-2.45117 13.6357-6.45142 26.3265-12.7576 38.7157c-6.19818 12.1768-14.2972 23.32-23.9588 32.9816c-9.66162 9.66156-20.8048 17.7607-32.9816 23.9589c-12.3892 6.30621-25.08 10.3065-38.7157 12.7576c-13.4414 2.4162-27.1517 3.21619-40.744 3.58459c-6.23755 0.169067-12.4756 0.241089-18.715 0.276917c-7.40771 0.046814-14.8143 0.0437012-22.222 0.0437012H321.205c-7.40775 0-14.8143 0.0031128-22.2221-0.0437012c-6.23938-0.0358276-12.4774-0.107849-18.715-0.276917c-13.5923-0.368408-27.3026-1.1684-40.744-3.58459c-13.6358-2.45117-26.3266-6.45142-38.7157-12.7576c-12.1768-6.19818-23.32-14.2973-32.9816-23.9589c-9.66158-9.66156-17.7607-20.8047-23.9588-32.9816c-6.30624-12.3892-10.3065-25.08-12.7576-38.7157c-2.41623-13.4414-3.21622-27.1517-3.58463-40.744c-0.169067-6.23755-0.241028-12.4756-0.276886-18.715c-0.0468063-7.40771-0.0436859-14.8143-0.0436859-22.222V322.027c0-7.40775-0.0031204-14.8143 0.0436859-22.2221c0.0358582-6.23938 0.107819-12.4774 0.276886-18.715c0.368408-13.5923 1.1684-27.3026 3.58463-40.744c2.45116-13.6358 6.4514-26.3266 12.7576-38.7157c6.19815-12.1768 14.2972-23.32 23.9588-32.9816c9.66156-9.66156 20.8048-17.7607 32.9816-23.9588c12.3892-6.30624 25.08-10.3065 38.7157-12.7576c13.4414-2.41623 27.1517-3.21622 40.744-3.58463c6.23752-0.169067 12.4756-0.241043 18.715-0.276886c7.40778-0.046814 14.8143-0.0436859 22.2221-0.0436859h381.59c7.40771 0 14.8143-0.0031281 22.222 0.0436859c6.23944 0.0358429 12.4775 0.107819 18.715 0.276886c13.5923 0.368408 27.3026 1.1684 40.744 3.58463c13.6357 2.45117 26.3265 6.4514 38.7157 12.7576c12.1768 6.19815 23.32 14.2973 32.9816 23.9588c9.66156 9.66156 17.7606 20.8048 23.9588 32.9816c6.30621 12.3892 10.3065 25.08 12.7576 38.7157c2.41626 13.4414 3.21625 27.1517 3.58466 40.744c0.169067 6.23752 0.241028 12.4756 0.276855 18.715c0.046814 7.40778 0.0437012 14.8143 0.0437012 22.2221V551.105z" fill="#FFFFFF" fill-rule="evenodd" style="fill-rule:evenodd;clip-rule:evenodd;fill:#FFFFFF;"/>
 </g>
</svg>
