<?xml version="1.0" encoding="UTF-8"?>
<!--Generator: Apple Native CoreSVG 361-->
<!DOCTYPE svg
PUBLIC "-//W3C//DTD SVG 1.1//EN"
       "http://www.w3.org/Graphics/SVG/1.1/DTD/svg11.dtd">
<svg version="1.1" xmlns="http://www.w3.org/2000/svg" xmlns:xlink="http://www.w3.org/1999/xlink" viewBox="0 0 1024 1024">
 <defs>
  <linearGradient id="SVGID_1_" x1="512" y1="884.765" x2="512" y2="546.118" gradientUnits="userSpaceOnUse">
   <stop offset="0" stop-color="#66afde" stop-opacity="1"/>
   <stop offset="1" stop-color="#87cbf2" stop-opacity="1"/>
  </linearGradient>
 </defs>
 <g/>
 <g id="folder.tile.top">
  <g>
   <path clip-rule="evenodd" d="M627.021 855.66c-4.34393 1.91211-8.68536 3.82471-13.0568 5.72473c-3.67981 1.60126-7.38007 3.19287-11.1369 4.75928c-8.18658 3.41339-16.6955 6.74585-25.9944 9.59167c-9.43347 2.88702-19.2212 5.13025-30.1843 6.70038c-10.7751 1.54321-22.0589 2.32898-33.3901 2.32904c-11.3312 0-22.615-0.785767-33.3902-2.32892c-10.9631-1.57013-20.7508-3.81335-30.1842-6.70032c-9.29898-2.84583-17.8079-6.17822-25.9945-9.59155c-3.75684-1.56641-7.45709-3.15802-11.1369-4.75928c-4.37137-1.90002-8.7128-3.81256-13.0567-5.72467l-123.253-54.2529c-7.50537-3.30365-15.0127-6.60541-22.4706-9.92999c-6.28529-2.79858-12.5327-5.61267-18.6811-8.46985c-13.3981-6.22614-26.4786-12.6974-37.649-19.7695c-11.332-7.17438-20.1371-14.6182-26.3002-22.9559c-6.05745-8.19476-9.14169-16.7764-9.14171-25.394s3.08421-17.1993 9.14163-25.3941c6.16306-8.33771 14.9681-15.7815 26.3001-22.9559c11.1704-7.07214 24.2508-13.5434 37.6489-19.7695c6.14842-2.85718 12.3958-5.67133 18.6811-8.46997c7.45793-3.32458 14.9653-6.62634 22.4706-9.92999l120.737-53.1457c4.34393-1.91211 8.68536-3.82471 13.0567-5.72473c3.67984-1.60126 7.38007-3.19287 11.1369-4.75928c8.18661-3.41333 16.6955-6.74579 25.9945-9.59161c9.43344-2.88696 19.2211-5.13019 30.1842-6.70032c10.7752-1.54321 22.059-2.32898 33.3901-2.32898c11.3311 0 22.615 0.785767 33.3901 2.32898c10.9631 1.57013 20.7508 3.81335 30.1843 6.70032c9.29895 2.84583 17.8079 6.17828 25.9944 9.59161c3.7569 1.56641 7.45709 3.15802 11.137 4.75928c4.3714 1.90002 8.71277 3.81262 13.0568 5.72473l123.253 54.2527c7.50537 3.30365 15.0127 6.60541 22.4706 9.92993c6.28528 2.79858 12.5327 5.61273 18.6811 8.46991c13.3981 6.22607 26.4786 12.6973 37.649 19.7694c11.332 7.17432 20.1371 14.6181 26.3002 22.9558C858.916 698.796 862 707.377 862 715.995c0 8.61761-3.08423 17.1992-9.14166 25.394c-6.16302 8.33771-14.9681 15.7815-26.3 22.9559c-11.1704 7.07214-24.2509 13.5434-37.6489 19.7695c-6.14844 2.85718-12.3958 5.67133-18.6811 8.46997c-7.45795 3.32452-14.9653 6.62634-22.4706 9.92999L627.021 855.66z" fill="url(#SVGID_1_)" fill-rule="evenodd" style="fill-rule:evenodd;clip-rule:evenodd;fill:url(#SVGID_1_);"/>
  </g>
 </g>
</svg>
