<?xml version="1.0" encoding="UTF-8"?>
<!--Generator: Apple Native CoreSVG 361-->
<!DOCTYPE svg
PUBLIC "-//W3C//DTD SVG 1.1//EN"
       "http://www.w3.org/Graphics/SVG/1.1/DTD/svg11.dtd">
<svg version="1.1" xmlns="http://www.w3.org/2000/svg" xmlns:xlink="http://www.w3.org/1999/xlink" viewBox="0 0 1024 1024">
 <g/>
 <g id="hexagon.empty">
  <path d="M712.574 671.802c2.11633-1.22192 4.23242-2.44263 6.34882-3.67993c1.78259-1.04102 3.56476-2.09369 5.34686-3.17834c3.8833-2.36359 7.80029-4.88898 11.6405-7.9032c3.89569-3.05786 7.52148-6.47083 11.061-10.5948c3.47888-4.05328 6.66254-8.56323 9.42279-13.3442c2.76031-4.78101 5.07422-9.79303 6.84503-14.8325c1.8017-5.12732 2.94458-9.97382 3.64484-14.8765c0.690308-4.83282 0.918884-9.48779 1.02411-14.0326c0.0483398-2.08563 0.0689087-4.1554 0.0791626-6.21967C768.001 580.688 768 578.245 768 575.802v-167.603c0-2.44379 0.0009155-4.88669-0.0124512-7.3382c-0.0102539-2.06427-0.0308228-4.13406-0.0791626-6.2197c-0.105225-4.54483-0.333801-9.19977-1.02411-14.0326c-0.700256-4.90271-1.84314-9.74921-3.64484-14.8766c-1.77081-5.03946-4.08472-10.0515-6.84503-14.8325c-2.76025-4.78098-5.94391-9.29089-9.42279-13.3442c-3.53955-4.12396-7.16534-7.53696-11.061-10.5948c-3.84021-3.01425-7.7572-5.53964-11.6405-7.90323c-1.7821-1.08463-3.56427-2.13733-5.34686-3.17834c-2.11639-1.23734-4.23248-2.45801-6.34882-3.6799l-145.149-83.8017c-2.11633-1.22191-4.23151-2.44412-6.36127-3.65829c-1.79285-1.02327-3.59564-2.04036-5.42596-3.04134c-3.98859-2.18126-8.13416-4.31079-12.6647-6.12938c-4.59601-1.84488-9.36462-3.27838-14.7059-4.28174c-5.24969-0.986175-10.7472-1.4883-16.2678-1.4883c-5.5206 0-11.0181 0.502121-16.2678 1.4883c-5.34125 1.00336-10.1099 2.43686-14.7059 4.28174c-4.53049 1.81859-8.67609 3.94812-12.6646 6.12938c-1.83035 1.00098-3.63312 2.01807-5.42596 3.04134c-2.12976 1.21417-4.2449 2.43639-6.3613 3.65829l-145.149 83.8017c-2.11639 1.22189-4.23245 2.44257-6.34882 3.6799c-1.78259 1.04102-3.56482 2.09372-5.34686 3.17834c-3.8833 2.36359-7.80032 4.88898-11.6405 7.90323c-3.89572 3.05783-7.52145 6.47083-11.061 10.5948c-3.47891 4.05331-6.66251 8.56323-9.42282 13.3442c-2.76028 4.78098-5.07419 9.79303-6.845 14.8325c-1.8017 5.12735-2.94455 9.97385-3.64484 14.8766c-0.690338 4.83282-0.918884 9.48776-1.02414 14.0326c-0.0483093 2.08563-0.0688477 4.15543-0.0791016 6.2197C255.999 403.312 256 405.755 256 408.198v167.603c0 2.44379-0.000885 4.88666 0.0124817 7.3382c0.0102539 2.06427 0.0307922 4.13403 0.0791016 6.21967c0.105255 4.5448 0.333801 9.19977 1.02414 14.0326c0.700287 4.90271 1.84314 9.74921 3.64484 14.8765c1.77081 5.03949 4.08472 10.0515 6.845 14.8325c2.76031 4.78094 5.94391 9.29089 9.42282 13.3442c3.53958 4.12402 7.16531 7.53699 11.061 10.5948c3.84021 3.01422 7.75723 5.53961 11.6405 7.9032c1.78204 1.08466 3.56427 2.13733 5.34686 3.17834c2.11636 1.2373 4.23242 2.45801 6.34882 3.67993l145.149 83.8016c2.11639 1.22192 4.23154 2.44409 6.3613 3.65833c1.79285 1.02325 3.59561 2.04034 5.42596 3.04132c3.98856 2.18121 8.13416 4.31079 12.6646 6.12933c4.59604 1.84491 9.36465 3.27838 14.7059 4.2818c5.24969 0.986145 10.7472 1.48828 16.2678 1.48828c5.52063 0 11.0181-0.502136 16.2678-1.48828c5.34125-1.00342 10.1099-2.43689 14.7059-4.2818c4.53052-1.81854 8.67609-3.94812 12.6647-6.12933c1.83032-1.00098 3.63312-2.01807 5.42596-3.04132c2.12976-1.21423 4.24493-2.4364 6.36127-3.65833L712.574 671.802z" fill="#FFFFFF" style="fill:#FFFFFF;"/>
 </g>
</svg>
