<?xml version="1.0" encoding="UTF-8"?>
<!--Generator: Apple Native CoreSVG 361-->
<!DOCTYPE svg
PUBLIC "-//W3C//DTD SVG 1.1//EN"
       "http://www.w3.org/Graphics/SVG/1.1/DTD/svg11.dtd">
<svg version="1.1" xmlns="http://www.w3.org/2000/svg" xmlns:xlink="http://www.w3.org/1999/xlink" viewBox="0 0 1024 1024">
 <g/>
 <g id="arrow">
  <g>
   <path d="M572.764 590.762H451.236c-18.2955 0-33.127-14.8314-33.127-33.127V289.148c0-18.2955 14.8315-33.127 33.127-33.127H572.764c18.2955 0 33.127 14.8315 33.127 33.127v268.488C605.891 575.931 591.059 590.762 572.764 590.762z"/>
   <g>
    <path d="M324.071 511.965h374.45c7.82404 0 14.592 2.62262 20.3066 7.86462c5.71198 5.24591 8.56927 12.0133 8.56927 20.3073c0 5.63464-1.33197 10.7625-3.99066 15.3773c-2.66388 4.61798-6.96661 10.0579-12.912 16.316l-173.257 185.23c-4.22534 4.53735-8.49194 7.66669-12.7947 9.39062c-4.30658 1.7207-8.49194 2.58264-12.56 2.58264c-3.75598 0-7.82788-0.861939-12.2079-2.58264c-4.38266-1.72394-8.68536-4.85327-12.912-9.39062L311.863 571.83c-5.16531-5.63464-9.00125-10.9933-11.5039-16.0813c-2.50531-5.08405-3.75601-10.4473-3.75601-16.0813c0-7.98199 2.58264-14.592 7.74796-19.838C309.515 514.588 316.088 511.965 324.071 511.965z"/>
   </g>
  </g>
 </g>
</svg>
