<?xml version="1.0" encoding="UTF-8"?>
<!--Generator: Apple Native CoreSVG 361-->
<!DOCTYPE svg
PUBLIC "-//W3C//DTD SVG 1.1//EN"
       "http://www.w3.org/Graphics/SVG/1.1/DTD/svg11.dtd">
<svg version="1.1" xmlns="http://www.w3.org/2000/svg" xmlns:xlink="http://www.w3.org/1999/xlink" viewBox="0 0 1024 1024">
 <defs>
  <linearGradient id="SVGID_1_" x1="176" y1="588" x2="848" y2="588" gradientUnits="userSpaceOnUse">
   <stop offset="0" stop-color="#ff644c" stop-opacity="1"/>
   <stop offset="1" stop-color="#ff4c38" stop-opacity="1"/>
  </linearGradient>
 </defs>
 <g/>
 <g id="card3">
  <g>
   <path d="M234 752c-2.21469 0-4.42903 0.0009155-6.64371-0.0130615c-1.86539-0.0107422-3.73038-0.0322266-5.59521-0.0827637c-4.06366-0.110169-8.16263-0.349304-12.1812-1.07172c-4.07666-0.732788-7.87082-1.92877-11.5748-3.81415c-3.64049-1.85303-6.97197-4.27441-9.86047-7.1629c-2.88852-2.88855-5.30989-6.22003-7.16295-9.86053c-1.88538-3.70392-3.08131-7.49811-3.81415-11.5748c-0.722366-4.01855-0.961548-8.11749-1.07169-12.1812c-0.0505524-1.86481-0.0720673-3.7298-0.0827789-5.59515C175.999 698.429 176 696.215 176 694V482c0-2.21469-0.0009308-4.42902 0.0130615-6.64371c0.0107117-1.86539 0.0322266-3.73038 0.0827789-5.59521c0.110138-4.06366 0.34932-8.16263 1.07169-12.1812c0.732834-4.07666 1.92877-7.87082 3.81415-11.5748c1.85306-3.64047 4.27443-6.97195 7.16295-9.86047c2.8885-2.88852 6.21999-5.30991 9.86047-7.16293c3.70398-1.88538 7.49814-3.08133 11.5748-3.81415c4.01855-0.722382 8.11752-0.961548 12.1812-1.07172c1.86484-0.0505371 3.72983-0.072052 5.59521-0.0827637C229.571 423.999 231.785 424 234 424h556c2.21466 0 4.42902-0.000946 6.64374 0.0130615c1.86536 0.0107117 3.73035 0.0322266 5.59515 0.0827637c4.06372 0.110169 8.16266 0.349335 12.1812 1.07172c4.07666 0.732819 7.87085 1.92877 11.5748 3.81415c3.6405 1.85303 6.97198 4.27441 9.86053 7.16293c2.88849 2.88852 5.30988 6.22 7.1629 9.86047c1.88538 3.70398 3.08136 7.49814 3.81415 11.5748c0.722412 4.01855 0.961548 8.11752 1.07172 12.1812c0.0505371 1.86484 0.0720215 3.72983 0.0827637 5.59521C848.001 477.571 848 479.785 848 482v212c0 2.21466 0.0009155 4.42902-0.0130615 6.64374c-0.0107422 1.86536-0.0322266 3.73035-0.0827637 5.59515c-0.110169 4.06372-0.349304 8.16266-1.07172 12.1812c-0.732788 4.07666-1.92877 7.87085-3.81415 11.5748c-1.85303 3.6405-4.27441 6.97198-7.1629 9.86053c-2.88855 2.88849-6.22003 5.30988-9.86053 7.1629c-3.70392 1.88538-7.49811 3.08136-11.5748 3.81415c-4.01855 0.722412-8.11749 0.961548-12.1812 1.07172c-1.86481 0.0505371-3.7298 0.0720215-5.59515 0.0827637C794.429 752.001 792.215 752 790 752H234z" fill="url(#SVGID_1_)" style="fill:url(#SVGID_1_);"/>
  </g>
 </g>
</svg>
