<?xml version="1.0" encoding="UTF-8"?>
<!--Generator: Apple Native CoreSVG 361-->
<!DOCTYPE svg
PUBLIC "-//W3C//DTD SVG 1.1//EN"
       "http://www.w3.org/Graphics/SVG/1.1/DTD/svg11.dtd">
<svg version="1.1" xmlns="http://www.w3.org/2000/svg" xmlns:xlink="http://www.w3.org/1999/xlink" viewBox="0 0 1024 1024">
 <g/>
 <g id="front">
  <path d="M128 512h188c104 0 104 102 196 102s92-102 196-102h188v176c0 4.27661 0.0018311 8.55261-0.0252075 12.8292c-0.0206909 3.60211-0.0622559 7.20349-0.159851 10.8046c-0.212707 7.84705-0.674561 15.7623-2.06952 23.5223c-1.4151 7.87219-3.72449 15.1989-7.36523 22.3513c-3.57831 7.02991-8.25403 13.4631-13.8318 19.041s-12.011 10.2535-19.041 13.8318c-7.15247 3.64075-14.4791 5.95013-22.3513 7.36523c-7.76001 1.39496-15.6752 1.85681-23.5223 2.06952c-3.60107 0.0975952-7.20245 0.13916-10.8046 0.159851C792.553 800.002 788.277 800 784 800H240c-4.27664 0-8.5526 0.0018311-12.8292-0.0252075c-3.60213-0.0206909-7.20349-0.0622559-10.8045-0.159851c-7.84708-0.212707-15.7623-0.674561-23.5223-2.06952c-7.87219-1.4151-15.1988-3.72449-22.3513-7.36523c-7.02991-3.57831-13.4631-8.25403-19.0409-13.8318c-5.5778-5.57782-10.2536-12.011-13.8319-19.041c-3.64072-7.15247-5.95013-14.4791-7.36523-22.3513c-1.39493-7.76001-1.85678-15.6752-2.06947-23.5223c-0.0976105-3.60107-0.13916-7.20245-0.159851-10.8046C127.998 696.553 128 692.277 128 688V512z" fill="#DAD6CC" style="fill:#DAD6CC;"/>
 </g>
</svg>
