<?xml version="1.0" encoding="UTF-8"?>
<!--Generator: Apple Native CoreSVG 361-->
<!DOCTYPE svg
PUBLIC "-//W3C//DTD SVG 1.1//EN"
       "http://www.w3.org/Graphics/SVG/1.1/DTD/svg11.dtd">
<svg version="1.1" xmlns="http://www.w3.org/2000/svg" xmlns:xlink="http://www.w3.org/1999/xlink" viewBox="0 0 1024 1024">
 <g/>
 <g id="circle.rim">
  <path d="M512 172c45.9305 0 90.45 8.98 132.322 26.6903c40.4786 17.1208 76.8467 41.6458 108.094 72.8933c31.2475 31.2478 55.7725 67.6158 72.8933 108.094C843.02 421.55 852 466.069 852 512s-8.97998 90.45-26.6903 132.322c-17.1208 40.4786-41.6458 76.8467-72.8933 108.094c-31.2477 31.2475-67.6158 55.7725-108.094 72.8933C602.45 843.02 557.931 852 512 852s-90.45-8.97998-132.322-26.6903c-40.4786-17.1208-76.8467-41.6458-108.094-72.8933c-31.2475-31.2477-55.7725-67.6158-72.8933-108.094C180.98 602.45 172 557.931 172 512s8.98-90.45 26.6903-132.322c17.1208-40.4786 41.6458-76.8467 72.8933-108.094c31.2478-31.2475 67.6158-55.7725 108.094-72.8933C421.55 180.98 466.069 172 512 172M512 102c-226.437 0-410 183.563-410 410s183.563 410 410 410s410-183.563 410-410S738.437 102 512 102L512 102z" fill="#FFFFFF" style="fill:#FFFFFF;"/>
 </g>
</svg>
