<?xml version="1.0" encoding="UTF-8"?>
<!--Generator: Apple Native CoreSVG 361-->
<!DOCTYPE svg
PUBLIC "-//W3C//DTD SVG 1.1//EN"
       "http://www.w3.org/Graphics/SVG/1.1/DTD/svg11.dtd">
<svg version="1.1" xmlns="http://www.w3.org/2000/svg" xmlns:xlink="http://www.w3.org/1999/xlink" viewBox="0 0 1024 1024">
 <g/>
 <g id="arrow">
  <path d="M794 512c0 75.3252-29.333 146.142-82.5957 199.404S587.325 794 512 794c-45.2144 0-90.1807-10.9688-130.037-31.7217c-32.7427-17.0479-62.1277-40.7209-85.9503-69.0447c-5.5827-6.65332-9.88489-12.4364-10.2677-21.1719c-0.346863-7.85455 3.05859-15.5737 9.11267-20.6536c6.05414-5.07996 14.2474-7.0932 21.9223-5.38763c8.53625 1.89392 13.4844 7.13501 19.0671 13.7883l-0.0053101 0.0044556c19.4454 23.1169 43.4232 42.4344 70.1359 56.343C438.914 733.305 474.584 742 512 742c61.4355 0 119.193-23.9238 162.635-67.3652S742 573.436 742 512c0-61.4351-23.9238-119.193-67.3652-162.634C631.193 305.924 573.436 282 512 282c-61.4351 0-119.193 23.9243-162.634 67.3657C318.458 380.273 297.442 418.43 287.881 460h41.0897c17.7999 0 28.231 20.0378 18.0214 34.6187l-66.9706 95.6442c-8.75848 12.5084-27.2842 12.5084-36.0427 0l-66.9707-95.6442C166.798 480.038 177.229 460 195.029 460h39.747c10.2937-55.5218 37.0287-106.613 77.8193-147.404C365.859 259.333 436.675 230 512 230c75.3252 0 146.142 29.333 199.404 82.5957C764.667 365.859 794 436.675 794 512z" fill="#FFFFFF" style="fill:#FFFFFF;"/>
 </g>
</svg>
