<?xml version="1.0" encoding="UTF-8"?>
<!--Generator: Apple Native CoreSVG 361-->
<!DOCTYPE svg
PUBLIC "-//W3C//DTD SVG 1.1//EN"
       "http://www.w3.org/Graphics/SVG/1.1/DTD/svg11.dtd">
<svg version="1.1" xmlns="http://www.w3.org/2000/svg" xmlns:xlink="http://www.w3.org/1999/xlink" viewBox="0 0 1024 1024">
 <g/>
 <g id="arms">
  <path d="M616.108 628.082c-0.312866 7.25067-4.06537 14.075-10.0411 18.2594c-5.97583 4.18439-13.672 5.37665-20.5925 3.19092c-7.69733-2.42828-11.8259-7.64587-16.4244-14.2131l-71.873-102.646c-0.350403-0.500488-0.700806-1.00061-1.05121-1.50494c-0.295166-0.424438-0.590271-0.851807-0.885315-1.28717c-0.643005-0.948669-1.29156-1.94092-1.92737-3.04828c-0.645081-1.12335-1.24542-2.31067-1.83148-3.66779c-0.57605-1.3338-1.10315-2.75458-1.56018-4.20416s-0.84021-2.91577-1.13342-4.33875c-0.298279-1.44788-0.487549-2.76477-0.603455-4.05499c-0.114319-1.27179-0.152161-2.45654-0.169617-3.60248c-0.0079956-0.525879-0.0113525-1.04517-0.0130615-1.56219C488 504.788 488 504.178 488 503.567V350.261c0-8.01715 0.38916-14.6591 5.30164-21.0633C497.717 323.438 504.705 320 512 320s14.2833 3.43774 18.6984 9.19763C535.611 335.602 536 342.244 536 350.261v154.172l72.3694 103.354C612.968 614.354 616.459 620.018 616.108 628.082z" fill="#FFFFFF" style="fill:#FFFFFF;"/>
 </g>
</svg>
