<?xml version="1.0" encoding="UTF-8"?>
<!--Generator: Apple Native CoreSVG 361-->
<!DOCTYPE svg
PUBLIC "-//W3C//DTD SVG 1.1//EN"
       "http://www.w3.org/Graphics/SVG/1.1/DTD/svg11.dtd">
<svg version="1.1" xmlns="http://www.w3.org/2000/svg" xmlns:xlink="http://www.w3.org/1999/xlink" viewBox="0 0 1024 1024">
 <g/>
 <g id="keys.white">
  <path d="M880 528.8v274C880 845.436 845.436 880 802.8 880h-6.1e-05c-0.641479 0-1.2829 0.0002441-1.92438-0.0037842c-0.540344-0.0031128-1.08051-0.0093384-1.62067-0.0239868c-1.17706-0.0319214-2.36438-0.101196-3.52838-0.310425c-1.18079-0.21228-2.27979-0.558655-3.35266-1.1048c-1.0545-0.536743-2.01947-1.2381-2.85614-2.07477s-1.53802-1.80164-2.07477-2.85614c-0.546143-1.07288-0.892517-2.17188-1.1048-3.35272c-0.209229-1.164-0.278503-2.35126-0.310425-3.52832c-0.0146484-0.540161-0.020874-1.08038-0.0239868-1.62067C786 864.483 786 863.841 786 863.2V512h77.2c0.641479 0 1.2829-0.0003052 1.92438 0.0037842c0.540344 0.0031128 1.08051 0.0093384 1.62067 0.0239868c1.17706 0.0318604 2.36438 0.101135 3.52838 0.310425c1.18079 0.212219 2.27979 0.558655 3.35266 1.10474c1.0545 0.536743 2.01947 1.23816 2.85614 2.07483s1.53802 1.80164 2.07477 2.85614c0.546143 1.07288 0.892517 2.17188 1.1048 3.35266c0.209229 1.164 0.278503 2.35132 0.310425 3.52838c0.0146484 0.540161 0.020874 1.08032 0.0239868 1.62067C880 527.517 880 528.159 880 528.8zM158.876 512.004c-0.540344 0.0031128-1.08051 0.0093384-1.62067 0.0239868c-1.17706 0.0318604-2.36438 0.101135-3.52838 0.310425c-1.18079 0.212219-2.27979 0.558655-3.35266 1.10474c-1.0545 0.536743-2.01947 1.23816-2.85614 2.07483s-1.53802 1.80164-2.07477 2.85614c-0.546143 1.07288-0.892517 2.17188-1.1048 3.35266c-0.209229 1.164-0.278503 2.35132-0.310425 3.52838c-0.0146484 0.540161-0.020874 1.08032-0.0239868 1.62067C144 527.517 144 528.159 144 528.8v274C144 845.436 178.564 880 221.2 880h6.1e-05c0.641479 0 1.2829 0.0002441 1.92438-0.0037842c0.540344-0.0031128 1.08051-0.0093384 1.62067-0.0239868c1.17706-0.0319214 2.36438-0.101196 3.52838-0.310425c1.18079-0.21228 2.27979-0.558655 3.35266-1.1048c1.0545-0.536743 2.01947-1.2381 2.85614-2.07477s1.53802-1.80164 2.07477-2.85614c0.546143-1.07288 0.892517-2.17188 1.1048-3.35272c0.209229-1.164 0.278503-2.35126 0.310425-3.52832c0.0146484-0.540161 0.020874-1.08038 0.0239868-1.62067C238 864.483 238 863.841 238 863.2V512h-77.2C160.159 512 159.517 512 158.876 512.004zM251 863.2c0 0.641479-0.0002441 1.28284 0.0037842 1.92438c0.0031128 0.540283 0.0093384 1.08051 0.0239868 1.62067c0.0319214 1.17706 0.101196 2.36432 0.310425 3.52832c0.21228 1.18085 0.558655 2.27985 1.1048 3.35272c0.536743 1.0545 1.2381 2.01947 2.07477 2.85614s1.80164 1.53802 2.85614 2.07477c1.07288 0.546143 2.17188 0.892517 3.35266 1.1048c1.164 0.209229 2.35132 0.278503 3.52838 0.310425c0.540161 0.0146484 1.08032 0.020874 1.62067 0.0239868C266.517 880 267.159 880 267.8 880h60.4c0.641479 0 1.2829 0.0002441 1.92438-0.0037842c0.540344-0.0031128 1.08051-0.0093384 1.62067-0.0239868c1.17706-0.0319214 2.36438-0.101196 3.52838-0.310425c1.18079-0.21228 2.27979-0.558655 3.35266-1.1048c1.0545-0.536743 2.01947-1.2381 2.85614-2.07477s1.53802-1.80164 2.07477-2.85614c0.546143-1.07288 0.892517-2.17188 1.1048-3.35272c0.209229-1.164 0.278503-2.35126 0.310425-3.52832c0.0146484-0.540161 0.020874-1.08038 0.0239868-1.62067C345 864.483 345 863.841 345 863.2V512h-94V863.2zM358 863.2c0 0.641479-0.0002441 1.28284 0.0037842 1.92438c0.0031128 0.540283 0.0093384 1.08051 0.0239868 1.62067c0.0319214 1.17706 0.101196 2.36432 0.310425 3.52832c0.21228 1.18085 0.558655 2.27985 1.1048 3.35272c0.536743 1.0545 1.2381 2.01947 2.07477 2.85614s1.80164 1.53802 2.85614 2.07477c1.07288 0.546143 2.17188 0.892517 3.35266 1.1048c1.164 0.209229 2.35132 0.278503 3.52838 0.310425c0.540161 0.0146484 1.08032 0.020874 1.62067 0.0239868C373.517 880 374.159 880 374.8 880h60.4c0.641479 0 1.2829 0.0002441 1.92438-0.0037842c0.540344-0.0031128 1.08051-0.0093384 1.62067-0.0239868c1.17706-0.0319214 2.36438-0.101196 3.52838-0.310425c1.18079-0.21228 2.27979-0.558655 3.35266-1.1048c1.0545-0.536743 2.01947-1.2381 2.85614-2.07477s1.53802-1.80164 2.07477-2.85614c0.546143-1.07288 0.892517-2.17188 1.1048-3.35272c0.209229-1.164 0.278503-2.35126 0.310425-3.52832c0.0146484-0.540161 0.020874-1.08038 0.0239868-1.62067C452 864.483 452 863.841 452 863.2V512h-94V863.2zM465 863.2c0 0.641479-0.0002441 1.28284 0.0037842 1.92438c0.0031128 0.540283 0.0093384 1.08051 0.0239868 1.62067c0.0319214 1.17706 0.101196 2.36432 0.310425 3.52832c0.21228 1.18085 0.558655 2.27985 1.1048 3.35272c0.536743 1.0545 1.2381 2.01947 2.07477 2.85614s1.80164 1.53802 2.85614 2.07477c1.07288 0.546143 2.17188 0.892517 3.35266 1.1048c1.164 0.209229 2.35132 0.278503 3.52838 0.310425c0.540161 0.0146484 1.08032 0.020874 1.62067 0.0239868C480.517 880 481.159 880 481.8 880h60.4c0.641479 0 1.2829 0.0002441 1.92438-0.0037842c0.540344-0.0031128 1.08051-0.0093384 1.62067-0.0239868c1.17706-0.0319214 2.36438-0.101196 3.52838-0.310425c1.18079-0.21228 2.27979-0.558655 3.35266-1.1048c1.0545-0.536743 2.01947-1.2381 2.85614-2.07477s1.53802-1.80164 2.07477-2.85614c0.546143-1.07288 0.892517-2.17188 1.1048-3.35272c0.209229-1.164 0.278503-2.35126 0.310425-3.52832c0.0146484-0.540161 0.020874-1.08038 0.0239868-1.62067C559 864.483 559 863.841 559 863.2V512h-94V863.2zM572 863.2c0 0.641479-0.0002441 1.28284 0.0037842 1.92438c0.0031128 0.540283 0.0093384 1.08051 0.0239868 1.62067c0.0319214 1.17706 0.101196 2.36432 0.310425 3.52832c0.21228 1.18085 0.558655 2.27985 1.1048 3.35272c0.536743 1.0545 1.2381 2.01947 2.07477 2.85614s1.80164 1.53802 2.85614 2.07477c1.07288 0.546143 2.17188 0.892517 3.35266 1.1048c1.164 0.209229 2.35132 0.278503 3.52838 0.310425c0.540161 0.0146484 1.08032 0.020874 1.62067 0.0239868C587.517 880 588.159 880 588.8 880h60.4c0.641479 0 1.2829 0.0002441 1.92438-0.0037842c0.540344-0.0031128 1.08051-0.0093384 1.62067-0.0239868c1.17706-0.0319214 2.36438-0.101196 3.52838-0.310425c1.18079-0.21228 2.27979-0.558655 3.35266-1.1048c1.0545-0.536743 2.01947-1.2381 2.85614-2.07477s1.53802-1.80164 2.07477-2.85614c0.546143-1.07288 0.892517-2.17188 1.1048-3.35272c0.209229-1.164 0.278503-2.35126 0.310425-3.52832c0.0146484-0.540161 0.020874-1.08038 0.0239868-1.62067C666 864.483 666 863.841 666 863.2V512h-94V863.2zM679 863.2c0 0.641479-0.0002441 1.28284 0.0037842 1.92438c0.0031128 0.540283 0.0093384 1.08051 0.0239868 1.62067c0.0319214 1.17706 0.101196 2.36432 0.310425 3.52832c0.21228 1.18085 0.558655 2.27985 1.1048 3.35272c0.536743 1.0545 1.2381 2.01947 2.07477 2.85614s1.80164 1.53802 2.85614 2.07477c1.07288 0.546143 2.17188 0.892517 3.35266 1.1048c1.164 0.209229 2.35132 0.278503 3.52838 0.310425c0.540161 0.0146484 1.08032 0.020874 1.62067 0.0239868C694.517 880 695.159 880 695.8 880h60.4c0.641479 0 1.2829 0.0002441 1.92438-0.0037842c0.540344-0.0031128 1.08051-0.0093384 1.62067-0.0239868c1.17706-0.0319214 2.36438-0.101196 3.52838-0.310425c1.18079-0.21228 2.27979-0.558655 3.35266-1.1048c1.0545-0.536743 2.01947-1.2381 2.85614-2.07477s1.53802-1.80164 2.07477-2.85614c0.546143-1.07288 0.892517-2.17188 1.1048-3.35272c0.209229-1.164 0.278503-2.35126 0.310425-3.52832c0.0146484-0.540161 0.020874-1.08038 0.0239868-1.62067C773 864.483 773 863.841 773 863.2V512h-94V863.2z" fill="#FFFFFF" style="fill:#FFFFFF;"/>
 </g>
</svg>
