<?xml version="1.0" encoding="UTF-8"?>
<!--Generator: Apple Native CoreSVG 361-->
<!DOCTYPE svg
PUBLIC "-//W3C//DTD SVG 1.1//EN"
       "http://www.w3.org/Graphics/SVG/1.1/DTD/svg11.dtd">
<svg version="1.1" xmlns="http://www.w3.org/2000/svg" xmlns:xlink="http://www.w3.org/1999/xlink" viewBox="0 0 1024 1024">
 <g/>
 <g id="keys.black">
  <path d="M210.5 512h68v193.2c0 0.641479 0.0002441 1.28284-0.0037842 1.92438c-0.0031128 0.540283-0.0093384 1.08051-0.0239868 1.62067c-0.0319214 1.17706-0.101196 2.36432-0.310425 3.52832c-0.21228 1.18085-0.558655 2.27985-1.1048 3.35272c-0.536743 1.0545-1.2381 2.01947-2.07477 2.85614s-1.80164 1.53802-2.85614 2.07477c-1.07288 0.546143-2.17188 0.892517-3.35266 1.1048c-1.164 0.209229-2.35132 0.278503-3.52838 0.310425c-0.540161 0.0146484-1.08032 0.020874-1.62067 0.0239868C262.983 722 262.341 722 261.7 722h-34.4c-0.641479 0-1.2829 0.0002441-1.92438-0.0037842c-0.540344-0.0031128-1.08051-0.0093384-1.62067-0.0239868c-1.17706-0.0319214-2.36438-0.101196-3.52838-0.310425c-1.18079-0.21228-2.27979-0.558655-3.35266-1.1048c-1.0545-0.536743-2.01947-1.2381-2.85614-2.07477s-1.53802-1.80164-2.07477-2.85614c-0.546143-1.07288-0.892517-2.17188-1.1048-3.35272c-0.209229-1.164-0.278503-2.35126-0.310425-3.52832c-0.0146484-0.540161-0.020874-1.08038-0.0239868-1.62067C210.5 706.483 210.5 705.841 210.5 705.2V512zM317.5 705.2c0 0.641479-0.0002441 1.28284 0.0037842 1.92438c0.0031128 0.540283 0.0093384 1.08051 0.0239868 1.62067c0.0319214 1.17706 0.101196 2.36432 0.310425 3.52832c0.21228 1.18085 0.558655 2.27985 1.1048 3.35272c0.536743 1.0545 1.2381 2.01947 2.07477 2.85614s1.80164 1.53802 2.85614 2.07477c1.07288 0.546143 2.17188 0.892517 3.35266 1.1048c1.164 0.209229 2.35132 0.278503 3.52838 0.310425c0.540161 0.0146484 1.08032 0.020874 1.62067 0.0239868C333.017 722 333.659 722 334.3 722h34.4c0.641479 0 1.2829 0.0002441 1.92438-0.0037842c0.540344-0.0031128 1.08051-0.0093384 1.62067-0.0239868c1.17706-0.0319214 2.36438-0.101196 3.52838-0.310425c1.18079-0.21228 2.27979-0.558655 3.35266-1.1048c1.0545-0.536743 2.01947-1.2381 2.85614-2.07477s1.53802-1.80164 2.07477-2.85614c0.546143-1.07288 0.892517-2.17188 1.1048-3.35272c0.209229-1.164 0.278503-2.35126 0.310425-3.52832c0.0146484-0.540161 0.020874-1.08038 0.0239868-1.62067c0.0040283-0.64154 0.0037842-1.2829 0.0037842-1.92438V512h-68V705.2zM531.5 705.2c0 0.641479-0.0002441 1.28284 0.0037842 1.92438c0.0031128 0.540283 0.0093384 1.08051 0.0239868 1.62067c0.0319214 1.17706 0.101196 2.36432 0.310425 3.52832c0.21228 1.18085 0.558655 2.27985 1.1048 3.35272c0.536743 1.0545 1.2381 2.01947 2.07477 2.85614s1.80164 1.53802 2.85614 2.07477c1.07288 0.546143 2.17188 0.892517 3.35266 1.1048c1.164 0.209229 2.35132 0.278503 3.52838 0.310425c0.540161 0.0146484 1.08032 0.020874 1.62067 0.0239868C547.017 722 547.659 722 548.3 722h34.4c0.641479 0 1.2829 0.0002441 1.92438-0.0037842c0.540344-0.0031128 1.08051-0.0093384 1.62067-0.0239868c1.17706-0.0319214 2.36438-0.101196 3.52838-0.310425c1.18079-0.21228 2.27979-0.558655 3.35266-1.1048c1.0545-0.536743 2.01947-1.2381 2.85614-2.07477s1.53802-1.80164 2.07477-2.85614c0.546143-1.07288 0.892517-2.17188 1.1048-3.35272c0.209229-1.164 0.278503-2.35126 0.310425-3.52832c0.0146484-0.540161 0.020874-1.08038 0.0239868-1.62067c0.0040283-0.64154 0.0037842-1.2829 0.0037842-1.92438V512h-68V705.2zM638.5 705.2c0 0.641479-0.0002441 1.28284 0.0037842 1.92438c0.0031128 0.540283 0.0093384 1.08051 0.0239868 1.62067c0.0319214 1.17706 0.101196 2.36432 0.310425 3.52832c0.21228 1.18085 0.558655 2.27985 1.1048 3.35272c0.536743 1.0545 1.2381 2.01947 2.07477 2.85614s1.80164 1.53802 2.85614 2.07477c1.07288 0.546143 2.17188 0.892517 3.35266 1.1048c1.164 0.209229 2.35132 0.278503 3.52838 0.310425c0.540161 0.0146484 1.08032 0.020874 1.62067 0.0239868C654.017 722 654.659 722 655.3 722h34.4c0.641479 0 1.2829 0.0002441 1.92438-0.0037842c0.540344-0.0031128 1.08051-0.0093384 1.62067-0.0239868c1.17706-0.0319214 2.36438-0.101196 3.52838-0.310425c1.18079-0.21228 2.27979-0.558655 3.35266-1.1048c1.0545-0.536743 2.01947-1.2381 2.85614-2.07477s1.53802-1.80164 2.07477-2.85614c0.546143-1.07288 0.892517-2.17188 1.1048-3.35272c0.209229-1.164 0.278503-2.35126 0.310425-3.52832c0.0146484-0.540161 0.020874-1.08038 0.0239868-1.62067c0.0040283-0.64154 0.0037842-1.2829 0.0037842-1.92438V512h-68V705.2zM745.5 512v193.2c0 0.641479-0.0002441 1.28284 0.0037842 1.92438c0.0031128 0.540283 0.0093384 1.08051 0.0239868 1.62067c0.0319214 1.17706 0.101196 2.36432 0.310425 3.52832c0.21228 1.18085 0.558655 2.27985 1.1048 3.35272c0.536743 1.0545 1.2381 2.01947 2.07477 2.85614s1.80164 1.53802 2.85614 2.07477c1.07288 0.546143 2.17188 0.892517 3.35266 1.1048c1.164 0.209229 2.35132 0.278503 3.52838 0.310425c0.540161 0.0146484 1.08032 0.020874 1.62067 0.0239868C761.017 722 761.659 722 762.3 722h34.4c0.641479 0 1.2829 0.0002441 1.92438-0.0037842c0.540344-0.0031128 1.08051-0.0093384 1.62067-0.0239868c1.17706-0.0319214 2.36438-0.101196 3.52838-0.310425c1.18079-0.21228 2.27979-0.558655 3.35266-1.1048c1.0545-0.536743 2.01947-1.2381 2.85614-2.07477s1.53802-1.80164 2.07477-2.85614c0.546143-1.07288 0.892517-2.17188 1.1048-3.35272c0.209229-1.164 0.278503-2.35126 0.310425-3.52832c0.0146484-0.540161 0.020874-1.08038 0.0239868-1.62067c0.0040283-0.64154 0.0037842-1.2829 0.0037842-1.92438V512H745.5z"/>
 </g>
</svg>
