<?xml version="1.0" encoding="UTF-8"?>
<!--Generator: Apple Native CoreSVG 361-->
<!DOCTYPE svg
PUBLIC "-//W3C//DTD SVG 1.1//EN"
       "http://www.w3.org/Graphics/SVG/1.1/DTD/svg11.dtd">
<svg version="1.1" xmlns="http://www.w3.org/2000/svg" xmlns:xlink="http://www.w3.org/1999/xlink" viewBox="0 0 1024 1024">
 <defs>
  <linearGradient id="SVGID_1_" x1="512" y1="640" x2="512" y2="512" gradientUnits="userSpaceOnUse">
   <stop offset="0" stop-color="#000000" stop-opacity="0"/>
   <stop offset="1" stop-color="#000000" stop-opacity="1"/>
  </linearGradient>
 </defs>
 <g/>
 <g id="keys.shadow">
  <path d="M880 640H144V528.8c0-0.641479-0.0002747-1.2829 0.0037842-1.92438c0.0030975-0.540344 0.0093384-1.08051 0.0239716-1.62067c0.0319061-1.17706 0.101181-2.36438 0.310425-3.52838c0.212265-1.18079 0.558685-2.27979 1.10478-3.35266c0.536758-1.0545 1.23811-2.01947 2.07478-2.85614c0.836685-0.83667 1.80165-1.53802 2.85614-2.07477c1.07288-0.546143 2.17188-0.892517 3.35271-1.1048c1.164-0.209229 2.35127-0.278503 3.52834-0.310425c0.540161-0.0146484 1.08037-0.020874 1.62068-0.0239868C159.517 512 160.159 512 160.8 512h702.4c0.641479 0 1.2829-0.0002747 1.92438 0.0037842c0.540344 0.0031128 1.08051 0.0093384 1.62067 0.0239868c1.17706 0.0319214 2.36438 0.101196 3.52838 0.310425c1.18079 0.21228 2.27979 0.558655 3.35266 1.1048c1.0545 0.536743 2.01947 1.2381 2.85614 2.07477s1.53802 1.80164 2.07477 2.85614c0.546143 1.07288 0.892517 2.17188 1.1048 3.35266c0.209229 1.164 0.278503 2.35132 0.310425 3.52838c0.0146484 0.540161 0.020874 1.08032 0.0239868 1.62067C880 527.517 880 528.159 880 528.8V640z" fill="url(#SVGID_1_)" style="fill:url(#SVGID_1_);"/>
 </g>
</svg>
