<?xml version="1.0" encoding="UTF-8"?>
<!--Generator: Apple Native CoreSVG 361-->
<!DOCTYPE svg
PUBLIC "-//W3C//DTD SVG 1.1//EN"
       "http://www.w3.org/Graphics/SVG/1.1/DTD/svg11.dtd">
<svg version="1.1" xmlns="http://www.w3.org/2000/svg" xmlns:xlink="http://www.w3.org/1999/xlink" viewBox="0 0 1024 1024">
 <g/>
 <g id="squarebuttons">
  <path d="M240 449.2c0 1.17606 0.0005035 2.35196-0.0069427 3.52802c-0.0056915 0.990601-0.0171051 1.98096-0.0439453 2.97125c-0.0585022 2.15796-0.185501 4.33466-0.569107 6.46863c-0.38916 2.16486-1.02425 4.17969-2.02545 6.14664c-0.984024 1.93323-2.26987 3.70233-3.80377 5.23624c-1.53389 1.53391-3.30302 2.81973-5.23625 3.80377c-1.96693 1.00119-3.98177 1.63629-6.14661 2.02545c-2.134 0.383606-4.31068 0.51062-6.46864 0.569092c-0.99028 0.0268555-1.98065 0.038269-2.97124 0.0439758C211.552 480 210.376 480 209.2 480h-34.4c-1.17609 0-2.35197 0.0004883-3.52805-0.0069275c-0.990585-0.0057068-1.98096-0.0171204-2.97124-0.0439758c-2.15796-0.0584717-4.33464-0.185486-6.46863-0.569092c-2.16486-0.38916-4.17969-1.02426-6.14662-2.02545c-1.93323-0.984039-3.70236-2.26987-5.23625-3.80377c-1.53391-1.53391-2.81973-3.30301-3.80377-5.23624c-1.00121-1.96695-1.63629-3.98178-2.02545-6.14664c-0.383606-2.13397-0.510605-4.31067-0.569107-6.46863c-0.0268402-0.990295-0.0382538-1.98065-0.0439453-2.97125C144 451.552 144 450.376 144 449.2v-34.4c0-1.17606-0.0004883-2.35196 0.0069427-3.52802c0.0056915-0.990601 0.0171051-1.98096 0.0439453-2.97125c0.0585022-2.15796 0.185501-4.33466 0.569107-6.46863c0.38916-2.16486 1.02425-4.17969 2.02545-6.14664c0.984039-1.93323 2.26987-3.70233 3.80377-5.23624c1.53389-1.53391 3.30302-2.81973 5.23625-3.80377c1.96693-1.00119 3.98177-1.63629 6.14662-2.02545c2.13399-0.383606 4.31067-0.51062 6.46863-0.569092c0.99028-0.0268555 1.98065-0.038269 2.97124-0.0439758C172.448 384 173.624 384 174.8 384h34.4c1.17609 0 2.35197-0.0004883 3.52805 0.0069275c0.990585 0.0057068 1.98096 0.0171204 2.97124 0.0439758c2.15796 0.0584717 4.33464 0.185486 6.46864 0.569092c2.16484 0.38916 4.17967 1.02426 6.14661 2.02545c1.93323 0.984039 3.70236 2.26987 5.23625 3.80377c1.53391 1.53391 2.81975 3.30301 3.80377 5.23624c1.00121 1.96695 1.63629 3.98178 2.02545 6.14664c0.383606 2.13397 0.510605 4.31067 0.569107 6.46863c0.0268402 0.990295 0.0382538 1.98065 0.0439453 2.97125C240.001 412.448 240 413.624 240 414.8V449.2z" fill="#6BC04B" style="fill:#6BC04B;"/>
  <path d="M368 449.2c0 1.17606 0.0004883 2.35196-0.0069275 3.52802c-0.0057068 0.990601-0.0171204 1.98096-0.0439758 2.97125c-0.0584717 2.15796-0.185486 4.33466-0.569092 6.46863c-0.38916 2.16486-1.02426 4.17969-2.02545 6.14664c-0.984039 1.93323-2.26987 3.70233-3.80377 5.23624s-3.30301 2.81973-5.23624 3.80377c-1.96695 1.00119-3.98178 1.63629-6.14664 2.02545c-2.13397 0.383606-4.31067 0.51062-6.46863 0.569092c-0.990295 0.0268555-1.98065 0.038269-2.97125 0.0439758C339.552 480 338.376 480 337.2 480h-34.4c-1.17606 0-2.35196 0.0004883-3.52802-0.0069275c-0.990601-0.0057068-1.98096-0.0171204-2.97125-0.0439758c-2.15796-0.0584717-4.33466-0.185486-6.46863-0.569092c-2.16486-0.38916-4.17969-1.02426-6.14664-2.02545c-1.93323-0.984039-3.70233-2.26987-5.23624-3.80377s-2.81973-3.30301-3.80377-5.23624c-1.00119-1.96695-1.63629-3.98178-2.02545-6.14664c-0.383606-2.13397-0.51062-4.31067-0.569092-6.46863c-0.0268555-0.990295-0.038269-1.98065-0.0439758-2.97125C272 451.552 272 450.376 272 449.2v-34.4c0-1.17606-0.0004883-2.35196 0.0069275-3.52802c0.0057068-0.990601 0.0171204-1.98096 0.0439758-2.97125c0.0584717-2.15796 0.185486-4.33466 0.569092-6.46863c0.38916-2.16486 1.02426-4.17969 2.02545-6.14664c0.984039-1.93323 2.26987-3.70233 3.80377-5.23624s3.30301-2.81973 5.23624-3.80377c1.96695-1.00119 3.98178-1.63629 6.14664-2.02545c2.13397-0.383606 4.31067-0.51062 6.46863-0.569092c0.990295-0.0268555 1.98065-0.038269 2.97125-0.0439758C300.448 384 301.624 384 302.8 384h34.4c1.17606 0 2.35196-0.0004883 3.52802 0.0069275c0.990601 0.0057068 1.98096 0.0171204 2.97125 0.0439758c2.15796 0.0584717 4.33466 0.185486 6.46863 0.569092c2.16486 0.38916 4.17969 1.02426 6.14664 2.02545c1.93323 0.984039 3.70233 2.26987 5.23624 3.80377s2.81973 3.30301 3.80377 5.23624c1.00119 1.96695 1.63629 3.98178 2.02545 6.14664c0.383606 2.13397 0.51062 4.31067 0.569092 6.46863c0.0268555 0.990295 0.038269 1.98065 0.0439758 2.97125C368 412.448 368 413.624 368 414.8V449.2z" fill="#FDC52E" style="fill:#FDC52E;"/>
  <path d="M496 449.2c0 1.17606 0.0004883 2.35196-0.0069275 3.52802c-0.0057068 0.990601-0.0171204 1.98096-0.0439758 2.97125c-0.0584717 2.15796-0.185486 4.33466-0.569092 6.46863c-0.38916 2.16486-1.02426 4.17969-2.02545 6.14664c-0.984039 1.93323-2.26987 3.70233-3.80377 5.23624s-3.30301 2.81973-5.23624 3.80377c-1.96695 1.00119-3.98178 1.63629-6.14664 2.02545c-2.13397 0.383606-4.31067 0.51062-6.46863 0.569092c-0.990295 0.0268555-1.98065 0.038269-2.97125 0.0439758C467.552 480 466.376 480 465.2 480h-34.4c-1.17606 0-2.35196 0.0004883-3.52802-0.0069275c-0.990601-0.0057068-1.98096-0.0171204-2.97125-0.0439758c-2.15796-0.0584717-4.33466-0.185486-6.46863-0.569092c-2.16486-0.38916-4.17969-1.02426-6.14664-2.02545c-1.93323-0.984039-3.70233-2.26987-5.23624-3.80377s-2.81973-3.30301-3.80377-5.23624c-1.00119-1.96695-1.63629-3.98178-2.02545-6.14664c-0.383606-2.13397-0.51062-4.31067-0.569092-6.46863c-0.0268555-0.990295-0.038269-1.98065-0.0439758-2.97125C400 451.552 400 450.376 400 449.2v-34.4c0-1.17606-0.0004883-2.35196 0.0069275-3.52802c0.0057068-0.990601 0.0171204-1.98096 0.0439758-2.97125c0.0584717-2.15796 0.185486-4.33466 0.569092-6.46863c0.38916-2.16486 1.02426-4.17969 2.02545-6.14664c0.984039-1.93323 2.26987-3.70233 3.80377-5.23624s3.30301-2.81973 5.23624-3.80377c1.96695-1.00119 3.98178-1.63629 6.14664-2.02545c2.13397-0.383606 4.31067-0.51062 6.46863-0.569092c0.990295-0.0268555 1.98065-0.038269 2.97125-0.0439758C428.448 384 429.624 384 430.8 384h34.4c1.17606 0 2.35196-0.0004883 3.52802 0.0069275c0.990601 0.0057068 1.98096 0.0171204 2.97125 0.0439758c2.15796 0.0584717 4.33466 0.185486 6.46863 0.569092c2.16486 0.38916 4.17969 1.02426 6.14664 2.02545c1.93323 0.984039 3.70233 2.26987 5.23624 3.80377s2.81973 3.30301 3.80377 5.23624c1.00119 1.96695 1.63629 3.98178 2.02545 6.14664c0.383606 2.13397 0.51062 4.31067 0.569092 6.46863c0.0268555 0.990295 0.038269 1.98065 0.0439758 2.97125C496 412.448 496 413.624 496 414.8V449.2z" fill="#FD671F" style="fill:#FD671F;"/>
  <path d="M624 449.2c0 1.17606 0.0004883 2.35196-0.006958 3.52802c-0.0056763 0.990601-0.0170898 1.98096-0.0439453 2.97125c-0.0584717 2.15796-0.185486 4.33466-0.569092 6.46863c-0.38916 2.16486-1.02423 4.17969-2.02545 6.14664c-0.984009 1.93323-2.2699 3.70233-3.80377 5.23624s-3.30304 2.81973-5.23627 3.80377c-1.96692 1.00119-3.98175 1.63629-6.14661 2.02545c-2.13397 0.383606-4.31067 0.51062-6.46863 0.569092c-0.990295 0.0268555-1.98065 0.038269-2.97125 0.0439758C595.552 480 594.376 480 593.2 480h-34.4c-1.17609 0-2.35193 0.0004883-3.52802-0.0069275c-0.990601-0.0057068-1.98096-0.0171204-2.97125-0.0439758c-2.15796-0.0584717-4.33466-0.185486-6.46863-0.569092c-2.16486-0.38916-4.17969-1.02426-6.14661-2.02545c-1.93323-0.984039-3.70239-2.26987-5.23627-3.80377s-2.81976-3.30301-3.80377-5.23624c-1.00122-1.96695-1.63629-3.98178-2.02545-6.14664c-0.383606-2.13397-0.51062-4.31067-0.569092-6.46863c-0.0268555-0.990295-0.038269-1.98065-0.0439453-2.97125C528 451.552 528 450.376 528 449.2v-34.4c0-1.17606-0.0004883-2.35196 0.006958-3.52802c0.0056763-0.990601 0.0170898-1.98096 0.0439453-2.97125c0.0584717-2.15796 0.185486-4.33466 0.569092-6.46863c0.38916-2.16486 1.02423-4.17969 2.02545-6.14664c0.984009-1.93323 2.2699-3.70233 3.80377-5.23624s3.30304-2.81973 5.23627-3.80377c1.96692-1.00119 3.98175-1.63629 6.14661-2.02545c2.13397-0.383606 4.31067-0.51062 6.46863-0.569092c0.990295-0.0268555 1.98065-0.038269 2.97125-0.0439758C556.448 384 557.624 384 558.8 384h34.4c1.17609 0 2.35193-0.0004883 3.52802 0.0069275c0.990601 0.0057068 1.98096 0.0171204 2.97125 0.0439758c2.15796 0.0584717 4.33466 0.185486 6.46863 0.569092c2.16486 0.38916 4.17969 1.02426 6.14661 2.02545c1.93323 0.984039 3.70239 2.26987 5.23627 3.80377s2.81976 3.30301 3.80377 5.23624c1.00122 1.96695 1.63629 3.98178 2.02545 6.14664c0.383606 2.13397 0.51062 4.31067 0.569092 6.46863c0.0268555 0.990295 0.038269 1.98065 0.0439453 2.97125C624 412.448 624 413.624 624 414.8V449.2z" fill="#C5112F" style="fill:#C5112F;"/>
  <path d="M752 449.2c0 1.17606 0.0004883 2.35196-0.006958 3.52802c-0.0056763 0.990601-0.0170898 1.98096-0.0439453 2.97125c-0.0584717 2.15796-0.185486 4.33466-0.569092 6.46863c-0.38916 2.16486-1.02423 4.17969-2.02545 6.14664c-0.984009 1.93323-2.2699 3.70233-3.80377 5.23624s-3.30304 2.81973-5.23627 3.80377c-1.96692 1.00119-3.98175 1.63629-6.14661 2.02545c-2.13397 0.383606-4.31067 0.51062-6.46863 0.569092c-0.990295 0.0268555-1.98065 0.038269-2.97125 0.0439758C723.552 480 722.376 480 721.2 480h-34.4c-1.17609 0-2.35193 0.0004883-3.52802-0.0069275c-0.990601-0.0057068-1.98096-0.0171204-2.97125-0.0439758c-2.15796-0.0584717-4.33466-0.185486-6.46863-0.569092c-2.16486-0.38916-4.17969-1.02426-6.14661-2.02545c-1.93323-0.984039-3.70239-2.26987-5.23627-3.80377s-2.81976-3.30301-3.80377-5.23624c-1.00122-1.96695-1.63629-3.98178-2.02545-6.14664c-0.383606-2.13397-0.51062-4.31067-0.569092-6.46863c-0.0268555-0.990295-0.038269-1.98065-0.0439453-2.97125C656 451.552 656 450.376 656 449.2v-34.4c0-1.17606-0.0004883-2.35196 0.006958-3.52802c0.0056763-0.990601 0.0170898-1.98096 0.0439453-2.97125c0.0584717-2.15796 0.185486-4.33466 0.569092-6.46863c0.38916-2.16486 1.02423-4.17969 2.02545-6.14664c0.984009-1.93323 2.2699-3.70233 3.80377-5.23624s3.30304-2.81973 5.23627-3.80377c1.96692-1.00119 3.98175-1.63629 6.14661-2.02545c2.13397-0.383606 4.31067-0.51062 6.46863-0.569092c0.990295-0.0268555 1.98065-0.038269 2.97125-0.0439758C684.448 384 685.624 384 686.8 384h34.4c1.17609 0 2.35193-0.0004883 3.52802 0.0069275c0.990601 0.0057068 1.98096 0.0171204 2.97125 0.0439758c2.15796 0.0584717 4.33466 0.185486 6.46863 0.569092c2.16486 0.38916 4.17969 1.02426 6.14661 2.02545c1.93323 0.984039 3.70239 2.26987 5.23627 3.80377s2.81976 3.30301 3.80377 5.23624c1.00122 1.96695 1.63629 3.98178 2.02545 6.14664c0.383606 2.13397 0.51062 4.31067 0.569092 6.46863c0.0268555 0.990295 0.038269 1.98065 0.0439453 2.97125C752 412.448 752 413.624 752 414.8V449.2z" fill="#AB1BAA" style="fill:#AB1BAA;"/>
  <path d="M880 449.2c0 1.17606 0.0004883 2.35196-0.006958 3.52802c-0.0056763 0.990601-0.0170898 1.98096-0.0439453 2.97125c-0.0584717 2.15796-0.185486 4.33466-0.569092 6.46863c-0.38916 2.16486-1.02423 4.17969-2.02545 6.14664c-0.984009 1.93323-2.2699 3.70233-3.80377 5.23624s-3.30304 2.81973-5.23627 3.80377c-1.96692 1.00119-3.98175 1.63629-6.14661 2.02545c-2.13397 0.383606-4.31067 0.51062-6.46863 0.569092c-0.990295 0.0268555-1.98065 0.038269-2.97125 0.0439758C851.552 480 850.376 480 849.2 480h-34.4c-1.17609 0-2.35193 0.0004883-3.52802-0.0069275c-0.990601-0.0057068-1.98096-0.0171204-2.97125-0.0439758c-2.15796-0.0584717-4.33466-0.185486-6.46863-0.569092c-2.16486-0.38916-4.17969-1.02426-6.14661-2.02545c-1.93323-0.984039-3.70239-2.26987-5.23627-3.80377c-1.53394-1.53391-2.81976-3.30301-3.80377-5.23624c-1.00122-1.96695-1.63629-3.98178-2.02545-6.14664c-0.383606-2.13397-0.51062-4.31067-0.569092-6.46863c-0.0268555-0.990295-0.038269-1.98065-0.0439453-2.97125C784 451.552 784 450.376 784 449.2v-34.4c0-1.17606-0.0004883-2.35196 0.006958-3.52802c0.0056763-0.990601 0.0170898-1.98096 0.0439453-2.97125c0.0584717-2.15796 0.185486-4.33466 0.569092-6.46863c0.38916-2.16486 1.02423-4.17969 2.02545-6.14664c0.984009-1.93323 2.26984-3.70233 3.80377-5.23624c1.53387-1.53391 3.30304-2.81973 5.23627-3.80377c1.96692-1.00119 3.98175-1.63629 6.14661-2.02545c2.13397-0.383606 4.31067-0.51062 6.46863-0.569092c0.990295-0.0268555 1.98065-0.038269 2.97125-0.0439758C812.448 384 813.624 384 814.8 384h34.4c1.17609 0 2.35193-0.0004883 3.52802 0.0069275c0.990601 0.0057068 1.98096 0.0171204 2.97125 0.0439758c2.15796 0.0584717 4.33466 0.185486 6.46863 0.569092c2.16486 0.38916 4.17969 1.02426 6.14661 2.02545c1.93323 0.984039 3.70239 2.26987 5.23627 3.80377s2.81976 3.30301 3.80377 5.23624c1.00122 1.96695 1.63629 3.98178 2.02545 6.14664c0.383606 2.13397 0.51062 4.31067 0.569092 6.46863c0.0268555 0.990295 0.038269 1.98065 0.0439453 2.97125C880 412.448 880 413.624 880 414.8V449.2z" fill="#01A1DE" style="fill:#01A1DE;"/>
 </g>
</svg>
