<?xml version="1.0" encoding="UTF-8"?>
<!--Generator: Apple Native CoreSVG 361-->
<!DOCTYPE svg
PUBLIC "-//W3C//DTD SVG 1.1//EN"
       "http://www.w3.org/Graphics/SVG/1.1/DTD/svg11.dtd">
<svg version="1.1" xmlns="http://www.w3.org/2000/svg" xmlns:xlink="http://www.w3.org/1999/xlink" viewBox="0 0 1024 1024">
 <g/>
 <g id="screen">
  <path d="M432 194.4v107.2c0 1.9245 0.0007935 3.84869-0.0113525 5.77319c-0.0093384 1.62091-0.0280151 3.24152-0.0718994 4.862c-0.0957642 3.53119-0.303589 7.09308-0.931274 10.585c-0.636841 3.54248-1.67603 6.83948-3.31439 10.0581c-1.61023 3.16345-3.71429 6.05841-6.22437 8.56842c-2.51001 2.51001-5.40491 4.61414-8.56836 6.22437c-3.21863 1.63831-6.51562 2.67755-10.0581 3.31433c-3.492 0.627747-7.05389 0.835571-10.5851 0.931274c-1.62042 0.0439453-3.24103 0.0626221-4.862 0.0719604C385.449 352.001 383.524 352 381.6 352H194.4c-1.9245 0-3.84869 0.0007935-5.77319-0.0113525c-1.62097-0.0093384-3.24158-0.0280151-4.862-0.0719604c-3.53119-0.0957031-7.09308-0.303528-10.5851-0.931274c-3.54248-0.63678-6.83948-1.67603-10.0581-3.31433c-3.16345-1.61023-6.05835-3.71436-8.56836-6.22437c-2.51007-2.51001-4.61414-5.40497-6.22437-8.56842c-1.63837-3.21863-2.67755-6.51562-3.31439-10.0581c-0.627686-3.49194-0.83551-7.05383-0.931274-10.585c-0.0438843-1.62048-0.062561-3.24109-0.0718994-4.862C143.999 305.449 144 303.524 144 301.6V194.4c0-1.9245-0.0007935-3.84863 0.0113525-5.77313c0.0093384-1.62097 0.0280151-3.24158 0.0718994-4.86206c0.0957642-3.53119 0.303589-7.09302 0.931274-10.585c0.636841-3.54248 1.67603-6.83948 3.31439-10.0581c1.61023-3.16345 3.71429-6.05841 6.22437-8.56842c2.51001-2.51001 5.40491-4.61407 8.56836-6.22437c3.21863-1.63831 6.51562-2.67755 10.0581-3.31433c3.492-0.627747 7.05389-0.835571 10.5851-0.931274c1.62042-0.0438843 3.24103-0.0626221 4.862-0.0718994C190.551 143.999 192.476 144 194.4 144h187.2c1.9245 0 3.84869-0.0008545 5.77319 0.0113525c1.62097 0.0092773 3.24158 0.0280151 4.862 0.0718994c3.53119 0.0957031 7.09308 0.303528 10.5851 0.931274c3.54248 0.63678 6.83948 1.67603 10.0581 3.31433c3.16345 1.61029 6.05835 3.71436 8.56836 6.22437c2.51007 2.51001 4.61414 5.40497 6.22437 8.56842c1.63837 3.21863 2.67755 6.51562 3.31439 10.0581c0.627686 3.492 0.83551 7.05383 0.931274 10.585c0.0438843 1.62048 0.062561 3.24109 0.0718994 4.86206C432.001 190.551 432 192.475 432 194.4z"/>
 </g>
</svg>
