<?xml version="1.0" encoding="UTF-8"?>
<!--Generator: Apple Native CoreSVG 361-->
<!DOCTYPE svg
PUBLIC "-//W3C//DTD SVG 1.1//EN"
       "http://www.w3.org/Graphics/SVG/1.1/DTD/svg11.dtd">
<svg version="1.1" xmlns="http://www.w3.org/2000/svg" xmlns:xlink="http://www.w3.org/1999/xlink" viewBox="0 0 1024 1024">
 <g/>
 <g id="sliders">
  <path d="M533.361 156.048C537.659 161.652 538 167.463 538 174.478v147.043c0 7.01495-0.340515 12.8267-4.63892 18.4304C529.498 344.992 523.383 348 517 348s-12.4979-3.00806-16.3611-8.04791C496.341 334.348 496 328.537 496 321.522v-147.043c0-7.01495 0.340515-12.8267 4.63892-18.4304C504.502 151.008 510.617 148 517 148S529.498 151.008 533.361 156.048zM725.361 156.048C721.498 151.008 715.383 148 709 148s-12.4979 3.008-16.3611 8.04791C688.341 161.652 688 167.463 688 174.478v147.043c0 7.01495 0.340515 12.8267 4.63892 18.4304C696.502 344.992 702.617 348 709 348s12.4979-3.00806 16.3611-8.04791C729.659 334.348 730 328.537 730 321.522v-147.043C730 167.463 729.659 161.652 725.361 156.048zM613 148c-6.38324 0-12.4979 3.008-16.3611 8.04791C592.341 161.652 592 167.463 592 174.478v147.043c0 7.01495 0.340515 12.8267 4.63892 18.4304C600.502 344.992 606.617 348 613 348s12.4979-3.00806 16.3611-8.04791C633.659 334.348 634 328.537 634 321.522v-147.043c0-7.01495-0.340515-12.8267-4.63892-18.4304C625.498 151.008 619.383 148 613 148z" fill="#545454" style="fill:#545454;"/>
 </g>
</svg>
