<?xml version="1.0" encoding="UTF-8"?>
<!--Generator: Apple Native CoreSVG 361-->
<!DOCTYPE svg
PUBLIC "-//W3C//DTD SVG 1.1//EN"
       "http://www.w3.org/Graphics/SVG/1.1/DTD/svg11.dtd">
<svg version="1.1" xmlns="http://www.w3.org/2000/svg" xmlns:xlink="http://www.w3.org/1999/xlink" viewBox="0 0 1024 1024">
 <g/>
 <g id="sliderhandles">
  <path d="M549 192c0 4.25549-2.00537 8.33185-5.3653 10.9073C539.899 205.773 536.024 206 531.348 206h-28.6956c-4.67664 0-8.55115-0.227051-12.2869-3.09265C487.005 200.332 485 196.255 485 192s2.00537-8.33191 5.3653-10.9074C494.101 178.227 497.976 178 502.652 178h28.6956c4.67664 0 8.55115 0.22699 12.2869 3.09259C546.995 183.668 549 187.745 549 192zM735.635 237.093C731.899 234.227 728.024 234 723.348 234h-28.6956c-4.67664 0-8.55115 0.22699-12.2869 3.09259C679.005 239.668 677 243.745 677 248s2.00537 8.33185 5.3653 10.9073C686.101 261.773 689.976 262 694.652 262h28.6956c4.67664 0 8.55115-0.227051 12.2869-3.09265C738.995 256.332 741 252.255 741 248S738.995 239.668 735.635 237.093zM639.635 295.093C635.899 292.227 632.024 292 627.348 292h-28.6956c-4.67664 0-8.55115 0.22699-12.2869 3.09259C583.005 297.668 581 301.745 581 306s2.00537 8.33185 5.3653 10.9073C590.101 319.773 593.976 320 598.652 320h28.6956c4.67664 0 8.55115-0.227051 12.2869-3.09265C642.995 314.332 645 310.255 645 306S642.995 297.668 639.635 295.093z" fill="#B4B4B4" style="fill:#B4B4B4;"/>
 </g>
</svg>
