<?xml version="1.0" encoding="UTF-8"?>
<!--Generator: Apple Native CoreSVG 361-->
<!DOCTYPE svg
PUBLIC "-//W3C//DTD SVG 1.1//EN"
       "http://www.w3.org/Graphics/SVG/1.1/DTD/svg11.dtd">
<svg version="1.1" xmlns="http://www.w3.org/2000/svg" xmlns:xlink="http://www.w3.org/1999/xlink" viewBox="0 0 1024 1024">
 <defs>
  <clipPath id="SVGID_00000152246961974397036540000015172053814137266818_">
   <path d="M554.347 889.935c-6.28369 2.52222-12.8032 4.48224-20.1058 5.85388c-7.17725 1.34833-14.6934 2.03479-22.2411 2.03479c-7.54758 0-15.0638-0.686462-22.2411-2.03479c-7.30243-1.37164-13.8221-3.33167-20.1056-5.85388c-6.19406-2.48639-11.8619-5.39783-17.315-8.38007c-2.50238-1.36853-4.96722-2.75909-7.4184-4.15796c-2.91177-1.6601-5.80353-3.33105-8.69696-5.00165L237.777 757.823c-2.89343-1.67059-5.78651-3.33954-8.68011-5.03119c-2.43697-1.42322-4.8736-2.86255-7.31007-4.3454c-5.3092-3.23138-10.6645-6.6842-15.9147-10.8051c-5.32622-4.18066-10.2833-8.84686-15.1225-14.4852c-4.75627-5.54169-9.10884-11.7075-12.8828-18.2441c-3.77379-6.53632-6.93741-13.3888-9.35835-20.2786c-2.46335-7.01019-4.0258-13.6362-4.98326-20.3391c-0.943787-6.60748-1.25621-12.9716-1.40007-19.1852c-0.0660858-2.85156-0.0941315-5.68121-0.108139-8.50354c-0.0183716-3.35168-0.0171967-6.69159-0.0171967-10.0326V397.427c0-3.34103-0.0011749-6.68088 0.0171967-10.0326c0.0140076-2.82233 0.0420532-5.65216 0.108139-8.50354c0.14386-6.21359 0.456284-12.5777 1.40007-19.1852c0.957458-6.70294 2.51991-13.3289 4.98326-20.3391c2.42094-6.88986 5.58456-13.7423 9.35835-20.2787c3.77396-6.53653 8.12653-12.7024 12.8828-18.244c4.83923-5.63834 9.7963-10.3045 15.1225-14.4852c5.25029-4.12091 10.6055-7.57376 15.9147-10.8051c2.43648-1.48285 4.87311-2.92212 7.31007-4.3454c2.8936-1.69162 5.78668-3.36053 8.68011-5.03116l198.446-114.573c2.89343-1.67059 5.78519-3.34152 8.69696-5.00162c2.45117-1.3989 4.91602-2.78944 7.4184-4.15796c5.45306-2.98222 11.1209-5.89366 17.315-8.38004c6.28354-2.52226 12.8032-4.48225 20.1056-5.85394c7.1774-1.34833 14.6936-2.03476 22.2411-2.03476c7.54773 0 15.0639 0.686432 22.2411 2.03476c7.30261 1.37169 13.8221 3.33168 20.1058 5.85394c6.19409 2.48637 11.8618 5.39781 17.315 8.38004c2.50238 1.36851 4.96704 2.75906 7.41821 4.15796c2.9118 1.6601 5.80371 3.33102 8.69714 5.00162l198.445 114.573c2.89362 1.67062 5.78668 3.33954 8.68011 5.03116c2.43713 1.42328 4.87378 2.86255 7.31006 4.3454c5.3092 3.23138 10.6647 6.68423 15.9149 10.8051c5.32605 4.18069 10.2831 8.84683 15.1225 14.4852c4.75629 5.54166 9.10889 11.7075 12.8827 18.244c3.77393 6.53638 6.93738 13.3888 9.35852 20.2787c2.46313 7.01016 4.02557 13.6361 4.98309 20.3391c0.943726 6.60745 1.25635 12.9716 1.40021 19.1852c0.0661011 2.85138 0.0941162 5.68121 0.108154 8.50354C862.001 390.746 862 394.086 862 397.427v229.145c0 3.341 0.0011597 6.68091-0.0170288 10.0326c-0.0140381 2.82233-0.0420532 5.65198-0.108154 8.50354c-0.14386 6.21362-0.456482 12.5777-1.40021 19.1852c-0.957519 6.70294-2.51996 13.3289-4.98309 20.3391c-2.42114 6.88983-5.58459 13.7423-9.35852 20.2786c-3.7738 6.53656-8.1264 12.7024-12.8827 18.2441c-4.83936 5.63831-9.79645 10.3045-15.1225 14.4852c-5.25024 4.12091-10.6057 7.57373-15.9149 10.8051c-2.43628 1.48285-4.87292 2.92218-7.31006 4.3454c-2.89343 1.69165-5.7865 3.3606-8.68011 5.03119L587.777 872.395c-2.89343 1.67059-5.78534 3.34155-8.69714 5.00165c-2.45117 1.39886-4.91583 2.78943-7.41821 4.15796C566.209 884.537 560.541 887.448 554.347 889.935z" style="overflow:visible;"/>
  </clipPath>
 </defs>
 <g/>
 <g id="hexagonblur.dark">
  <g>
   <path d="M554.347 889.935c-6.28369 2.52222-12.8032 4.48224-20.1058 5.85388c-7.17725 1.34833-14.6934 2.03479-22.2411 2.03479c-7.54758 0-15.0638-0.686462-22.2411-2.03479c-7.30243-1.37164-13.8221-3.33167-20.1056-5.85388c-6.19406-2.48639-11.8619-5.39783-17.315-8.38007c-2.50238-1.36853-4.96722-2.75909-7.4184-4.15796c-2.91177-1.6601-5.80353-3.33105-8.69696-5.00165L237.777 757.823c-2.89343-1.67059-5.78651-3.33954-8.68011-5.03119c-2.43697-1.42322-4.8736-2.86255-7.31007-4.3454c-5.3092-3.23138-10.6645-6.6842-15.9147-10.8051c-5.32622-4.18066-10.2833-8.84686-15.1225-14.4852c-4.75627-5.54169-9.10884-11.7075-12.8828-18.2441c-3.77379-6.53632-6.93741-13.3888-9.35835-20.2786c-2.46335-7.01019-4.0258-13.6362-4.98326-20.3391c-0.943787-6.60748-1.25621-12.9716-1.40007-19.1852c-0.0660858-2.85156-0.0941315-5.68121-0.108139-8.50354c-0.0183716-3.35168-0.0171967-6.69159-0.0171967-10.0326V397.427c0-3.34103-0.0011749-6.68088 0.0171967-10.0326c0.0140076-2.82233 0.0420532-5.65216 0.108139-8.50354c0.14386-6.21359 0.456284-12.5777 1.40007-19.1852c0.957458-6.70294 2.51991-13.3289 4.98326-20.3391c2.42094-6.88986 5.58456-13.7423 9.35835-20.2787c3.77396-6.53653 8.12653-12.7024 12.8828-18.244c4.83923-5.63834 9.7963-10.3045 15.1225-14.4852c5.25029-4.12091 10.6055-7.57376 15.9147-10.8051c2.43648-1.48285 4.87311-2.92212 7.31007-4.3454c2.8936-1.69162 5.78668-3.36053 8.68011-5.03116l198.446-114.573c2.89343-1.67059 5.78519-3.34152 8.69696-5.00162c2.45117-1.3989 4.91602-2.78944 7.4184-4.15796c5.45306-2.98222 11.1209-5.89366 17.315-8.38004c6.28354-2.52226 12.8032-4.48225 20.1056-5.85394c7.1774-1.34833 14.6936-2.03476 22.2411-2.03476c7.54773 0 15.0639 0.686432 22.2411 2.03476c7.30261 1.37169 13.8221 3.33168 20.1058 5.85394c6.19409 2.48637 11.8618 5.39781 17.315 8.38004c2.50238 1.36851 4.96704 2.75906 7.41821 4.15796c2.9118 1.6601 5.80371 3.33102 8.69714 5.00162l198.445 114.573c2.89362 1.67062 5.78668 3.33954 8.68011 5.03116c2.43713 1.42328 4.87378 2.86255 7.31006 4.3454c5.3092 3.23138 10.6647 6.68423 15.9149 10.8051c5.32605 4.18069 10.2831 8.84683 15.1225 14.4852c4.75629 5.54166 9.10889 11.7075 12.8827 18.244c3.77393 6.53638 6.93738 13.3888 9.35852 20.2787c2.46313 7.01016 4.02557 13.6361 4.98309 20.3391c0.943726 6.60745 1.25635 12.9716 1.40021 19.1852c0.0661011 2.85138 0.0941162 5.68121 0.108154 8.50354C862.001 390.746 862 394.086 862 397.427v229.145c0 3.341 0.0011597 6.68091-0.0170288 10.0326c-0.0140381 2.82233-0.0420532 5.65198-0.108154 8.50354c-0.14386 6.21362-0.456482 12.5777-1.40021 19.1852c-0.957519 6.70294-2.51996 13.3289-4.98309 20.3391c-2.42114 6.88983-5.58459 13.7423-9.35852 20.2786c-3.7738 6.53656-8.1264 12.7024-12.8827 18.2441c-4.83936 5.63831-9.79645 10.3045-15.1225 14.4852c-5.25024 4.12091-10.6057 7.57373-15.9149 10.8051c-2.43628 1.48285-4.87292 2.92218-7.31006 4.3454c-2.89343 1.69165-5.7865 3.3606-8.68011 5.03119L587.777 872.395c-2.89343 1.67059-5.78534 3.34155-8.69714 5.00165c-2.45117 1.39886-4.91583 2.78943-7.41821 4.15796C566.209 884.537 560.541 887.448 554.347 889.935z" style="overflow:visible;"/>
  </g>
 </g>
</svg>
