<?xml version="1.0" encoding="UTF-8"?>
<!--Generator: Apple Native CoreSVG 361-->
<!DOCTYPE svg
PUBLIC "-//W3C//DTD SVG 1.1//EN"
       "http://www.w3.org/Graphics/SVG/1.1/DTD/svg11.dtd">
<svg version="1.1" xmlns="http://www.w3.org/2000/svg" xmlns:xlink="http://www.w3.org/1999/xlink" viewBox="0 0 1024 1024">
 <g/>
 <g id="cross.center">
  <g>
   <g>
    <path d="M534 682.224c0 5.98376-2.17145 11.1124-6.51025 15.3777C523.148 701.867 517.91 704 511.776 704c-5.98782 0-11.1124-2.13269-15.3777-6.39801C492.133 693.337 490 688.208 490 682.224V341.776c0-5.98425 2.13269-11.1124 6.39804-15.3777S505.788 320 511.776 320c6.13428 0 11.3721 2.13269 15.714 6.39804C531.829 330.663 534 335.792 534 341.776V682.224z" fill="#FFFFFF" style="fill:#FFFFFF;"/>
   </g>
  </g>
  <g>
   <g>
    <path d="M341.776 534c-5.98373 0-11.1124-2.17145-15.3777-6.51025C322.133 523.148 320 517.91 320 511.776c0-5.98782 2.13269-11.1124 6.39804-15.3777S335.792 490 341.776 490h340.448c5.98425 0 11.1124 2.13269 15.3777 6.39804C701.867 500.663 704 505.788 704 511.776c0 6.13428-2.13269 11.3721-6.39801 15.714C693.337 531.829 688.208 534 682.224 534H341.776z" fill="#FFFFFF" style="fill:#FFFFFF;"/>
   </g>
  </g>
 </g>
</svg>
