<?xml version="1.0" encoding="UTF-8"?>
<!--Generator: Apple Native CoreSVG 361-->
<!DOCTYPE svg
PUBLIC "-//W3C//DTD SVG 1.1//EN"
       "http://www.w3.org/Graphics/SVG/1.1/DTD/svg11.dtd">
<svg version="1.1" xmlns="http://www.w3.org/2000/svg" xmlns:xlink="http://www.w3.org/1999/xlink" viewBox="0 0 1024 1024">
 <g/>
 <g id="ticket.back">
  <path d="M719.548 313.148c-1.36426-2.33191-2.74176-4.65543-4.15552-6.95779c-3.08087-5.01706-6.349-9.98495-10.165-14.5021c-3.87122-4.58243-8.11871-8.47522-13.1656-11.7556c-4.96039-3.22418-10.4099-5.64929-16.1245-7.18051c-5.71454-1.53122-11.6465-2.15573-17.5544-1.84372c-6.01099 0.317474-11.6358 1.56497-17.2796 3.5979c-5.56335 2.00394-10.8776 4.67218-16.0542 7.47665c-2.37555 1.28705-4.73029 2.6105-7.0777 3.94788c-2.7879 1.58621-5.56458 3.19086-8.34235 4.79459l-133.368 77c-2.77774 1.60373-5.55573 3.20605-8.32339 4.82736c-2.33188 1.36423-4.65543 2.74173-6.95779 4.15549c-5.01706 3.08084-9.98495 6.349-14.5021 10.165c-4.58243 3.87122-8.47522 8.11871-11.7556 13.1656c-3.22418 4.96036-5.64929 10.4099-7.18051 16.1244c-1.53119 5.71457-2.15573 11.6465-1.84369 17.5544c0.317474 6.01096 1.56494 11.6358 3.59787 17.2796c2.00397 5.56339 4.67218 10.8776 7.47668 16.0542c1.28702 2.37558 2.6105 4.73029 3.94788 7.0777c1.58621 2.78793 3.19086 5.56458 4.79459 8.34232l174 301.377c0.687317 1.19049 1.37396 2.38062 2.0697 3.5733c0.585327 1.00446 1.177 2.01038 1.78601 3.02094c1.32721 2.20203 2.74268 4.44379 4.42297 6.71991c1.70447 2.30914 3.599 4.54071 5.87885 6.83459c2.24078 2.25458 4.72644 4.43439 7.35461 6.45105c2.62823 2.01666 5.37708 3.85345 8.1347 5.43433c2.80585 1.60852 5.45172 2.86084 8.12329 3.90967c2.63348 1.03387 5.16522 1.82098 7.63568 2.53302c1.13379 0.326721 2.25854 0.637878 3.38031 0.943298c1.33209 0.363342 2.65936 0.718506 3.98724 1.07434l39.7354 10.6471c1.32776 0.355713 2.65485 0.711792 3.99011 1.06317c1.12421 0.296387 2.25391 0.589294 3.39911 0.87323c2.49554 0.618591 5.0816 1.20282 7.87915 1.62421c2.83807 0.42749 5.75568 0.665833 8.98981 0.675781c3.17871 0.0097046 6.4776-0.206543 9.76202-0.638916c3.28455-0.432434 6.52698-1.07733 9.59485-1.90948c3.12134-0.846619 5.87793-1.83197 8.50854-2.97937c2.5932-1.13116 4.93994-2.36481 7.19037-3.60828c1.03265-0.570618 2.0481-1.14594 3.05719-1.72314c1.19885-0.685059 2.38861-1.37244 3.57904-2.05975l105.655-60.9999c2.77771-1.60376 5.55573-3.20605 8.32336-4.82733c2.33191-1.36426 4.65546-2.74176 6.95782-4.15552c5.01709-3.08087 9.98492-6.349 14.5021-10.165c4.58246-3.87122 8.47522-8.11871 11.7556-13.1656c3.22418-4.96039 5.64929-10.4099 7.18054-16.1245c1.53119-5.71454 2.15576-11.6465 1.84369-17.5544c-0.317444-6.01099-1.56494-11.6358-3.59784-17.2796c-2.00397-5.56335-4.67224-10.8776-7.47668-16.0542c-1.28705-2.37555-2.61053-4.73029-3.94788-7.0777c-1.58624-2.7879-3.19086-5.56458-4.79462-8.34235L724.375 321.471C722.771 318.693 721.169 315.915 719.548 313.148z" fill="#00A0DC" style="fill:#00A0DC;"/>
 </g>
</svg>
