<?xml version="1.0" encoding="UTF-8"?>
<!--Generator: Apple Native CoreSVG 361-->
<!DOCTYPE svg
PUBLIC "-//W3C//DTD SVG 1.1//EN"
       "http://www.w3.org/Graphics/SVG/1.1/DTD/svg11.dtd">
<svg version="1.1" xmlns="http://www.w3.org/2000/svg" xmlns:xlink="http://www.w3.org/1999/xlink" viewBox="0 0 1024 1024">
 <g/>
 <g id="ticket.back.details">
  <path d="M798.452 725.138l-12.7415-22.069c-1.71277-2.96661-4.9165-4.66724-8.34198-4.64404c-3.57074 0.0241699-6.87653-1.8714-8.66022-4.96075l-2.50775-4.34357c-1.73718-3.00891-1.62-6.6792 0.102173-9.69678c1.7395-3.04785 1.85657-6.75446 0.103272-9.79126l-17.7905-30.814c1.97003-1.13739 3.32123-3.15533 3.61542-5.39911c0.328125-2.49536-0.626038-4.336-1.87598-6.50104l-4.12158-7.13879c15.988-22.7009 18.2769-53.5872 3.22839-79.137c-20.4358-34.6966-64.683-46.2884-99.5173-26.0881c-34.8091 20.1857-46.7316 64.517-26.7133 99.4438c14.6572 25.5732 42.4193 38.8979 69.9445 36.4141l4.12152 7.13873c1.25 2.16504 2.36694 3.91168 4.69208 4.87524c2.09027 0.867065 4.51349 0.705872 6.48346-0.431519l53.3455 92.3971c2.22192 3.84851 4.2074 6.95337 8.34052 8.66608c3.7157 1.54132 8.02307 1.25482 11.525-0.766968l5.34491-3.08594c2.09583-1.21002 3.68951-3.13 4.4928-5.41284l7.78906-22.1346C799.9 729.456 799.592 727.111 798.452 725.138zM682.841 570.964c-8.88251 5.12836-20.2408 2.0849-25.3691-6.79755c-5.12842-8.88257-2.08484-20.2408 6.79767-25.3691c8.88245-5.12823 20.2407-2.0849 25.369 6.79773C694.766 554.478 691.723 565.836 682.841 570.964z" fill="#FFFFFF" style="fill:#FFFFFF;"/>
 </g>
</svg>
