<?xml version="1.0" encoding="UTF-8"?>
<!--Generator: Apple Native CoreSVG 361-->
<!DOCTYPE svg
PUBLIC "-//W3C//DTD SVG 1.1//EN"
       "http://www.w3.org/Graphics/SVG/1.1/DTD/svg11.dtd">
<svg version="1.1" xmlns="http://www.w3.org/2000/svg" xmlns:xlink="http://www.w3.org/1999/xlink" viewBox="0 0 1024 1024">
 <g/>
 <g id="ticket.middle">
  <path d="M672.981 406.378c-0.0155029-2.7016-0.0466919-5.40259-0.119873-8.10339c-0.159546-5.88531-0.50592-11.8217-1.55212-17.6417c-1.06134-5.90411-2.7934-11.3991-5.52393-16.7635c-2.68372-5.2724-6.19055-10.0974-10.3739-14.2807s-9.0083-7.69019-14.2807-10.3739c-5.36438-2.73053-10.8594-4.46259-16.7635-5.52393c-5.82001-1.0462-11.7564-1.39258-17.6417-1.55212c-2.70081-0.0731812-5.40179-0.10437-8.10339-0.119873c-3.20752-0.0202637-6.41449-0.0189209-9.62195-0.0189209H435c-3.20746 0-6.41443-0.0013428-9.62195 0.0189209c-2.7016 0.0155029-5.40259 0.0466919-8.10339 0.119873c-5.88531 0.159546-11.8217 0.50592-17.6417 1.55212c-5.90411 1.06134-11.3991 2.7934-16.7635 5.52393c-5.2724 2.68372-10.0974 6.19055-14.2807 10.3739s-7.69019 9.0083-10.3739 14.2807c-2.73053 5.36438-4.46259 10.8594-5.52393 16.7635c-1.0462 5.82001-1.39258 11.7564-1.55212 17.6417c-0.0731812 2.70081-0.10437 5.40179-0.119873 8.10339C350.999 409.586 351 412.793 351 416V764c0 1.37463-0.0004272 2.74866 0.0057373 4.12939c0.0046997 1.16254 0.0141602 2.32959 0.0363159 3.50922c0.0483398 2.57062 0.15332 5.21979 0.470398 8.03113c0.321594 2.85199 0.846497 5.73187 1.67395 8.85834c0.813294 3.07294 1.87604 6.20349 3.1438 9.2641s2.72992 6.0257 4.3277 8.77362c1.62567 2.7959 3.29089 5.20343 5.08014 7.44751c1.76367 2.2121 3.56268 4.15961 5.34619 6.01147c0.818481 0.849854 1.63702 1.6817 2.45575 2.50708c0.971985 0.980713 1.94385 1.95197 2.91589 2.92401l29.0883 29.0883c0.971985 0.971985 1.94324 1.94385 2.92395 2.91583c0.825378 0.818726 1.65729 1.63727 2.50708 2.45575c1.85193 1.78351 3.79938 3.58252 6.01147 5.34619c2.24408 1.78925 4.65161 3.45447 7.44751 5.08014c2.74792 1.59778 5.71301 3.05994 8.77362 4.3277c3.06067 1.26776 6.19116 2.33051 9.2641 3.1438c3.12646 0.827454 6.00641 1.35236 8.85834 1.67401c2.81134 0.317017 5.46051 0.421997 8.03113 0.470337c1.17963 0.0221558 2.34668 0.0316162 3.50922 0.0363159C464.251 880 465.625 880 467 880h122c3.20746 0 6.41443 0.0013428 9.62195-0.0189209c2.7016-0.0155029 5.40259-0.0466919 8.10339-0.119873c5.88531-0.159546 11.8217-0.50592 17.6417-1.55212c5.90411-1.06134 11.3991-2.7934 16.7635-5.52393c5.2724-2.68372 10.0974-6.19055 14.2807-10.3739s7.69019-9.0083 10.3739-14.2807c2.73053-5.36438 4.46259-10.8594 5.52393-16.7635c1.0462-5.82001 1.39258-11.7564 1.55212-17.6417c0.0731812-2.70081 0.10437-5.40179 0.119873-8.10339C673.001 802.414 673 799.207 673 796V416C673 412.793 673.001 409.586 672.981 406.378z" fill="#96C8DC" style="fill:#96C8DC;"/>
 </g>
</svg>
