<?xml version="1.0" encoding="UTF-8"?>
<!--Generator: Apple Native CoreSVG 361-->
<!DOCTYPE svg
PUBLIC "-//W3C//DTD SVG 1.1//EN"
       "http://www.w3.org/Graphics/SVG/1.1/DTD/svg11.dtd">
<svg version="1.1" xmlns="http://www.w3.org/2000/svg" xmlns:xlink="http://www.w3.org/1999/xlink" viewBox="0 0 1024 1024">
 <g/>
 <g id="ticket.middle.details">
  <path d="M585 619c0-40.3168-32.6832-73-73-73s-73 32.6832-73 73c0 30.8357 19.1193 57.205 46.1494 67.9024v6.77576v27.6896v10.069v27.6897v32.7241c0 0.448547-0.0001831 0.896912 0.0018311 1.34747c0.0016479 0.379333 0.0047607 0.760132 0.0119019 1.14508c0.0157471 0.838806 0.0499878 1.70325 0.153442 2.62061c0.104858 0.930603 0.276367 1.87042 0.546326 2.89056c0.26532 1.00275 0.612122 2.02429 1.0257 3.02295c0.413818 0.998718 0.89093 1.96625 1.41229 2.86292c0.530579 0.912292 1.07385 1.69794 1.65765 2.43024c0.575439 0.721802 1.16254 1.3573 1.74457 1.96155c0.26709 0.277344 0.534241 0.548767 0.801392 0.818115c0.317078 0.320007 0.634216 0.636902 0.951294 0.954163l10.2378 10.2375c0.317078 0.3172 0.634033 0.63446 0.953369 0.949646c0.268555 0.265625 0.538757 0.529602 0.813049 0.789429c0.597778 0.566223 1.21912 1.11902 1.89801 1.59106c0.688904 0.478882 1.40344 0.851013 2.20398 1.11145c0.786682 0.255981 1.6106 0.386292 2.43799 0.386292s1.65131-0.13031 2.43799-0.386292c0.800537-0.260437 1.51508-0.632568 2.20398-1.11145c0.678894-0.472046 1.30023-1.02484 1.89801-1.59106c0.274292-0.259827 0.544495-0.523804 0.813049-0.789429c0.319336-0.315186 0.636292-0.632446 0.953369-0.949646l24.9673-24.9673c0.150574-0.150574 0.301148-0.301025 0.451721-0.452942c0.126831-0.127808 0.253601-0.256653 0.380432-0.388245c0.276123-0.286926 0.554932-0.588562 0.828003-0.931213c0.277161-0.347595 0.535095-0.72052 0.786865-1.15363c0.247437-0.425537 0.473999-0.884888 0.670471-1.35901c0.196228-0.473999 0.360962-0.958923 0.486938-1.43494c0.128235-0.484314 0.209351-0.930359 0.259338-1.37213c0.0489502-0.435425 0.0653687-0.845825 0.0726929-1.24396c0.003479-0.182739 0.0049438-0.363525 0.0057373-0.543579c0.0008545-0.213867 0.0008545-0.426758 0.0008545-0.639648v-2.51733c0-0.212891 0-0.42572-0.0008545-0.639587c-0.0007935-0.180054-0.0022583-0.36084-0.0057373-0.543579c-0.0073242-0.398193-0.0237427-0.808594-0.0726929-1.24396c-0.0499878-0.441773-0.131104-0.887878-0.259338-1.37219c-0.125977-0.475952-0.29071-0.960938-0.486938-1.43494c-0.196472-0.474121-0.423035-0.933411-0.670471-1.35901c-0.25177-0.433105-0.509705-0.805969-0.786865-1.15363c-0.273071-0.342651-0.55188-0.644287-0.828003-0.931152c-0.126831-0.131653-0.253601-0.260498-0.380432-0.388306c-0.150574-0.151917-0.301148-0.302368-0.451721-0.452942l-11.4576-11.4576l10.5729-10.5729c0.317139-0.3172 0.63446-0.634155 0.949524-0.953369c0.265686-0.268616 0.529724-0.538818 0.78949-0.81311c0.566223-0.597778 1.1189-1.21906 1.59113-1.89807c0.478943-0.688721 0.850952-1.40344 1.11133-2.20392c0.256043-0.786743 0.386352-1.61066 0.386352-2.43799s-0.13031-1.65125-0.386352-2.43799c-0.260376-0.800476-0.632385-1.5152-1.11133-2.20392c-0.472229-0.679016-1.0249-1.30029-1.59113-1.89807c-0.259766-0.274292-0.523804-0.544495-0.78949-0.813171c-0.315063-0.319153-0.632385-0.636169-0.949524-0.953308l-10.5729-10.5729l10.5729-10.5728c0.317139-0.317261 0.63446-0.634277 0.949524-0.95343c0.265686-0.268677 0.529724-0.538879 0.78949-0.813171c0.566223-0.597717 1.1189-1.21899 1.59113-1.89801c0.478943-0.688782 0.850952-1.40344 1.11133-2.20392c0.256043-0.786804 0.386352-1.61066 0.386352-2.43799c0-0.827393-0.13031-1.65125-0.386352-2.43805c-0.260376-0.800476-0.632385-1.51514-1.11133-2.20392c-0.472229-0.678955-1.0249-1.30023-1.59113-1.89801c-0.259766-0.274292-0.523804-0.544495-0.78949-0.813171c-0.315063-0.319153-0.632385-0.636169-0.949524-0.953369l-10.5432-10.5432C563.49 679.388 585 651.707 585 619zM512 611.448c-10.1951 0-18.4598-8.26477-18.4598-18.4598c0-10.1951 8.26465-18.4598 18.4598-18.4598s18.4598 8.26471 18.4598 18.4598C530.46 603.184 522.195 611.448 512 611.448z" fill="#FFFFFF" style="fill:#FFFFFF;"/>
 </g>
</svg>
