<?xml version="1.0" encoding="UTF-8"?>
<!--Generator: Apple Native CoreSVG 361-->
<!DOCTYPE svg
PUBLIC "-//W3C//DTD SVG 1.1//EN"
       "http://www.w3.org/Graphics/SVG/1.1/DTD/svg11.dtd">
<svg version="1.1" xmlns="http://www.w3.org/2000/svg" xmlns:xlink="http://www.w3.org/1999/xlink" viewBox="0 0 1024 1024">
 <g/>
 <g id="ticket.front">
  <path d="M584.574 469.299c1.33734-2.34738 2.66083-4.70212 3.94788-7.07767c2.8045-5.17661 5.47272-10.4909 7.47668-16.0543c2.0329-5.64377 3.2804-11.2686 3.5979-17.2795c0.312012-5.9079-0.3125-11.8398-1.84375-17.5544c-1.53119-5.71457-3.9563-11.1641-7.18048-16.1244c-3.28046-5.04691-7.17322-9.2944-11.7557-13.1656c-4.51715-3.81604-9.48505-7.08423-14.5021-10.165c-2.30237-1.41379-4.62592-2.79129-6.95782-4.15552c-2.76764-1.62131-5.54565-3.22363-8.32336-4.82736l-133.368-77c-2.77774-1.60373-5.55438-3.20837-8.34232-4.79459c-2.34738-1.33737-4.70212-2.66086-7.07767-3.94788c-5.17661-2.8045-10.4909-5.47272-16.0542-7.47668c-5.6438-2.03293-11.2686-3.28043-17.2796-3.5979c-5.9079-0.312042-11.8398 0.3125-17.5544 1.84372s-11.164 3.95633-16.1244 7.18051c-5.04688 3.2804-9.2944 7.17319-13.1656 11.7556c-3.81604 4.51718-7.08423 9.48508-10.165 14.5021c-1.41379 2.30237-2.79129 4.62592-4.15552 6.95779c-1.62131 2.76767-3.22363 5.54565-4.82736 8.32339l-174 301.377c-0.687317 1.19043-1.37469 2.38019-2.05973 3.57904c-0.577194 1.00909-1.15253 2.02454-1.72315 3.05719c-1.24345 2.25043-2.47712 4.59717-3.60819 7.19037c-1.14748 2.63068-2.13285 5.38721-2.97948 8.50854c-0.832138 3.06787-1.47705 6.31036-1.90944 9.59485c-0.432388 3.28442-0.648666 6.58331-0.638916 9.76202c0.0099258 3.23413 0.248283 6.15173 0.675774 8.98981c0.421341 2.79755 1.00558 5.38367 1.62421 7.87915c0.283897 1.14526 0.576851 2.2749 0.8732 3.39911c0.351402 1.33527 0.707436 2.66235 1.06323 3.99017l10.6471 39.7354c0.355774 1.32776 0.710968 2.65503 1.07431 3.98712c0.305435 1.12177 0.616608 2.24658 0.943314 3.38031c0.712067 2.47052 1.4991 5.00226 2.53299 7.63568c1.04881 2.67157 2.30118 5.31744 3.90967 8.12329c1.58089 2.75763 3.41765 5.50647 5.43433 8.1347c2.01674 2.62823 4.19646 5.11383 6.45105 7.35461c2.29387 2.27985 4.52553 4.17438 6.83453 5.87891c2.27618 1.68024 4.51794 3.09576 6.72 4.42291c1.0105 0.609009 2.01648 1.20074 3.0209 1.78607c1.19267 0.695679 2.38283 1.38232 3.5733 2.06964l105.655 61c2.77774 1.60376 5.55438 3.20837 8.34232 4.79462c2.34741 1.33734 4.70212 2.66083 7.07767 3.94788c5.17661 2.8045 10.4909 5.47272 16.0543 7.47668c5.64377 2.0329 11.2686 3.2804 17.2796 3.5979c5.9079 0.312012 11.8398-0.3125 17.5544-1.84375c5.71457-1.53119 11.1641-3.9563 16.1244-7.18048c5.04691-3.28046 9.2944-7.17322 13.1656-11.7557c3.81604-4.51715 7.0842-9.48505 10.165-14.5021c1.41376-2.30237 2.79129-4.62592 4.15549-6.95782c1.62131-2.76764 3.22363-5.54565 4.82736-8.32336l190-329.09C581.383 474.864 582.988 472.087 584.574 469.299zM434.349 407.534c-15.3054-8.83655-20.5494-28.4074-11.7128-43.7128c8.83655-15.3054 28.4074-20.5494 43.7128-11.7128c15.3054 8.83658 20.5494 28.4074 11.7128 43.7128C469.226 411.126 449.655 416.37 434.349 407.534z" fill="#FAAF00" style="fill:#FAAF00;"/>
 </g>
</svg>
