<?xml version="1.0" encoding="UTF-8"?>
<!--Generator: Apple Native CoreSVG 361-->
<!DOCTYPE svg
PUBLIC "-//W3C//DTD SVG 1.1//EN"
       "http://www.w3.org/Graphics/SVG/1.1/DTD/svg11.dtd">
<svg version="1.1" xmlns="http://www.w3.org/2000/svg" xmlns:xlink="http://www.w3.org/1999/xlink" viewBox="0 0 1024 1024">
 <g/>
 <g id="ticket.front.details">
  <path d="M375.349 509.725c-34.9154-20.1584-79.5615-8.1955-99.7198 26.7198c-17.3457 30.0436-10.9074 67.2908 13.471 89.9434l-18.1206 31.3858l-36.5 63.2198l-3.53125 6.11633c-2.73285 4.73346-4.76721 8.7876-4.0498 14.2433c0.64325 4.90564 3.59735 9.3175 7.90448 11.8043c4.30713 2.48669 9.60498 2.83911 14.175 0.943359c5.0835-2.10657 7.57733-5.89545 10.3102-10.6289l3.53125-6.11633l10.9 6.29315c0.388489 0.224304 0.776794 0.448608 1.1665 0.67041c0.32843 0.187073 0.657776 0.372192 0.989868 0.552063c0.723938 0.392212 1.46722 0.765442 2.24518 1.04565c0.789185 0.284302 1.57593 0.458801 2.41656 0.503174c0.826111 0.0436401 1.6557-0.0437012 2.4549-0.257812c0.799072-0.214294 1.5611-0.553345 2.255-1.00421c0.70575-0.45874 1.29968-1.00317 1.84119-1.64398c0.533569-0.631714 0.99054-1.32648 1.42139-2.02814c0.197754-0.32196 0.39032-0.646912 0.581177-0.973023c0.226807-0.387024 0.450806-0.775452 0.67511-1.164l24.7529-42.8731c0.224243-0.388489 0.448669-0.776794 0.670471-1.16669c0.186951-0.328308 0.372131-0.657654 0.552063-0.989807c0.392212-0.723938 0.765442-1.4671 1.04572-2.24506c0.28418-0.789307 0.45874-1.57593 0.503174-2.41656c0.043457-0.826233-0.0438843-1.65582-0.257873-2.4549c-0.214172-0.799194-0.553345-1.56128-1.00415-2.255c-0.45874-0.70575-1.0033-1.29987-1.64404-1.84119c-0.631714-0.533569-1.32648-0.990662-2.02814-1.42157c-0.321838-0.197632-0.646851-0.390259-0.973083-0.581116c-0.386902-0.226685-0.775391-0.450684-1.16388-0.674988l-10.9-6.29315l18.1206-31.3858c31.8069 9.78607 67.2831-3.26184 84.6288-33.3054C422.228 574.529 410.265 529.883 375.349 509.725zM367.842 559.648c-5.09753 8.82916-16.3873 11.8543-25.2166 6.75671c-8.82922-5.0976-11.8542-16.3873-6.75671-25.2165s16.3873-11.8543 25.2165-6.75677C369.914 539.529 372.939 550.818 367.842 559.648zM278.184 404.88c-0.482239-3.66779 0.885376-6.39337 2.72266-9.57556l44.1304-76.4362c1.83728-3.18219 3.51392-5.72943 6.9314-7.14563c3.07245-1.27448 6.63403-1.03754 9.52972 0.634216c2.89563 1.67181 4.88159 4.63782 5.31409 7.93585c0.4823 3.66779-0.885376 6.39337-2.7226 9.57556l-44.1304 76.4362c-1.83728 3.18219-3.51385 5.72943-6.9314 7.14563c-3.07245 1.27448-6.63403 1.0376-9.52966-0.634216C280.602 411.144 278.616 408.178 278.184 404.88zM239.184 472.43c-0.482239-3.66779 0.885376-6.39337 2.72266-9.57562l18.1304-31.4028c1.83728-3.18219 3.51392-5.72943 6.9314-7.14563c3.07245-1.27448 6.63403-1.0376 9.52972 0.634216c2.89563 1.67181 4.88159 4.63782 5.31409 7.93585c0.4823 3.66779-0.885376 6.39337-2.7226 9.57556l-18.1304 31.4028c-1.83728 3.18225-3.51385 5.72949-6.9314 7.14569c-3.07245 1.27448-6.63403 1.03754-9.52966-0.634216C241.602 478.694 239.616 475.728 239.184 472.43zM219.812 540.263c0.4823 3.66779-0.885376 6.39337-2.7226 9.57556l-18.1304 31.4028c-1.83728 3.18219-3.51385 5.72943-6.9314 7.14563c-3.07245 1.27448-6.63403 1.03754-9.52966-0.634216c-2.89569-1.67181-4.88165-4.63782-5.31415-7.93585c-0.482239-3.66779 0.885376-6.39337 2.72266-9.57556l18.1304-31.4028c1.83728-3.18219 3.51392-5.72943 6.9314-7.14563c3.07245-1.27448 6.63403-1.0376 9.52972 0.634216C217.394 533.999 219.38 536.965 219.812 540.263zM221.498 520.203c-2.89569-1.67181-4.88165-4.63782-5.31415-7.93585c-0.482239-3.66779 0.885376-6.39337 2.72266-9.57556l2.13037-3.69c1.83728-3.18219 3.51392-5.72943 6.9314-7.14563c3.07245-1.27448 6.63403-1.0376 9.52972 0.634216c2.89563 1.67181 4.88159 4.63782 5.31409 7.93585c0.4823 3.66779-0.885376 6.39337-2.7226 9.57556l-2.13043 3.69c-1.83728 3.18219-3.51385 5.72943-6.9314 7.14563C227.955 522.111 224.394 521.875 221.498 520.203zM180.812 607.813c0.4823 3.66779-0.885376 6.39337-2.7226 9.57556l-2.13043 3.69c-1.83728 3.18219-3.51385 5.72943-6.9314 7.14563c-3.07245 1.27448-6.63403 1.0376-9.52966-0.634216c-2.89569-1.67181-4.88165-4.63782-5.31415-7.93585c-0.482239-3.66779 0.885376-6.39337 2.72266-9.57556l2.13037-3.69c1.83728-3.18219 3.51392-5.72943 6.9314-7.14563c3.07245-1.27448 6.63403-1.0376 9.52972 0.634216C178.394 601.549 180.38 604.515 180.812 607.813z" fill="#FFFFFF" style="fill:#FFFFFF;"/>
 </g>
</svg>
