<?xml version="1.0" encoding="UTF-8"?>
<!--Generator: Apple Native CoreSVG 361-->
<!DOCTYPE svg
PUBLIC "-//W3C//DTD SVG 1.1//EN"
       "http://www.w3.org/Graphics/SVG/1.1/DTD/svg11.dtd">
<svg version="1.1" xmlns="http://www.w3.org/2000/svg" xmlns:xlink="http://www.w3.org/1999/xlink" viewBox="0 0 1024 1024">
 <g/>
 <g id="ring.front">
  <path d="M478.062 395.821c2.8208-4.88574 4.2005-10.2059 4.28241-15.473C429.359 367.066 390 319.046 390 262c0-67.271 54.729-122 122-122c67.2715 0 122 54.729 122 122c0 5.39862-0.356873 10.715-1.03998 15.9302c2.66174-1.26276 5.37134-2.42627 8.14294-3.42462c5.43396-1.9574 10.8539-3.17749 16.6143-3.54962C657.897 267.992 658 265.008 658 262c0-80.5049-65.4951-146-146-146s-146 65.4951-146 146c0 66.9222 45.2618 123.466 106.779 140.643C474.793 400.661 476.581 398.386 478.062 395.821z" fill="#FFFFFF" style="fill:#FFFFFF;"/>
 </g>
</svg>
