<?xml version="1.0" encoding="UTF-8"?>
<!--Generator: Apple Native CoreSVG 361-->
<!DOCTYPE svg
PUBLIC "-//W3C//DTD SVG 1.1//EN"
       "http://www.w3.org/Graphics/SVG/1.1/DTD/svg11.dtd">
<svg version="1.1" xmlns="http://www.w3.org/2000/svg" xmlns:xlink="http://www.w3.org/1999/xlink" viewBox="0 0 1024 1024">
 <defs>
  <linearGradient id="SVGID_00000023964917414148941460000006968432723215836038_" x1="182" y1="630" x2="842" y2="630" gradientUnits="userSpaceOnUse">
   <stop offset="0" stop-color="#0400d9" stop-opacity="0"/>
   <stop offset="0.0508825" stop-color="#170bd8" stop-opacity="0.055307"/>
   <stop offset="0.229379" stop-color="#5530d4" stop-opacity="0.249326"/>
   <stop offset="0.400426" stop-color="#894ed0" stop-opacity="0.435245"/>
   <stop offset="0.559485" stop-color="#b166cd" stop-opacity="0.608136"/>
   <stop offset="0.703903" stop-color="#ce77cc" stop-opacity="0.765112"/>
   <stop offset="0.828812" stop-color="#e081ca" stop-opacity="0.900882"/>
   <stop offset="0.92" stop-color="#e685ca" stop-opacity="1"/>
  </linearGradient>
  <linearGradient id="SVGID_1_" x1="512" y1="369.715" x2="512" y2="890.285" gradientUnits="userSpaceOnUse">
   <stop offset="0.25" stop-color="#3b38d9" stop-opacity="0"/>
   <stop offset="1" stop-color="#577ac2" stop-opacity="1"/>
  </linearGradient>
 </defs>
 <g/>
 <g id="bottomshape">
  <g>
   <path clip-rule="evenodd" d="M631.559 424.747c-4.56531-3.61545-9.12787-7.23184-13.722-10.8244c-3.86737-3.02771-7.7561-6.03717-11.7043-8.99893c-8.60376-6.45407-17.5462-12.7551-27.3189-18.1361c-9.91412-5.45877-20.2005-9.70032-31.7221-12.6692c-11.3242-2.91794-23.1829-4.40369-35.0914-4.40369s-23.7672 1.48575-35.0913 4.40369c-11.5216 2.96884-21.808 7.21039-31.7221 12.6692c-9.77277 5.38095-18.7152 11.682-27.3189 18.1361c-3.94827 2.96176-7.83704 5.97122-11.7043 8.99893c-4.59412 3.59259-9.15674 7.20898-13.722 10.8244L249.637 537.841c-4.44353 3.51904-8.88821 7.03601-13.3037 10.5773c-3.72118 2.98102-7.41989 5.97858-11.06 9.02203c-7.93231 6.63196-15.6765 13.525-22.2899 21.0582c-6.70905 7.64203-11.9221 15.571-15.5709 24.4523C183.826 611.68 182 620.821 182 630s1.82602 18.3204 5.41229 27.0494c3.64882 8.88123 8.86185 16.8102 15.5709 24.4523c6.61342 7.53314 14.3576 14.4262 22.2899 21.0582c3.64015 3.04346 7.33887 6.04102 11.06 9.02203c4.41545 3.54132 8.86014 7.05829 13.3037 10.5773l142.804 113.093c4.56528 3.61542 9.1279 7.23181 13.722 10.8245c3.86731 3.02771 7.75607 6.03711 11.7043 8.9989c8.6037 6.4541 17.5461 12.7551 27.3189 18.136c9.91406 5.4588 20.2005 9.70032 31.7221 12.6692c11.3242 2.91797 23.1828 4.40369 35.0913 4.40369s23.7672-1.48572 35.0914-4.40369c11.5216-2.96887 21.808-7.21039 31.7221-12.6692c9.77271-5.38092 18.7151-11.6819 27.3189-18.136c3.94824-2.96179 7.83698-5.97119 11.7043-8.9989c4.59412-3.59265 9.15668-7.20905 13.722-10.8245l142.804-113.093c4.44354-3.51904 8.88818-7.03601 13.3036-10.5773c3.72119-2.98102 7.41992-5.97858 11.0601-9.02203c7.93231-6.63196 15.6765-13.525 22.2899-21.0582c6.70905-7.64203 11.9221-15.571 15.5709-24.4523C840.174 648.32 842 639.179 842 630s-1.82599-18.3204-5.41229-27.0494c-3.6488-8.88123-8.86188-16.8102-15.5709-24.4523c-6.6134-7.53314-14.3576-14.4262-22.2899-21.0582c-3.64014-3.04346-7.33887-6.04102-11.0601-9.02203c-4.41547-3.54132-8.86011-7.05829-13.3036-10.5773L631.559 424.747z" fill="url(#SVGID_1_)" fill-rule="evenodd" style="fill-rule:evenodd;clip-rule:evenodd;fill:url(#SVGID_1_);"/>
   <path clip-rule="evenodd" d="M631.559 424.747c-4.56531-3.61545-9.12787-7.23184-13.722-10.8244c-3.86737-3.02771-7.7561-6.03717-11.7043-8.99893c-8.60376-6.45407-17.5462-12.7551-27.3189-18.1361c-9.91412-5.45877-20.2005-9.70032-31.7221-12.6692c-11.3242-2.91794-23.1829-4.40369-35.0914-4.40369s-23.7672 1.48575-35.0913 4.40369c-11.5216 2.96884-21.808 7.21039-31.7221 12.6692c-9.77277 5.38095-18.7152 11.682-27.3189 18.1361c-3.94827 2.96176-7.83704 5.97122-11.7043 8.99893c-4.59412 3.59259-9.15674 7.20898-13.722 10.8244L249.637 537.841c-4.44353 3.51904-8.88821 7.03601-13.3037 10.5773c-3.72118 2.98102-7.41989 5.97858-11.06 9.02203c-7.93231 6.63196-15.6765 13.525-22.2899 21.0582c-6.70905 7.64203-11.9221 15.571-15.5709 24.4523C183.826 611.68 182 620.821 182 630s1.82602 18.3204 5.41229 27.0494c3.64882 8.88123 8.86185 16.8102 15.5709 24.4523c6.61342 7.53314 14.3576 14.4262 22.2899 21.0582c3.64015 3.04346 7.33887 6.04102 11.06 9.02203c4.41545 3.54132 8.86014 7.05829 13.3037 10.5773l142.804 113.093c4.56528 3.61542 9.1279 7.23181 13.722 10.8245c3.86731 3.02771 7.75607 6.03711 11.7043 8.9989c8.6037 6.4541 17.5461 12.7551 27.3189 18.136c9.91406 5.4588 20.2005 9.70032 31.7221 12.6692c11.3242 2.91797 23.1828 4.40369 35.0913 4.40369s23.7672-1.48572 35.0914-4.40369c11.5216-2.96887 21.808-7.21039 31.7221-12.6692c9.77271-5.38092 18.7151-11.6819 27.3189-18.136c3.94824-2.96179 7.83698-5.97119 11.7043-8.9989c4.59412-3.59265 9.15668-7.20905 13.722-10.8245l142.804-113.093c4.44354-3.51904 8.88818-7.03601 13.3036-10.5773c3.72119-2.98102 7.41992-5.97858 11.0601-9.02203c7.93231-6.63196 15.6765-13.525 22.2899-21.0582c6.70905-7.64203 11.9221-15.571 15.5709-24.4523C840.174 648.32 842 639.179 842 630s-1.82599-18.3204-5.41229-27.0494c-3.6488-8.88123-8.86188-16.8102-15.5709-24.4523c-6.6134-7.53314-14.3576-14.4262-22.2899-21.0582c-3.64014-3.04346-7.33887-6.04102-11.0601-9.02203c-4.41547-3.54132-8.86011-7.05829-13.3036-10.5773L631.559 424.747z" fill="url(#SVGID_00000023964917414148941460000006968432723215836038_)" fill-rule="evenodd" style="fill-rule:evenodd;clip-rule:evenodd;fill:url(#SVGID_00000023964917414148941460000006968432723215836038_);"/>
  </g>
 </g>
</svg>
