<?xml version="1.0" encoding="UTF-8"?>
<!--Generator: Apple Native CoreSVG 361-->
<!DOCTYPE svg
PUBLIC "-//W3C//DTD SVG 1.1//EN"
       "http://www.w3.org/Graphics/SVG/1.1/DTD/svg11.dtd">
<svg version="1.1" xmlns="http://www.w3.org/2000/svg" xmlns:xlink="http://www.w3.org/1999/xlink" viewBox="0 0 1024 1024">
 <defs>
  <linearGradient id="SVGID_00000013888525818787317020000003353607463657578932_" x1="512" y1="654.285" x2="512" y2="133.715" gradientUnits="userSpaceOnUse">
   <stop offset="0" stop-color="#3600d9" stop-opacity="0"/>
   <stop offset="1" stop-color="#ed5c5c" stop-opacity="0.8"/>
  </linearGradient>
  <linearGradient id="SVGID_1_" x1="182" y1="394" x2="842" y2="394" gradientUnits="userSpaceOnUse">
   <stop offset="0.12" stop-color="#f989d9" stop-opacity="1"/>
   <stop offset="0.239207" stop-color="#f484d9" stop-opacity="0.864537"/>
   <stop offset="0.388316" stop-color="#e476d9" stop-opacity="0.695095"/>
   <stop offset="0.553345" stop-color="#cb5fd9" stop-opacity="0.507563"/>
   <stop offset="0.729863" stop-color="#a73fd9" stop-opacity="0.306974"/>
   <stop offset="0.913596" stop-color="#7a16d9" stop-opacity="0.0981862"/>
   <stop offset="1" stop-color="#6200d9" stop-opacity="0"/>
  </linearGradient>
 </defs>
 <g/>
 <g id="topshape">
  <line fill="none" style="fill:none;" x1="512" x2="512" y1="127.823" y2="-3.7e-06"/>
  <g>
   <path clip-rule="evenodd" d="M631.559 188.747c-4.56531-3.61545-9.12787-7.23184-13.722-10.8244c-3.86737-3.02771-7.7561-6.03716-11.7043-8.99895c-8.60376-6.45407-17.5462-12.7551-27.3189-18.1361c-9.91412-5.45877-20.2005-9.70032-31.7221-12.6692c-11.3242-2.91795-23.1829-4.40367-35.0914-4.40367s-23.7672 1.48572-35.0913 4.40367c-11.5216 2.96884-21.808 7.21039-31.7221 12.6692c-9.77277 5.38097-18.7152 11.682-27.3189 18.1361c-3.94827 2.96179-7.83704 5.97124-11.7043 8.99895c-4.59412 3.59259-9.15674 7.20898-13.722 10.8244L249.637 301.841c-4.44353 3.51901-8.88821 7.03601-13.3037 10.5773c-3.72118 2.98105-7.41989 5.97861-11.06 9.02203c-7.93231 6.63199-15.6765 13.5251-22.2899 21.0582c-6.70905 7.64206-11.9221 15.5711-15.5709 24.4523C183.826 375.68 182 384.821 182 394s1.82602 18.3204 5.41229 27.0494c3.64882 8.8812 8.86185 16.8102 15.5709 24.4523c6.61342 7.53311 14.3576 14.4262 22.2899 21.0582c3.64015 3.04343 7.33887 6.04099 11.06 9.02203c4.41545 3.54126 8.86014 7.05826 13.3037 10.5773l142.804 113.093c4.56528 3.61542 9.1279 7.23181 13.722 10.8245c3.86731 3.02771 7.75607 6.03711 11.7043 8.9989c8.6037 6.4541 17.5461 12.7551 27.3189 18.136c9.91406 5.4588 20.2005 9.70032 31.7221 12.6692c11.3242 2.91797 23.1828 4.40369 35.0913 4.40369s23.7672-1.48572 35.0914-4.40369c11.5216-2.96887 21.808-7.21039 31.7221-12.6692c9.77271-5.38092 18.7151-11.6819 27.3189-18.136c3.94824-2.96179 7.83698-5.97119 11.7043-8.9989c4.59412-3.59265 9.15668-7.20905 13.722-10.8245l142.804-113.093c4.44354-3.51901 8.88818-7.03601 13.3036-10.5773c3.72119-2.98105 7.41992-5.97861 11.0601-9.02203c7.93231-6.63199 15.6765-13.5251 22.2899-21.0582c6.70905-7.64206 11.9221-15.5711 15.5709-24.4523C840.174 412.32 842 403.179 842 394s-1.82599-18.3204-5.41229-27.0494c-3.6488-8.8812-8.86188-16.8102-15.5709-24.4523c-6.6134-7.53311-14.3576-14.4262-22.2899-21.0582c-3.64014-3.04343-7.33887-6.04099-11.0601-9.02203c-4.41547-3.54126-8.86011-7.05826-13.3036-10.5773L631.559 188.747z" fill="url(#SVGID_1_)" fill-rule="evenodd" style="fill-rule:evenodd;clip-rule:evenodd;fill:url(#SVGID_1_);"/>
   <path clip-rule="evenodd" d="M631.559 188.747c-4.56531-3.61545-9.12787-7.23184-13.722-10.8244c-3.86737-3.02771-7.7561-6.03716-11.7043-8.99895c-8.60376-6.45407-17.5462-12.7551-27.3189-18.1361c-9.91412-5.45877-20.2005-9.70032-31.7221-12.6692c-11.3242-2.91795-23.1829-4.40367-35.0914-4.40367s-23.7672 1.48572-35.0913 4.40367c-11.5216 2.96884-21.808 7.21039-31.7221 12.6692c-9.77277 5.38097-18.7152 11.682-27.3189 18.1361c-3.94827 2.96179-7.83704 5.97124-11.7043 8.99895c-4.59412 3.59259-9.15674 7.20898-13.722 10.8244L249.637 301.841c-4.44353 3.51901-8.88821 7.03601-13.3037 10.5773c-3.72118 2.98105-7.41989 5.97861-11.06 9.02203c-7.93231 6.63199-15.6765 13.5251-22.2899 21.0582c-6.70905 7.64206-11.9221 15.5711-15.5709 24.4523C183.826 375.68 182 384.821 182 394s1.82602 18.3204 5.41229 27.0494c3.64882 8.8812 8.86185 16.8102 15.5709 24.4523c6.61342 7.53311 14.3576 14.4262 22.2899 21.0582c3.64015 3.04343 7.33887 6.04099 11.06 9.02203c4.41545 3.54126 8.86014 7.05826 13.3037 10.5773l142.804 113.093c4.56528 3.61542 9.1279 7.23181 13.722 10.8245c3.86731 3.02771 7.75607 6.03711 11.7043 8.9989c8.6037 6.4541 17.5461 12.7551 27.3189 18.136c9.91406 5.4588 20.2005 9.70032 31.7221 12.6692c11.3242 2.91797 23.1828 4.40369 35.0913 4.40369s23.7672-1.48572 35.0914-4.40369c11.5216-2.96887 21.808-7.21039 31.7221-12.6692c9.77271-5.38092 18.7151-11.6819 27.3189-18.136c3.94824-2.96179 7.83698-5.97119 11.7043-8.9989c4.59412-3.59265 9.15668-7.20905 13.722-10.8245l142.804-113.093c4.44354-3.51901 8.88818-7.03601 13.3036-10.5773c3.72119-2.98105 7.41992-5.97861 11.0601-9.02203c7.93231-6.63199 15.6765-13.5251 22.2899-21.0582c6.70905-7.64206 11.9221-15.5711 15.5709-24.4523C840.174 412.32 842 403.179 842 394s-1.82599-18.3204-5.41229-27.0494c-3.6488-8.8812-8.86188-16.8102-15.5709-24.4523c-6.6134-7.53311-14.3576-14.4262-22.2899-21.0582c-3.64014-3.04343-7.33887-6.04099-11.0601-9.02203c-4.41547-3.54126-8.86011-7.05826-13.3036-10.5773L631.559 188.747z" fill="url(#SVGID_00000013888525818787317020000003353607463657578932_)" fill-rule="evenodd" style="fill-rule:evenodd;clip-rule:evenodd;fill:url(#SVGID_00000013888525818787317020000003353607463657578932_);"/>
  </g>
 </g>
</svg>
