<?xml version="1.0" encoding="UTF-8"?>
<!--Generator: Apple Native CoreSVG 361-->
<!DOCTYPE svg
PUBLIC "-//W3C//DTD SVG 1.1//EN"
       "http://www.w3.org/Graphics/SVG/1.1/DTD/svg11.dtd">
<svg version="1.1" xmlns="http://www.w3.org/2000/svg" xmlns:xlink="http://www.w3.org/1999/xlink" viewBox="0 0 1024 1024">
 <g/>
 <g id="linesred">
  <path d="M108.791 491.066c1.63751 2.1347 1.76721 4.34875 1.76721 7.02112v27.826c0 2.67236-0.1297 4.88635-1.76721 7.02106C107.319 534.854 104.99 536 102.558 536s-4.76111-1.14594-6.23279-3.06592c-1.63751-2.1347-1.76721-4.34869-1.76721-7.02106v-27.826c0-2.67236 0.1297-4.88641 1.76721-7.02112C97.797 489.146 100.126 488 102.558 488S107.319 489.146 108.791 491.066zM143.474 436c-2.4317 0-4.76111 1.14594-6.23279 3.06586c-1.63751 2.1347-1.76721 4.34875-1.76721 7.02112v131.826c0 2.67236 0.1297 4.88635 1.76721 7.02106C138.713 586.854 141.042 588 143.474 588s4.76111-1.14594 6.23279-3.06592c1.63751-2.1347 1.76721-4.34869 1.76721-7.02106V446.087c0-2.67236-0.1297-4.88641-1.76721-7.02112C148.235 437.146 145.905 436 143.474 436zM184.39 462c-2.4317 0-4.76111 1.14594-6.23279 3.06586c-1.63751 2.1347-1.76721 4.34875-1.76721 7.02112v79.826c0 2.67236 0.1297 4.88635 1.76721 7.02106C179.629 560.854 181.958 562 184.39 562s4.76111-1.14594 6.23279-3.06592c1.63751-2.1347 1.76721-4.34869 1.76721-7.02106v-79.826c0-2.67236-0.1297-4.88641-1.76721-7.02112C189.151 463.146 186.821 462 184.39 462zM225.305 336c-2.4317 0-4.76111 1.14594-6.23279 3.06586c-1.63751 2.1347-1.76721 4.34875-1.76721 7.02112v331.826c0 2.67236 0.1297 4.88635 1.76721 7.02106C220.544 686.854 222.873 688 225.305 688s4.76111-1.14594 6.23279-3.06592c1.63751-2.1347 1.76721-4.34869 1.76721-7.02106V346.087c0-2.67236-0.1297-4.88641-1.76721-7.02112C230.066 337.146 227.737 336 225.305 336zM266.221 376c-2.4317 0-4.76111 1.14594-6.23279 3.06586c-1.63751 2.1347-1.76721 4.34875-1.76721 7.02112v251.826c0 2.67236 0.1297 4.88635 1.76721 7.02106C261.46 646.854 263.789 648 266.221 648s4.76111-1.14594 6.23279-3.06592c1.63751-2.1347 1.76721-4.34869 1.76721-7.02106V386.087c0-2.67236-0.1297-4.88641-1.76721-7.02112C270.982 377.146 268.652 376 266.221 376zM307.136 120c-2.4317 0-4.76111 1.14594-6.23279 3.06586c-1.63751 2.1347-1.76721 4.34875-1.76721 7.02112v763.826c0 2.67236 0.1297 4.88635 1.76721 7.02106C302.375 902.854 304.705 904 307.136 904s4.76111-1.14594 6.23279-3.06592c1.63751-2.1347 1.76721-4.34869 1.76721-7.02106V130.087c0-2.67236-0.1297-4.88641-1.76721-7.02112C311.897 121.146 309.568 120 307.136 120zM348.052 248c-2.4317 0-4.76111 1.14594-6.23279 3.06586c-1.63751 2.1347-1.76721 4.34875-1.76721 7.02112v507.826c0 2.67236 0.1297 4.88635 1.76721 7.02106C343.291 774.854 345.621 776 348.052 776s4.76111-1.14594 6.23279-3.06592c1.63751-2.1347 1.76721-4.34869 1.76721-7.02106V258.087c0-2.67236-0.1297-4.88641-1.76721-7.02112C352.813 249.146 350.484 248 348.052 248zM388.968 216c-2.4317 0-4.76111 1.14594-6.23279 3.06586c-1.63751 2.1347-1.76721 4.34875-1.76721 7.02112v571.826c0 2.67236 0.1297 4.88635 1.76721 7.02106C384.207 806.854 386.536 808 388.968 808s4.76111-1.14594 6.23279-3.06592c1.63751-2.1347 1.76721-4.34869 1.76721-7.02106V226.087c0-2.67236-0.1297-4.88641-1.76721-7.02112C393.729 217.146 391.399 216 388.968 216zM429.883 388c-2.4317 0-4.76111 1.14594-6.23279 3.06586c-1.63751 2.1347-1.76721 4.34875-1.76721 7.02112v227.826c0 2.67236 0.1297 4.88635 1.76721 7.02106C425.122 634.854 427.452 636 429.883 636s4.76111-1.14594 6.23279-3.06592c1.63751-2.1347 1.76721-4.34869 1.76721-7.02106V398.087c0-2.67236-0.1297-4.88641-1.76721-7.02112C434.644 389.146 432.315 388 429.883 388zM477.032 339.066C475.56 337.146 473.231 336 470.799 336s-4.76111 1.14594-6.23279 3.06586c-1.63751 2.1347-1.76721 4.34875-1.76721 7.02112v331.826c0 2.67236 0.1297 4.88635 1.76721 7.02106C466.038 686.854 468.368 688 470.799 688s4.76111-1.14594 6.23279-3.06592c1.63751-2.1347 1.76721-4.34869 1.76721-7.02106V346.087C478.799 343.415 478.67 341.201 477.032 339.066z" fill="#EB4E3D" style="fill:#EB4E3D;"/>
 </g>
</svg>
