<?xml version="1.0" encoding="UTF-8"?>
<!--Generator: Apple Native CoreSVG 361-->
<!DOCTYPE svg
PUBLIC "-//W3C//DTD SVG 1.1//EN"
       "http://www.w3.org/Graphics/SVG/1.1/DTD/svg11.dtd">
<svg version="1.1" xmlns="http://www.w3.org/2000/svg" xmlns:xlink="http://www.w3.org/1999/xlink" viewBox="0 0 1024 1024">
 <g/>
 <g id="lineswhite">
  <path d="M558.864 477.066c1.63751 2.1347 1.76721 4.34875 1.76721 7.02112v55.826c0 2.67236-0.1297 4.88635-1.76721 7.02106C557.392 548.854 555.063 550 552.631 550s-4.76111-1.14594-6.23279-3.06592c-1.63751-2.1347-1.76721-4.34869-1.76721-7.02106v-55.826c0-2.67236 0.1297-4.88641 1.76721-7.02112C547.87 475.146 550.199 474 552.631 474S557.392 475.146 558.864 477.066zM593.546 408c-2.4317 0-4.76111 1.14594-6.23279 3.06586c-1.63751 2.1347-1.76721 4.34875-1.76721 7.02112v187.826c0 2.67236 0.1297 4.88635 1.76721 7.02106C588.785 614.854 591.114 616 593.546 616s4.76111-1.14594 6.23279-3.06592c1.63751-2.1347 1.76721-4.34869 1.76721-7.02106V418.087c0-2.67236-0.1297-4.88641-1.76721-7.02112C598.307 409.146 595.978 408 593.546 408zM634.462 376c-2.4317 0-4.76111 1.14594-6.23279 3.06586c-1.63751 2.1347-1.76721 4.34875-1.76721 7.02112v251.826c0 2.67236 0.1297 4.88635 1.76721 7.02106C629.701 646.854 632.03 648 634.462 648s4.76111-1.14594 6.23279-3.06592c1.63751-2.1347 1.76721-4.34869 1.76721-7.02106V386.087c0-2.67236-0.1297-4.88641-1.76721-7.02112C639.223 377.146 636.894 376 634.462 376zM675.377 452c-2.4317 0-4.76111 1.14594-6.23279 3.06586c-1.63751 2.1347-1.76721 4.34875-1.76721 7.02112v99.826c0 2.67236 0.1297 4.88635 1.76721 7.02106C670.616 570.854 672.945 572 675.377 572s4.76111-1.14594 6.23279-3.06592c1.63751-2.1347 1.76721-4.34869 1.76721-7.02106v-99.826c0-2.67236-0.1297-4.88641-1.76721-7.02112C680.138 453.146 677.809 452 675.377 452zM716.293 428c-2.4317 0-4.76111 1.14594-6.23279 3.06586c-1.63751 2.1347-1.76721 4.34875-1.76721 7.02112v147.826c0 2.67236 0.1297 4.88635 1.76721 7.02106C711.532 594.854 713.861 596 716.293 596s4.76111-1.14594 6.23279-3.06592c1.63751-2.1347 1.76721-4.34869 1.76721-7.02106V438.087c0-2.67236-0.1297-4.88641-1.76721-7.02112C721.054 429.146 718.725 428 716.293 428zM757.209 488c-2.4317 0-4.76111 1.14594-6.23279 3.06586c-1.63751 2.1347-1.76721 4.34875-1.76721 7.02112v27.826c0 2.67236 0.1297 4.88635 1.76721 7.02106C752.448 534.854 754.777 536 757.209 536s4.76111-1.14594 6.23279-3.06592c1.63751-2.1347 1.76721-4.34869 1.76721-7.02106v-27.826c0-2.67236-0.1297-4.88641-1.76721-7.02112C761.97 489.146 759.641 488 757.209 488zM798.124 462c-2.4317 0-4.76111 1.14594-6.23279 3.06586c-1.63751 2.1347-1.76721 4.34875-1.76721 7.02112v79.826c0 2.67236 0.1297 4.88635 1.76721 7.02106C793.363 560.854 795.692 562 798.124 562s4.76111-1.14594 6.23279-3.06592c1.63751-2.1347 1.76721-4.34869 1.76721-7.02106v-79.826c0-2.67236-0.1297-4.88641-1.76721-7.02112C802.885 463.146 800.556 462 798.124 462zM839.04 488c-2.4317 0-4.76111 1.14594-6.23279 3.06586c-1.63751 2.1347-1.76721 4.34875-1.76721 7.02112v27.826c0 2.67236 0.1297 4.88635 1.76721 7.02106C834.279 534.854 836.608 536 839.04 536s4.76111-1.14594 6.23279-3.06592c1.63751-2.1347 1.76721-4.34869 1.76721-7.02106v-27.826c0-2.67236-0.1297-4.88641-1.76721-7.02112C843.801 489.146 841.472 488 839.04 488zM879.956 500c-2.4317 0-4.76111 1.14594-6.23279 3.06586c-1.63751 2.1347-1.76721 4.34875-1.76721 7.02112v3.82605c0 2.67236 0.1297 4.88635 1.76721 7.02106C875.195 522.854 877.524 524 879.956 524s4.76111-1.14594 6.23279-3.06592c1.63751-2.1347 1.76721-4.34869 1.76721-7.02106v-3.82605c0-2.67236-0.1297-4.88641-1.76721-7.02112C884.717 501.146 882.388 500 879.956 500zM927.104 495.066C925.632 493.146 923.303 492 920.871 492s-4.76111 1.14594-6.23279 3.06586c-1.63751 2.1347-1.76721 4.34875-1.76721 7.02112v19.826c0 2.67236 0.1297 4.88635 1.76721 7.02106C916.11 530.854 918.439 532 920.871 532s4.76111-1.14594 6.23279-3.06592c1.63751-2.1347 1.76721-4.34869 1.76721-7.02106v-19.826C928.871 499.415 928.741 497.201 927.104 495.066z" fill="#FFFFFF" style="fill:#FFFFFF;"/>
 </g>
</svg>
