<?xml version="1.0" encoding="UTF-8"?>
<!--Generator: Apple Native CoreSVG 361-->
<!DOCTYPE svg
PUBLIC "-//W3C//DTD SVG 1.1//EN"
       "http://www.w3.org/Graphics/SVG/1.1/DTD/svg11.dtd">
<svg version="1.1" xmlns="http://www.w3.org/2000/svg" xmlns:xlink="http://www.w3.org/1999/xlink" viewBox="0 0 1024 1024">
 <defs>
  <linearGradient id="SVGID_1_" x1="460.849" y1="406.065" x2="587.343" y2="1085.97" gradientUnits="userSpaceOnUse">
   <stop offset="0" stop-color="#ffffff" stop-opacity="1"/>
   <stop offset="0.999269" stop-color="#000000" stop-opacity="1"/>
  </linearGradient>
 </defs>
 <g/>
 <g id="graph.gradient">
  <path d="M969.777 392.223c-5.06403 5.06396-11.5518 8.46332-18.5978 9.74438l-39.3091 7.14709c-9.67938 1.75989-17.4597 8.97345-19.9454 18.4923l-38.7468 148.383c-4.81409 18.4359-30.4138 19.9249-37.3327 2.17139l-40.4786-103.864c-5.9801-15.3444-26.2695-18.5719-36.7158-5.84052l-17.1847 20.9438c-10.5409 12.8467-31.0005 9.66687-37.145-5.77319L620 322l-68.4974 177.723c-3.54443 9.19641-10.3431 16.7708-19.1047 21.2842l-40.7283 20.9813c-7.55646 3.89276-13.5726 10.229-17.0687 17.9771L422.195 676.108c-6.89532 15.2815-29.0128 13.9772-34.0642-2.00885l-35.1528-111.246c-4.85663-15.3694-25.0826-18.7684-34.6961-5.83051l-37.6398 50.6555c-6.24414 8.40338-17.4298 11.4392-27.0656 7.34576l-47.2204-20.0599c-11.6375-4.94373-25.1418-0.678162-31.8281 10.0534l-29.1876 46.847c-5.23602 8.40399-15.338 12.4143-24.9124 9.88977l-40.3151-10.6299c-7.67554-2.0238-15.8079-1.41638-23.0976 1.72528L0 677.421V1024h1024V338L969.777 392.223z" fill="url(#SVGID_1_)" style="fill:url(#SVGID_1_);"/>
 </g>
</svg>
