<?xml version="1.0" encoding="UTF-8"?>
<!--Generator: Apple Native CoreSVG 361-->
<!DOCTYPE svg
PUBLIC "-//W3C//DTD SVG 1.1//EN"
       "http://www.w3.org/Graphics/SVG/1.1/DTD/svg11.dtd">
<svg version="1.1" xmlns="http://www.w3.org/2000/svg" xmlns:xlink="http://www.w3.org/1999/xlink" viewBox="0 0 1024 1024">
 <g/>
 <g id="graph.line">
  <path d="M619.687 264.419l-68.6815 178.202c11.4933 7.896 24.4034 13.8776 38.2759 17.476l31.0325-80.516l31.8828 80.1163c13.8181-3.77136 26.6597-9.90601 38.0601-17.9506L619.687 264.419z" fill="#FCFCFC" style="fill:#FCFCFC;"/>
  <path d="M1024 316.787l-64.8291 64.8291c-2.9209 2.92041-6.6123 4.85449-10.6758 5.59277l-39.3086 7.14746c-15.3584 2.79248-27.8311 14.3564-31.7754 29.4604l-38.7471 148.384c-0.706055 2.70605-2.69238 3.38086-4.23438 3.4707c-1.5293 0.09375-3.59277-0.349609-4.60938-2.95801l-40.4775-103.863c-4.76465-12.2251-15.3447-20.7544-28.3018-22.8159c-12.9668-2.06299-25.6641 2.76318-33.9863 12.9067l-17.1846 20.9443c-2.15039 2.62061-4.88281 2.6377-6.32129 2.41357c-1.4375-0.223633-4.03711-1.06885-5.29102-4.21875l-78.4814-197.21l-82.2695 213.457c-2.22461 5.77197-6.47949 10.5112-11.9785 13.3447l-40.7285 20.981c-10.5239 5.42188-19.002 14.3516-23.8711 25.1436L408.523 669.938c-0.228516 0.506836-0.917969 2.0332-3.16846 1.91699c-2.24316-0.132812-2.75293-1.74512-2.92041-2.27539L367.281 558.333c-3.95264-12.5088-14.4448-21.6299-27.3818-23.8037c-12.937-2.17188-25.8335 3.0166-33.6572 13.5469l-37.6396 50.6553c-2.12061 2.85254-5.88672 3.875-9.16064 2.48633l-47.2212-20.0605c-18.5586-7.88477-39.7632-1.18457-50.4238 15.9277l-29.1865 46.8467c-1.76758 2.83691-5.12549 4.16797-8.35791 3.31836l-40.314-10.6299c-10.8667-2.86719-22.5371-1.99512-32.8599 2.45312L0 661.087v32.6682l62.9526-27.131c4.18848-1.80566 8.92383-2.15723 13.3364-0.996094l40.3149 10.6299c16.0347 4.23145 32.6982-2.3877 41.4678-16.4619l29.188-46.8477c2.79785-4.49023 8.36279-6.24609 13.2314-4.17969l47.2217 20.0615c16.0669 6.82227 34.5596 1.80469 44.9697-12.2061l37.6396-50.6553c1.51025-2.0332 3.53271-2.03711 4.60596-1.85352c1.07178 0.179688 2.98438 0.842773 3.74756 3.25684l35.1528 111.246c4.19092 13.2646 15.8726 22.3652 29.7593 23.1846c13.8975 0.818359 26.5581-6.8457 32.2798-19.5264l52.4058-116.142c2.09424-4.64062 5.73975-8.48047 10.2651-10.8115l40.728-20.9814c12.0439-6.20508 21.3604-16.583 26.2324-29.2246l54.7246-141.988l50.1611 126.044c4.86914 12.2354 15.5449 20.7476 28.5566 22.77c13.0078 2.02197 25.7676-2.84717 34.1201-13.0283l17.1846-20.9443c2.07031-2.52197 4.69531-2.5293 6.08105-2.30859c1.38281 0.219727 3.87891 1.04248 5.06348 4.08154l40.4775 103.863c5.55859 14.2617 19.0303 22.9092 34.3037 22.0137c15.2803-0.888672 27.6523-11.0322 31.5195-25.8408l38.7471-148.384c1.00684-3.85693 4.19238-6.81006 8.11523-7.52344l39.3076-7.14697c10.0947-1.83496 19.2656-6.63965 26.5225-13.896L1024 359.213V316.787z" fill="#FCFCFC" style="fill:#FCFCFC;"/>
 </g>
</svg>
