<?xml version="1.0" encoding="UTF-8"?>
<!--Generator: Apple Native CoreSVG 361-->
<!DOCTYPE svg
PUBLIC "-//W3C//DTD SVG 1.1//EN"
       "http://www.w3.org/Graphics/SVG/1.1/DTD/svg11.dtd">
<svg version="1.1" xmlns="http://www.w3.org/2000/svg" xmlns:xlink="http://www.w3.org/1999/xlink" viewBox="0 0 1024 1024">
 <g/>
 <g id="text">
  <path d="M309.86 256c0.434784 0 0.869507-0.0001831 1.30386 0.002533c0.365845 0.0020752 0.731293 0.0062256 1.09576 0.0160217c0.79422 0.0213318 1.59119 0.0676575 2.35675 0.207519c0.776611 0.141907 1.48282 0.373474 2.14899 0.738556c0.654785 0.358826 1.2305 0.827698 1.70416 1.38702s0.841278 1.20441 1.08734 1.90936c0.250336 0.717224 0.362427 1.4519 0.374451 2.2413c0.0118713 0.778137-0.073761 1.57187-0.183533 2.35873c-0.0503845 0.361115-0.106476 0.722229-0.164703 1.08344c-0.0688782 0.428864-0.140686 0.857635-0.212311 1.28647L291.027 436.939c-0.0503235 0.3013-0.100494 0.60257-0.152741 0.90387c-0.0438538 0.253784-0.0892029 0.507507-0.13855 0.7612c-0.107544 0.552856-0.233643 1.1105-0.424591 1.65723c-0.193726 0.554596-0.444885 1.0708-0.789093 1.57471c-0.338318 0.49527-0.747986 0.948517-1.21204 1.34149s-0.978577 0.722382-1.52283 0.974487c-0.553741 0.2565-1.10425 0.419189-1.6832 0.51889c-0.570679 0.0982971-1.14148 0.130829-1.7045 0.145813c-0.258362 0.0068665-0.516113 0.0097961-0.773651 0.011261c-0.305786 0.0018921-0.611175 0.00177-0.916656 0.00177h-8.99414c-0.305481 0-0.61087 0.0001221-0.916748-0.00177c-0.257629-0.0014343-0.515503-0.0043335-0.774231-0.0111389c-0.563782-0.0148315-1.13626-0.0470581-1.71204-0.144348c-0.584106-0.0986938-1.14301-0.259766-1.70996-0.513702c-0.557251-0.249573-1.08881-0.575714-1.57312-0.964752c-0.484345-0.389038-0.917419-0.837738-1.28128-1.32806c-0.370239-0.498871-0.648041-1.00989-0.870392-1.55896c-0.219147-0.541229-0.374054-1.09332-0.510132-1.64062c-0.062439-0.25116-0.12088-0.50235-0.177826-0.753601c-0.0678101-0.298279-0.133545-0.596527-0.199402-0.894806l-23.7924-107.737h-1.57031l-23.7924 107.737c-0.0658722 0.298279-0.131607 0.596527-0.199417 0.894806c-0.0569611 0.251251-0.115402 0.502441-0.177841 0.753601c-0.136063 0.547302-0.29097 1.0994-0.510132 1.64062c-0.222336 0.549072-0.500153 1.06009-0.870361 1.55896c-0.363876 0.490326-0.796951 0.939026-1.28128 1.32806s-1.01587 0.715179-1.57312 0.964752c-0.566971 0.253937-1.12589 0.415009-1.70998 0.513702c-0.575775 0.09729-1.14825 0.129517-1.71204 0.144348c-0.258728 0.0068054-0.516602 0.0097046-0.774216 0.0111389c-0.305893 0.0018921-0.611282 0.00177-0.916763 0.00177h-8.99414c-0.305481 0-0.610886 0.0001221-0.916672-0.00177c-0.257538-0.0014648-0.515259-0.0043945-0.773636-0.011261c-0.563003-0.0149841-1.13382-0.0475159-1.70451-0.145813c-0.578949-0.0997009-1.12946-0.26239-1.68318-0.51889c-0.54425-0.252106-1.05878-0.581512-1.52283-0.974487c-0.464035-0.392975-0.873718-0.846222-1.21204-1.34149c-0.344208-0.503906-0.595383-1.02011-0.789078-1.57471c-0.190948-0.546722-0.317078-1.10437-0.424606-1.65723c-0.0493317-0.253693-0.0946808-0.507416-0.13855-0.7612c-0.0522461-0.3013-0.102432-0.60257-0.152756-0.90387L157.454 267.231c-0.0716248-0.428833-0.143417-0.857605-0.212295-1.28647c-0.0582123-0.361206-0.114304-0.722321-0.164688-1.08344c-0.109802-0.786865-0.195404-1.5806-0.183548-2.35873c0.0120239-0.789398 0.124115-1.52408 0.374451-2.2413c0.246063-0.704956 0.613693-1.35004 1.08734-1.90936c0.473663-0.559326 1.04938-1.0282 1.70415-1.38702c0.666199-0.365082 1.37239-0.596649 2.14902-0.738556c0.765564-0.139862 1.56253-0.186188 2.35674-0.207519c0.364471-0.0097961 0.729904-0.0139465 1.09578-0.0160217C166.095 256 166.53 256 166.965 256h6.0002c0.305481 0 0.610886-0.0001221 0.916626 0.0018005c0.257492 0.0014648 0.515152 0.0043945 0.773331 0.0112915c0.562622 0.0150452 1.13257 0.0477295 1.70067 0.146393c0.576309 0.100098 1.12253 0.263458 1.66948 0.520996c0.537582 0.253143 1.04341 0.583893 1.49709 0.978455s0.851379 0.84964 1.17661 1.34692c0.330902 0.505951 0.568451 1.02423 0.747498 1.58109c0.176514 0.54895 0.287918 1.10886 0.380829 1.66394c0.0426483 0.25473 0.0812988 0.509491 0.118454 0.764282c0.0442963 0.302521 0.0865173 0.605011 0.128891 0.907532l9.09756 64.966l10.207 77.4688h1.70117l21.9592-99.3623c0.065918-0.298279 0.131699-0.596527 0.199539-0.894806c0.0570068-0.251221 0.115478-0.502411 0.177963-0.753571c0.136139-0.547272 0.291138-1.09933 0.510391-1.64056c0.222412-0.549042 0.500305-1.06006 0.870606-1.5589c0.363953-0.490326 0.797104-0.938995 1.28149-1.32803s1.01598-0.715149 1.57326-0.964722c0.567017-0.253906 1.12595-0.414978 1.71005-0.513672c0.57579-0.09729 1.14828-0.129517 1.71207-0.144348c0.258728-0.0068054 0.516602-0.0097046 0.774216-0.0111389c0.305893-0.0018921 0.611282-0.00177 0.916763-0.00177h7.29297c0.305481 0 0.61087-0.0001221 0.916763 0.00177c0.257614 0.0014343 0.515488 0.0043335 0.774216 0.0111389c0.563782 0.0148315 1.13628 0.0470581 1.71207 0.144348c0.584106 0.0986938 1.14304 0.259766 1.71005 0.513672c0.557281 0.249573 1.08887 0.575684 1.57326 0.964722s0.917542 0.837708 1.28149 1.32803c0.3703 0.49884 0.648193 1.00986 0.870606 1.5589c0.219253 0.541229 0.374252 1.09329 0.510391 1.64056c0.0624847 0.25116 0.120956 0.50235 0.177963 0.753571c0.0678406 0.298279 0.133621 0.596527 0.199539 0.894806l21.9592 99.3623h1.70117l10.207-77.4688l9.09756-64.966c0.0423584-0.302521 0.0845947-0.605011 0.128906-0.907532c0.0371399-0.254791 0.0757751-0.509552 0.118439-0.764282c0.092926-0.555084 0.204315-1.11499 0.380829-1.66394c0.179047-0.556854 0.416596-1.07513 0.747498-1.58109c0.325226-0.497284 0.722931-0.952362 1.17661-1.34692s0.959503-0.725311 1.49707-0.978455c0.546967-0.257538 1.09317-0.420898 1.66949-0.520996c0.568115-0.0986633 1.13806-0.131348 1.70065-0.146393c0.258209-0.006897 0.515839-0.0098267 0.773346-0.0112915C303.249 256 303.554 256 303.859 256H309.86zM151.32 663.967h-1.83203l-41.1422-77.7263c-0.142906-0.269958-0.285667-0.539917-0.430504-0.809875c-0.121849-0.227417-0.245155-0.454773-0.372459-0.682129c-0.277412-0.495361-0.574898-0.995056-0.933845-1.48492c-0.364136-0.497009-0.773926-0.959534-1.27298-1.41107c-0.490509-0.443787-1.03947-0.849915-1.62427-1.20203c-0.584801-0.352173-1.20056-0.647339-1.82227-0.87323c-0.632553-0.229858-1.23306-0.37561-1.84264-0.464966c-0.600899-0.0880737-1.1817-0.117249-1.74931-0.130676c-0.260483-0.0061646-0.519112-0.0087891-0.7771-0.0100708c-0.306374-0.001709-0.61174-0.0015869-0.917213-0.0015869H86.5059c-0.458214 0-0.916443-0.0001831-1.37326 0.0023804c-0.384872 0.0019531-0.768585 0.0057983-1.14937 0.0150146c-0.829773 0.0199585-1.65398 0.0632935-2.41335 0.194214c-0.770355 0.132874-1.43606 0.349609-2.01434 0.691406c-0.568367 0.335877-1.01611 0.77478-1.32561 1.29834c-0.309502 0.523621-0.478165 1.1275-0.498428 1.78735c-0.0206146 0.671448 0.110405 1.35919 0.365425 2.09814c0.251381 0.728394 0.610764 1.47137 0.993309 2.20801c0.17556 0.338013 0.357132 0.676025 0.540985 1.01416c0.218018 0.401489 0.439079 0.802856 0.659988 1.20428l56.5037 102.68V760c0 0.305481-0.0001221 0.610901 0.0018005 0.916382c0.0014801 0.257263 0.0044403 0.514526 0.0114136 0.771729c0.0151978 0.560547 0.0481873 1.12592 0.147827 1.68018c0.101074 0.562317 0.266037 1.08563 0.526092 1.5965c0.255585 0.502136 0.589569 0.96167 0.987991 1.36011c0.398407 0.398377 0.857925 0.732361 1.36006 0.987976c0.510895 0.260071 1.03423 0.424988 1.59653 0.526123c0.554276 0.0996094 1.11966 0.132568 1.68016 0.147766c0.257217 0.007019 0.51445 0.0099487 0.771744 0.0114136C144.184 768 144.489 768 144.795 768h11.2188c0.305481 0 0.610901 0.0001221 0.916382-0.0018311c0.257294-0.0014648 0.514526-0.0043945 0.771744-0.0114136c0.560501-0.0151978 1.12589-0.0481567 1.68016-0.147766c0.562302-0.101135 1.08563-0.266052 1.59653-0.526123c0.502136-0.255615 0.961655-0.5896 1.36006-0.987976c0.398422-0.398438 0.732407-0.857971 0.987991-1.36011c0.260055-0.510864 0.425018-1.03418 0.526092-1.5965c0.0996399-0.55426 0.132629-1.11963 0.147827-1.68018c0.0069733-0.257202 0.0099335-0.514465 0.0114136-0.771729c0.0019226-0.305481 0.0018005-0.610901 0.0018005-0.916382v-67.6367l56.5037-102.68c0.220902-0.401428 0.441971-0.802795 0.659988-1.20428c0.183853-0.338135 0.365433-0.676148 0.540985-1.01416c0.382553-0.736633 0.741928-1.47961 0.993317-2.20801c0.255005-0.738953 0.386032-1.4267 0.365418-2.09814c-0.0202637-0.659851-0.188934-1.26373-0.498428-1.78735c-0.309494-0.52356-0.757248-0.962463-1.32561-1.29834c-0.578278-0.341797-1.24399-0.558533-2.01434-0.691406c-0.759369-0.13092-1.58357-0.174255-2.41335-0.194214c-0.380783-0.0092163-0.764496-0.0130615-1.14937-0.0150146c-0.456818-0.0025635-0.915054-0.0023804-1.37326-0.0023804h-10.0977c-0.305481 0-0.61084-0.0001221-0.917221 0.0015869c-0.25798 0.0012817-0.516617 0.0039062-0.777084 0.0100708c-0.567612 0.0134277-1.14842 0.0426025-1.74933 0.130676c-0.609573 0.0893555-1.21008 0.235107-1.84264 0.464966c-0.621704 0.225891-1.23747 0.521057-1.82227 0.87323c-0.584808 0.352112-1.13377 0.75824-1.62427 1.20203c-0.499069 0.451538-0.908844 0.914062-1.273 1.41107c-0.358932 0.489868-0.656418 0.989563-0.933838 1.48492c-0.127304 0.227356-0.25061 0.454712-0.372467 0.682129c-0.144836 0.269958-0.287582 0.539917-0.430496 0.809875L151.32 663.967zM955.697 263.041c-0.145019-0.26886-0.289856-0.537659-0.436829-0.806519c-0.123596-0.226471-0.248718-0.452881-0.377808-0.67926c-0.28125-0.493317-0.582642-0.990906-0.945435-1.47876c-0.368042-0.494904-0.781433-0.955505-1.284-1.40515c-0.493957-0.441925-1.04614-0.846375-1.63367-1.19702c-0.587585-0.350677-1.20563-0.644623-1.8291-0.869568c-0.634338-0.228882-1.23596-0.374054-1.84625-0.463043c-0.601623-0.087677-1.18262-0.11673-1.75037-0.130096c-0.260498-0.006134-0.519165-0.008728-0.777161-0.0100403C944.51 256 944.205 256 943.899 256h-9.38672c-0.305481 0-0.610901-0.0001221-0.916382 0.0018005c-0.257263 0.0014954-0.514526 0.0044556-0.771729 0.0114136c-0.560547 0.0151978-1.12592 0.0481873-1.68018 0.147827c-0.562317 0.101074-1.08563 0.266052-1.59656 0.526092c-0.502136 0.255585-0.961609 0.589569-1.36005 0.987976c-0.398377 0.398438-0.732361 0.857941-0.987976 1.36008c-0.260071 0.510895-0.424988 1.03424-0.526123 1.59653c-0.0996094 0.554291-0.132629 1.11966-0.147766 1.68018c-0.007019 0.257202-0.0099487 0.514435-0.0114136 0.771729c-0.0019531 0.305481-0.0018311 0.610901-0.0018311 0.916382v172.83c0 0.305481-0.0001221 0.610901 0.0018311 0.916382c0.0014648 0.257294 0.0043945 0.514526 0.0114136 0.771759c0.0151367 0.560486 0.0481567 1.12585 0.147766 1.68015c0.101135 0.562317 0.266052 1.08563 0.526123 1.59653c0.255615 0.502136 0.5896 0.961639 0.987976 1.36008c0.398438 0.398407 0.85791 0.732391 1.36005 0.987976c0.510925 0.260071 1.03424 0.425018 1.59656 0.526092c0.55426 0.0996399 1.11963 0.132629 1.68018 0.147827c0.257202 0.006958 0.514465 0.0099487 0.771729 0.0114136c0.305481 0.0019226 0.610901 0.0018005 0.916382 0.0018005h8.20898c0.305481 0 0.610901 0.0001221 0.916382-0.0018005c0.257263-0.0014648 0.514526-0.0044556 0.771729-0.0114136c0.560547-0.0151978 1.12592-0.0481873 1.68018-0.147827c0.562317-0.101074 1.08563-0.266022 1.59656-0.526092c0.502136-0.255585 0.961609-0.589569 1.36005-0.987976c0.398377-0.398438 0.732361-0.857941 0.987976-1.36008c0.260071-0.510895 0.424988-1.03421 0.526123-1.59653c0.0996094-0.554291 0.132629-1.11966 0.147766-1.68015c0.007019-0.257233 0.0099487-0.514465 0.0114136-0.771759c0.0019531-0.305481 0.0018311-0.610901 0.0018311-0.916382V303.24h1.96289L1024 435.369v-45.6981L955.697 263.041zM423.273 392.748h-62.7887l-12.932 44.4012c-0.0854187 0.293274-0.170715 0.586517-0.258057 0.879822c-0.0734253 0.247009-0.148346 0.493988-0.227234 0.740967c-0.171936 0.538147-0.363007 1.08096-0.617645 1.61313c-0.258331 0.539856-0.569611 1.04233-0.972534 1.53284c-0.396027 0.482086-0.85849 0.923279-1.36832 1.30582c-0.509827 0.382507-1.06274 0.703156-1.63635 0.948578c-0.583618 0.249664-1.15308 0.40805-1.74362 0.505096c-0.582153 0.0956421-1.15674 0.127319-1.7215 0.141907c-0.259186 0.0067139-0.517242 0.009552-0.774963 0.0109558c-0.306 0.0018616-0.611389 0.0017395-0.91687 0.0017395h-7.48047c-0.458221 0-0.916412 0.0001831-1.37375-0.0025635c-0.385284-0.0021362-0.769806-0.0063782-1.15247-0.0163574c-0.833923-0.0217285-1.66708-0.0689087-2.45358-0.211456c-0.797852-0.144592-1.50845-0.380585-2.15747-0.752594c-0.637909-0.365662-1.17654-0.843445-1.59445-1.41339c-0.417877-0.569977-0.711578-1.22733-0.868469-1.94568c-0.159637-0.730865-0.17099-1.47952-0.0689697-2.28394c0.100555-0.792938 0.306091-1.60175 0.536163-2.4036c0.10556-0.36795 0.217133-0.735962 0.330994-1.10403c0.134888-0.437012 0.272858-0.873932 0.410645-1.31094l53.5266-169.756c0.0918579-0.291321 0.183594-0.582611 0.277374-0.873962c0.0788574-0.245392 0.15918-0.490723 0.2435-0.736023c0.183746-0.534576 0.386749-1.07376 0.653076-1.60239c0.270172-0.536285 0.592499-1.0354 1.0062-1.52264c0.406586-0.478882 0.878754-0.917114 1.397-1.29709c0.518219-0.379974 1.07816-0.698517 1.65717-0.942261c0.589111-0.248016 1.16205-0.405334 1.75473-0.50174c0.584259-0.0950317 1.15955-0.126495 1.72461-0.140991c0.259308-0.0066528 0.517456-0.0094604 0.775177-0.0108948C384.765 256 385.07 256 385.376 256h14.3594c0.305481 0 0.61087-0.0001221 0.916931 0.001709c0.257721 0.0014343 0.515869 0.0042419 0.775177 0.0108948c0.565064 0.0144958 1.14035 0.0459595 1.72461 0.140991c0.592682 0.096405 1.16562 0.253723 1.75473 0.50174c0.57901 0.243744 1.13895 0.562286 1.65717 0.942261c0.51825 0.379974 0.990417 0.818207 1.397 1.29709c0.413696 0.487244 0.736023 0.986359 1.0062 1.52264c0.266327 0.528625 0.46933 1.06781 0.653076 1.60239c0.0843201 0.2453 0.164642 0.490631 0.2435 0.736023c0.0937805 0.291351 0.185516 0.582642 0.277374 0.873962l53.5266 169.756c0.137787 0.437012 0.275757 0.873932 0.410645 1.31094c0.113861 0.368073 0.225433 0.736084 0.330994 1.10403c0.230072 0.801849 0.435608 1.61066 0.536163 2.4036c0.10202 0.804413 0.0906677 1.55307-0.0689697 2.28394c-0.156891 0.718353-0.450592 1.3757-0.868469 1.94568c-0.417908 0.569946-0.956543 1.04773-1.59445 1.41339c-0.649017 0.372009-1.35962 0.608002-2.15747 0.752594c-0.786499 0.142548-1.61966 0.189728-2.45358 0.211456c-0.38266 0.0099792-0.767181 0.0142212-1.15247 0.0163574c-0.457336 0.0027466-0.915527 0.0025635-1.37375 0.0025635h-8.91992c-0.305481 0-0.61087 0.0001221-0.91687-0.0017395c-0.257721-0.0014038-0.515778-0.0042725-0.774933-0.0109558c-0.564728-0.0145874-1.13928-0.0462646-1.72128-0.141998c-0.590424-0.0970764-1.15964-0.255524-1.74286-0.50531c-0.573242-0.245514-1.12567-0.566315-1.63492-0.949005s-0.971039-0.824066-1.36633-1.30637c-0.402161-0.490753-0.712677-0.993408-0.970184-1.53351c-0.253815-0.53241-0.444092-1.07547-0.615204-1.61386c-0.0785217-0.24707-0.153046-0.494141-0.226105-0.741302c-0.0868835-0.293396-0.171722-0.586792-0.256714-0.880188L423.273 392.748zM416.831 370.502l-24.4059-84.2734h-0.916016l-24.545 84.2734H416.831zM900.906 429.145c0-0.305481 0.0001221-0.610901-0.0018311-0.916382c-0.0014648-0.257294-0.0043945-0.514526-0.0114136-0.771729c-0.0151367-0.560516-0.0481567-1.12589-0.147766-1.68018c-0.101135-0.562286-0.266052-1.08563-0.526123-1.59653c-0.255615-0.502136-0.5896-0.961639-0.987976-1.36008c-0.398438-0.398407-0.85791-0.732391-1.36005-0.987976c-0.510925-0.26004-1.03424-0.425018-1.59656-0.526092c-0.55426-0.0996399-1.11963-0.132629-1.68018-0.147827c-0.257202-0.006958-0.514465-0.0099182-0.771729-0.0114136c-0.305481-0.0019226-0.610901-0.0018005-0.916382-0.0018005h-30.4727V279.686H892.906c0.305481 0 0.610901 0.0001221 0.916382-0.0018005c0.257263-0.0014648 0.514526-0.0044556 0.771729-0.0114136c0.560547-0.0151978 1.12592-0.0481873 1.68018-0.147827c0.562317-0.101074 1.08563-0.266022 1.59656-0.526092c0.502136-0.255585 0.961609-0.589569 1.36005-0.987976c0.398377-0.398438 0.732361-0.857941 0.987976-1.36008c0.260071-0.510895 0.424988-1.03421 0.526123-1.59653c0.0996094-0.554291 0.132629-1.11966 0.147766-1.68015c0.007019-0.257233 0.0099487-0.514465 0.0114136-0.771759c0.0019531-0.305481 0.0018311-0.610901 0.0018311-0.916382V264c0-0.305481 0.0001221-0.610901-0.0018311-0.916382c-0.0014648-0.257294-0.0043945-0.514526-0.0114136-0.771729c-0.0151367-0.560516-0.0481567-1.12589-0.147766-1.68018c-0.101135-0.562286-0.266052-1.08563-0.526123-1.59653c-0.255615-0.502136-0.5896-0.961639-0.987976-1.36008c-0.398438-0.398407-0.85791-0.732391-1.36005-0.987976c-0.510925-0.26004-1.03424-0.425018-1.59656-0.526092c-0.55426-0.0996399-1.11963-0.132629-1.68018-0.147827c-0.257202-0.006958-0.514465-0.0099182-0.771729-0.0114136C893.517 256 893.212 256 892.906 256h-88.1641c-0.305481 0-0.610901-0.0001221-0.916382 0.0018005c-0.257263 0.0014954-0.514526 0.0044556-0.771729 0.0114136c-0.560547 0.0151978-1.12592 0.0481873-1.68018 0.147827c-0.562317 0.101074-1.08563 0.266052-1.59656 0.526092c-0.502136 0.255585-0.961609 0.589569-1.36005 0.987976c-0.398377 0.398438-0.732361 0.857941-0.987976 1.36008c-0.260071 0.510895-0.424988 1.03424-0.526123 1.59653c-0.0996094 0.554291-0.132629 1.11966-0.147766 1.68018c-0.007019 0.257202-0.0099487 0.514435-0.0114136 0.771729c-0.0019531 0.305481-0.0018311 0.610901-0.0018311 0.916382v7.68555c0 0.305481-0.0001221 0.610901 0.0018311 0.916382c0.0014648 0.257294 0.0043945 0.514526 0.0114136 0.771759c0.0151367 0.560486 0.0481567 1.12585 0.147766 1.68015c0.101135 0.562317 0.266052 1.08563 0.526123 1.59653c0.255615 0.502136 0.5896 0.961639 0.987976 1.36008c0.398438 0.398407 0.85791 0.732391 1.36005 0.987976c0.510925 0.260071 1.03424 0.425018 1.59656 0.526092c0.55426 0.0996399 1.11963 0.132629 1.68018 0.147827c0.257202 0.006958 0.514465 0.0099487 0.771729 0.0114136c0.305481 0.0019226 0.610901 0.0018005 0.916382 0.0018005h30.4727v141.459h-30.4727c-0.305481 0-0.610901-0.0001221-0.916382 0.0018005c-0.257263 0.0014954-0.514526 0.0044556-0.771729 0.0114136c-0.560547 0.0151978-1.12592 0.0481873-1.68018 0.147827c-0.562317 0.101074-1.08563 0.266052-1.59656 0.526092c-0.502136 0.255585-0.961609 0.589569-1.36005 0.987976c-0.398377 0.398438-0.732361 0.857941-0.987976 1.36008c-0.260071 0.510895-0.424988 1.03424-0.526123 1.59653c-0.0996094 0.554291-0.132629 1.11966-0.147766 1.68018c-0.007019 0.257202-0.0099487 0.514435-0.0114136 0.771729c-0.0019531 0.305481-0.0018311 0.610901-0.0018311 0.916382v7.68555c0 0.305481-0.0001221 0.610901 0.0018311 0.916382c0.0014648 0.257294 0.0043945 0.514526 0.0114136 0.771759c0.0151367 0.560486 0.0481567 1.12585 0.147766 1.68015c0.101135 0.562317 0.266052 1.08563 0.526123 1.59653c0.255615 0.502136 0.5896 0.961639 0.987976 1.36008c0.398438 0.398407 0.85791 0.732391 1.36005 0.987976c0.510925 0.260071 1.03424 0.425018 1.59656 0.526092c0.55426 0.0996399 1.11963 0.132629 1.68018 0.147827c0.257202 0.006958 0.514465 0.0099487 0.771729 0.0114136c0.305481 0.0019226 0.610901 0.0018005 0.916382 0.0018005H892.906c0.305481 0 0.610901 0.0001221 0.916382-0.0018005c0.257263-0.0014648 0.514526-0.0044556 0.771729-0.0114136c0.560547-0.0151978 1.12592-0.0481873 1.68018-0.147827c0.562317-0.101074 1.08563-0.266022 1.59656-0.526092c0.502136-0.255585 0.961609-0.589569 1.36005-0.987976c0.398377-0.398438 0.732361-0.857941 0.987976-1.36008c0.260071-0.510895 0.424988-1.03421 0.526123-1.59653c0.0996094-0.554291 0.132629-1.11966 0.147766-1.68015c0.007019-0.257233 0.0099487-0.514465 0.0114136-0.771759c0.0019531-0.305481 0.0018311-0.610901 0.0018311-0.916382V429.145zM39.084 579.17c0.305473 0 0.610863-0.0001221 0.916916 0.001709c0.25774 0.0014038 0.515873 0.0042725 0.775185 0.0109253c0.565075 0.0144653 1.14037 0.0458984 1.72462 0.14093c0.592697 0.0964355 1.16563 0.253723 1.75473 0.50177c0.578999 0.243774 1.13895 0.562256 1.65717 0.942261c0.518227 0.379944 0.990398 0.818176 1.39699 1.29712c0.413689 0.487244 0.736023 0.986328 1.0062 1.52258c0.266323 0.528625 0.469334 1.06787 0.65308 1.60242c0.0843239 0.2453 0.164646 0.490662 0.2435 0.736023c0.093792 0.291321 0.185512 0.582642 0.277374 0.873962l53.5266 169.756c0.137794 0.437012 0.275757 0.873962 0.41066 1.31097c0.113838 0.368042 0.225426 0.736084 0.330994 1.10406c0.230042 0.801819 0.435585 1.6106 0.536156 2.40356c0.102028 0.804382 0.0906525 1.55304-0.0689697 2.28394c-0.156891 0.718323-0.450584 1.37573-0.868492 1.94568c-0.4179 0.569946-0.95652 1.04773-1.59444 1.41339c-0.649033 0.372009-1.35962 0.607971-2.15748 0.752564c-0.786476 0.142578-1.61966 0.189758-2.45356 0.211487c-0.382683 0.0100098-0.767204 0.0142212-1.15248 0.0163574C95.5414 768 95.0832 768 94.625 768h-8.91992c-0.305473 0-0.610863 0.0001221-0.916878-0.001709c-0.257706-0.0014648-0.51577-0.0042725-0.774925-0.0109863c-0.564735-0.0145874-1.13928-0.0462646-1.72128-0.141968c-0.590416-0.0971069-1.15964-0.255554-1.74287-0.505371c-0.573242-0.245483-1.12566-0.566284-1.6349-0.948975s-0.971054-0.824036-1.36633-1.3064c-0.402168-0.490723-0.712708-0.993408-0.9702-1.53351c-0.25383-0.53241-0.444092-1.07544-0.615196-1.61383c-0.0785294-0.24707-0.153053-0.494141-0.226105-0.741272c-0.0869064-0.293457-0.171738-0.586792-0.256714-0.880249l-12.8578-44.3978H0v-83.7072l14.3188-45.4112c0.0918627-0.291321 0.183581-0.582642 0.277374-0.873962c0.0788517-0.245361 0.159177-0.490723 0.243499-0.736023c0.183748-0.534546 0.386756-1.07379 0.653079-1.60242c0.270174-0.536255 0.592508-1.03534 1.0062-1.52258c0.406597-0.478943 0.878765-0.917175 1.39699-1.29712c0.518227-0.380005 1.07818-0.698486 1.65718-0.942261c0.589096-0.248047 1.16203-0.405334 1.75473-0.50177c0.584248-0.0950317 1.15954-0.126465 1.72462-0.14093c0.259315-0.0066528 0.517447-0.0095215 0.775187-0.0109253c0.306055-0.0018311 0.611441-0.001709 0.916916-0.001709H39.084zM56.1794 693.672l-24.4059-84.2734h-0.916016L6.31244 693.672H56.1794zM586.068 603.372c-3.79492-2.31055-8.00488-3.46777-12.6279-3.46777c-4.53711 0-8.72461 1.15723-12.5625 3.46777c-3.83984 2.3125-6.89258 5.41016-9.16016 9.29102c-2.26953 3.88281-3.40234 8.13574-3.40234 12.7588c0 4.625 1.13281 8.89844 3.40234 12.8242c2.26758 3.92578 5.32031 7.0459 9.16016 9.35645c3.83789 2.3125 8.02539 3.46777 12.5625 3.46777c4.62305 0 8.83301-1.15527 12.6279-3.46777c3.79492-2.31055 6.8252-5.43066 9.09473-9.35645c2.26758-3.92578 3.40234-8.19922 3.40234-12.8242c0-4.62305-1.13477-8.87598-3.40234-12.7588C592.894 608.782 589.863 605.685 586.068 603.372zM582.78 366.053l32.9739 67.9804c0.200012 0.412262 0.400147 0.824463 0.597229 1.23676c0.166199 0.347229 0.330139 0.694427 0.488037 1.04156c0.344177 0.75647 0.664795 1.5195 0.878174 2.26758c0.216492 0.758881 0.311646 1.46518 0.255981 2.15469c-0.0546265 0.677673-0.254822 1.29785-0.591614 1.83554c-0.336792 0.53772-0.807434 0.988464-1.39331 1.3334c-0.59613 0.350983-1.27313 0.573608-2.05042 0.710022c-0.766235 0.134491-1.59265 0.179016-2.42346 0.199493c-0.381287 0.0094299-0.765198 0.0134277-1.15021 0.0154114c-0.456909 0.0026245-0.915161 0.0024414-1.37335 0.0024414h-10.6211c-0.305481 0-0.61084 0.0001221-0.917114-0.0016174c-0.257935-0.0013428-0.516419-0.0040283-0.776611-0.0103455c-0.566956-0.0137634-1.14636-0.0436401-1.74292-0.13385c-0.605225-0.0914917-1.19861-0.240845-1.81989-0.476318c-0.610657-0.231415-1.21198-0.533783-1.77954-0.894531c-0.567566-0.360718-1.09662-0.776764-1.56543-1.23138c-0.476929-0.462585-0.864075-0.936401-1.20386-1.4455c-0.335022-0.501862-0.608032-1.01376-0.861145-1.52124c-0.116211-0.23288-0.228394-0.46579-0.339111-0.698731c-0.131592-0.276581-0.261169-0.553101-0.390869-0.829681L555.823 371.156h-38.6035v65.6738c0 0.305481 0.0001221 0.610901-0.0018311 0.916382c-0.0014648 0.257294-0.0043945 0.514526-0.0114136 0.771759c-0.0151367 0.560486-0.0481567 1.12585-0.147766 1.68015c-0.101135 0.562317-0.266052 1.08563-0.526123 1.59653c-0.255615 0.502136-0.5896 0.961639-0.987976 1.36008c-0.398438 0.398407-0.85791 0.732391-1.36005 0.987976c-0.510925 0.260071-1.03424 0.425018-1.59656 0.526092c-0.55426 0.0996399-1.11966 0.132629-1.68015 0.147827c-0.257233 0.006958-0.514465 0.0099487-0.771759 0.0114136c-0.305481 0.0019226-0.610901 0.0018005-0.916382 0.0018005h-11.0879c-0.305481 0-0.610901 0.0001221-0.916382-0.0018005c-0.257294-0.0014648-0.514526-0.0044556-0.771759-0.0114136c-0.560486-0.0151978-1.12585-0.0481873-1.68015-0.147827c-0.562317-0.101074-1.08563-0.266022-1.59653-0.526092c-0.502136-0.255585-0.961639-0.589569-1.36008-0.987976c-0.398407-0.398438-0.732391-0.857941-0.987976-1.36008c-0.260071-0.510895-0.425018-1.03421-0.526092-1.59653c-0.0996399-0.554291-0.132629-1.11966-0.147827-1.68015c-0.006958-0.257233-0.0099487-0.514465-0.0114136-0.771759c-0.0019226-0.305481-0.0018005-0.610901-0.0018005-0.916382V264c0-0.305481-0.0001221-0.610901 0.0018005-0.916382c0.0014648-0.257294 0.0044556-0.514526 0.0114136-0.771729c0.0151978-0.560516 0.0481873-1.12589 0.147827-1.68018c0.101074-0.562286 0.266022-1.08563 0.526092-1.59653c0.255585-0.502136 0.589569-0.961639 0.987976-1.36008c0.398438-0.398407 0.857941-0.732391 1.36008-0.987976c0.510895-0.26004 1.03421-0.425018 1.59653-0.526092c0.554291-0.0996399 1.11966-0.132629 1.68015-0.147827c0.257233-0.006958 0.514465-0.0099182 0.771759-0.0114136C497.521 256 497.826 256 498.132 256h56.9062c19.2793 0 34.502 5.14844 45.6699 15.4414c11.166 10.2949 16.75 24.3848 16.75 42.2676c0 12.3008-3.14062 23.1621-9.42188 32.584S593.335 362.303 582.78 366.053zM589.978 314.232c0-11.166-3.29395-19.8027-9.87988-25.9102c-6.58789-6.10547-15.8994-9.16016-27.9385-9.16016h-34.9395v70.0098h34.0234c12.3867 0 21.9395-3.05273 28.6582-9.16016C586.618 333.906 589.978 325.312 589.978 314.232zM911.92 675.81c5.05859 9.0293 7.58984 19.3018 7.58984 30.8174c0 12.5625-2.87891 23.751-8.63672 33.5654S897.241 757.75 887.253 763.42c-9.99023 5.66992-21.3525 8.50586-34.0889 8.50586c-12.9121 0-24.3848-2.81348-34.416-8.44043c-10.0332-5.62695-17.8848-13.3906-23.5547-23.293c-5.67188-9.90039-8.50586-21.2646-8.50586-34.0889c0-11.2539 2.02832-22.3115 6.08496-33.1729s10.665-22.835 19.8252-35.9209c2.5293-3.66406 5.18945-7.45898 7.98242-11.3848c2.79102-3.92578 5.66992-7.9375 8.63672-12.0391c2.96484-4.09961 5.90918-8.13379 8.83301-12.1045c2.92188-3.96875 5.73535-7.85156 8.44043-11.6465c1.40167-1.96783 2.76868-3.87079 4.10077-5.70947c2.25775-3.11627 5.86786-4.95557 9.71606-4.95557h12.9175c0.458191 0 0.916443-0.0001831 1.37299 0.0021973c0.384582 0.00177 0.767822 0.0053711 1.14752 0.0137939c0.827271 0.0184326 1.64612 0.0583496 2.38934 0.178955c0.753906 0.122375 1.39282 0.322144 1.92889 0.636963c0.526856 0.309448 0.920349 0.713806 1.16516 1.19617s0.338867 1.0387 0.277588 1.64667c-0.0623169 0.61853-0.27832 1.25214-0.624634 1.93292c-0.34137 0.671021-0.792602 1.35553-1.26611 2.03418c-0.217346 0.311401-0.440674 0.622864-0.666321 0.934326c-0.267639 0.369873-0.538269 0.739624-0.808777 1.1095l-43.1656 59.0155c-1.91992 2.61719-3.29395 4.53711-4.12207 5.75781c-0.830078 1.22266-1.41895 2.13867-1.7666 2.74805c-0.349609 0.611328-0.699219 1.30859-1.04688 2.09375l2.09375 0.916016c3.05273-3.75 7.47949-6.8252 13.2822-9.22559c5.80078-2.39844 11.7119-3.59863 17.7314-3.59863c11.2539 0 21.2646 2.61719 30.0322 7.85156S906.859 666.78 911.92 675.81zM892.814 707.805c0-7.67578-1.74609-14.5459-5.23438-20.6104c-3.49023-6.0625-8.22363-10.8818-14.1982-14.46c-5.97656-3.57617-12.7588-5.36523-20.3486-5.36523c-7.50391 0-14.2637 1.78906-20.2832 5.36523c-6.01953 3.57812-10.7754 8.39746-14.2637 14.46c-3.49023 6.06445-5.23438 12.9346-5.23438 20.6104c0 7.76562 1.74414 14.7012 5.23438 20.8066c3.48828 6.10742 8.24414 10.9492 14.2637 14.5254c6.01953 3.57812 12.7793 5.36523 20.2832 5.36523c7.58984 0 14.3721-1.78711 20.3486-5.36523c5.97461-3.57617 10.708-8.41797 14.1982-14.5254C891.068 722.506 892.814 715.57 892.814 707.805zM723.864 670.248v-2.09375c10.207-2.44141 18.1895-7.50195 23.9473-15.1797c5.75781-7.67578 8.63672-17.1426 8.63672-28.3965c0-9.76953-2.53125-18.3408-7.58984-25.7139c-5.06055-7.37109-12.084-13.1514-21.0684-17.3389c-8.98633-4.1875-19.3672-6.28125-31.1445-6.28125c-18.1465 0-32.7598 4.8418-43.8379 14.5254c-9.5 8.30261-15.3114 19.2026-17.4355 32.6999c-0.573852 3.64624 2.24023 6.9505 5.93134 6.9505h13.5254c2.87744 0 5.30811-2.05365 5.88745-4.87219c1.50787-7.33612 4.86938-13.324 10.0845-17.9628c6.32422-5.62695 14.6338-8.44043 24.9287-8.44043c10.293 0 18.5596 2.74805 24.7979 8.24414c6.23633 5.49609 9.35645 12.8242 9.35645 21.9844c0 9.33594-3.20605 16.9258-9.61816 22.7695c-6.41211 5.8457-14.7217 8.76758-24.9287 8.76758h-13.2072c-0.300171 0-0.600281-0.0001221-0.900452 0.00177c-0.252808 0.0014648-0.505615 0.0043945-0.758362 0.0112305c-0.550781 0.0148926-1.10638 0.0473633-1.651 0.145264c-0.552551 0.0993042-1.06683 0.261414-1.56885 0.516968c-0.493408 0.25116-0.945007 0.579346-1.33649 0.970825s-0.719665 0.843079-0.970825 1.33649c-0.255554 0.502014-0.417664 1.0163-0.516968 1.56885c-0.0979004 0.544617-0.130371 1.10022-0.145264 1.651c-0.0068359 0.252747-0.0097656 0.505554-0.0112305 0.758362c-0.0018921 0.300171-0.00177 0.600281-0.00177 0.900452v6.00024c0 0.300171-0.0001221 0.600281 0.00177 0.900452c0.0014648 0.252808 0.0043945 0.505615 0.0112305 0.758362c0.0148926 0.550781 0.0473633 1.10638 0.145264 1.651c0.0993042 0.552551 0.261414 1.06683 0.516968 1.56885c0.25116 0.493408 0.579346 0.944946 0.970825 1.33649c0.391479 0.391479 0.843079 0.719665 1.33649 0.970825c0.502014 0.255554 1.0163 0.417664 1.56885 0.516968c0.544617 0.0979004 1.10022 0.130371 1.651 0.145264c0.252747 0.0068359 0.505554 0.0097656 0.758362 0.0112305c0.300171 0.0018921 0.600281 0.00177 0.900452 0.00177h13.9923c12.4746 0 22.377 3.05469 29.7051 9.16016c7.32812 6.10742 10.9922 14.3516 10.9922 24.7324c0 9.94531-3.57812 17.8848-10.7305 23.8164c-7.1543 5.93359-16.9258 8.89844-29.3125 8.89844c-11.2539 0-20.5449-2.85645-27.873-8.57129c-6.10675-4.76074-10.0027-10.8704-11.6867-18.3289c-0.618225-2.73834-3.12329-4.63696-5.93054-4.63696h-13.6606c-3.70135 0-6.51868 3.32129-5.92822 6.97522c1.33844 8.28308 4.25348 15.6628 8.7442 22.141c5.71289 8.24414 13.4561 14.6562 23.2275 19.2363c9.76953 4.58008 21.0684 6.87012 33.8926 6.87012c12.998 0 24.5137-2.35547 34.5469-7.06641c10.0312-4.71094 17.8828-11.2539 23.5547-19.6289c5.66992-8.375 8.50586-17.9277 8.50586-28.6582c0-12.8242-3.55566-23.3359-10.665-31.5371C746.393 676.836 736.513 671.906 723.864 670.248zM391.735 594.725c0 0.305481-0.0001221 0.610901 0.0018005 0.916382c0.0014648 0.257263 0.0044556 0.514526 0.0114136 0.771729c0.0151978 0.560547 0.0481873 1.12592 0.147827 1.68018c0.101074 0.562317 0.266022 1.08563 0.526092 1.5965c0.255585 0.502136 0.589569 0.96167 0.987976 1.36011c0.398438 0.398377 0.857941 0.732361 1.36008 0.987976c0.510895 0.260071 1.03421 0.424988 1.59653 0.526123c0.554291 0.0996094 1.11966 0.132568 1.68015 0.147766c0.257233 0.007019 0.514465 0.0099487 0.771759 0.0114136c0.305481 0.0019531 0.610901 0.0018311 0.916382 0.0018311h92.7617v1.70117l-78.9017 152.91c-0.210114 0.407166-0.42038 0.814331-0.627594 1.2215c-0.174774 0.343018-0.347259 0.685913-0.513702 1.02875c-0.362762 0.747192-0.702148 1.50079-0.93396 2.23969c-0.235138 0.749512-0.347656 1.44714-0.308991 2.12817c0.0379944 0.669311 0.222931 1.28186 0.546509 1.81299c0.323578 0.531067 0.783112 0.976257 1.3605 1.31696c0.587494 0.34668 1.25903 0.566528 2.03293 0.701294c0.762909 0.132812 1.58829 0.176758 2.41858 0.197021c0.381043 0.0093384 0.764862 0.0132446 1.14978 0.0152588C419.176 768 419.635 768 420.093 768h8.78906c0.305481 0 0.61084 0.0001221 0.917175-0.0015869c0.257965-0.0013428 0.51654-0.0039673 0.776917-0.0101929c0.567352-0.0135498 1.14761-0.0430298 1.74686-0.131958c0.60791-0.09021 1.20566-0.237427 1.83389-0.469482c0.617432-0.228088 1.22763-0.526184 1.80582-0.881714c0.578156-0.355591 1.11948-0.765625 1.60162-1.21375c0.49054-0.455994 0.891632-0.923035 1.2464-1.4248c0.349701-0.49469 0.637787-0.999268 0.905853-1.49945c0.123047-0.229553 0.242065-0.459106 0.359619-0.688721c0.13977-0.272644 0.277435-0.545227 0.415253-0.81781l76.1386-150.604c0.137817-0.272583 0.275574-0.545044 0.413391-0.81958c0.116089-0.231079 0.232178-0.463623 0.348206-0.700195c0.25293-0.515381 0.507996-1.05292 0.758057-1.64722c0.253723-0.602905 0.489807-1.23492 0.720337-1.95087c0.226562-0.703735 0.433838-1.44781 0.613586-2.20178c0.17981-0.753967 0.330444-1.51154 0.445801-2.24182c0.11731-0.74292 0.191711-1.41351 0.237366-2.06598c0.0449219-0.64325 0.0598145-1.23804 0.0666504-1.81207c0.0031738-0.263489 0.0045166-0.523377 0.005188-0.781982c0.0008545-0.30719 0.0007935-0.612488 0.0007935-0.917969v-7.94727c0-0.305481 0.0001221-0.610901-0.0018311-0.916382c-0.0014648-0.257263-0.0043945-0.514526-0.0114136-0.771729c-0.0151367-0.560547-0.0481567-1.12592-0.147766-1.68018c-0.101135-0.562317-0.266052-1.08563-0.526123-1.59656c-0.255615-0.502136-0.5896-0.961609-0.987976-1.36005c-0.398438-0.398377-0.85791-0.732361-1.36005-0.987976c-0.510925-0.260071-1.03424-0.424988-1.59656-0.526123c-0.55426-0.0996094-1.11963-0.132629-1.68018-0.147766c-0.257202-0.007019-0.514465-0.0099487-0.771729-0.0114746c-0.305481-0.0018921-0.610901-0.00177-0.916382-0.00177H399.735c-0.305481 0-0.610901-0.0001221-0.916382 0.00177c-0.257294 0.0015259-0.514526 0.0044556-0.771759 0.0114746c-0.560486 0.0151367-1.12585 0.0481567-1.68015 0.147766c-0.562317 0.101135-1.08563 0.266052-1.59653 0.526123c-0.502136 0.255615-0.961639 0.5896-1.36008 0.987976c-0.398407 0.398438-0.732391 0.85791-0.987976 1.36005c-0.260071 0.510925-0.425018 1.03424-0.526092 1.59656c-0.0996399 0.55426-0.132629 1.11963-0.147827 1.68018c-0.006958 0.257202-0.0099487 0.514465-0.0114136 0.771729c-0.0019226 0.305481-0.0018005 0.610901-0.0018005 0.916382V594.725zM746.927 397.197h-1.96289l-72.3623-134.156c-0.145019-0.26886-0.289856-0.537659-0.436829-0.806519c-0.123596-0.226471-0.248718-0.452881-0.377808-0.67926c-0.28125-0.493317-0.582642-0.990906-0.945435-1.47876c-0.368042-0.494904-0.781433-0.955505-1.284-1.40515c-0.493957-0.441925-1.04614-0.846375-1.63367-1.19702c-0.587585-0.350677-1.20563-0.644623-1.8291-0.869568c-0.634338-0.228882-1.23596-0.374054-1.84625-0.463043c-0.601623-0.087677-1.18262-0.11673-1.75037-0.130096c-0.260498-0.006134-0.519165-0.008728-0.777161-0.0100403C661.415 256 661.109 256 660.804 256h-9.38672c-0.305481 0-0.610901-0.0001221-0.916382 0.0018005c-0.257263 0.0014954-0.514526 0.0044556-0.771729 0.0114136c-0.560547 0.0151978-1.12592 0.0481873-1.68018 0.147827c-0.562317 0.101074-1.08563 0.266052-1.59656 0.526092c-0.502136 0.255585-0.961609 0.589569-1.36005 0.987976c-0.398377 0.398438-0.732361 0.857941-0.987976 1.36008c-0.260071 0.510895-0.424988 1.03424-0.526123 1.59653c-0.0996094 0.554291-0.132629 1.11966-0.147766 1.68018c-0.007019 0.257202-0.0099487 0.514435-0.0114136 0.771729c-0.0019531 0.305481-0.0018311 0.610901-0.0018311 0.916382v172.83c0 0.305481-0.0001221 0.610901 0.0018311 0.916382c0.0014648 0.257294 0.0043945 0.514526 0.0114136 0.771759c0.0151367 0.560486 0.0481567 1.12585 0.147766 1.68015c0.101135 0.562317 0.266052 1.08563 0.526123 1.59653c0.255615 0.502136 0.5896 0.961639 0.987976 1.36008c0.398438 0.398407 0.85791 0.732391 1.36005 0.987976c0.510925 0.260071 1.03424 0.425018 1.59656 0.526092c0.55426 0.0996399 1.11963 0.132629 1.68018 0.147827c0.257202 0.006958 0.514465 0.0099487 0.771729 0.0114136c0.305481 0.0019226 0.610901 0.0018005 0.916382 0.0018005h8.20898c0.305481 0 0.610901 0.0001221 0.916382-0.0018005c0.257263-0.0014648 0.514526-0.0044556 0.771729-0.0114136c0.560547-0.0151978 1.12592-0.0481873 1.68018-0.147827c0.562317-0.101074 1.08563-0.266022 1.59656-0.526092c0.502136-0.255585 0.961609-0.589569 1.36005-0.987976c0.398377-0.398438 0.732361-0.857941 0.987976-1.36008c0.260071-0.510895 0.424988-1.03421 0.526123-1.59653c0.0996094-0.554291 0.132629-1.11966 0.147766-1.68015c0.007019-0.257233 0.0099487-0.514465 0.0114136-0.771759c0.0019531-0.305481 0.0018311-0.610901 0.0018311-0.916382V303.24h1.96289l72.6221 134.55c0.145142 0.268829 0.290039 0.537598 0.437073 0.806427c0.123718 0.22641 0.24884 0.452789 0.377991 0.679138c0.281433 0.493225 0.582947 0.990753 0.945862 1.47855c0.368164 0.494812 0.781677 0.955353 1.28436 1.40494c0.49408 0.441864 1.04633 0.846252 1.63397 1.19687c0.587708 0.350586 1.20581 0.644501 1.82935 0.869415c0.634399 0.228851 1.23608 0.374023 1.84644 0.462952c0.601623 0.0877075 1.18262 0.11673 1.75037 0.130096c0.260498 0.006134 0.519165 0.0087585 0.777161 0.0100403c0.306397 0.001709 0.611755 0.0015869 0.917236 0.0015869h9.125c0.305481 0 0.610901 0.0001221 0.916382-0.0018005c0.257263-0.0014648 0.514526-0.0044556 0.771729-0.0114136c0.560547-0.0151978 1.12592-0.0481873 1.68018-0.147827c0.562317-0.101074 1.08563-0.266022 1.59656-0.526092c0.502136-0.255585 0.961609-0.589569 1.36005-0.987976c0.398377-0.398438 0.732361-0.857941 0.987976-1.36008c0.260071-0.510895 0.424988-1.03421 0.526123-1.59653c0.0996094-0.554291 0.132629-1.11966 0.147766-1.68015c0.007019-0.257233 0.0099487-0.514465 0.0114136-0.771759c0.0019531-0.305481 0.0018311-0.610901 0.0018311-0.916382V264c0-0.305481 0.0001221-0.610901-0.0018311-0.916382c-0.0014648-0.257294-0.0043945-0.514526-0.0114136-0.771729c-0.0151367-0.560516-0.0481567-1.12589-0.147766-1.68018c-0.101135-0.562286-0.266052-1.08563-0.526123-1.59653c-0.255615-0.502136-0.5896-0.961639-0.987976-1.36008c-0.398438-0.398407-0.85791-0.732391-1.36005-0.987976c-0.510925-0.26004-1.03424-0.425018-1.59656-0.526092c-0.55426-0.0996399-1.11963-0.132629-1.68018-0.147827c-0.257202-0.006958-0.514465-0.0099182-0.771729-0.0114136C763.747 256 763.441 256 763.136 256h-8.20898c-0.305481 0-0.610901-0.0001221-0.916382 0.0018005c-0.257263 0.0014954-0.514526 0.0044556-0.771729 0.0114136c-0.560547 0.0151978-1.12592 0.0481873-1.68018 0.147827c-0.562317 0.101074-1.08563 0.266052-1.59656 0.526092c-0.502136 0.255585-0.961609 0.589569-1.36005 0.987976c-0.398377 0.398438-0.732361 0.857941-0.987976 1.36008c-0.260071 0.510895-0.424988 1.03424-0.526123 1.59653c-0.0996094 0.554291-0.132629 1.11966-0.147766 1.68018c-0.007019 0.257202-0.0099487 0.514435-0.0114136 0.771729c-0.0019531 0.305481-0.0018311 0.610901-0.0018311 0.916382V397.197zM586.068 703.479c-3.79492-2.31055-8.00488-3.46777-12.6279-3.46777c-4.53711 0-8.72461 1.15723-12.5625 3.46777c-3.83984 2.3125-6.89258 5.41016-9.16016 9.29102c-2.26953 3.88281-3.40234 8.17871-3.40234 12.8896c0 4.625 1.13281 8.87793 3.40234 12.7588c2.26758 3.88281 5.32031 6.98047 9.16016 9.29102c3.83789 2.31055 8.02539 3.46777 12.5625 3.46777c4.62305 0 8.83301-1.15723 12.6279-3.46777s6.8252-5.4082 9.09473-9.29102c2.26758-3.88086 3.40234-8.13379 3.40234-12.7588c0-4.71094-1.13477-9.00684-3.40234-12.8896C592.894 708.89 589.863 705.792 586.068 703.479z" fill="#F7CE46" style="fill:#F7CE46;"/>
 </g>
</svg>
