<?xml version="1.0" encoding="UTF-8"?>
<!--Generator: Apple Native CoreSVG 361-->
<!DOCTYPE svg
PUBLIC "-//W3C//DTD SVG 1.1//EN"
       "http://www.w3.org/Graphics/SVG/1.1/DTD/svg11.dtd">
<svg version="1.1" xmlns="http://www.w3.org/2000/svg" xmlns:xlink="http://www.w3.org/1999/xlink" viewBox="0 0 1024 1024">
 <g/>
 <g id="checkers">
  <g>
   <path d="M896.776 512V373.943c0-9.42828 0.0040894-18.8553-0.0556641-28.284c-0.0453491-7.94131-0.137329-15.8813-0.352295-23.8205c-0.468994-17.3004-1.48718-34.7508-4.56281-51.8591c-3.11951-17.3554-8.21106-33.5084-16.2377-49.2771c-7.88886-15.4987-18.1976-29.6816-30.4949-41.979c-12.2971-12.2974-26.4802-22.6061-41.9789-30.4949c-15.7687-8.02686-31.9218-13.118-49.2773-16.2377c-17.108-3.07585-34.5585-4.09383-51.8589-4.56283c-7.93915-0.214951-15.8792-0.306946-23.8205-0.352509c-9.42847-0.0597534-18.8555-0.0554581-28.2842-0.0554581H511.349V512H896.776z" fill="#FFFFFF" style="fill:#FFFFFF;"/>
   <path d="M127.224 512v138.057c0 9.42828-0.0040817 18.8553 0.0556717 28.284c0.0453491 7.94135 0.137352 15.8813 0.352295 23.8205c0.469009 17.3004 1.4872 34.7509 4.56282 51.8591c3.11948 17.3554 8.21107 33.5084 16.2377 49.2772c7.88887 15.4987 18.1976 29.6816 30.4949 41.9789c12.2971 12.2974 26.4802 22.6061 41.9789 30.4949c15.7687 8.02686 31.9217 13.118 49.2774 16.2377c17.108 3.07581 34.5584 4.09381 51.8588 4.56281c7.93918 0.214966 15.8792 0.306946 23.8205 0.352478c9.42853 0.0597534 18.8555 0.055481 28.2842 0.055481h137.202V512H127.224z" fill="#FFFFFF" style="fill:#FFFFFF;"/>
  </g>
 </g>
</svg>
