<?xml version="1.0" encoding="UTF-8"?>
<!--Generator: Apple Native CoreSVG 361-->
<!DOCTYPE svg
PUBLIC "-//W3C//DTD SVG 1.1//EN"
       "http://www.w3.org/Graphics/SVG/1.1/DTD/svg11.dtd">
<svg version="1.1" xmlns="http://www.w3.org/2000/svg" xmlns:xlink="http://www.w3.org/1999/xlink" viewBox="0 0 1024 1024">
 <g/>
 <g id="horse">
  <path d="M482.394 213.487c-10.2239 0-20.2645 0.784851-30.0648 2.29762c-4.48703 0.692612-9.04111-0.583588-12.457-3.57437c-9.27139-8.11757-21.8145-17.5103-37.7352-24.096c-6.62186-2.73921-13.0582 4.26788-9.72626 10.6122l21.4422 40.8285L249.317 363.944c-0.767258 0.580048-1.53441 1.15961-2.30167 1.74576c-0.646255 0.493195-1.29236 0.991028-1.93842 1.50137c-1.40784 1.11218-2.8279 2.28961-4.22009 3.65585c-1.41234 1.38599-2.72679 2.89911-4.01001 4.68805c-1.26122 1.75827-2.41539 3.68246-3.41609 5.69348s-1.83957 4.09207-2.48155 6.15851c-0.653168 2.10245-1.0675 4.06351-1.32138 6.02594c-0.250259 1.93448-0.33313 3.77731-0.371277 5.57104c-0.0175171 0.82312-0.0249786 1.63873-0.0286865 2.45169c-0.0048523 0.965515-0.0045166 1.92697-0.0045166 2.88882l0 0l1.53e-05 12.3589c0 1.21487-0.0005188 2.42957 0.0071564 3.64444c0.0058746 1.02325 0.0176849 2.0463 0.0454102 3.06924c0.0604248 2.22913 0.19162 4.47763 0.587875 6.68201c0.401993 2.23627 1.05803 4.31757 2.09225 6.3494c1.01649 1.99698 2.34476 3.82446 3.92924 5.40897c1.5845 1.5845 3.41199 2.91275 5.40898 3.92926c2.03183 1.03421 4.11311 1.69025 6.34938 2.09225c2.20439 0.39624 4.45288 0.527435 6.68201 0.58786c1.02295 0.0277405 2.04601 0.0395203 3.06926 0.0454102c1.21487 0.0076904 2.42953 0.0071716 3.64441 0.0071716l0.957977 2.64301c3.65802 10.098 12.763 17.431 23.47 18.276c12.0659 0.953796 23.1632-6.16245 27.4269-17.2942c2.68796-7.01779 9.34109-11.7159 16.8561-11.7159h11.6865c15.6218 0 30.9542-4.21515 44.3805-12.201l0.843994-0.502014c1.69727-1.01053 3.82712-0.968018 5.48679 0.124542c13.5975 8.95126 30.0268 12.5785 46.3062 12.5785h4.91345c3.36908 0 6.08722 2.73779 6.08722 6.10687c0 77.9104-60.2687 142.266-64.3406 217.644h255.811c0-83.332 36.955-168.802 36.955-255.187C677.88 301.009 590.358 213.487 482.394 213.487" fill="#A67C4F" style="fill:#A67C4F;"/>
 </g>
</svg>
