<?xml version="1.0" encoding="UTF-8"?>
<!--Generator: Apple Native CoreSVG 361-->
<!DOCTYPE svg
PUBLIC "-//W3C//DTD SVG 1.1//EN"
       "http://www.w3.org/Graphics/SVG/1.1/DTD/svg11.dtd">
<svg version="1.1" xmlns="http://www.w3.org/2000/svg" xmlns:xlink="http://www.w3.org/1999/xlink" viewBox="0 0 1024 1024">
 <path d="M836.503 731.024c-1.03528-3.67108-2.59161-7.17896-4.60803-10.3792c-2.05151-3.2558-4.44562-6.00378-7.23785-8.51581c-2.75226-2.47668-5.75793-4.6048-8.78809-6.61359c-1.39044-0.922058-2.79272-1.82092-4.19958-2.71112c-1.6698-1.05798-3.34515-2.10382-5.02057-3.1507l-108.133-67.5702c-15.4017-9.62433-34.7221-10.4676-50.9042-2.2226l-49.9816 25.4671c-17.7397 9.03876-39.1391 7.15826-54.9107-4.99329c-31.2549-24.0817-61.3184-50.4441-89.9639-79.0897c-28.6453-28.6451-55.008-58.7088-79.0894-89.964c-12.1518-15.771-14.0318-37.171-4.99304-54.9104l25.4666-49.9813c8.24524-16.1823 7.40176-35.5027-2.22256-50.9044L324.347 217.351c-1.04712-1.67487-2.09296-3.35075-3.15118-5.02057c-0.890228-1.40659-1.78906-2.80862-2.71088-4.19955c-2.00858-3.02992-4.13715-6.03558-6.61334-8.78813c-2.51202-2.79195-5.26028-5.18628-8.5163-7.23755c-3.2002-2.01642-6.70782-3.57256-10.3792-4.60829c-3.67105-1.03523-7.47525-1.54099-11.2572-1.494c-3.84814 0.0480042-7.44217 0.653793-11.043 1.72186c-3.54956 1.05292-6.93466 2.50346-10.2306 4.03737c-1.5127 0.7043-3.01172 1.43033-4.50572 2.16444c-1.77466 0.871033-3.54198 1.75319-5.30981 2.63432c-134.892 67.2554-42.5444 276.347 128.959 447.85c171.503 171.503 380.595 263.85 447.85 128.959c0.881409-1.76782 1.76355-3.53516 2.63434-5.30957c0.734375-1.49451 1.46039-2.99353 2.16443-4.50574c1.53394-3.29614 2.98444-6.68127 4.03766-10.2311c1.06805-3.60034 1.67358-7.19464 1.72156-11.0425C838.044 738.499 837.538 734.695 836.503 731.024z" fill="#FFFFFF" style="fill:#FFFFFF;"/>
</svg>
