<?xml version="1.0" encoding="UTF-8"?>
<!--Generator: Apple Native CoreSVG 361-->
<!DOCTYPE svg
PUBLIC "-//W3C//DTD SVG 1.1//EN"
       "http://www.w3.org/Graphics/SVG/1.1/DTD/svg11.dtd">
<svg version="1.1" xmlns="http://www.w3.org/2000/svg" xmlns:xlink="http://www.w3.org/1999/xlink" viewBox="0 0 1024 1024">
 <g/>
 <g id="beforepaper">
  <path d="M512 862H354c-4.27664 0-8.55261 0.0018311-12.8293-0.0252075c-3.60211-0.0206909-7.20346-0.0622559-10.8045-0.159851c-7.84711-0.212707-15.7623-0.674561-23.5223-2.06952c-7.87216-1.4151-15.1988-3.72449-22.3513-7.36523c-7.02991-3.57831-13.4631-8.25403-19.0409-13.8318c-5.57782-5.57782-10.2536-12.011-13.8319-19.041c-3.64072-7.15247-5.95013-14.4791-7.36523-22.3513c-1.39493-7.76001-1.85678-15.6752-2.06947-23.5223c-0.0976105-3.60107-0.13916-7.20245-0.159851-10.8046C241.998 758.553 242 754.277 242 750V274c0-4.27664-0.0018005-8.55261 0.0252228-12.8293c0.0206909-3.60211 0.0622406-7.20348 0.159851-10.8045c0.212692-7.84708 0.674545-15.7623 2.06947-23.5223c1.4151-7.87219 3.72452-15.1988 7.36523-22.3513c3.57832-7.02991 8.25409-13.4631 13.8319-19.0409c5.57779-5.5778 12.011-10.2536 19.0409-13.8319c7.1525-3.64072 14.4792-5.95013 22.3513-7.36523c7.75998-1.39493 15.6752-1.85678 23.5223-2.06947c3.60104-0.0976105 7.20239-0.13916 10.8045-0.159851C345.447 161.998 349.723 162 354 162h158V862z" fill="#B4B4B4" style="fill:#B4B4B4;"/>
 </g>
</svg>
