<?xml version="1.0" encoding="UTF-8"?>
<!--Generator: Apple Native CoreSVG 361-->
<!DOCTYPE svg
PUBLIC "-//W3C//DTD SVG 1.1//EN"
       "http://www.w3.org/Graphics/SVG/1.1/DTD/svg11.dtd">
<svg version="1.1" xmlns="http://www.w3.org/2000/svg" xmlns:xlink="http://www.w3.org/1999/xlink" viewBox="0 0 1024 1024">
 <g/>
 <g id="beforecontent">
  <path d="M322.006 611.208C322 610.138 322 609.069 322 608v-64.0005c0-1.06909-0.0004272-2.13812 0.0062866-3.20728c0.005188-0.900513 0.015564-1.80084 0.039978-2.70111c0.0531616-1.96173 0.16864-3.94055 0.517395-5.88049c0.35376-1.96802 0.931091-3.79968 1.84131-5.58783c0.894531-1.75745 2.06348-3.36566 3.45795-4.76013s3.00275-2.56342 4.76025-3.45801c1.78809-0.910095 3.61975-1.48743 5.58783-1.84125c1.94-0.348694 3.91876-0.464172 5.88055-0.517334c0.900269-0.0244141 1.8006-0.03479 2.70111-0.039978C347.862 516 348.931 516 350 516h94c1.06915 0 2.13812-0.0004883 3.20734 0.0062866c0.900513 0.005188 1.80084 0.015564 2.70111 0.039978c1.96179 0.0531616 3.94055 0.16864 5.88055 0.517334c1.96808 0.353821 3.79974 0.931152 5.58783 1.84125c1.75751 0.894592 3.36578 2.06354 4.76025 3.45801s2.56342 3.00269 3.45795 4.76013c0.910217 1.78815 1.48755 3.61981 1.84131 5.58783c0.348755 1.93994 0.464233 3.91876 0.517395 5.88049c0.0244141 0.900269 0.03479 1.8006 0.039978 2.70111C472 541.862 472 542.931 472 544v64.0005c0 1.06915 0.0004272 2.13812-0.0062866 3.20728c-0.005188 0.900513-0.015564 1.80084-0.039978 2.70111c-0.0531616 1.96173-0.16864 3.94055-0.517395 5.88049c-0.35376 1.96802-0.931091 3.79968-1.84131 5.58777c-0.894531 1.75751-2.06348 3.36578-3.45795 4.76025c-1.39447 1.39435-3.00275 2.56329-4.76025 3.45789c-1.78809 0.910156-3.61975 1.48755-5.58783 1.84131c-1.94 0.348755-3.91876 0.464233-5.88055 0.517395c-0.900269 0.024353-1.8006 0.03479-2.70111 0.039917C446.138 636 445.069 636 444 636h-94c-1.06915 0-2.13812 0.0004272-3.20734-0.0063477c-0.900513-0.005127-1.80084-0.015564-2.70111-0.039917c-1.96179-0.0531616-3.94055-0.16864-5.88055-0.517395c-1.96808-0.35376-3.79974-0.931152-5.58783-1.84131c-1.75751-0.894592-3.36578-2.06354-4.76025-3.45789c-1.39447-1.39447-2.56342-3.00275-3.45795-4.76025c-0.910217-1.78809-1.48755-3.61975-1.84131-5.58777c-0.348755-1.93994-0.464233-3.91876-0.517395-5.88049C322.022 613.008 322.011 612.108 322.006 611.208zM329.665 680.418C324.865 684.097 322 689.921 322 696s2.86481 11.9027 7.66467 15.582C335.002 715.676 340.536 716 347.217 716H512v-40H347.217C340.536 676 335.002 676.324 329.665 680.418zM346.793 356.006c-0.900513 0.005188-1.80084 0.015564-2.70111 0.039978c-1.96179 0.0531616-3.94055 0.16864-5.88055 0.517334c-1.96808 0.353821-3.79974 0.931152-5.58783 1.84131c-1.75751 0.894592-3.36578 2.06354-4.76025 3.45801s-2.56342 3.00275-3.45795 4.76019c-0.910217 1.78815-1.48755 3.61981-1.84131 5.58789c-0.348755 1.93994-0.464233 3.91876-0.517395 5.88055c-0.0244141 0.900269-0.03479 1.8006-0.039978 2.70111C322 381.862 322 382.931 322 384v64c0 1.06915-0.0004272 2.13812 0.0062866 3.20728c0.005188 0.900574 0.015564 1.8009 0.039978 2.70117c0.0531616 1.96173 0.16864 3.94055 0.517395 5.88055c0.35376 1.96802 0.931091 3.79968 1.84131 5.58783c0.894531 1.75751 2.06348 3.36578 3.45795 4.76025c1.39447 1.39441 3.00275 2.56335 4.76025 3.45795c1.78809 0.910156 3.61975 1.48755 5.58783 1.84131c1.94 0.348755 3.91876 0.464233 5.88055 0.517395c0.900269 0.024353 1.8006 0.03479 2.70111 0.039917C347.862 476 348.931 476 350 476h162V356H350C348.931 356 347.862 356 346.793 356.006zM347.217 276c-6.68097 0-12.2159 0.32428-17.5528 4.41803C324.865 284.097 322 289.921 322 296s2.86481 11.9027 7.66467 15.582C335.002 315.676 340.536 316 347.217 316H512v-40H347.217z" fill="#8C8C8C" style="fill:#8C8C8C;"/>
 </g>
</svg>
