<?xml version="1.0" encoding="UTF-8"?>
<!--Generator: Apple Native CoreSVG 361-->
<!DOCTYPE svg
PUBLIC "-//W3C//DTD SVG 1.1//EN"
       "http://www.w3.org/Graphics/SVG/1.1/DTD/svg11.dtd">
<svg version="1.1" xmlns="http://www.w3.org/2000/svg" xmlns:xlink="http://www.w3.org/1999/xlink" viewBox="0 0 1024 1024">
 <g/>
 <g id="afterpaper">
  <path d="M782 750c0 4.27661 0.0018311 8.55261-0.0252075 12.8292c-0.0206909 3.60211-0.0622559 7.20349-0.159851 10.8046c-0.212707 7.84705-0.674561 15.7623-2.06952 23.5223c-1.4151 7.87219-3.72449 15.1989-7.36523 22.3513c-3.57831 7.02991-8.25403 13.4631-13.8318 19.041s-12.011 10.2535-19.041 13.8318c-7.15247 3.64075-14.4791 5.95013-22.3513 7.36523c-7.76001 1.39496-15.6752 1.85681-23.5223 2.06952c-3.60107 0.0975952-7.20245 0.13916-10.8046 0.159851C678.553 862.002 674.277 862 670 862H512V162h158c4.27661 0 8.55261-0.0018005 12.8292 0.0252228c3.60211 0.0206909 7.20349 0.0622406 10.8046 0.159851c7.84705 0.212692 15.7623 0.674545 23.5223 2.06947c7.87219 1.4151 15.1989 3.72452 22.3513 7.36523c7.02991 3.57832 13.4631 8.25409 19.041 13.8319c5.57782 5.57782 10.2535 12.011 13.8318 19.0409c3.64075 7.15251 5.95013 14.4792 7.36523 22.3513c1.39496 7.75996 1.85681 15.6752 2.06952 23.5223c0.0975952 3.60104 0.13916 7.20241 0.159851 10.8045C782.002 265.447 782 269.723 782 274V750z" fill="#FFFFFF" style="fill:#FFFFFF;"/>
 </g>
</svg>
