<?xml version="1.0" encoding="UTF-8"?>
<!--Generator: Apple Native CoreSVG 361-->
<!DOCTYPE svg
PUBLIC "-//W3C//DTD SVG 1.1//EN"
       "http://www.w3.org/Graphics/SVG/1.1/DTD/svg11.dtd">
<svg version="1.1" xmlns="http://www.w3.org/2000/svg" xmlns:xlink="http://www.w3.org/1999/xlink" viewBox="0 0 1024 1024">
 <g/>
 <g id="aftercontent">
  <path d="M676.783 316H512v-40h164.783c6.68097 0 12.2159 0.32428 17.5528 4.41803C699.135 284.097 702 289.921 702 296s-2.86481 11.9027-7.66467 15.582C688.998 315.676 683.464 316 676.783 316zM594.335 680.418C588.998 676.324 583.464 676 576.783 676H512v40h64.7825c6.68097 0 12.2159-0.324341 17.5528-4.41803C599.135 707.903 602 702.079 602 696S599.135 684.097 594.335 680.418zM694.335 580.418C688.998 576.324 683.464 576 676.783 576H512v40h164.783c6.68097 0 12.2159-0.324341 17.5528-4.41803C699.135 607.903 702 602.079 702 596S699.135 584.097 694.335 580.418zM694.335 380.418C688.998 376.324 683.464 376 676.783 376H512v40h164.783c6.68097 0 12.2159-0.324341 17.5528-4.41803C699.135 407.903 702 402.079 702 396S699.135 384.097 694.335 380.418zM694.335 480.418C688.998 476.324 683.464 476 676.783 476H512v40h164.783c6.68097 0 12.2159-0.324341 17.5528-4.41803C699.135 507.903 702 502.079 702 496S699.135 484.097 694.335 480.418z" fill="#323232" style="fill:#323232;"/>
 </g>
</svg>
