<?xml version="1.0" encoding="UTF-8"?>
<!--Generator: Apple Native CoreSVG 361-->
<!DOCTYPE svg
PUBLIC "-//W3C//DTD SVG 1.1//EN"
       "http://www.w3.org/Graphics/SVG/1.1/DTD/svg11.dtd">
<svg version="1.1" xmlns="http://www.w3.org/2000/svg" xmlns:xlink="http://www.w3.org/1999/xlink" viewBox="0 0 1024 1024">
 <g/>
 <g id="lines">
  <g>
   <g>
    <path d="M682.333 1043.33c-71.0557-103.084-122.249-216.571-152.156-335.889c-11.0693-0.876953-22.1353-1.94336-33.1919-3.19824c-87.2705-9.90527-172.505-31.4111-253.705-63.9873c-1.11621 31.2852-0.851562 62.6338 0.801758 93.9199l0.0131836 0.402344c1.25146 100.106 19.2446 200.976 53.4795 299.804l-18.8984 6.54688c-34.9146-100.791-53.2769-203.713-54.5771-305.899c-1.80566-34.291-1.97412-68.6475-0.515137-102.926c-0.550781-0.235352-1.10742-0.473633-1.65771-0.709961C132.341 592.968 49.417 541.463-24.5425 478.312l12.9868-15.21c71.0161 60.6367 150.482 110.314 236.256 147.706c2.5166-40.3936 7.2959-80.6123 14.3208-120.382c9.42529-53.3564 22.9189-106.069 40.2861-157.478c-13.5972-5.01123-27.0854-10.4004-40.4688-16.1694C138.277 273.43 49.395 211.102-25.3389 131.527l14.5786-13.6914c72.8457 77.564 159.487 138.319 257.516 180.577c12.9404 5.57812 25.9834 10.7925 39.1294 15.644c6.65674-18.563 13.8242-36.9487 21.4883-55.1143c31.2314-74.0229 70.8545-144.734 117.769-210.169C472.446-17.2056 527.341-78.0625 588.302-132.107l13.2676 14.9658C541.723-64.085 487.833-4.3418 441.396 60.4272C395.347 124.656 356.455 194.062 325.801 266.717c-7.51318 17.8066-14.5391 35.8286-21.0654 54.0239c64.2148 21.8481 130.695 35.1162 198.694 39.6509c14.9224-163.871 68.5562-321.515 157.327-460.639l16.8594 10.7578C590.703 46.7241 538.14 201.036 523.414 361.472c11.7432 0.486328 23.5107 0.709961 35.3457 0.681152c52.2598-0.178223 103.87-5.55078 154.297-16.0269c-9.4248-47.9424-14.5166-96.8076-15.0938-145.932C696.645 99.3896 713.785 1.23096 748.907-91.5415l18.7051 7.08105c-34.2314 90.418-50.9365 186.106-49.6514 284.406c0.561523 47.7544 5.49414 95.2461 14.627 141.854c25.4521-5.9917 50.582-13.2969 75.3184-21.9038c79.4258-27.6362 153.415-68.2041 219.911-120.577l12.375 15.7119c-68.2441 53.75-144.186 95.3872-225.714 123.754c-25.5518 8.89062-51.5029 16.4263-77.7949 22.5972c17.2178 77.4141 46.0791 152.074 85.7666 220.991c14.2109 24.6777 29.7471 48.5156 46.5186 71.4258c60.5713-17.3945 119.151-40.834 175.005-70.0645l9.27344 17.7207c-54.793 28.6748-112.15 51.8926-171.411 69.4248c59.623 76.9473 133.425 142.598 217.322 192.797l-10.2695 17.1621c-88.3457-52.8604-165.771-122.423-227.753-204.087c-26.4629 7.18652-53.29 13.252-80.4102 18.1719c-75.6514 13.7266-152.634 18.3936-229.544 13.96c29.54 114.704 79.1885 223.826 147.618 323.102L682.333 1043.33zM546.167 688.542c77.3828 4.96094 154.874 0.513672 230.988-13.2969c23.9941-4.35352 47.7441-9.61914 71.2178-15.7852c-15.5059-21.6055-29.9463-43.9961-43.2549-67.1055c-40.7041-70.6846-70.3047-147.26-87.9619-226.653c-51.75 10.7534-104.71 16.2681-158.335 16.4512c-12.3789 0.0297852-24.7432-0.210938-37.041-0.731445c-1.75586 24.3809-2.63867 48.8843-2.63867 73.4819C519.142 534.291 528.273 612.566 546.167 688.542zM244.248 619.072c81.478 33.3838 167.178 55.3369 254.992 65.3037c8.66992 0.983398 17.3486 1.84961 26.0264 2.59668c-17.2979-75.5322-26.1255-153.271-26.1255-232.069c0-24.9624 0.892578-49.8301 2.66602-74.5742c-69.6987-4.6709-137.823-18.2866-203.647-40.6978c-17.0005 50.3677-30.2104 102.003-39.4434 154.274C251.416 535.237 246.586 577.069 244.248 619.072z" fill="#E6E6E6" style="fill:#E6E6E6;"/>
   </g>
  </g>
 </g>
</svg>
