<?xml version="1.0" encoding="UTF-8"?>
<!--Generator: Apple Native CoreSVG 361-->
<!DOCTYPE svg
PUBLIC "-//W3C//DTD SVG 1.1//EN"
       "http://www.w3.org/Graphics/SVG/1.1/DTD/svg11.dtd">
<svg version="1.1" xmlns="http://www.w3.org/2000/svg" xmlns:xlink="http://www.w3.org/1999/xlink" viewBox="0 0 1024 1024">
 <g/>
 <g id="capmiddle">
  <g>
   <path clip-rule="evenodd" d="M412.652 845.689c-2.56122 4.36157-3.92755 9.34698-3.92755 14.4415c0 6.24908 2.05273 12.3251 5.84256 17.2938c3.81171 4.99744 9.0863 8.52368 15.1257 10.2123c2.86923 0.802246 5.75067 1.16119 8.7084 1.33087c3.25546 0.186768 6.50903 0.170837 9.76566 0.170898v-0.0004883l134.271 0.0493164l-0.718628 0.0045776v0.0004883c3.25659 0 6.51019 0.0158691 9.76562-0.170837c2.95776-0.169678 5.83917-0.528686 8.70844-1.33087c6.03943-1.6886 11.314-5.21484 15.1257-10.2123c3.78979-4.96875 5.84253-11.0447 5.84253-17.2939c0-5.09448-1.36633-10.0798-3.92755-14.4414L412.652 845.689z" fill="#C1A034" fill-rule="evenodd" style="fill-rule:evenodd;clip-rule:evenodd;fill:#C1A034;"/>
  </g>
 </g>
</svg>
