<?xml version="1.0" encoding="UTF-8"?>
<!--Generator: Apple Native CoreSVG 361-->
<!DOCTYPE svg
PUBLIC "-//W3C//DTD SVG 1.1//EN"
       "http://www.w3.org/Graphics/SVG/1.1/DTD/svg11.dtd">
<svg version="1.1" xmlns="http://www.w3.org/2000/svg" xmlns:xlink="http://www.w3.org/1999/xlink" viewBox="0 0 1024 1024">
 <g/>
 <g id="wings1">
  <path d="M679.57 557.691c-0.512695-3.90491-2.13013-7.2171-4.4292-9.81085c-36.156 36.1704-81.7122 69.6626-136.664 100.485c-25.1794 14.121-50.8907 25.6415-77.1375 34.5618c-0.585693 0.199036-1.1748 0.377014-1.7627 0.563904c-0.349609 0.111084-0.699219 0.220032-1.04932 0.326843c-1.32544 0.404175-2.66309 0.713623-4.00464 0.977844c0.405029 5.6001 0.923096 10.7274 1.49878 14.9272c5.95776 43.4526-33.0994 116.766-47.2092 142.037c-9.81909 17.5859 7.53296 38.041 26.3704 30.9114c77.6353-29.3831 131.87-65.0674 169.074-102.272c83.9683-83.9682 82.2102-157.155 75.3577-212.358C679.601 557.924 679.586 557.807 679.57 557.691z" fill="#FFD5D4" style="fill:#FFD5D4;"/>
 </g>
</svg>
