<?xml version="1.0" encoding="UTF-8"?>
<!--Generator: Apple Native CoreSVG 361-->
<!DOCTYPE svg
PUBLIC "-//W3C//DTD SVG 1.1//EN"
       "http://www.w3.org/Graphics/SVG/1.1/DTD/svg11.dtd">
<svg version="1.1" xmlns="http://www.w3.org/2000/svg" xmlns:xlink="http://www.w3.org/1999/xlink" viewBox="0 0 1024 1024">
 <g/>
 <g id="body.big">
  <path d="M816.479 167.796c-38.6675 4.49487-79.1467 13.7842-120.482 28.8123c-9.44165 3.43268-18.9275 7.16235-28.4468 11.2054c-76.0691 32.3133-140.493 75.0672-193.332 128.279c-41.2974 39.7781-79.3921 90.7961-114.3 153.03c-14.436 25.7413-26.3408 52.0004-35.7141 78.7805c-0.470215 1.34351-0.934082 2.68835-1.3916 4.03448c-0.213623 0.628906-0.404785 1.26154-0.605469 1.89264c-0.0292969 0.0927124-0.0585938 0.185425-0.0878906 0.278137c-4.81543 15.3025-0.570312 32.0203 10.6895 43.4471l72.2883 73.3606c11.415 11.5842 28.3206 15.9022 43.8765 11.158c0.375977-0.114685 0.751465-0.231628 1.12671-0.350891c0.631104-0.200623 1.26367-0.391724 1.89258-0.605408c28.1785-9.57684 55.7822-21.9454 82.815-37.1057c62.2344-34.9078 113.252-73.0026 153.031-114.3c53.2122-52.8386 95.9661-117.263 128.279-193.332c4.13672-9.73999 35.6453-110.335 40.1545-148.75C858.972 184.628 839.485 165.122 816.479 167.796zM702.189 404.786c-11.5103 11.4161-25.3374 17.1239-41.4871 17.1239c-13.8379-0.0001831-25.9058-4.09418-36.2119-12.2831c-16.186-12.8614-24.5364-33.4222-22.0869-53.9507c1.55298-13.0123 7.11011-24.3018 16.6724-33.864c11.416-11.416 25.2878-17.1239 41.626-17.1241c16.1497 0 29.9768 5.7077 41.4875 17.1239c11.5051 11.4161 17.2629 25.293 17.2629 41.6263C719.452 379.588 713.693 393.37 702.189 404.786z" fill="#FFD5D4" style="fill:#FFD5D4;"/>
 </g>
</svg>
