<?xml version="1.0" encoding="UTF-8"?>
<!--Generator: Apple Native CoreSVG 361-->
<!DOCTYPE svg
PUBLIC "-//W3C//DTD SVG 1.1//EN"
       "http://www.w3.org/Graphics/SVG/1.1/DTD/svg11.dtd">
<svg version="1.1" xmlns="http://www.w3.org/2000/svg" xmlns:xlink="http://www.w3.org/1999/xlink" viewBox="0 0 1024 1024">
 <g/>
 <g id="wings2">
  <path d="M340.371 564.625c0.0273438-0.0863647 0.0546875-0.17273 0.0820312-0.259094c0.186768-0.58783 0.364746-1.17712 0.563965-1.76288c0.426025-1.25385 0.858154-2.50653 1.29614-3.75787c8.73071-24.9442 19.8193-49.4031 33.2656-73.3796c30.823-54.9518 64.3157-100.508 100.486-136.664c-2.59619-2.30737-5.91431-3.93091-9.82812-4.44476c-0.116455-0.0153198-0.233154-0.0302124-0.350098-0.0447388c-55.2031-6.85266-128.39-8.61053-212.358 75.3576c-37.2041 37.2042-72.8884 91.4387-102.271 169.074c-7.12939 18.8375 13.3254 36.1895 30.9114 26.3704c25.2703-14.1098 98.584-53.1671 142.037-47.2094c4.21777 0.578308 9.37183 1.09808 14.9998 1.50397C339.496 567.804 339.873 566.206 340.371 564.625z" fill="#FFD5D4" style="fill:#FFD5D4;"/>
 </g>
</svg>
