<?xml version="1.0" encoding="UTF-8"?>
<!--Generator: Apple Native CoreSVG 361-->
<!DOCTYPE svg
PUBLIC "-//W3C//DTD SVG 1.1//EN"
       "http://www.w3.org/Graphics/SVG/1.1/DTD/svg11.dtd">
<svg version="1.1" xmlns="http://www.w3.org/2000/svg" xmlns:xlink="http://www.w3.org/1999/xlink" viewBox="0 0 1024 1024">
 <g/>
 <g id="volume">
  <path d="M403.999 745.893c0 26.5594-8.06403 52.5811-21.827 71.5057c-2.90323 4.086-7.84949 5.05365-11.828 2.36548c-3.97852-2.68805-4.51614-7.74188-1.50537-12.1503c11.5054-16.7743 18.4947-38.8175 18.4947-61.7209c0-22.9033-6.77423-45.1615-18.4947-61.7205c-3.11832-4.40881-2.47314-9.46259 1.50537-12.1508s8.92477-1.72046 11.828 2.3656C396.043 693.097 403.999 719.333 403.999 745.893zM330.559 700.086c-4.40863 3.0108-5.05377 8.38715-1.72043 12.7958c6.23657 8.60217 9.78497 20.5376 9.78497 33.0109c0 12.4732-3.65591 24.3013-9.78497 33.0108c-3.22583 4.5163-2.6882 9.67761 1.72043 12.7959c3.5484 2.47296 8.6022 1.72028 11.5054-2.47327c8.2796-10.8602 13.2259-26.8817 13.2259-43.3334c0-16.4517-4.94626-32.3658-13.2259-43.3335C339.161 698.365 334.107 697.505 330.559 700.086zM279.698 651.161c-5.05377 0-8.38715 2.25806-13.871 7.41937l-45.9142 43.0109c-0.645157 0.645203-1.6129 0.967773-2.68817 0.967773h-30.7528c-14.6237 0-22.4732 8.06451-22.4732 23.5483v40.0003c0 15.5915 7.8495 23.5486 22.4732 23.5486h30.7528c1.07527 0 2.04301 0.322327 2.68817 0.96759l45.9142 43.4411c4.83875 4.7312 9.03232 6.77405 14.0861 6.77405c7.0968 0 12.1506-5.05365 12.1506-12.0429V663.849C292.064 656.86 287.01 651.161 279.698 651.161z" fill="#FFFFFF" style="fill:#FFFFFF;"/>
 </g>
</svg>
