<?xml version="1.0" encoding="UTF-8"?>
<!--Generator: Apple Native CoreSVG 361-->
<!DOCTYPE svg
PUBLIC "-//W3C//DTD SVG 1.1//EN"
       "http://www.w3.org/Graphics/SVG/1.1/DTD/svg11.dtd">
<svg version="1.1" xmlns="http://www.w3.org/2000/svg" xmlns:xlink="http://www.w3.org/1999/xlink" viewBox="0 0 1024 1024">
 <g/>
 <g id="bluetooth">
  <g>
   <path d="M451.623 866.817V583.541l-130.913 105.396c-7.89304 6.16608-15.9019 9.24524-24.0377 9.24524c-8.13586 0-14.9195-2.70935-20.3396-8.1358c-5.42599-5.41968-8.13583-11.9547-8.13583-19.6c0-4.92822 0.9245-9.48761 2.77356-13.683c1.84906-4.1886 4.7438-7.76605 8.69058-10.7245L449.404 512.168L279.661 379.036c-7.64487-5.91699-11.4641-14.0528-11.4641-24.4075c0-7.63904 2.70984-14.2378 8.13583-19.7849c5.42017-5.54718 12.2038-8.32077 20.3396-8.32077c8.13583 0 16.1447 3.20715 24.0377 9.61511l130.913 104.657V157.889c0-7.39623 1.90695-13.4981 5.73206-18.3056c3.81927-4.80756 8.74847-8.13585 14.7925-9.98491c6.03815-1.84906 12.5099-2.09187 19.4151-0.739624c6.89941 1.35808 13.3132 4.50148 19.2302 9.43019l193.411 163.826c7.14807 6.16562 12.2038 12.7006 15.1623 19.6c2.9585 6.90524 4.43774 13.81 4.43774 20.7094c0 6.90527-1.60577 13.8679-4.80756 20.8943c-3.20667 7.02643-8.38403 13.2553-15.5321 18.6755L538.158 512.538l164.936 130.543c7.14807 5.42651 12.3254 11.5916 15.5321 18.4905c3.20178 6.90576 4.80756 13.9322 4.80756 21.0793c0 6.9057-1.47925 13.8105-4.43774 20.7094c-2.9585 6.90576-8.01422 13.4407-15.1623 19.6l-193.041 163.457c-5.17737 4.43774-11.0943 7.33301-17.7509 8.69061c-6.65659 1.35272-13.1283 1.16779-19.4151-0.554748c-6.28677-1.72742-11.5279-4.93408-15.717-9.61511C453.715 880.252 451.623 874.213 451.623 866.817zM511.163 456.327l148.294-114.642L511.163 221.497V456.327zM511.163 803.579l147.924-120.189L511.163 568.749V803.579z" fill="#FFFFFF" style="fill:#FFFFFF;"/>
  </g>
 </g>
</svg>
