<?xml version="1.0" encoding="UTF-8"?>
<!--Generator: Apple Native CoreSVG 361-->
<!DOCTYPE svg
PUBLIC "-//W3C//DTD SVG 1.1//EN"
       "http://www.w3.org/Graphics/SVG/1.1/DTD/svg11.dtd">
<svg version="1.1" xmlns="http://www.w3.org/2000/svg" xmlns:xlink="http://www.w3.org/1999/xlink" viewBox="0 0 1024 1024">
 <g/>
 <g id="a">
  <g>
   <path d="M295.408 854.439c-24.2676 0-45.5342-4.62598-63.7891-13.8672c-18.2607-9.24121-32.4746-22.1875-42.6416-38.8281c-10.1729-16.6406-15.2539-35.8213-15.2539-57.5488v-0.693359c0-31.8945 11.8408-57.1426 35.5342-75.749c23.6885-18.6016 57.0293-29.1758 100.018-31.7217l137.979-8.32031V680.406l-127.925 7.97363c-22.4209 1.38672-39.6943 6.75977-51.8291 16.1211c-12.1328 9.35938-18.2002 21.7861-18.2002 37.2676v0.693359c0 15.9473 6.06738 28.5469 18.2002 37.7881c12.1348 9.24707 28.2549 13.8672 48.3623 13.8672c17.5615 0 33.335-3.58008 47.3213-10.7471c13.9814-7.16113 25.0156-17.041 33.1084-29.6406c8.08691-12.5947 12.1338-26.749 12.1338-42.4688V602.75c0-20.1074-6.24023-35.8818-18.7207-47.3213c-12.4805-11.4414-30.5078-17.1611-54.082-17.1611c-20.3408 0-36.8076 4.21973-49.4023 12.6533c-12.5996 8.44043-20.8604 19.2412-24.7871 32.415c-0.693359 2.31348-1.50586 3.93262-2.42676 4.85352c-0.926758 0.926758-2.08008 1.62012-3.4668 2.08008c-1.38672 0.46582-3.23926 0.693359-5.54688 0.693359h-50.2686c-2.77344 0-4.91309-0.400391-6.41406-1.21387c-1.50586-0.806641-2.59961-2.13379-3.29297-3.98633c-0.693359-1.84766-0.693359-4.04102 0-6.58691c4.3877-29.5811 19.4678-54.1367 45.2422-73.6699c25.7676-19.5278 60.0293-29.2944 102.79-29.2944c29.8145 0 55.582 4.97266 77.3096 14.9072c21.7217 9.93994 38.5957 23.9214 50.6152 41.9487c12.0146 18.0273 18.0273 39.1748 18.0273 63.4424v240.942c0 2.31348-0.40625 4.2793-1.21289 5.89355c-0.813477 1.62012-1.9668 2.77344-3.4668 3.4668c-1.50684 0.693359-3.52734 1.04004-6.06738 1.04004h-54.082c-2.77344 0-4.85352-0.400391-6.24023-1.21289c-1.38672-0.807617-2.48633-1.90723-3.29395-3.29395c-0.8125-1.38672-1.21289-3.34766-1.21289-5.89355v-47.1484h-1.38672c-7.16699 13.1738-16.4131 24.5605-27.7344 34.1484c-11.3271 9.59277-24.0938 16.9863-38.3086 22.1875C326.783 851.839 311.583 854.439 295.408 854.439z" fill="#FFFFFF" style="fill:#FFFFFF;"/>
  </g>
 </g>
</svg>
