<?xml version="1.0" encoding="UTF-8"?>
<!--Generator: Apple Native CoreSVG 361-->
<!DOCTYPE svg
PUBLIC "-//W3C//DTD SVG 1.1//EN"
       "http://www.w3.org/Graphics/SVG/1.1/DTD/svg11.dtd">
<svg version="1.1" xmlns="http://www.w3.org/2000/svg" xmlns:xlink="http://www.w3.org/1999/xlink" viewBox="0 0 1024 1024">
 <g/>
 <g id="camera">
  <g>
   <path d="M339.276 680.497c-19.7805 0-34.6152-4.88397-44.5039-14.6457c-9.89185-9.76477-14.8346-24.4073-14.8346-43.937V424.056c0-19.3995 4.94278-33.9832 14.8346-43.748c9.8887-9.76166 24.7234-14.6457 44.5039-14.6457h52.7244c7.43201 0 12.9123-0.912323 16.4409-2.74014c3.52545-1.82468 7.37006-5.06982 11.5275-9.73227l15.1181-17.0079c4.78635-5.16431 9.98322-9.13278 15.5905-11.9055c5.60419-2.76956 13.2577-4.1575 22.9606-4.1575h75.4016c9.69971 0 17.3858 1.38794 23.0551 4.1575c5.66931 2.77271 10.8336 6.74118 15.4961 11.9055l15.118 17.0079c2.89661 3.15063 5.50977 5.63989 7.84253 7.46454c2.32965 1.82782 5.00787 3.11813 8.03149 3.87402c3.02362 0.75592 7.05408 1.13385 12.0945 1.13385h54.0472c19.6536 0 34.4556 4.884 44.4094 14.6457c9.95068 9.76483 14.9291 24.3485 14.9291 43.748v197.858c0 19.5297-4.97845 34.1722-14.9291 43.937c-9.9538 9.76172-24.7559 14.6457-44.4094 14.6457H339.276z"/>
  </g>
 </g>
</svg>
