<?xml version="1.0" encoding="UTF-8"?>
<!--Generator: Apple Native CoreSVG 361-->
<!DOCTYPE svg
PUBLIC "-//W3C//DTD SVG 1.1//EN"
       "http://www.w3.org/Graphics/SVG/1.1/DTD/svg11.dtd">
<svg version="1.1" xmlns="http://www.w3.org/2000/svg" xmlns:xlink="http://www.w3.org/1999/xlink" viewBox="0 0 1024 1024">
 <g/>
 <g id="Layer_9">
  <path d="M512.01 635.402c15.7035 0 30.4365-2.91852 44.1954-8.75568c13.7589-5.83716 25.8502-13.9674 36.2736-24.3909c10.4235-10.4235 18.5538-22.5146 24.3909-36.2736c5.83716-13.759 8.75574-28.6286 8.75574-44.6124c0-21.1237-5.07507-40.3029-15.2183-57.5374c-10.1466-17.2311-23.8373-30.9218-41.0684-41.0684c-17.2346-10.1432-36.3455-15.2182-57.329-15.2182c-15.8437 0-30.645 2.91855-44.4039 8.75571c-13.7589 5.83713-25.8177 13.9674-36.1694 24.3909c-10.3551 10.4234-18.4854 22.5146-24.3909 36.2736c-5.90894 13.759-8.85992 28.5603-8.85992 44.4039c0 15.9838 2.95099 30.8534 8.85992 44.6124c5.90546 13.759 14.0358 25.8502 24.3909 36.2736c10.3517 10.4235 22.4104 18.5537 36.1694 24.3909C481.365 632.483 496.166 635.402 512.01 635.402z" fill="#686868" style="fill:#686868;"/>
 </g>
</svg>
