<?xml version="1.0" encoding="UTF-8"?>
<!--Generator: Apple Native CoreSVG 361-->
<!DOCTYPE svg
PUBLIC "-//W3C//DTD SVG 1.1//EN"
       "http://www.w3.org/Graphics/SVG/1.1/DTD/svg11.dtd">
<svg version="1.1" xmlns="http://www.w3.org/2000/svg" xmlns:xlink="http://www.w3.org/1999/xlink" viewBox="0 0 1024 1024">
 <g/>
 <g id="viewfinder">
  <path d="M382.5 162c0 6.83917-3.2229 13.3905-8.6228 17.5297C367.873 184.135 361.646 184.5 354.13 184.5H304.981c-5.10645-0.0014648-10.2222-0.0004883-15.334 0.0317383c-5.39453 0.03125-9.53125 0.0922852-13.4238 0.197754c-8.1499 0.221191-17.7158 0.668457-26.873 2.31396c-8.45752 1.521-15.6108 3.86475-22.5107 7.37695c-6.94043 3.53223-13.2578 8.12207-18.7764 13.6411c-5.52051 5.52002-10.1104 11.8374-13.6431 18.7783c-3.51172 6.89941-5.85547 14.0527-7.37646 22.5127c-1.64551 9.15479-2.09277 18.7207-2.31396 26.8706c-0.105469 3.89258-0.166504 8.0293-0.197754 13.4126C184.5 294.759 184.5 299.87 184.5 304.981v49.1494c0 7.51605-0.364868 13.7429-4.97028 19.7468C175.391 379.277 168.839 382.5 162 382.5s-13.3906-3.2229-17.5297-8.6228C139.865 367.873 139.5 361.646 139.5 354.13v-49.1479c0-5.20654 0-10.4121 0.0327148-15.6191c0.0332031-5.70312 0.0991211-10.1353 0.213379-14.3589c0.266113-9.82959 0.832031-21.5098 3.00732-33.6133c2.29102-12.7417 6.07275-24.1782 11.5625-34.9639c5.68164-11.1621 13.0586-21.3179 21.9272-30.1855c8.86621-8.86719 19.022-16.2441 30.1836-21.9253c10.7861-5.49023 22.2227-9.27197 34.9619-11.563c12.106-2.17529 23.7861-2.74121 33.6157-3.00732c4.22363-0.114258 8.65576-0.180176 14.3706-0.213379C294.57 139.5 299.774 139.5 304.982 139.5h49.1479c7.51605 0 13.7429 0.364868 19.7468 4.97028C379.277 148.609 382.5 155.161 382.5 162zM884.467 289.375c-0.0332031-5.71484-0.0991211-10.147-0.213379-14.3706c-0.266113-9.82959-0.832031-21.5098-3.00732-33.6157c-2.29102-12.7393-6.07275-24.1758-11.563-34.9619c-5.68115-11.1616-13.0581-21.3174-21.9253-30.1836c-8.86768-8.86865-19.0234-16.2456-30.1855-21.9272c-10.7856-5.48975-22.2222-9.27148-34.9639-11.5625c-12.1035-2.17529-23.7837-2.74121-33.6133-3.00732c-4.22363-0.114258-8.65576-0.180176-14.3589-0.213379C729.43 139.5 724.224 139.5 719.018 139.5h-49.1479c-7.51605 0-13.7429 0.364868-19.7468 4.97028C644.723 148.609 641.5 155.161 641.5 162c0 6.83917 3.2229 13.3905 8.6228 17.5297C656.127 184.135 662.354 184.5 669.87 184.5h49.1494c5.11133 0 10.2222-0.0004883 15.3452 0.0317383c5.3833 0.03125 9.52002 0.0922852 13.4126 0.197754c8.1499 0.221191 17.7158 0.668457 26.8706 2.31396c8.45996 1.521 15.6133 3.86475 22.5127 7.37646c6.94092 3.53271 13.2583 8.12256 18.7783 13.6431c5.51904 5.51855 10.1089 11.8359 13.6411 18.7764c3.51221 6.8999 5.85596 14.0532 7.37695 22.5107c1.64551 9.15723 2.09277 18.7231 2.31396 26.873c0.105469 3.89258 0.166504 8.0293 0.197754 13.4238c0.0322266 5.11182 0.0332031 10.2275 0.0317383 15.334v49.1494c0 7.51605 0.364868 13.7429 4.97028 19.7468C848.609 379.277 855.161 382.5 862 382.5s13.3906-3.2229 17.5297-8.6228C884.135 367.873 884.5 361.646 884.5 354.13v-49.1479C884.5 299.774 884.5 294.57 884.467 289.375zM862 641.5c-6.83917 0-13.3906 3.2229-17.5297 8.62274C839.865 656.127 839.5 662.354 839.5 669.87v49.1494c0 5.11133 0.0004883 10.2222-0.0317383 15.3452c-0.03125 5.3833-0.0922852 9.52002-0.197754 13.4126c-0.221191 8.1499-0.668457 17.7158-2.31396 26.8706c-1.521 8.45996-3.86475 15.6133-7.37646 22.5127c-3.53271 6.94092-8.12256 13.2583-13.6431 18.7783c-5.51855 5.51904-11.8359 10.1089-18.7764 13.6411c-6.8999 3.51221-14.0532 5.85596-22.5107 7.37695c-9.15723 1.64551-18.7231 2.09277-26.873 2.31396c-3.89258 0.105469-8.0293 0.166504-13.4238 0.197754c-5.11182 0.0322266-10.2275 0.0332031-15.334 0.0317383h-49.1494c-7.51605 0-13.7429 0.364868-19.7468 4.97028C644.723 848.609 641.5 855.161 641.5 862c0 6.83917 3.2229 13.3905 8.6228 17.5297C656.127 884.135 662.354 884.5 669.87 884.5h49.1479c5.20801-0.0004883 10.4121 0 15.6074-0.0327148c5.71484-0.0332031 10.147-0.0991211 14.3706-0.213379c9.82959-0.266113 21.5098-0.832031 33.6157-3.00732c12.7393-2.29102 24.1758-6.07275 34.9619-11.563c11.1616-5.68115 21.3174-13.0581 30.1836-21.9253c8.86865-8.86768 16.2456-19.0234 21.9272-30.1855c5.48975-10.7856 9.27148-22.2222 11.5625-34.9639c2.17529-12.1035 2.74121-23.7837 3.00732-33.6133c0.114258-4.22363 0.180176-8.65576 0.213379-14.3589C884.5 729.43 884.5 724.224 884.5 719.018v-49.1479c0-7.51605-0.364868-13.7429-4.97028-19.7469C875.391 644.723 868.839 641.5 862 641.5zM373.877 844.47C367.873 839.865 361.646 839.5 354.13 839.5H304.981c-5.11133 0-10.2222 0.0004883-15.3452-0.0317383c-5.3833-0.03125-9.52002-0.0922852-13.4126-0.197754c-8.1499-0.221191-17.7158-0.668457-26.8706-2.31396c-8.45996-1.521-15.6133-3.86475-22.5127-7.37646c-6.94092-3.53271-13.2583-8.12256-18.7783-13.6431c-5.51904-5.51855-10.1089-11.8359-13.6411-18.7764c-3.51221-6.8999-5.85596-14.0532-7.37695-22.5107c-1.64551-9.15723-2.09277-18.7231-2.31396-26.873c-0.105469-3.89258-0.166504-8.0293-0.197754-13.4238c-0.0322266-5.11182-0.0332031-10.2275-0.0317383-15.334v-49.1494c0-7.51605-0.364868-13.7429-4.97028-19.7469C175.391 644.723 168.839 641.5 162 641.5s-13.3906 3.2229-17.5297 8.62274C139.865 656.127 139.5 662.354 139.5 669.87v49.1479c0.0004883 5.20801 0 10.4121 0.0327148 15.6074c0.0332031 5.71484 0.0991211 10.147 0.213379 14.3706c0.266113 9.82959 0.832031 21.5098 3.00732 33.6157c2.29102 12.7393 6.07275 24.1758 11.563 34.9619c5.68115 11.1616 13.0581 21.3174 21.9253 30.1836c8.86768 8.86865 19.0234 16.2456 30.1855 21.9272c10.7856 5.48975 22.2222 9.27148 34.9639 11.5625c12.1035 2.17529 23.7837 2.74121 33.6133 3.00732c4.22363 0.114258 8.65576 0.180176 14.3589 0.213379C294.57 884.5 299.776 884.5 304.982 884.5h49.1479c7.51605 0 13.7429-0.364868 19.7468-4.97028C379.277 875.391 382.5 868.839 382.5 862C382.5 855.161 379.277 848.609 373.877 844.47z"/>
 </g>
</svg>
