<?xml version="1.0" encoding="UTF-8"?>
<!--Generator: Apple Native CoreSVG 361-->
<!DOCTYPE svg
PUBLIC "-//W3C//DTD SVG 1.1//EN"
       "http://www.w3.org/Graphics/SVG/1.1/DTD/svg11.dtd">
<svg version="1.1" xmlns="http://www.w3.org/2000/svg" xmlns:xlink="http://www.w3.org/1999/xlink" viewBox="0 0 1024 1024">
 <defs>
  <linearGradient id="SVGID_1_" x1="450.679" y1="460.17" x2="562.736" y2="572.227" gradientUnits="userSpaceOnUse">
   <stop offset="0" stop-color="#ffffff" stop-opacity="1"/>
   <stop offset="0.66" stop-color="#f0f0f0" stop-opacity="0"/>
  </linearGradient>
 </defs>
 <g/>
 <g id="lens_light">
  <path d="M511.984 607.675c11.8817 0 23.0291-2.20825 33.4396-6.62482s19.559-10.5682 27.4457-18.4549c7.88672-7.88666 14.0383-17.0352 18.4549-27.4457c4.4165-10.4104 6.62482-21.6612 6.62482-33.755c0-15.9828-3.83997-30.4944-11.5146-43.5345c-7.67725-13.0376-18.036-23.3963-31.0735-31.0736c-13.0402-7.67462-27.5001-11.5146-43.3768-11.5146c-11.9878 0-23.1869 2.20825-33.5973 6.62482c-10.4105 4.41653-19.5345 10.5682-27.3668 18.4549c-7.83499 7.88669-13.9866 17.0352-18.4549 27.4457c-4.47089 10.4104-6.7037 21.6095-6.7037 33.5973c0 12.0938 2.23282 23.3446 6.7037 33.755c4.46823 10.4105 10.6199 19.559 18.4549 27.4457c7.83234 7.88672 16.9564 14.0383 27.3668 18.4549C488.798 605.467 499.997 607.675 511.984 607.675z" fill="url(#SVGID_1_)" style="fill:url(#SVGID_1_);"/>
 </g>
</svg>
