<?xml version="1.0" encoding="UTF-8"?>
<!--Generator: Apple Native CoreSVG 361-->
<!DOCTYPE svg
PUBLIC "-//W3C//DTD SVG 1.1//EN"
       "http://www.w3.org/Graphics/SVG/1.1/DTD/svg11.dtd">
<svg version="1.1" xmlns="http://www.w3.org/2000/svg" xmlns:xlink="http://www.w3.org/1999/xlink" viewBox="0 0 1024 1024">
 <g/>
 <g id="hands">
  <g>
   <g id="hands_00000110472322208439700390000003524602238589310873_">
    <g>
     <path d="M866.754 1024.1l-29.3246-83.5668c-1.25525-3.44885-2.50885-6.89758-3.78595-10.3386c-1.07397-2.89868-2.16449-5.79089-3.30042-8.6662c-2.47467-6.26569-5.17041-12.5134-8.57306-18.3617c-3.45172-5.93335-7.46478-11.1638-12.4999-15.8633c-4.94934-4.61871-10.6081-8.43439-16.7437-11.2953c-6.13544-2.86115-12.6959-4.74359-19.4153-5.56586c-6.83649-0.836426-13.4228-0.548584-20.1867 0.621155c-6.6673 1.15265-13.1861 3.10352-19.5767 5.23505c-2.93274 0.978333-5.84918 2.00201-8.76007 3.04254c-3.45685 1.23352-6.90454 2.48999-10.3534 3.7453l-76.714 27.9216c-3.44891 1.25531-6.89764 2.50891-10.3386 3.78601c-2.89868 1.07397-5.79083 2.16443-8.66626 3.30017c-6.26581 2.47498-12.5133 5.17059-18.3619 8.57336c-5.93311 3.45166-11.1636 7.46472-15.863 12.4999c-4.61908 4.94916-8.43445 10.6081-11.2955 16.7438c-2.86096 6.13531-4.74341 12.6957-5.56567 19.4152c-0.83667 6.83661-0.548523 13.4229 0.620911 20.1869c1.15289 6.66718 3.10382 13.186 5.23535 19.5765c0.978271 2.93274 2.00195 5.84918 3.04248 8.76007L866.754 1024.1z" fill="#788899" style="fill:#788899;"/>
     <path d="M862.537 1119.14" fill="#788899" style="fill:#788899;"/>
    </g>
   </g>
   <path d="M447.672 1023.85c1.04053-2.91089 2.06421-5.82733 3.04248-8.76007c2.13153-6.39056 4.08246-12.9094 5.23535-19.5765c1.16943-6.76404 1.45758-13.3503 0.620911-20.1869c-0.822266-6.71942-2.70471-13.2798-5.56567-19.4152c-2.86108-6.13568-6.67645-11.7946-11.2955-16.7438c-4.6994-5.03516-9.92987-9.04822-15.863-12.4999c-5.84857-3.40277-12.0961-6.09839-18.3619-8.57336c-2.87543-1.13574-5.76758-2.2262-8.66626-3.30017c-3.44098-1.2771-6.88971-2.5307-10.3386-3.78601l-76.714-27.9216c-3.44885-1.25531-6.89655-2.51178-10.3534-3.7453c-2.91089-1.04053-5.82733-2.06421-8.76007-3.04254c-6.39056-2.13153-12.9094-4.0824-19.5767-5.23505c-6.76392-1.16974-13.3502-1.45758-20.1867-0.621155c-6.71948 0.822266-13.2799 2.70471-19.4153 5.56586c-6.13556 2.8609-11.7943 6.67657-16.7437 11.2953c-5.03516 4.69946-9.04822 9.92993-12.4999 15.8633c-3.40265 5.84833-6.09839 12.096-8.57306 18.3617c-1.13593 2.87531-2.22644 5.76752-3.30042 8.6662c-1.2771 3.44098-2.5307 6.88971-3.78595 10.3386l-29.3247 83.5668L447.672 1023.85z" fill="#788899" style="fill:#788899;"/>
  </g>
 </g>
</svg>
