<?xml version="1.0" encoding="UTF-8"?>
<!--Generator: Apple Native CoreSVG 361-->
<!DOCTYPE svg
PUBLIC "-//W3C//DTD SVG 1.1//EN"
       "http://www.w3.org/Graphics/SVG/1.1/DTD/svg11.dtd">
<svg version="1.1" xmlns="http://www.w3.org/2000/svg" xmlns:xlink="http://www.w3.org/1999/xlink" viewBox="0 0 1024 1024">
 <g/>
 <g id="neck.front">
  <path d="M640.618 692.175H383.382c-7.02112 0-12.7129-5.69177-12.7129-12.7129v-19.859c0-7.02112 5.69174-12.7129 12.7129-12.7129h257.237c7.02118 0 12.7129 5.69177 12.7129 12.7129v19.859C653.331 686.483 647.639 692.175 640.618 692.175z" fill="#B3B2B7" style="fill:#B3B2B7;"/>
  <path d="M640.618 761.715H383.382c-7.02112 0-12.7129-5.69171-12.7129-12.7128v-19.8591c0-7.02112 5.69174-12.7128 12.7129-12.7128h257.237c7.02118 0 12.7129 5.69171 12.7129 12.7128v19.8591C653.331 756.023 647.639 761.715 640.618 761.715z" fill="#B3B2B7" style="fill:#B3B2B7;"/>
 </g>
</svg>
