<?xml version="1.0" encoding="UTF-8"?>
<!--Generator: Apple Native CoreSVG 361-->
<!DOCTYPE svg
PUBLIC "-//W3C//DTD SVG 1.1//EN"
       "http://www.w3.org/Graphics/SVG/1.1/DTD/svg11.dtd">
<svg version="1.1" xmlns="http://www.w3.org/2000/svg" xmlns:xlink="http://www.w3.org/1999/xlink" viewBox="0 0 1024 1024">
 <g/>
 <g id="head.cutout">
  <path d="M780.626 200.778c-69.6006-53.389-141.785-57.6183-228.915-57.6183h-79.4203c-87.1301 0-159.315 4.22931-228.915 57.6183c-62.5978 47.9827-99.959 123.93-99.959 203.212c0 79.2838 37.3612 155.231 99.959 203.213c69.6007 53.389 141.785 57.6183 228.915 57.6183h79.4203c87.1302 0 159.315-4.22931 228.915-57.6183c62.5978-47.9827 99.959-123.93 99.959-203.213C880.585 324.707 843.224 248.76 780.626 200.778zM691.534 490.976c-28.3852 21.7732-57.1253 27.4008-139.825 27.4008h-79.4202c-82.6982 0-111.438-5.62762-139.783-27.3691c-26.3201-20.1767-42.6468-53.5069-42.6468-87.0167s16.3267-66.84 42.6066-86.9864c28.3852-21.7733 57.1254-27.4009 139.824-27.4009h79.4202c82.6997 0 111.44 5.62762 139.785 27.3706c26.3201 20.1752 42.6468 53.5068 42.6468 87.0167S717.814 470.832 691.534 490.976z" fill="#FFFFFF" style="fill:#FFFFFF;"/>
 </g>
</svg>
