<?xml version="1.0" encoding="UTF-8"?>
<!--Generator: Apple Native CoreSVG 361-->
<!DOCTYPE svg
PUBLIC "-//W3C//DTD SVG 1.1//EN"
       "http://www.w3.org/Graphics/SVG/1.1/DTD/svg11.dtd">
<svg version="1.1" xmlns="http://www.w3.org/2000/svg" xmlns:xlink="http://www.w3.org/1999/xlink" viewBox="0 0 1024 1024">
 <g/>
 <g id="app">
  <path d="M714.217 838.044c0 5.62531 0.0023804 11.2495-0.0331421 16.8748c-0.0272827 4.73785-0.0817871 9.47498-0.210144 14.2117c-0.280029 10.3214-0.887451 20.7327-2.72198 30.9395c-1.86145 10.3549-4.89905 19.9918-9.68787 29.3997c-4.70667 9.24707-10.8569 17.7086-18.1935 25.0452c-7.3371 7.33704-15.7986 13.4873-25.0457 18.194c-9.40784 4.78882-19.0447 7.82642-29.3992 9.68787c-10.2072 1.83453-20.6182 2.44196-30.9399 2.72198c-4.73669 0.128357-9.47382 0.182861-14.2117 0.210144c-5.62531 0.0355225-11.2495 0.0331421-16.8748 0.0331421H457.101c-5.62534 0-11.2495 0.0023804-16.8748-0.0331421c-4.73788-0.0272827-9.47498-0.0817871-14.2116-0.210144c-10.3214-0.280029-20.7328-0.887451-30.9396-2.72198c-10.3549-1.86145-19.9918-4.89905-29.3996-9.68787c-9.24664-4.70667-17.7086-10.8569-25.0452-18.194c-7.33707-7.33667-13.4869-15.7982-18.194-25.0452c-4.78842-9.40784-7.82642-19.0447-9.68747-29.3997c-1.83496-10.2068-2.44238-20.6182-2.72202-30.9395c-0.128754-4.73669-0.183258-9.47382-0.21051-14.2117c-0.0355225-5.62537-0.0331726-11.2495-0.0331726-16.8748V728.246c0-5.62537-0.0023499-11.2495 0.0331726-16.8748c0.0272522-4.73785 0.0817566-9.47498 0.21051-14.2117c0.279633-10.3214 0.887054-20.7327 2.72202-30.9395c1.86105-10.3549 4.89905-19.9918 9.68747-29.3997c4.70706-9.2467 10.8569-17.7086 18.194-25.0452c7.33667-7.3371 15.7986-13.4874 25.0452-18.194c9.40784-4.78839 19.0447-7.82636 29.3996-9.68738c10.2068-1.83496 20.6182-2.44238 30.9396-2.72241c4.73666-0.128418 9.47375-0.182861 14.2116-0.210144c5.62534-0.0355835 11.2495-0.0332031 16.8748-0.0332031h109.797c5.62537 0 11.2495-0.0023804 16.8748 0.0332031c4.73785 0.0272827 9.47498 0.0817261 14.2117 0.210144c10.3217 0.280029 20.7327 0.887451 30.9399 2.72241c10.3545 1.86102 19.9914 4.89899 29.3992 9.68738c9.24707 4.70667 17.7086 10.8569 25.0457 18.194c7.33667 7.33667 13.4869 15.7985 18.1935 25.0452c4.78882 9.40784 7.82642 19.0447 9.68787 29.3997c1.83453 10.2068 2.44196 20.6182 2.72198 30.9395c0.128357 4.73669 0.182861 9.47382 0.210144 14.2117c0.0355225 5.62531 0.0331421 11.2495 0.0331421 16.8748V838.044z" fill="#054AAD" style="fill:#054AAD;"/>
 </g>
</svg>
