<?xml version="1.0" encoding="UTF-8"?>
<!--Generator: Apple Native CoreSVG 361-->
<!DOCTYPE svg
PUBLIC "-//W3C//DTD SVG 1.1//EN"
       "http://www.w3.org/Graphics/SVG/1.1/DTD/svg11.dtd">
<svg version="1.1" xmlns="http://www.w3.org/2000/svg" xmlns:xlink="http://www.w3.org/1999/xlink" viewBox="0 0 1024 1024">
 <g/>
 <g id="Windows">
  <path d="M245.91 832c-2.05852 0-4.11671 0.0008545-6.17523-0.012146c-1.73386-0.0099487-3.46733-0.0299683-5.20067-0.0769653c-3.77711-0.102356-7.58704-0.324646-11.3222-0.996094c-3.78922-0.681152-7.31583-1.79279-10.7586-3.54517c-3.38377-1.72241-6.48035-3.97302-9.16516-6.65784c-2.68483-2.68488-4.93547-5.78143-6.65787-9.16516c-1.75243-3.44281-2.86404-6.96942-3.5452-10.7586c-0.671432-3.73523-0.893753-7.54517-0.996124-11.3223c-0.0469818-1.73334-0.0669861-3.4668-0.0769501-5.20062c-0.0130005-2.05853-0.012146-4.11676-0.012146-6.17529l-0.0001221-187.179c0-2.05847-0.0008698-4.1167 0.0121307-6.17523c0.009964-1.73383 0.0299683-3.46729 0.0769348-5.20062c0.102387-3.77716 0.324692-7.58704 0.996124-11.3223c0.681137-3.78918 1.79276-7.3158 3.54518-10.7586c1.72238-3.38379 3.97302-6.48035 6.65784-9.16516c2.68483-2.68481 5.78139-4.93549 9.16518-6.65784c3.44278-1.75244 6.96941-2.86407 10.7586-3.54523c3.73518-0.671448 7.54511-0.893738 11.3222-0.996094c1.73334-0.0469971 3.46681-0.0670166 5.20067-0.0769653c2.05852-0.0130005 4.11671-0.012146 6.17523-0.012146L490.09 537c2.0585 0 4.1167-0.0008545 6.17523 0.012146c1.73383 0.0099487 3.46732 0.0299683 5.20065 0.0769653c3.7771 0.102356 7.58704 0.324646 11.3222 0.996094c3.78925 0.681152 7.31586 1.79279 10.7586 3.54517c3.38379 1.72241 6.48035 3.97302 9.16522 6.65784c2.68481 2.68488 4.93542 5.78143 6.65784 9.16516c1.75244 3.44281 2.86401 6.96942 3.54517 10.7586c0.671448 3.73523 0.893799 7.54511 0.996155 11.3223c0.0469971 1.73334 0.0669556 3.4668 0.0769653 5.20062c0.0130005 2.05853 0.012146 4.11676 0.012146 6.17523L544 778.09c0 2.05853 0.0008545 4.11676-0.012146 6.17529c-0.0099487 1.73383-0.0299683 3.46729-0.0769653 5.20062c-0.102356 3.7771-0.324646 7.58704-0.996094 11.3223c-0.681152 3.78918-1.79279 7.3158-3.54517 10.7586c-1.72241 3.38379-3.97302 6.48035-6.65784 9.16516c-2.68488 2.68481-5.78143 4.93549-9.16516 6.65784c-3.44281 1.75244-6.96942 2.86407-10.7586 3.54523c-3.73523 0.671448-7.54514 0.893738-11.3223 0.996094c-1.73331 0.0469971-3.4668 0.0670166-5.20065 0.0769653c-2.0585 0.0130005-4.1167 0.012146-6.17523 0.012146L245.91 832z" fill="#FFFFFF" style="fill:#FFFFFF;"/>
  <path d="M181.91 487c-2.05852 0-4.11671 0.0008545-6.17523-0.012146c-1.73386-0.0099792-3.46733-0.0299683-5.20065-0.0769348c-3.77713-0.102387-7.58705-0.324676-11.3222-0.996124c-3.78922-0.681152-7.31583-1.79276-10.7586-3.54517c-3.38377-1.72241-6.48033-3.97302-9.16516-6.65787c-2.68483-2.68481-4.93547-5.78137-6.65787-9.16516c-1.75243-3.44278-2.86404-6.96939-3.5452-10.7586c-0.671432-3.7352-0.893753-7.54511-0.996124-11.3222c-0.0469818-1.73331-0.0669861-3.4668-0.0769501-5.20065c-0.0130081-2.05853-0.012146-4.1167-0.012146-6.17523l-0.0001221-187.179c0-2.05852-0.0008698-4.11671 0.0121307-6.17523c0.009964-1.73386 0.0299683-3.46733 0.0769501-5.20067c0.102371-3.77711 0.324676-7.58704 0.996109-11.3222c0.681152-3.78922 1.79276-7.31583 3.54518-10.7586c1.72238-3.38377 3.97302-6.48035 6.65785-9.16518c2.68481-2.68481 5.78137-4.93546 9.16516-6.65785c3.44278-1.75243 6.96941-2.86404 10.7586-3.5452c3.73518-0.671432 7.54511-0.893753 11.3222-0.996124c1.73332-0.0469818 3.4668-0.0669861 5.20065-0.0769501c2.05852-0.0130157 4.11671-0.012146 6.17523-0.012146l308.18-0.0002289c2.0585 0 4.1167-0.0008698 6.17523 0.0121307c1.73383 0.009964 3.46732 0.029953 5.20065 0.0769348c3.7771 0.102387 7.58704 0.324692 11.3222 0.996124c3.78925 0.681137 7.31586 1.79276 10.7586 3.54518c3.38379 1.72238 6.48035 3.97302 9.16522 6.65784c2.68481 2.68483 4.93542 5.78139 6.65784 9.16518c1.75244 3.44278 2.86401 6.96939 3.54517 10.7586c0.671448 3.73518 0.893799 7.54511 0.996155 11.3222c0.0469971 1.73334 0.0669556 3.46681 0.0769653 5.20067c0.0130005 2.05852 0.012146 4.11671 0.012146 6.17523L544 433.09c0 2.05853 0.0008545 4.1167-0.012146 6.17523c-0.0099487 1.73386-0.0299683 3.46735-0.0769653 5.20065c-0.102356 3.77713-0.324646 7.58704-0.996094 11.3222c-0.681152 3.78922-1.79279 7.31583-3.54517 10.7586c-1.72241 3.38379-3.97302 6.48035-6.65784 9.16519c-2.68488 2.68481-5.78143 4.93546-9.16516 6.65784c-3.44281 1.75244-6.96942 2.86404-10.7586 3.5452c-3.73523 0.671448-7.54514 0.893768-11.3223 0.996155c-1.73331 0.0469666-3.4668 0.0669556-5.20065 0.0769348c-2.0585 0.0130005-4.1167 0.012146-6.17523 0.012146L181.91 487z" fill="#FFFFFF" style="fill:#FFFFFF;"/>
  <path d="M896.053 679.409c6.1e-05 2.05853 0.0009155 4.1167-0.012085 6.17523c-0.0100098 1.73383-0.0299683 3.46735-0.0769653 5.20068c-0.102356 3.7771-0.324646 7.58704-0.996094 11.3222c-0.681152 3.78918-1.79279 7.31586-3.54523 10.7586c-1.72235 3.38379-3.97302 6.48035-6.65784 9.16516c-2.68481 2.68488-5.78137 4.93549-9.16516 6.6579c-3.44275 1.75244-6.96936 2.86401-10.7586 3.54517c-3.73517 0.671448-7.54511 0.893738-11.3222 0.996155c-1.73334 0.0469971-3.4668 0.0669556-5.20068 0.0769653c-2.05853 0.0130005-4.1167 0.012085-6.17523 0.012085l-194.179 0.0001831c-2.05853 0-4.1167 0.0008545-6.17523-0.012146c-1.73383-0.0100098-3.46735-0.0299683-5.20068-0.0769653c-3.7771-0.102356-7.58704-0.324646-11.3222-0.996094c-3.78918-0.681152-7.3158-1.79279-10.7586-3.54517c-3.38379-1.72241-6.48035-3.97302-9.16516-6.6579c-2.68488-2.68481-4.93549-5.78137-6.6579-9.16516c-1.75238-3.44275-2.86401-6.96936-3.54517-10.7586c-0.671448-3.73517-0.893738-7.54511-0.996155-11.3222c-0.046936-1.73334-0.0669556-3.4668-0.0769043-5.20068c-0.0130615-2.05853-0.012146-4.1167-0.012146-6.17523L594.053 317.23c0-2.05853-0.0008545-4.11673 0.012146-6.17523c0.0099487-1.73386 0.0299683-3.46735 0.0769043-5.20065c0.102417-3.77713 0.324707-7.58707 0.996155-11.3222c0.681152-3.78922 1.79272-7.31583 3.54517-10.7586c1.72235-3.38379 3.97302-6.48035 6.65784-9.16519c2.68481-2.68481 5.78137-4.93546 9.16516-6.65787c3.44281-1.75241 6.96942-2.86404 10.7586-3.5452c3.73517-0.671417 7.54511-0.893738 11.3223-0.996124c1.73328-0.0469666 3.4668-0.0669861 5.20062-0.0769348c2.05853-0.0130005 4.1167-0.012146 6.17523-0.012146l194.179-0.0001221c2.05853 0 4.11676-0.000885 6.17523 0.012146c1.73389 0.0099487 3.46735 0.0299377 5.20068 0.0769348c3.7771 0.102356 7.58704 0.324676 11.3222 0.996094c3.78925 0.681152 7.31586 1.79279 10.7586 3.5452c3.38379 1.72238 6.48035 3.97302 9.16522 6.65784c2.68481 2.68485 4.93542 5.7814 6.65784 9.16516c1.75244 3.44281 2.86407 6.96942 3.54517 10.7586c0.671448 3.7352 0.893799 7.54514 0.996155 11.3222c0.0469971 1.73334 0.0670166 3.46683 0.0769653 5.20065c0.0130005 2.05853 0.012146 4.11673 0.012146 6.17523L896.053 679.409z" fill="#FFFFFF" style="fill:#FFFFFF;"/>
 </g>
</svg>
