<?xml version="1.0" encoding="UTF-8"?>
<!--Generator: Apple Native CoreSVG 361-->
<!DOCTYPE svg
PUBLIC "-//W3C//DTD SVG 1.1//EN"
       "http://www.w3.org/Graphics/SVG/1.1/DTD/svg11.dtd">
<svg version="1.1" xmlns="http://www.w3.org/2000/svg" xmlns:xlink="http://www.w3.org/1999/xlink" viewBox="0 0 1024 1024">
 <g/>
 <g id="exclamationpoint">
  <path d="M833.934 549.734c0 6.30225 0.0020752 12.603-0.0355225 18.9053c-0.0333252 5.30811-0.0943604 10.6152-0.237183 15.9214c-0.312378 11.5586-0.994019 23.2192-3.04736 34.6494c-2.08472 11.6079-5.48962 22.4102-10.8589 32.9556c-5.27271 10.3584-12.1621 19.8359-20.3804 28.0542c-8.21924 8.22021-17.6987 15.1094-28.0585 20.3833c-10.5399 5.36523-21.3378 8.76904-32.9373 10.855c-11.4364 2.0542-23.1002 2.73584-34.6635 3.04834c-5.30688 0.144043-10.614 0.205078-15.9221 0.237305c-6.30115 0.0385742-12.6023 0.0351562-18.9043 0.0351562l-163.854 0.0004883l-95.3334 87.1465c-6.34131 5.8125-11.6709 10.0815-15.9854 12.8145c-4.31787 2.72949-9.11523 4.0957-14.4001 4.0957c-7.57544 0-13.3879-2.46875-17.4377-7.39844c-4.05444-4.93311-6.07739-11.5386-6.07739-19.8159v-76.8433c-5.50562 0-11.0105-0.0009766-16.5164-0.034668c-5.30811-0.0322266-10.6152-0.0932617-15.9219-0.237305c-11.5635-0.312012-23.2275-0.993652-34.6626-3.04834c-11.6006-2.08594-22.3975-5.48926-32.9375-10.8545c-10.3596-5.27393-19.8391-12.1631-28.0591-20.3838c-8.21826-8.21777-15.1069-17.6953-20.3806-28.0537c-5.36841-10.5459-8.77319-21.3477-10.8589-32.9561c-2.05347-11.4297-2.73413-23.0903-3.04663-34.6494c-0.143799-5.30566-0.205078-10.6128-0.237061-15.9209c-0.0388184-6.30225-0.0354004-12.6035-0.0354004-18.9053l-0.0002441-137.525c0-6.30176-0.0031738-12.603 0.0354004-18.9043c0.0322266-5.30908 0.0932617-10.6152 0.237305-15.9219c0.312256-11.5591 0.992676-23.2197 3.04639-34.6499c2.08569-11.6069 5.49048-22.4097 10.8589-32.9551c5.27368-10.3589 12.1626-19.8364 20.3806-28.0542c8.21997-8.21973 17.6995-15.1099 28.0591-20.3838c10.54-5.36475 21.3367-8.76807 32.9373-10.8535c11.4353-2.05566 23.0994-2.7373 34.6628-3.0498c5.30664-0.143555 10.6135-0.205078 15.9216-0.236816c6.30225-0.0385742 12.6035-0.0356445 18.9055-0.0356445h310.699c6.30225 0 12.6033-0.003418 18.9043 0.0351562c5.30811 0.0322266 10.6152 0.09375 15.9224 0.237305c11.563 0.3125 23.2269 0.994141 34.6633 3.0498c11.5996 2.08496 22.3972 5.48828 32.9373 10.8535c10.3599 5.27344 19.8394 12.1641 28.0586 20.3833c8.21826 8.21826 15.1075 17.6958 20.3804 28.0542c5.36914 10.5454 8.77417 21.3486 10.8589 32.9551c2.05347 11.4302 2.73511 23.0913 3.04736 34.6499c0.142822 5.30713 0.204102 10.6128 0.237305 15.9224c0.0375977 6.30078 0.0354004 12.6021 0.0354004 18.9043L833.934 549.734zM536.916 619.01c6.40723-6.13843 9.61426-13.6621 9.61426-22.5679c0-8.90552-3.20703-16.426-9.61426-22.5676c-6.41016-6.13843-14.2026-9.20947-23.3774-9.20947c-9.17773 0-16.9702 3.07104-23.3774 9.20947c-6.41016 6.1416-9.61377 13.6621-9.61377 22.5676c0 8.90576 3.20361 16.4294 9.61377 22.5679c6.40723 6.1416 14.1997 9.20923 23.3774 9.20923C522.714 628.219 530.506 625.151 536.916 619.01zM513.539 527.625h6.1e-05c14.1869 0 25.7861-11.3123 26.1414-25.4947l3.45844-138.056c0.416809-16.6379-12.9569-30.3508-29.6-30.3508h-6.1e-05c-16.6431 0-30.0168 13.7129-29.6 30.3508l3.4588 138.056C487.753 516.313 499.352 527.625 513.539 527.625z" fill="#F2F2F2" style="fill:#F2F2F2;"/>
 </g>
</svg>
