<?xml version="1.0" encoding="UTF-8"?>
<!--Generator: Apple Native CoreSVG 361-->
<!DOCTYPE svg
PUBLIC "-//W3C//DTD SVG 1.1//EN"
       "http://www.w3.org/Graphics/SVG/1.1/DTD/svg11.dtd">
<svg version="1.1" xmlns="http://www.w3.org/2000/svg" xmlns:xlink="http://www.w3.org/1999/xlink" viewBox="0 0 1024 1024">
 <g/>
 <g id="hexagon.back">
  <g>
   <g>
    <g>
     <path d="M712.574 671.802c2.11603-1.22205 4.23199-2.44299 6.349-3.68005c1.78198-1.04102 3.565-2.09399 5.34698-3.17798c3.883-2.36401 7.79999-4.88904 11.64-7.90295c3.896-3.05804 7.52197-6.47107 11.061-10.595c3.479-4.05402 6.66302-8.56305 9.42303-13.3441c2.76001-4.78094 5.07397-9.79297 6.84497-14.8329c1.802-5.12701 2.94501-9.974 3.64502-14.877c0.690002-4.83203 0.919006-9.487 1.02399-14.032c0.0480347-2.08606 0.0690308-4.15601 0.0790405-6.21997C768.001 580.688 768 578.245 768 575.802V408.199c0-2.44403 0.0009766-4.88702-0.0130005-7.33899c-0.0100098-2.06409-0.0310059-4.13403-0.0790405-6.21906c-0.104981-4.54498-0.333984-9.20001-1.02399-14.033c-0.700012-4.90295-1.84302-9.74896-3.64502-14.876c-1.771-5.03998-4.08496-10.052-6.84497-14.833s-5.94403-9.29102-9.42303-13.344c-3.539-4.12402-7.16498-7.53699-11.061-10.595c-3.84003-3.01404-7.75702-5.54004-11.64-7.90302c-1.78198-1.08502-3.565-2.13702-5.34698-3.17804c-2.117-1.23798-4.23297-2.45801-6.349-3.67993l-145.149-83.802c-2.11603-1.22205-4.23102-2.44403-6.36102-3.65802c-1.79297-1.02399-3.59601-2.04102-5.42596-3.04205c-3.98901-2.18097-8.13403-4.30994-12.665-6.12897c-4.59601-1.84503-9.36401-3.27802-14.706-4.28198c-5.24896-0.986023-10.747-1.48798-16.267-1.48798c-5.52097 0-11.019 0.501953-16.2679 1.48798c-5.341 1.00397-10.11 2.43695-14.706 4.28198c-4.53098 1.81903-8.67599 3.948-12.665 6.12897c-1.82999 1.00104-3.633 2.01807-5.42599 3.04205c-2.129 1.21399-4.245 2.43597-6.36099 3.65802l-145.149 83.802c-2.11603 1.22192-4.23203 2.44196-6.349 3.67993c-1.78201 1.04102-3.56403 2.09302-5.34601 3.17804c-3.884 2.36298-7.80099 4.88898-11.641 7.90302c-3.89603 3.05798-7.52103 6.47095-11.061 10.595c-3.479 4.05298-6.66302 8.56299-9.423 13.344c-2.76001 4.78101-5.07401 9.79303-6.845 14.833c-1.802 5.12701-2.944 9.97302-3.64502 14.876c-0.689972 4.83301-0.918976 9.48804-1.02399 14.033c-0.0480042 2.08502-0.0690002 4.15497-0.07901 6.21906c-0.0130157 2.45197-0.0120087 4.89496-0.0120087 7.33899v167.603c0 2.44397-0.0010071 4.88696 0.0120087 7.33801c0.0100098 2.06396 0.0310059 4.13391 0.07901 6.21997c0.105011 4.54498 0.334015 9.19995 1.02399 14.032c0.701019 4.90302 1.84302 9.75 3.64502 14.877c1.771 5.03998 4.08499 10.052 6.845 14.8329c2.75998 4.78101 5.944 9.29004 9.423 13.3441c3.53998 4.12396 7.16498 7.53699 11.061 10.595c3.84 3.01392 7.75699 5.53894 11.641 7.90295c1.78198 1.08398 3.564 2.13696 5.34601 3.17798c2.11697 1.23706 4.23297 2.45801 6.349 3.68005l145.149 83.802c2.116 1.22192 4.23199 2.44397 6.36099 3.65796c1.793 1.02301 3.59601 2.04004 5.42599 3.04102c3.98901 2.18201 8.13403 4.31104 12.665 6.13c4.59601 1.84497 9.36502 3.27795 14.706 4.28101c5.24896 0.987 10.747 1.48901 16.2679 1.48901c5.51999 0 11.018-0.502014 16.267-1.48901c5.34198-1.00305 10.11-2.43604 14.706-4.28101c4.53101-1.81897 8.67603-3.948 12.665-6.13c1.82996-1.00098 3.633-2.01801 5.42596-3.04102c2.13-1.21399 4.245-2.43604 6.36102-3.65796L712.574 671.802z"/>
    </g>
   </g>
  </g>
 </g>
</svg>
