<?xml version="1.0" encoding="UTF-8"?>
<!--Generator: Apple Native CoreSVG 361-->
<!DOCTYPE svg
PUBLIC "-//W3C//DTD SVG 1.1//EN"
       "http://www.w3.org/Graphics/SVG/1.1/DTD/svg11.dtd">
<svg version="1.1" xmlns="http://www.w3.org/2000/svg" xmlns:xlink="http://www.w3.org/1999/xlink" viewBox="0 0 1024 1024">
 <defs>
  <linearGradient id="SVGID_1_" x1="512" y1="227.505" x2="512" y2="758.296" gradientUnits="userSpaceOnUse">
   <stop offset="0" stop-color="#5a595c" stop-opacity="1"/>
   <stop offset="1" stop-color="#343436" stop-opacity="1"/>
  </linearGradient>
 </defs>
 <g/>
 <g id="hexagon.front">
  <path d="M767.987 400.859c-0.0100098-2.06409-0.0310059-4.13403-0.0790405-6.21906c-0.104981-4.54498-0.333984-9.20001-1.02399-14.033c-0.700012-4.90295-1.84302-9.74896-3.64502-14.876c-1.771-5.03998-4.08496-10.052-6.84497-14.833s-5.94403-9.29102-9.42303-13.344c-3.539-4.12402-7.16498-7.53699-11.061-10.595c-3.84003-3.01404-7.75702-5.54004-11.64-7.90302c-1.78198-1.08502-3.565-2.13702-5.34698-3.17804c-2.117-1.23798-4.23297-2.45801-6.349-3.67993l-145.149-83.802c-2.11603-1.22205-4.23102-2.44403-6.36102-3.65802c-1.79297-1.02399-3.59601-2.04102-5.42596-3.04205c-3.98901-2.18097-8.13403-4.30994-12.665-6.12897c-4.59601-1.84503-9.36401-3.27802-14.706-4.28198c-5.24896-0.986023-10.747-1.48798-16.267-1.48798c-5.52094 0-11.019 0.501953-16.2679 1.48798c-5.341 1.00397-10.11 2.43695-14.706 4.28198c-4.53101 1.81903-8.67603 3.948-12.665 6.12897c-1.82996 1.00104-3.633 2.01807-5.42596 3.04205c-2.12903 1.21399-4.245 2.43597-6.36102 3.65802l-145.149 83.802c-2.11603 1.22192-4.23199 2.44196-6.349 3.67993c-1.78198 1.04102-3.56403 2.09302-5.34601 3.17804c-3.88397 2.36298-7.80096 4.88898-11.641 7.90302c-3.896 3.05798-7.521 6.47095-11.061 10.595c-3.479 4.05298-6.66302 8.56299-9.42303 13.344s-5.07397 9.79303-6.84497 14.833c-1.802 5.12701-2.94403 9.97302-3.64502 14.876c-0.690002 4.83301-0.919006 9.48804-1.02399 14.033c-0.0480347 2.08502-0.0690308 4.15497-0.0790405 6.21906C255.999 403.311 256 405.754 256 408.198v167.603c0 2.44403-0.0010376 4.88702 0.0119629 7.33801c0.0100098 2.06403 0.0310059 4.13397 0.0790405 6.21997c0.104981 4.54504 0.333984 9.20001 1.02399 14.032c0.700989 4.90302 1.84302 9.75 3.64502 14.877c1.771 5.03998 4.08496 10.052 6.84497 14.8329c2.76001 4.78101 5.94403 9.29004 9.42303 13.3441c3.53998 4.12396 7.16498 7.53699 11.061 10.595c3.84003 3.01398 7.75702 5.539 11.641 7.90302c1.78198 1.08398 3.56403 2.13696 5.34601 3.17798c2.117 1.237 4.23297 2.45801 6.349 3.67999l145.149 83.802c2.11603 1.22198 4.23199 2.44403 6.36102 3.65802c1.79297 1.02301 3.59601 2.03998 5.42596 3.04102c3.98901 2.18195 8.13403 4.31097 12.665 6.13c4.59601 1.84497 9.36499 3.27795 14.706 4.28101c5.24896 0.987 10.747 1.48895 16.2679 1.48895c5.52002 0 11.0181-0.501953 16.267-1.48895c5.34198-1.00305 10.11-2.43604 14.706-4.28101c4.53101-1.81903 8.67603-3.94806 12.665-6.13c1.82996-1.00104 3.633-2.01801 5.42596-3.04102c2.13-1.21399 4.245-2.43604 6.36102-3.65802l145.149-83.802c2.11603-1.22198 4.23199-2.44299 6.349-3.67999c1.78198-1.04102 3.565-2.09399 5.34698-3.17798c3.883-2.36401 7.79999-4.88904 11.64-7.90302c3.896-3.05798 7.52197-6.47101 11.061-10.595c3.479-4.05402 6.66302-8.56305 9.42303-13.3441c2.76001-4.78094 5.07397-9.79297 6.84497-14.8329c1.802-5.12701 2.94501-9.974 3.64502-14.877c0.690002-4.83203 0.919006-9.487 1.02399-14.032c0.0480347-2.086 0.0690308-4.15594 0.0790405-6.21997C768.001 580.688 768 578.245 768 575.801V408.198C768 405.754 768.001 403.311 767.987 400.859zM639 595.2c0 0.641479 0.0002441 1.2829-0.0037842 1.92438c-0.0031128 0.540283-0.0093384 1.08051-0.0239868 1.62067c-0.0319214 1.17706-0.101196 2.36438-0.310425 3.52832c-0.21228 1.18085-0.558716 2.27985-1.1048 3.35272c-0.536743 1.0545-1.2381 2.01947-2.07477 2.85614s-1.8017 1.53802-2.85614 2.07477c-1.07288 0.546143-2.17188 0.892517-3.35272 1.1048c-1.164 0.209229-2.35126 0.278503-3.52832 0.310425c-0.540161 0.0146484-1.08038 0.020874-1.62067 0.0239868C623.483 612 622.841 612 622.2 612H401.8c-0.64154 0-1.2829 0.0002441-1.92438-0.0037842c-0.540344-0.0031128-1.08057-0.0093384-1.62073-0.0239868c-1.17706-0.0319214-2.36432-0.101196-3.52832-0.310425c-1.18085-0.21228-2.27985-0.558655-3.35272-1.1048c-1.05444-0.536743-2.01947-1.2381-2.85614-2.07477s-1.53802-1.80164-2.07477-2.85614c-0.546081-1.07288-0.892517-2.17188-1.1048-3.35272c-0.209229-1.16394-0.278503-2.35126-0.310425-3.52832c-0.0145874-0.540161-0.020874-1.08038-0.0239258-1.62067C385 596.483 385 595.841 385 595.2v-14.4c0-0.641479-0.0003052-1.2829 0.0037842-1.92438c0.0030518-0.540344 0.0093384-1.08051 0.0239258-1.62067c0.0319214-1.17706 0.101196-2.36438 0.310425-3.52838c0.21228-1.18079 0.558716-2.27979 1.1048-3.35266c0.536743-1.0545 1.2381-2.01947 2.07477-2.85614s1.8017-1.53802 2.85614-2.07483c1.07288-0.546081 2.17188-0.892517 3.35272-1.10474c1.164-0.20929 2.35126-0.278564 3.52832-0.310425c0.540161-0.0146484 1.08038-0.020874 1.62073-0.0239868C400.517 564 401.158 564 401.8 564h220.4c0.64154 0 1.2829-0.0003052 1.92444 0.0037842c0.540283 0.0031128 1.08051 0.0093384 1.62067 0.0239868c1.17706 0.0318604 2.36432 0.101135 3.52832 0.310425c1.18085 0.212219 2.27985 0.558655 3.35272 1.10474c1.05444 0.536804 2.01947 1.23816 2.85614 2.07483s1.53802 1.80164 2.07477 2.85614c0.546081 1.07288 0.892517 2.17188 1.1048 3.35266c0.209229 1.164 0.278503 2.35132 0.310425 3.52838c0.0146484 0.540161 0.020874 1.08032 0.0239868 1.62067C639 579.517 639 580.159 639 580.8V595.2zM639 499.2c0 0.64154 0.0002441 1.2829-0.0037842 1.92444c-0.0031128 0.540283-0.0093384 1.08051-0.0239868 1.62067c-0.0319214 1.17706-0.101196 2.36432-0.310425 3.52832c-0.21228 1.18085-0.558716 2.27985-1.1048 3.35272c-0.536743 1.0545-1.2381 2.01947-2.07477 2.85614s-1.8017 1.53802-2.85614 2.07477c-1.07288 0.546143-2.17188 0.892517-3.35272 1.1048c-1.164 0.209229-2.35126 0.278503-3.52832 0.310425c-0.540161 0.0146484-1.08038 0.020874-1.62067 0.0239868C623.483 516 622.841 516 622.2 516H401.8c-0.64154 0-1.2829 0.0002441-1.92438-0.0037842c-0.540344-0.0031128-1.08057-0.0093384-1.62073-0.0239868c-1.17706-0.0319214-2.36432-0.101196-3.52832-0.310425c-1.18085-0.21228-2.27985-0.558655-3.35272-1.1048c-1.05444-0.536743-2.01947-1.2381-2.85614-2.07477s-1.53802-1.80164-2.07477-2.85614c-0.546081-1.07288-0.892517-2.17188-1.1048-3.35272c-0.209229-1.164-0.278503-2.35126-0.310425-3.52832c-0.0145874-0.540161-0.020874-1.08038-0.0239258-1.62067C385 500.483 385 499.841 385 499.2v-14.4c0-0.641479-0.0003052-1.2829 0.0037842-1.92438c0.0030518-0.540344 0.0093384-1.08057 0.0239258-1.62067c0.0319214-1.17706 0.101196-2.36438 0.310425-3.52838c0.21228-1.18085 0.558716-2.27985 1.1048-3.35272c0.536743-1.05444 1.2381-2.01941 2.07477-2.85608c0.83667-0.836731 1.8017-1.53809 2.85614-2.07483c1.07288-0.546081 2.17188-0.892517 3.35272-1.1048c1.164-0.209229 2.35126-0.278503 3.52832-0.310425c0.540161-0.0145874 1.08038-0.020813 1.62073-0.0239258C400.517 468 401.158 468 401.8 468h220.4c0.64154 0 1.2829-0.0003052 1.92444 0.0037842c0.540283 0.0031128 1.08051 0.0093384 1.62067 0.0239258c1.17706 0.0319214 2.36432 0.101196 3.52832 0.310425c1.18085 0.21228 2.27985 0.558716 3.35272 1.1048c1.05444 0.536743 2.01947 1.2381 2.85614 2.07483c0.83667 0.83667 1.53802 1.80164 2.07477 2.85608c0.546081 1.07288 0.892517 2.17188 1.1048 3.35272c0.209229 1.164 0.278503 2.35132 0.310425 3.52838c0.0146484 0.5401 0.020874 1.08032 0.0239868 1.62067C639 483.517 639 484.159 639 484.8V499.2zM639 403.2c0 0.641479 0.0002441 1.2829-0.0037842 1.92438c-0.0031128 0.540344-0.0093384 1.08057-0.0239868 1.62073c-0.0319214 1.17706-0.101196 2.36432-0.310425 3.52832c-0.21228 1.18085-0.558716 2.27985-1.1048 3.35272c-0.536743 1.05444-1.2381 2.01947-2.07477 2.85614s-1.8017 1.53802-2.85614 2.07477c-1.07288 0.546081-2.17188 0.892517-3.35272 1.1048c-1.164 0.209229-2.35126 0.278503-3.52832 0.310425c-0.540161 0.0145874-1.08038 0.020874-1.62067 0.0239258c-0.64154 0.0040894-1.2829 0.0037842-1.92444 0.0037842H401.8c-0.64154 0-1.2829 0.0003052-1.92438-0.0037842c-0.540344-0.0030518-1.08057-0.0093384-1.62073-0.0239258c-1.17706-0.0319214-2.36432-0.101196-3.52832-0.310425c-1.18085-0.21228-2.27985-0.558716-3.35272-1.1048c-1.05444-0.536743-2.01947-1.2381-2.85614-2.07477s-1.53802-1.8017-2.07477-2.85614c-0.546081-1.07288-0.892517-2.17188-1.1048-3.35272c-0.209229-1.164-0.278503-2.35126-0.310425-3.52832c-0.0145874-0.540161-0.020874-1.08038-0.0239258-1.62073C385 404.483 385 403.841 385 403.2v-14.4c0-0.64154-0.0003052-1.2829 0.0037842-1.92444c0.0030518-0.540283 0.0093384-1.08051 0.0239258-1.62067c0.0319214-1.17706 0.101196-2.36432 0.310425-3.52832c0.21228-1.18085 0.558716-2.27985 1.1048-3.35272c0.536743-1.05444 1.2381-2.01947 2.07477-2.85614s1.8017-1.53802 2.85614-2.07477c1.07288-0.546081 2.17188-0.892517 3.35272-1.1048c1.164-0.209229 2.35126-0.278503 3.52832-0.310425c0.540161-0.0146484 1.08038-0.020874 1.62073-0.0239868c0.641479-0.0040283 1.28284-0.0037842 1.92438-0.0037842h220.4c0.64154 0 1.2829-0.0002441 1.92444 0.0037842c0.540283 0.0031128 1.08051 0.0093384 1.62067 0.0239868c1.17706 0.0319214 2.36432 0.101196 3.52832 0.310425c1.18085 0.21228 2.27985 0.558716 3.35272 1.1048c1.05444 0.536743 2.01947 1.2381 2.85614 2.07477s1.53802 1.8017 2.07477 2.85614c0.546081 1.07288 0.892517 2.17188 1.1048 3.35272c0.209229 1.164 0.278503 2.35126 0.310425 3.52832c0.0146484 0.540161 0.020874 1.08038 0.0239868 1.62067C639 387.517 639 388.158 639 388.8V403.2z" fill="url(#SVGID_1_)" style="fill:url(#SVGID_1_);"/>
 </g>
</svg>
