<?xml version="1.0" encoding="UTF-8"?>
<!--Generator: Apple Native CoreSVG 361-->
<!DOCTYPE svg
PUBLIC "-//W3C//DTD SVG 1.1//EN"
       "http://www.w3.org/Graphics/SVG/1.1/DTD/svg11.dtd">
<svg version="1.1" xmlns="http://www.w3.org/2000/svg" xmlns:xlink="http://www.w3.org/1999/xlink" viewBox="0 0 1024 1024">
 <defs>
  <linearGradient id="SVGID_1_" x1="512" y1="280" x2="512" y2="784" gradientUnits="userSpaceOnUse">
   <stop offset="0" stop-color="#ffffff" stop-opacity="0.9"/>
   <stop offset="0.706246" stop-color="#ffffff" stop-opacity="1"/>
  </linearGradient>
 </defs>
 <g/>
 <g id="cover">
  <path clip-rule="evenodd" d="M888 686c0 3.74207 0.0015869 7.48352-0.0220947 11.2256c-0.0180664 3.15186-0.0544434 6.30304-0.139831 9.45398c-0.186096 6.86621-0.59021 13.792-1.81079 20.582c-1.23822 6.88818-3.25897 13.299-6.44458 19.5574c-3.13104 6.15118-7.22235 11.7802-12.1029 16.6608c-4.88062 4.88055-10.5096 8.97186-16.6608 12.1029c-6.25842 3.18561-12.6693 5.20636-19.5574 6.44458c-6.78998 1.22058-13.7158 1.62469-20.582 1.81079c-3.15094 0.0853882-6.30212 0.121765-9.45398 0.139831C797.484 784.002 793.742 784 790 784H234c-3.74207 0-7.48352 0.0015869-11.2256-0.0220947c-3.15186-0.0180664-6.30305-0.0544434-9.45396-0.139831c-6.8662-0.186096-13.792-0.59021-20.582-1.81079c-6.88817-1.23822-13.299-3.25897-19.5574-6.44458c-6.15117-3.13104-11.7802-7.22235-16.6608-12.1029c-4.88058-4.88062-8.97188-10.5096-12.1029-16.6608c-3.18562-6.25842-5.20636-12.6693-6.44458-19.5574c-1.22057-6.78998-1.62469-13.7158-1.81079-20.582c-0.0854034-3.15094-0.121765-6.30212-0.139877-9.45398C135.998 693.484 136 689.742 136 686V378c0-3.74207-0.0015717-7.48352 0.0220642-11.2256c0.0181122-3.15186 0.0544739-6.30304 0.139877-9.45395c0.186096-6.86621 0.590225-13.792 1.81079-20.582c1.23822-6.88818 3.25896-13.299 6.44458-19.5574c3.13103-6.15118 7.22232-11.7802 12.1029-16.6608s10.5096-8.97189 16.6608-12.1029c6.25844-3.18564 12.6693-5.20639 19.5574-6.44461c6.78998-1.22055 13.7158-1.62466 20.582-1.81079c3.15091-0.0853882 6.30211-0.121735 9.45396-0.139862C226.516 279.998 230.258 280 234 280h220.783C491.565 280 512 300 512 300s20.4348-20 57.2174-20H790c3.74207 0 7.48352-0.0015869 11.2256 0.0220642c3.15186 0.0181274 6.30304 0.0544739 9.45398 0.139862c6.86621 0.186127 13.792 0.59024 20.582 1.81079c6.88818 1.23822 13.299 3.25897 19.5574 6.44461c6.15118 3.13101 11.7802 7.22232 16.6608 12.1029c4.88055 4.88058 8.97186 10.5096 12.1029 16.6608c3.18561 6.25842 5.20636 12.6693 6.44458 19.5574c1.22058 6.78998 1.62469 13.7158 1.81079 20.582c0.0853882 3.15091 0.121765 6.30209 0.139831 9.45395C888.002 370.516 888 374.258 888 378V686z" fill="url(#SVGID_1_)" fill-rule="evenodd" style="fill-rule:evenodd;clip-rule:evenodd;fill:url(#SVGID_1_);"/>
 </g>
</svg>
