<?xml version="1.0" encoding="UTF-8"?>
<!--Generator: Apple Native CoreSVG 361-->
<!DOCTYPE svg
PUBLIC "-//W3C//DTD SVG 1.1//EN"
       "http://www.w3.org/Graphics/SVG/1.1/DTD/svg11.dtd">
<svg version="1.1" xmlns="http://www.w3.org/2000/svg" xmlns:xlink="http://www.w3.org/1999/xlink" viewBox="0 0 1024 1024">
 <defs>
  <clipPath id="SVGID_00000167364506428714098330000017696600977776365201_">
   <path d="M291.457 540.238l-95.8755 96.106c7.90199 14.872 17.088 29.101 27.647 42.63c33.346 42.726 75.797 73.949 124.794 96.515c56.959 26.2339 117.016 38.242 179.57 38.527c21.376-0.0650024 46.457-2.08801 66.042-5.20001c33.3-5.289 65.471-14.307 96.363-27.539c-3.41699-8.46899-8.55505-16.405-15.42-23.27L456.709 540.138c-28.9316-28.9316-43.3974-43.3974-60.0806-48.8114c-14.6746-4.7623-30.4808-4.75278-45.1498 0.0270996C334.802 496.788 320.354 511.271 291.457 540.238z" style="overflow:visible;"/>
  </clipPath>
 </defs>
 <g>
  <path clip-rule="evenodd" d="M291.457 540.238l-95.8755 96.106c7.90199 14.872 17.088 29.101 27.647 42.63c33.346 42.726 75.797 73.949 124.794 96.515c56.959 26.2339 117.016 38.242 179.57 38.527c21.376-0.0650024 46.457-2.08801 66.042-5.20001c33.3-5.289 65.471-14.307 96.363-27.539c-3.41699-8.46899-8.55505-16.405-15.42-23.27L456.709 540.138c-28.9316-28.9316-43.3974-43.3974-60.0806-48.8114c-14.6746-4.7623-30.4808-4.75278-45.1498 0.0270996C334.802 496.788 320.354 511.271 291.457 540.238z" fill="#FFFFFF" fill-rule="evenodd" style="overflow:visible;fill-rule:evenodd;clip-rule:evenodd;fill:#FFFFFF;"/>
 </g>
</svg>
