<?xml version="1.0" encoding="UTF-8"?>
<!--Generator: Apple Native CoreSVG 361-->
<!DOCTYPE svg
PUBLIC "-//W3C//DTD SVG 1.1//EN"
       "http://www.w3.org/Graphics/SVG/1.1/DTD/svg11.dtd">
<svg version="1.1" xmlns="http://www.w3.org/2000/svg" xmlns:xlink="http://www.w3.org/1999/xlink" viewBox="0 0 1024 1024">
 <defs>
  <clipPath id="SVGID_00000070804668303338300530000011912624792609289354_">
   <path d="M593.635 808.817c37.98-6.03302 74.493-16.915 109.313-33.369c51.095-24.146 94.867-57.579 129.865-102.164c23.201-29.556 40.58-61.419 51.88-95.635L771.678 464.633c-30.097-30.097-45.1455-45.1455-62.4986-50.784c-15.2637-4.95959-31.7072-4.9599-46.9711-0.0007019c-17.3533 5.638-32.4021 20.6861-62.5 50.7822L309.351 754.971c12.368 7.52399 25.273 14.347 38.672 20.519c56.958 26.233 117.015 38.241 179.57 38.526C548.968 813.951 574.049 811.928 593.635 808.817z" style="overflow:visible;"/>
  </clipPath>
 </defs>
 <g>
  <path clip-rule="evenodd" d="M593.635 808.817c37.98-6.03302 74.493-16.915 109.313-33.369c51.095-24.146 94.867-57.579 129.865-102.164c23.201-29.556 40.58-61.419 51.88-95.635L771.678 464.633c-30.097-30.097-45.1455-45.1455-62.4986-50.784c-15.2637-4.95959-31.7072-4.9599-46.9711-0.0007019c-17.3533 5.638-32.4021 20.6861-62.5 50.7822L309.351 754.971c12.368 7.52399 25.273 14.347 38.672 20.519c56.958 26.233 117.015 38.241 179.57 38.526C548.968 813.951 574.049 811.928 593.635 808.817z" fill="#FFFFFF" fill-rule="evenodd" style="overflow:visible;fill-rule:evenodd;clip-rule:evenodd;fill:#FFFFFF;"/>
  <rect clip-path="url(#SVGID_00000070804668303338300530000011912624792609289354_)" fill="#FFFFFF" height="405.886" style="clip-path:url(#SVGID_00000070804668303338300530000011912624792609289354_);fill:#FFFFFF;" width="577.342" x="308.351" y="409.129"/>
 </g>
</svg>
