<?xml version="1.0" encoding="UTF-8"?>
<!--Generator: Apple Native CoreSVG 361-->
<!DOCTYPE svg
PUBLIC "-//W3C//DTD SVG 1.1//EN"
       "http://www.w3.org/Graphics/SVG/1.1/DTD/svg11.dtd">
<svg version="1.1" xmlns="http://www.w3.org/2000/svg" xmlns:xlink="http://www.w3.org/1999/xlink" viewBox="0 0 1024 1024">
 <g/>
 <g id="sun">
  <path d="M467.933 421.086c-11.4314 0-21.8483-2.76886-31.2517-8.30655c-9.40735-5.5397-16.9235-13.0549-22.5485-22.5495c-5.62897-9.49463-8.43945-19.9532-8.43945-31.3836c0-11.25 2.81049-21.6252 8.43945-31.1198c5.62497-9.49265 13.1411-17.0515 22.5485-22.6804c9.40341-5.62399 19.8203-8.43845 31.2517-8.43845c11.4265 0 21.7978 2.81445 31.1188 8.43845c9.31711 5.62894 16.7877 13.1877 22.4166 22.6804c5.625 9.49463 8.43945 19.8699 8.43945 31.1198c0 11.4304-2.81445 21.889-8.43945 31.3836c-5.62891 9.49463-13.0995 17.0098-22.4166 22.5495C489.731 418.317 479.36 421.086 467.933 421.086z" fill="#FFFFFF" style="fill:#FFFFFF;"/>
 </g>
</svg>
