<?xml version="1.0" encoding="UTF-8"?>
<!--Generator: Apple Native CoreSVG 361-->
<!DOCTYPE svg
PUBLIC "-//W3C//DTD SVG 1.1//EN"
       "http://www.w3.org/Graphics/SVG/1.1/DTD/svg11.dtd">
<svg version="1.1" xmlns="http://www.w3.org/2000/svg" xmlns:xlink="http://www.w3.org/1999/xlink" viewBox="0 0 1024 1024">
 <title>WidgetKit Simulator</title>
 <g fill="none" fill-rule="evenodd" id="WidgetKit-Simulator" stroke="none" stroke-width="1">
  <g fill="#191E32" id="Widgets" transform="translate(180, 182)">
   <g id="Stack-5" transform="translate(0, 1)">
    <g id="Stack-3" transform="translate(356, 0)">
     <g id="Stack-2" transform="translate(0, 168)">
      <path d="M225.423 0L250.577 3.55184e-15C270.319-2.09249e-15 277.646 2.08858 284.979 6.01049C292.312 9.9324 298.068 15.6876 301.99 23.021C305.911 30.3543 308 37.6811 308 57.4233L308 82.5767C308 102.319 305.911 109.646 301.99 116.979C298.068 124.312 292.312 130.068 284.979 133.99C277.646 137.911 270.319 140 250.577 140L225.423 140C205.681 140 198.354 137.911 191.021 133.99C183.688 130.068 177.932 124.312 174.01 116.979C170.089 109.646 168 102.319 168 82.5767L168 57.4233C168 37.6811 170.089 30.3543 174.01 23.021C177.932 15.6876 183.688 9.9324 191.021 6.01049C198.354 2.08858 205.681 0 225.423 0Z" id="Rectangle-2-Copy-4"/>
      <path d="M57.4233 0L82.5767 3.55184e-15C102.319-2.09249e-15 109.646 2.08858 116.979 6.01049C124.312 9.9324 130.068 15.6876 133.99 23.021C137.911 30.3543 140 37.6811 140 57.4233L140 82.5767C140 102.319 137.911 109.646 133.99 116.979C130.068 124.312 124.312 130.068 116.979 133.99C109.646 137.911 102.319 140 82.5767 140L57.4233 140C37.6811 140 30.3543 137.911 23.021 133.99C15.6876 130.068 9.9324 124.312 6.01049 116.979C2.08858 109.646 0 102.319 0 82.5767L0 57.4233C0 37.6811 2.08858 30.3543 6.01049 23.021C9.9324 15.6876 15.6876 9.9324 23.021 6.01049C30.3543 2.08858 37.6811 0 57.4233 0Z" id="Rectangle-2-Copy-5"/>
     </g>
     <g id="Stack">
      <path d="M225.423 0L250.577 3.55184e-15C270.319-2.09249e-15 277.646 2.08858 284.979 6.01049C292.312 9.9324 298.068 15.6876 301.99 23.021C305.911 30.3543 308 37.6811 308 57.4233L308 82.5767C308 102.319 305.911 109.646 301.99 116.979C298.068 124.312 292.312 130.068 284.979 133.99C277.646 137.911 270.319 140 250.577 140L225.423 140C205.681 140 198.354 137.911 191.021 133.99C183.688 130.068 177.932 124.312 174.01 116.979C170.089 109.646 168 102.319 168 82.5767L168 57.4233C168 37.6811 170.089 30.3543 174.01 23.021C177.932 15.6876 183.688 9.9324 191.021 6.01049C198.354 2.08858 205.681 0 225.423 0Z" id="Rectangle-2-Copy-3"/>
      <path d="M57.4233 0L82.5767 3.55184e-15C102.319-2.09249e-15 109.646 2.08858 116.979 6.01049C124.312 9.9324 130.068 15.6876 133.99 23.021C137.911 30.3543 140 37.6811 140 57.4233L140 82.5767C140 102.319 137.911 109.646 133.99 116.979C130.068 124.312 124.312 130.068 116.979 133.99C109.646 137.911 102.319 140 82.5767 140L57.4233 140C37.6811 140 30.3543 137.911 23.021 133.99C15.6876 130.068 9.9324 124.312 6.01049 116.979C2.08858 109.646 0 102.319 0 82.5767L0 57.4233C0 37.6811 2.08858 30.3543 6.01049 23.021C9.9324 15.6876 15.6876 9.9324 23.021 6.01049C30.3543 2.08858 37.6811 0 57.4233 0Z" id="Rectangle-2-Copy-2"/>
     </g>
    </g>
   </g>
  </g>
 </g>
</svg>
