<?xml version="1.0" encoding="UTF-8"?>
<!--Generator: Apple Native CoreSVG 361-->
<!DOCTYPE svg
PUBLIC "-//W3C//DTD SVG 1.1//EN"
       "http://www.w3.org/Graphics/SVG/1.1/DTD/svg11.dtd">
<svg version="1.1" xmlns="http://www.w3.org/2000/svg" xmlns:xlink="http://www.w3.org/1999/xlink" viewBox="0 0 1024 1024">
 <defs>
  <linearGradient id="SVGID_1_" x1="-7465.48" y1="584" x2="-7465.48" y2="584" gradientUnits="userSpaceOnUse" gradientTransform="matrix(-1 0 0 1 -6953.4755859 0)">
   <stop offset="0" stop-color="#00c2ff" stop-opacity="1"/>
   <stop offset="1" stop-color="#0073ff" stop-opacity="1"/>
  </linearGradient>
 </defs>
 <g/>
 <g id="face.right.default">
  <g>
   <path clip-rule="evenodd" d="M419.5 503.223c7.49936-60.5675 21.8531-153.375 47.3491-247.051c25.8328-94.9137 47.216-140.066 81.8492-163.988c4.85638-3.35449 9.92731-6.38739 15.1806-9.07812c28.9816-14.8444 61.7896-14.8444 127.406-14.8444c9.966 0 15.9268 0 25.8928 0.059082c8.39496 0.0479736 10.7822 0.145019 19.1742 0.372009c18.286 0.495972 36.732 1.57202 54.815 4.823c18.345 3.29797 35.419 8.67902 52.087 17.164c16.382 8.33801 31.374 19.235 44.372 32.233c12.998 12.998 23.894 27.9901 32.233 44.372c8.48401 16.668 13.866 33.742 17.164 52.087c3.25 18.0829 4.32703 36.528 4.82202 54.815c0.227966 8.39197 0.325012 16.784 0.372986 25.178c0.059021 9.966 0.059021 19.931 0.059021 29.897v342c0 9.96594 0 19.931-0.059021 29.897c-0.0479736 8.39398-0.145019 16.786-0.372986 25.178c-0.494995 18.287-1.57202 36.732-4.82202 54.815c-3.29797 18.345-8.67999 35.419-17.164 52.087c-8.33899 16.382-19.235 31.374-32.233 44.3719c-12.998 12.999-27.99 23.895-44.372 32.233c-16.668 8.48499-33.742 13.866-52.087 17.164c-18.083 3.25098-36.529 4.32697-54.815 4.823c-8.39203 0.22699-10.7792 0.323975-19.1742 0.372009c-9.966 0.059021-15.9268 0.059021-25.8928 0.059021c-34.1275 0-51.1912 0-69.7796-6.93018c-10.1661-3.79016-19.7152-9.06384-28.3378-15.649c-29.5624-22.5773-50.0512-77.174-65.962-189.905c-11.9246-84.4886-11.9246-147.515-11.9246-147.515h-24.9115c-36.348 0-54.5219 0-65.2506-11.9505l-9.16e-05 6.1e-05C414.391 548.362 415.779 533.276 419.5 503.223z" fill="#FFFFFF" fill-rule="evenodd" style="fill-rule:evenodd;clip-rule:evenodd;fill:#FFFFFF;"/>
  </g>
  <path d="M512 584" fill="url(#SVGID_1_)" style="fill:url(#SVGID_1_);"/>
 </g>
</svg>
