<?xml version="1.0" encoding="UTF-8"?>
<!--Generator: Apple Native CoreSVG 361-->
<!DOCTYPE svg
PUBLIC "-//W3C//DTD SVG 1.1//EN"
       "http://www.w3.org/Graphics/SVG/1.1/DTD/svg11.dtd">
<svg version="1.1" xmlns="http://www.w3.org/2000/svg" xmlns:xlink="http://www.w3.org/1999/xlink" viewBox="0 0 1024 1024">
 <defs>
  <linearGradient id="SVGID_1_" x1="665.682" y1="896" x2="665.682" y2="435.364" gradientUnits="userSpaceOnUse">
   <stop offset="0.2661" stop-color="#2775f0" stop-opacity="1"/>
   <stop offset="1" stop-color="#27bbf8" stop-opacity="1"/>
  </linearGradient>
 </defs>
 <g/>
 <g id="arm">
  <path clip-rule="evenodd" d="M580.651 471.757c-18.1879-18.1879-34.1391-32.3733-59.8124-35.7575c-23.0834-3.05069-46.7359 5.00375-63.2859 21.5537s-24.6044 40.2025-21.5537 63.2859c3.38422 25.6733 17.5696 41.6245 35.7575 59.8124l299.51 299.51c0.604797 0.604797 1.20917 1.20947 1.81934 1.81433c0.51355 0.509399 1.03119 1.01868 1.56 1.52795c1.15228 1.10974 2.36401 2.22913 3.74042 3.3266c1.3963 1.11328 2.89435 2.14941 4.63403 3.16095c1.70984 0.994141 3.55475 1.90393 5.45917 2.69275c1.90436 0.788818 3.85229 1.45007 5.76428 1.95612c1.94537 0.514893 3.7373 0.841492 5.5119 1.04163c1.74927 0.197266 3.39764 0.262573 4.99713 0.292664c0.734009 0.0137939 1.46014 0.0197144 2.18347 0.022644c0.859192 0.0037842 1.71411 0.00354 2.56946 0.00354h41.6943c1.71063 0 3.42102 0.0007324 5.13171-0.0100708c1.4408-0.0083008 2.88135-0.0249023 4.32178-0.0639648c3.13885-0.085083 6.30493-0.269775 9.40894-0.827759c3.14886-0.56604 6.07953-1.48981 8.94049-2.94611c2.81201-1.43134 5.38525-3.30164 7.61639-5.53278c2.23114-2.23108 4.10144-4.80438 5.53278-7.61633c1.4563-2.86102 2.38007-5.79169 2.94611-8.94055c0.557983-3.104 0.742676-6.27008 0.827759-9.40894c0.0390625-1.44043 0.0556641-2.88092 0.0639648-4.32178c0.0108032-1.71069 0.0100708-3.42108 0.0100708-5.13171L896 809.506c0-0.855347 0.0002441-1.71027-0.00354-2.56946c-0.0029297-0.723328-0.0088501-1.44946-0.022644-2.18347c-0.0300903-1.59949-0.0953979-3.24786-0.292664-4.99713c-0.200134-1.7746-0.526733-3.56653-1.04163-5.5119c-0.506042-1.91199-1.1673-3.85992-1.95612-5.76428c-0.788818-1.90442-1.69861-3.74933-2.69275-5.45917c-1.01154-1.73969-2.04767-3.23773-3.16101-4.63403c-1.09741-1.3764-2.2168-2.58813-3.32654-3.74042c-0.509277-0.528809-1.01855-1.04645-1.52795-1.56c-0.604858-0.610169-1.20953-1.21454-1.81433-1.81934L580.651 471.757z" fill="url(#SVGID_1_)" fill-rule="evenodd" style="fill-rule:evenodd;clip-rule:evenodd;fill:url(#SVGID_1_);"/>
 </g>
</svg>
