<?xml version="1.0" encoding="UTF-8"?>
<!--Generator: Apple Native CoreSVG 361-->
<!DOCTYPE svg
PUBLIC "-//W3C//DTD SVG 1.1//EN"
       "http://www.w3.org/Graphics/SVG/1.1/DTD/svg11.dtd">
<svg version="1.1" xmlns="http://www.w3.org/2000/svg" xmlns:xlink="http://www.w3.org/1999/xlink" viewBox="0 0 1024 1024">
 <g/>
 <g id="Arrow">
  <path d="M511.224 586.254c1.70798 0 3.31308-0.319397 4.80991-0.960877s3.10187-1.76477 4.81256-3.36987l54.5272-52.6027c1.28296-1.28302 2.24658-2.62012 2.88806-4.00873c0.641479-1.38855 0.960877-2.99365 0.960877-4.81256c0-3.31305-1.15033-6.0658-3.44836-8.25824c-2.29803-2.19247-5.15906-3.2887-8.57764-3.2887c-3.74615 0-6.73706 1.33713-8.98364 4.00867l-25.1781 26.6235l-9.46277 10.264l0.963623-33.3652v-65.0162c0-3.52957-1.31274-6.54758-3.93018-9.06213c-2.62012-2.51187-5.74908-3.76779-9.38156-3.76779c-3.52957 0-6.60443 1.25592-9.22186 3.76779c-2.6228 2.51456-3.93018 5.53256-3.93018 9.06213v65.0162l0.963592 33.3652l-9.62244-10.264l-25.1808-26.6235c-2.14102-2.67154-5.1861-4.00867-9.14062-4.00867c-3.42404 0-6.25528 1.09622-8.50186 3.2887c-2.2439 2.19244-3.36719 4.94519-3.36719 8.25824c0 1.81891 0.346466 3.42401 1.04208 4.81256c0.695648 1.38861 1.68359 2.72571 2.96658 4.00873l54.3702 52.6027c1.70795 1.6051 3.31305 2.72839 4.80988 3.36987S509.511 586.254 511.224 586.254z" fill="#FFFFFF" opacity="0.8" style="opacity:0.8;fill:#FFFFFF;"/>
 </g>
</svg>
