<?xml version="1.0" encoding="UTF-8"?>
<!--Generator: Apple Native CoreSVG 361-->
<!DOCTYPE svg
PUBLIC "-//W3C//DTD SVG 1.1//EN"
       "http://www.w3.org/Graphics/SVG/1.1/DTD/svg11.dtd">
<svg version="1.1" xmlns="http://www.w3.org/2000/svg" xmlns:xlink="http://www.w3.org/1999/xlink" viewBox="0 0 1024 1024">
 <defs>
  <style>.st0{mask:url(#mask);}.st1{fill:#fff;fill-rule:evenodd;}.st2{fill:#aaa;fill-rule:evenodd;}.st3{isolation:isolate;}.st4{mask:url(#mask-1);}.st5{opacity:.3;}</style>
  <mask height="159" id="mask" width="788.2" x="117.1" y="-2.5" maskUnits="userSpaceOnUse">
   <g id="SVGID">
    <image class="st3" height="662" transform="translate(117.1 -2.5) scale(.2)" width="3281" href="4_cells-1.png"/>
   </g>
  </mask>
  <mask height="158.8" id="mask-1" width="788.2" x="117.1" y="867.5" maskUnits="userSpaceOnUse">
   <g id="SVGID1" data-name="SVGID">
    <image class="st3" height="661" transform="translate(117.1 867.5) scale(.2)" width="3281" href="4_cells-2.png"/>
   </g>
  </mask>
 </defs>
 <g id="Cells">
  <g>
   <path class="st1" d="M119.3-0.4v44.1c0 4.2 0 8.5 0 12.7 0 3.6 0 7.1 0.2 10.7 0.2 7.8 0.7 15.6 2.1 23.3 1.4 7.8 3.7 15.1 7.3 22.2 3.5 7 8.2 13.3 13.7 18.9s11.9 10.2 18.9 13.7c7.1 3.6 14.3 5.9 22.2 7.3 7.7 1.4 15.5 1.8 23.3 2.1 3.6 0 7.1 0.1 10.7 0.2 4.2 0 8.5 0 12.7 0h561.9c4.2 0 8.5 0 12.7 0 3.6 0 7.1 0 10.7-0.2 7.8-0.2 15.6-0.7 23.3-2.1 7.8-1.4 15.1-3.7 22.2-7.3 7-3.5 13.3-8.2 18.9-13.7s10.2-11.9 13.7-18.9c3.6-7.1 5.9-14.3 7.3-22.2 1.4-7.7 1.8-15.5 2.1-23.3 0-3.6 0.1-7.1 0.2-10.7 0-4.2 0-8.5 0-12.7V-0.4H119.3Z" fill="#fff" fill-rule="evenodd"/>
   <g class="st0" mask="url(#mask)">
    <g class="st5" opacity=".3">
     <path class="st2" d="M119.3-0.4v44.1c0 4.2 0 8.5 0 12.7 0 3.6 0 7.1 0.2 10.7 0.2 7.8 0.7 15.6 2.1 23.3 1.4 7.8 3.7 15.1 7.3 22.2 3.5 7 8.2 13.3 13.7 18.9s11.9 10.2 18.9 13.7c7.1 3.6 14.3 5.9 22.2 7.3 7.7 1.4 15.5 1.8 23.3 2.1 3.6 0 7.1 0.1 10.7 0.2 4.2 0 8.5 0 12.7 0h561.9c4.2 0 8.5 0 12.7 0 3.6 0 7.1 0 10.7-0.2 7.8-0.2 15.6-0.7 23.3-2.1 7.8-1.4 15.1-3.7 22.2-7.3 7-3.5 13.3-8.2 18.9-13.7s10.2-11.9 13.7-18.9c3.6-7.1 5.9-14.3 7.3-22.2 1.4-7.7 1.8-15.5 2.1-23.3 0-3.6 0.1-7.1 0.2-10.7 0-4.2 0-8.5 0-12.7V-0.4H119.3Z" fill="#aaa" fill-rule="evenodd"/>
    </g>
   </g>
  </g>
  <g>
   <path class="st1" d="M903.2 1024.4v-44.1c0-4.2 0-8.5 0-12.7 0-3.6 0-7.1-0.2-10.7-0.2-7.8-0.7-15.6-2.1-23.3-1.4-7.8-3.7-15.1-7.3-22.2-3.5-7-8.2-13.3-13.7-18.9s-11.9-10.2-18.9-13.7c-7.1-3.6-14.3-5.9-22.2-7.3-7.7-1.4-15.5-1.8-23.3-2.1-3.6 0-7.1-0.1-10.7-0.2-4.2 0-8.5 0-12.7 0H230.3c-4.2 0-8.5 0-12.7 0-3.6 0-7.1 0-10.7 0.2-7.8 0.2-15.6 0.7-23.3 2.1-7.8 1.4-15.1 3.7-22.2 7.3-7 3.5-13.3 8.2-18.9 13.7s-10.2 11.9-13.7 18.9c-3.6 7.1-5.9 14.3-7.3 22.2-1.4 7.7-1.8 15.5-2.1 23.3 0 3.6-0.1 7.1-0.2 10.7 0 4.2 0 8.5 0 12.7v44.1h783.9Z" fill="#fff" fill-rule="evenodd"/>
   <g class="st4" mask="url(#mask-1)">
    <g class="st5" opacity=".3">
     <path class="st2" d="M903.2 1024.4v-44.1c0-4.2 0-8.5 0-12.7 0-3.6 0-7.1-0.2-10.7-0.2-7.8-0.7-15.6-2.1-23.3-1.4-7.8-3.7-15.1-7.3-22.2-3.5-7-8.2-13.3-13.7-18.9s-11.9-10.2-18.9-13.7c-7.1-3.6-14.3-5.9-22.2-7.3-7.7-1.4-15.5-1.8-23.3-2.1-3.6 0-7.1-0.1-10.7-0.2-4.2 0-8.5 0-12.7 0H230.3c-4.2 0-8.5 0-12.7 0-3.6 0-7.1 0-10.7 0.2-7.8 0.2-15.6 0.7-23.3 2.1-7.8 1.4-15.1 3.7-22.2 7.3-7 3.5-13.3 8.2-18.9 13.7s-10.2 11.9-13.7 18.9c-3.6 7.1-5.9 14.3-7.3 22.2-1.4 7.7-1.8 15.5-2.1 23.3 0 3.6-0.1 7.1-0.2 10.7 0 4.2 0 8.5 0 12.7v44.1h783.9Z" fill="#aaa" fill-rule="evenodd"/>
    </g>
   </g>
  </g>
 </g>
</svg>
