<?xml version="1.0" encoding="UTF-8"?>
<!--Generator: Apple Native CoreSVG 361-->
<!DOCTYPE svg
PUBLIC "-//W3C//DTD SVG 1.1//EN"
       "http://www.w3.org/Graphics/SVG/1.1/DTD/svg11.dtd">
<svg version="1.1" xmlns="http://www.w3.org/2000/svg" xmlns:xlink="http://www.w3.org/1999/xlink" viewBox="0 0 1024 1024">
 <g/>
 <g id="overlay">
  <path d="M716.623 469.694c-0.129517-0.0282593-0.259033-0.0565186-0.388611-0.0845947c-1.83197-0.396423-3.67316-0.76825-5.52362-1.11377c-0.0688477-0.0128784-0.137268-0.0267334-0.206177-0.0394897c-3.87762-0.719665-7.79474-1.32642-11.7481-1.81653c-0.124695-0.0153809-0.250366-0.0276489-0.375061-0.0428467c-1.71686-0.209595-3.44147-0.393799-5.17163-0.55896c-0.492798-0.046875-0.987244-0.0882568-1.48108-0.131531c-1.38458-0.121704-2.7735-0.228394-4.16614-0.321411c-0.597534-0.0397339-1.19501-0.0792847-1.79401-0.113647c-1.362-0.0786133-2.72888-0.138916-4.09821-0.189636c-0.561829-0.0206909-1.12201-0.0479736-1.68506-0.0640259c-1.90338-0.0544434-3.81195-0.0883179-5.72852-0.0883179c-109.211 0-197.744 88.5328-197.744 197.743c0 1.59857 0.0227661 3.19177 0.0604858 4.78125c0.0126953 0.533508 0.0355835 1.06451 0.0525513 1.59698c0.0333862 1.05316 0.0700684 2.10559 0.119873 3.15448c0.0302124 0.636169 0.0681152 1.27026 0.10437 1.90491c0.0536499 0.940491 0.111755 1.8797 0.178467 2.81659c0.0484619 0.678833 0.10083 1.35645 0.156128 2.03339c0.0722656 0.886658 0.151794 1.7713 0.235779 2.65466c0.0666504 0.69989 0.133301 1.39972 0.207214 2.09747c0.0905762 0.856262 0.191467 1.70941 0.292908 2.56238c0.0845947 0.710388 0.165283 1.42188 0.257446 2.12994c0.10907 0.839356 0.23175 1.67444 0.351318 2.5105c0.196716 1.37366 0.40741 2.74268 0.632263 4.10706c0.123413 0.749878 0.240723 1.50171 0.372559 2.24866c0.15802 0.894592 0.331787 1.78369 0.501831 2.67407c0.114075 0.597961 0.224182 1.19739 0.343628 1.79352c0.182861 0.91156 0.377502 1.81879 0.572815 2.72577c0.120666 0.560791 0.24054 1.12189 0.365906 1.68091c0.209045 0.930969 0.426208 1.85876 0.648377 2.78473c0.123413 0.514954 0.248901 1.02911 0.376343 1.54248c0.238769 0.960998 0.482361 1.9201 0.735107 2.87543c0.11676 0.44165 0.237976 0.88147 0.357666 1.3219c0.277466 1.02008 0.557373 2.03906 0.850647 3.05249c0.0748901 0.258972 0.15448 0.516052 0.230408 0.774597c1.12476 3.82715 2.35645 7.60834 3.70215 11.3354c0.0002441 0.0006714 0.0004883 0.0014038 0.0007324 0.0020752c0.0012817-0.0003052 0.0025635-0.0006104 0.0038452-0.0008545c3.78754-0.793335 7.54749-1.66156 11.2804-2.59778c0.118225-0.0296631 0.237305-0.0569458 0.355469-0.086731c1.56122-0.393616 3.11432-0.807251 4.66559-1.22546c0.537598-0.144958 1.07581-0.288391 1.61224-0.436279c1.48932-0.410583 2.97375-0.832825 4.45355-1.26593c0.542114-0.158691 1.08258-0.321228 1.62341-0.48291c1.5238-0.455566 3.04559-0.916016 4.55902-1.39526c0.203064-0.06427 0.404419-0.132385 0.6073-0.197144c5.10175-1.62769 10.1417-3.39288 15.1193-5.28485c0.485718-0.184631 0.972534-0.366821 1.45703-0.553955c1.43066-0.552429 2.8551-1.11731 4.27496-1.69122c0.526672-0.212891 1.05188-0.428528 1.57703-0.644348c1.44049-0.59198 2.87817-1.18958 4.30719-1.80347c0.32312-0.138794 0.643433-0.282654 0.966003-0.422607c4.77179-2.07001 9.47772-4.2627 14.1155-6.5722c0.430786-0.214539 0.863403-0.426025 1.29303-0.642578c1.35779-0.684387 2.70789-1.38184 4.05365-2.08643c0.515259-0.269775 1.0293-0.541321 1.54279-0.814026c1.34344-0.713501 2.68311-1.43329 4.01422-2.16675c0.397034-0.218811 0.79071-0.44281 1.18665-0.66333c4.45941-2.48395 8.84784-5.07935 13.162-7.78278c0.380066-0.238159 0.762634-0.472778 1.14148-0.712585c1.27008-0.803894 2.53082-1.62109 3.78778-2.44366c0.502747-0.328979 1.00482-0.658936 1.50543-0.990906c1.23883-0.821533 2.47284-1.64966 3.69861-2.4892c0.437439-0.299622 0.871216-0.604126 1.30695-0.906006c4.16064-2.88257 8.24451-5.8678 12.2469-8.9538c0.319214-0.246155 0.641602-0.488403 0.959778-0.73584c1.17603-0.914368 2.34088-1.84216 3.50269-2.7738c0.480774-0.385559 0.961548-0.771179 1.43988-1.15967c1.13116-0.918579 2.25635-1.8443 3.37366-2.77911c0.453796-0.3797 0.903748-0.76355 1.35522-1.14587c1.1601-0.982483 2.31848-1.96698 3.4632-2.96686c0.0283813-0.0248413 0.0562134-0.050293 0.0846558-0.0751343c2.65637-2.32202 5.26703-4.69476 7.83856-7.1087c0.230835-0.216736 0.465149-0.42981 0.695312-0.647278c1.07709-1.01752 2.14117-2.04858 3.20294-3.08197c0.450867-0.438843 0.902405-0.876953 1.35046-1.3186c1.0224-1.00775 2.03748-2.02283 3.04523-3.04523c0.445373-0.451782 0.887146-0.906982 1.32953-1.36163c1.02795-1.05621 2.05359-2.11475 3.06586-3.18616c0.237-0.250916 0.469421-0.506226 0.705566-0.757935c2.34863-2.50317 4.65747-5.04413 6.91907-7.62762c0.0760498-0.0869141 0.153992-0.17218 0.229981-0.259155c0.977051-1.11871 1.9389-2.25092 2.89935-3.38434c0.409058-0.482727 0.81958-0.96405 1.22559-1.44946c0.911682-1.08984 1.81445-2.18732 2.71063-3.29041c0.421021-0.51825 0.838989-1.03912 1.25659-1.56024c0.9021-1.12573 1.80109-2.25415 2.68707-3.39319c0.303772-0.390503 0.60144-0.786072 0.90332-1.17816c2.99707-3.89307 5.89893-7.86273 8.70367-11.9053c0.355408-0.512268 0.713257-1.02252 1.06549-1.53705c0.801758-1.1712 1.59283-2.35034 2.37811-3.53357c0.378296-0.570007 0.75415-1.14178 1.1286-1.71454c0.781128-1.19476 1.55786-2.3927 2.32214-3.59937c0.310303-0.48999 0.614075-0.984436 0.92157-1.47632c2.58759-4.13867 5.07556-8.34546 7.46143-12.6176c0.291748-0.5224 0.587158-1.04242 0.875854-1.56671c0.687256-1.24823 1.36169-2.50433 2.03137-3.76343c0.327148-0.615112 0.652527-1.23132 0.975525-1.849c0.658081-1.25861 1.31042-2.52081 1.95087-3.78998c0.286499-0.567749 0.566345-1.13934 0.849304-1.70917c2.18256-4.39539 4.25928-8.85217 6.22705-13.3678c0.221375-0.507935 0.44751-1.01331 0.666138-1.52271c0.567322-1.32233 1.11987-2.65253 1.66846-3.98462c0.267822-0.65033 0.534851-1.30096 0.798157-1.95355c0.532227-1.31909 1.05701-2.64197 1.5708-3.97046c0.242737-0.627625 0.479248-1.25842 0.717835-1.88812c0.526794-1.39026 1.05243-2.78113 1.55878-4.18127c0.0422363-0.11676 0.0817871-0.234924 0.123901-0.351746c1.15222-3.19849 2.24512-6.42499 3.28949-9.67346c0.14386-0.447327 0.293396-0.89209 0.435181-1.34039c0.440979-1.39447 0.864502-2.79663 1.28534-4.19995c0.202759-0.676148 0.405945-1.35217 0.604004-2.0304c0.401184-1.37366 0.79303-2.75128 1.1748-4.13306c0.188171-0.680969 0.370544-1.36426 0.553955-2.04718c0.382019-1.42242 0.761902-2.8457 1.12317-4.27643c0.103149-0.408386 0.198425-0.819763 0.299866-1.22882c0.794311-3.20337 1.53796-6.42664 2.22729-9.6701c0.0680542-0.320252 0.141785-0.638489 0.208801-0.959167c0.304016-1.45435 0.588074-2.91589 0.870667-4.37793c0.136047-0.703491 0.27356-1.40637 0.404602-2.11169c0.263123-1.41626 0.514893-2.83649 0.757812-4.25977c0.124695-0.730713 0.244385-1.46313 0.36377-2.19568c0.23584-1.44702 0.468262-2.89514 0.683044-4.34912c0.0852051-0.577026 0.160889-1.15704 0.242798-1.73517c0.495544-3.49707 0.940674-7.01031 1.31317-10.5455c0.0006714-0.0067139 0.0015869-0.0133667 0.0023193-0.0201416C720.363 470.537 718.497 470.104 716.623 469.694z" fill="#B77AFF" style="fill:#B77AFF;enable-background:new    ;"/>
 </g>
</svg>
