<?xml version="1.0" encoding="UTF-8"?>
<!--Generator: Apple Native CoreSVG 361-->
<!DOCTYPE svg
PUBLIC "-//W3C//DTD SVG 1.1//EN"
       "http://www.w3.org/Graphics/SVG/1.1/DTD/svg11.dtd">
<svg version="1.1" xmlns="http://www.w3.org/2000/svg" xmlns:xlink="http://www.w3.org/1999/xlink" viewBox="0 0 1024 1024">
 <g/>
 <g id="camera">
  <path d="M416.779 519.5c-3.30756 0-6.61456 0.0013428-9.92212-0.0195312c-2.78589-0.0159912-5.57117-0.0481567-8.35623-0.123657c-6.06891-0.16449-12.1906-0.521667-18.1921-1.60052c-6.08835-1.09442-11.7548-2.88055-17.2865-5.69623c-5.43692-2.76749-10.4124-6.38373-14.7262-10.6976s-7.93011-9.28931-10.6976-14.7262c-2.81573-5.53174-4.60184-11.1982-5.69626-17.2865c-1.07886-6.00156-1.43607-12.1232-1.60056-18.1921c-0.07547-2.78506-0.107605-5.57034-0.123627-8.35623c-0.0209045-3.30756-0.0195007-6.61456-0.0195007-9.92212v-213.706c0-3.30754-0.0014038-6.61458 0.0195007-9.92212c0.0160217-2.78589 0.0481567-5.57117 0.123627-8.35622c0.16449-6.06894 0.521698-12.1906 1.60056-18.1921c1.09442-6.08835 2.88052-11.7548 5.69626-17.2865c2.76746-5.43692 6.3837-10.4124 10.6976-14.7262c4.31387-4.31387 9.28931-7.9301 14.7262-10.6976c5.53177-2.81573 11.1982-4.60182 17.2865-5.69627c6.00156-1.07884 12.1232-1.43604 18.1921-1.60052c2.78506-0.0754852 5.57034-0.10762 8.35623-0.123627c3.30756-0.0209045 6.61456-0.019516 9.92212-0.019516H608.582c3.30756 0 6.61456-0.0013885 9.92212 0.019516c2.78589 0.0160065 5.57117 0.0481415 8.3562 0.123627c6.06897 0.16449 12.1906 0.521683 18.1921 1.60052c6.08838 1.09445 11.7548 2.88054 17.2865 5.69627c5.43695 2.76747 10.4124 6.3837 14.7263 10.6976c4.3139 4.31389 7.93011 9.28932 10.6976 14.7262c2.81573 5.53174 4.60187 11.1982 5.69629 17.2865c1.07886 6.00156 1.43604 12.1232 1.60052 18.1921c0.0755005 2.78505 0.107605 5.57033 0.123657 8.35622c0.020874 3.30754 0.0194702 6.61458 0.0194702 9.92212v213.706c0 3.30756 0.0014038 6.61456-0.0194702 9.92212c-0.0160522 2.78589-0.0481567 5.57117-0.123657 8.35623c-0.16449 6.06891-0.521667 12.1906-1.60052 18.1921c-1.09442 6.08835-2.88055 11.7548-5.69629 17.2865c-2.76746 5.43692-6.38367 10.4124-10.6976 14.7262c-4.31384 4.31387-9.28931 7.93011-14.7263 10.6976c-5.53174 2.81567-11.1981 4.60181-17.2865 5.69623c-6.00153 1.07886-12.1232 1.43604-18.1921 1.60052c-2.78503 0.0755005-5.57031 0.107666-8.3562 0.123657c-3.30756 0.020874-6.61456 0.0195312-9.92212 0.0195312H416.779z" fill="#57595B" style="fill:#57595B;"/>
 </g>
</svg>
