<?xml version="1.0" encoding="UTF-8"?>
<!--Generator: Apple Native CoreSVG 361-->
<!DOCTYPE svg
PUBLIC "-//W3C//DTD SVG 1.1//EN"
       "http://www.w3.org/Graphics/SVG/1.1/DTD/svg11.dtd">
<svg version="1.1" xmlns="http://www.w3.org/2000/svg" xmlns:xlink="http://www.w3.org/1999/xlink" viewBox="0 0 1024 1024">
 <g/>
 <g id="Layer_33">
  <path d="M615.515 605.254c1.09222-0.630554 2.18427-1.2605 3.27649-1.89911c0.919922-0.537231 1.83966-1.08051 2.75934-1.64026c2.00403-1.21973 4.02551-2.52301 6.00732-4.07861c2.0105-1.57806 3.88165-3.33942 5.70831-5.46765c1.79535-2.0918 3.43835-4.41925 4.86285-6.8866c1.4245-2.46729 2.61865-5.05389 3.53253-7.6546c0.929748-2.64612 1.51959-5.14722 1.88098-7.67737c0.356262-2.49408 0.474182-4.89636 0.528503-7.24182c0.0249634-1.07635 0.0355225-2.14453 0.0408325-3.20984c0.006897-1.26514 0.0064697-2.52582 0.0064697-3.78699V469.216c0-1.26117 0.0004272-2.52188-0.0064697-3.78702c-0.0053101-1.06534-0.0158691-2.13348-0.0408325-3.20981c-0.0543213-2.34546-0.172241-4.74774-0.528503-7.24182c-0.361389-2.53015-0.951233-5.03131-1.88098-7.67737c-0.913879-2.60074-2.10803-5.18732-3.53253-7.65463c-1.4245-2.46735-3.0675-4.79477-4.86285-6.88657c-1.82666-2.1283-3.69781-3.88962-5.70831-5.46768c-1.98181-1.55557-4.0033-2.85886-6.00732-4.07864c-0.919678-0.559753-1.83942-1.10303-2.75934-1.64026c-1.09222-0.63855-2.18427-1.26849-3.27649-1.89908l-74.9072-43.2477c-1.09222-0.630585-2.18378-1.26135-3.2829-1.88794c-0.925232-0.528076-1.85559-1.05298-2.80017-1.56955c-2.05841-1.1257-4.19781-2.22467-6.53589-3.16321c-2.37183-0.952087-4.83282-1.69186-7.58929-2.20969c-2.70923-0.508942-5.54633-0.768066-8.39532-0.768066c-2.84906 0-5.68616 0.259125-8.39539 0.768066c-2.75647 0.517822-5.21744 1.2576-7.58929 2.20969c-2.33807 0.938538-4.47748 2.03751-6.53586 3.16321c-0.944611 0.516571-1.87497 1.04147-2.8002 1.56955c-1.09909 0.626587-2.19067 1.25735-3.2829 1.88794l-74.9072 43.2477c-1.09219 0.630585-2.18423 1.26053-3.27646 1.89908c-0.919922 0.537231-1.83969 1.08051-2.75934 1.64026c-2.00406 1.21979-4.02554 2.52307-6.00735 4.07864c-2.01047 1.57806-3.88162 3.33939-5.70828 5.46768c-1.79538 2.0918-3.43835 4.41922-4.86285 6.88657c-1.4245 2.46732-2.61865 5.05389-3.53253 7.65463c-0.929779 2.64606-1.51959 5.14722-1.88098 7.67737c-0.356262 2.49408-0.474213 4.89636-0.528534 7.24182c-0.0249329 1.07632-0.0355225 2.14447-0.0408325 3.20981c-0.006897 1.26514-0.0064392 2.52585-0.0064392 3.78702v86.4954c0 1.26117-0.0004578 2.52185 0.0064392 3.78699c0.0053101 1.06531 0.0158997 2.13348 0.0408325 3.20984c0.0543213 2.34546 0.172272 4.74774 0.528534 7.24182c0.361389 2.53015 0.951202 5.03125 1.88098 7.67737c0.913879 2.60071 2.10803 5.18732 3.53253 7.6546c1.4245 2.46735 3.06747 4.7948 4.86285 6.8866c1.82666 2.12823 3.69781 3.88959 5.70828 5.46765c1.98181 1.5556 4.0033 2.85889 6.00735 4.07861c0.919647 0.559753 1.83942 1.10303 2.75934 1.64026c1.09222 0.638611 2.18427 1.26855 3.27646 1.89911l74.9072 43.2477c1.09222 0.630615 2.18381 1.26135 3.2829 1.88794c0.925232 0.528076 1.85559 1.05298 2.8002 1.56958c2.05838 1.12567 4.19778 2.22467 6.53586 3.16321c2.37186 0.952087 4.83282 1.69183 7.58929 2.20966c2.70923 0.508911 5.54633 0.768066 8.39539 0.768066c2.849 0 5.6861-0.259155 8.39532-0.768066c2.75647-0.517822 5.21747-1.25757 7.58929-2.20966c2.33807-0.938538 4.47748-2.03754 6.53589-3.16321c0.94458-0.516602 1.87494-1.0415 2.80017-1.56958c1.09912-0.626587 2.19067-1.25732 3.2829-1.88794L615.515 605.254z" fill="none" style="fill:none;"/>
 </g>
</svg>
