<?xml version="1.0" encoding="UTF-8"?>
<!--Generator: Apple Native CoreSVG 361-->
<!DOCTYPE svg
PUBLIC "-//W3C//DTD SVG 1.1//EN"
       "http://www.w3.org/Graphics/SVG/1.1/DTD/svg11.dtd">
<svg version="1.1" xmlns="http://www.w3.org/2000/svg" xmlns:xlink="http://www.w3.org/1999/xlink" viewBox="0 0 1024 1024">
 <g/>
 <g id="tics">
  <path d="M518 142v60c0 3.31348-2.68652 6-6 6s-6-2.68652-6-6v-60c0-3.31348 2.68652-6 6-6S518 138.687 518 142zM512 816c-3.31348 0-6 2.68652-6 6v60c0 3.31348 2.68652 6 6 6s6-2.68652 6-6v-60C518 818.687 515.313 816 512 816zM882 506h-60c-3.31348 0-6 2.68652-6 6s2.68652 6 6 6h60c3.31348 0 6-2.68652 6-6S885.313 506 882 506zM202 518c3.31348 0 6-2.68652 6-6s-2.68652-6-6-6h-60c-3.31348 0-6 2.68652-6 6s2.68652 6 6 6H202zM726.961 297.04c1.1709 1.17188 2.70605 1.75732 4.24219 1.75732c1.53516 0 3.07129-0.585938 4.24219-1.75732l42.4268-42.4263c2.34375-2.34326 2.34375-6.14209 0-8.48535c-2.34082-2.34326-6.1416-2.34326-8.48438 0l-42.4268 42.4263C724.617 290.897 724.617 294.696 726.961 297.04zM297.04 726.961c-2.34375-2.34375-6.14258-2.34375-8.48535 0l-42.4263 42.4268c-2.34326 2.34277-2.34326 6.1416 0 8.48438c1.17188 1.17188 2.70703 1.75781 4.24268 1.75781s3.07129-0.585938 4.24268-1.75781l42.4263-42.4268C299.383 733.103 299.383 729.304 297.04 726.961zM735.445 726.961c-2.3418-2.34375-6.14258-2.34375-8.48438 0c-2.34375 2.34277-2.34375 6.1416 0 8.48438l42.4268 42.4268c1.1709 1.17188 2.70703 1.75781 4.24219 1.75781s3.07129-0.585938 4.24219-1.75781c2.34375-2.34277 2.34375-6.1416 0-8.48438L735.445 726.961zM288.554 297.04c1.17139 1.17139 2.70703 1.75732 4.24268 1.75732s3.07129-0.585938 4.24268-1.75732c2.34326-2.34326 2.34326-6.14209 0-8.48535l-42.4263-42.4263c-2.34277-2.34277-6.14258-2.34277-8.48535 0c-2.34326 2.34326-2.34326 6.14209 0 8.48535L288.554 297.04zM332.196 188.571c-1.65723-2.86963-5.32715-3.85303-8.19629-2.19629c-2.86963 1.65723-3.85303 5.32666-2.19629 8.19629l30 51.9614c1.11133 1.9248 3.12793 3.00098 5.20166 3.00098c1.01807 0 2.0498-0.259277 2.99463-0.804688c2.86963-1.65723 3.85303-5.32666 2.19629-8.19629L332.196 188.571zM672.196 777.468c-1.65625-2.86914-5.32715-3.85156-8.19629-2.19629c-2.87012 1.65723-3.85254 5.32617-2.19629 8.19629l30 51.9619c1.11133 1.9248 3.12793 3.00098 5.20215 3.00098c1.01758 0 2.0498-0.259766 2.99414-0.804688c2.87012-1.65723 3.85254-5.32617 2.19629-8.19629L672.196 777.468zM775.271 360c1.11133 1.9248 3.12793 3.00098 5.20215 3.00098c1.01758 0 2.0498-0.259277 2.99414-0.804688l51.9619-30c2.87012-1.65674 3.85254-5.32666 2.19629-8.19629c-1.65625-2.86914-5.32617-3.85254-8.19629-2.19629l-51.9619 30C774.598 353.46 773.615 357.13 775.271 360zM248.729 664c-1.65723-2.87012-5.32715-3.85156-8.19629-2.19629l-51.9619 30c-2.86963 1.65723-3.85303 5.32617-2.19629 8.19629c1.11133 1.9248 3.12793 3.00098 5.20166 3.00098c1.01807 0 2.0498-0.259766 2.99463-0.804688l51.9619-30C249.402 670.539 250.385 666.87 248.729 664zM609.315 148.812c-3.2002-0.85791-6.49023 1.04053-7.34863 4.24268l-15.5283 57.9556c-0.857422 3.20068 1.04199 6.49072 4.24316 7.34814c0.520508 0.139648 1.04199 0.206055 1.55664 0.206055c2.64844 0 5.07324-1.76807 5.79199-4.44873l15.5283-57.9556C614.416 152.959 612.517 149.669 609.315 148.812zM433.319 805.641c-3.19727-0.851562-6.49023 1.04199-7.34814 4.24316l-15.5293 57.9561c-0.85791 3.2002 1.0415 6.49023 4.24268 7.34863c0.520019 0.138672 1.04248 0.206055 1.55664 0.206055c2.64893 0 5.07324-1.76855 5.7915-4.44922l15.5293-57.9561C438.419 809.789 436.52 806.499 433.319 805.641zM870.945 601.967l-57.9561-15.5283c-3.2002-0.853516-6.49023 1.04199-7.34863 4.24316c-0.857422 3.20117 1.04199 6.49023 4.24316 7.34863l57.9561 15.5283c0.520508 0.138672 1.04199 0.206055 1.55664 0.206055c2.64844 0 5.07324-1.76855 5.79199-4.44922C876.046 606.114 874.146 602.825 870.945 601.967zM153.055 422.032l57.9556 15.5293c0.520019 0.139648 1.04248 0.206055 1.55664 0.206055c2.64893 0 5.07324-1.76807 5.7915-4.44873c0.85791-3.20068-1.0415-6.49072-4.24268-7.34814l-57.9556-15.5293c-3.19775-0.857422-6.49023 1.04199-7.34814 4.24268S149.854 421.175 153.055 422.032zM188.571 332.196l51.9614 30c0.944824 0.54541 1.97656 0.804688 2.99463 0.804688c2.07324 0 4.09033-1.07617 5.20166-3.00098c1.65674-2.86963 0.67334-6.53906-2.19629-8.19629l-51.9614-30c-2.86816-1.65527-6.53955-0.673828-8.19629 2.19629C184.718 326.87 185.701 330.539 188.571 332.196zM835.43 691.804l-51.9619-30c-2.87109-1.6582-6.54004-0.672852-8.19629 2.19629c-1.65625 2.87012-0.673828 6.53906 2.19629 8.19629l51.9619 30c0.945312 0.545898 1.97656 0.804688 2.99414 0.804688c2.07422 0 4.09082-1.07617 5.20215-3.00098C839.282 697.13 838.3 693.461 835.43 691.804zM700 186.375c-2.87109-1.65625-6.53906-0.672852-8.19629 2.19629l-30 51.9614c-1.65625 2.86963-0.673828 6.53906 2.19629 8.19629c0.945312 0.54541 1.97656 0.804688 2.99414 0.804688c2.07422 0 4.09082-1.07617 5.20215-3.00098l30-51.9614C703.853 191.701 702.87 188.032 700 186.375zM360 775.271c-2.86865-1.65723-6.53955-0.673828-8.19629 2.19629l-30 51.9619c-1.65674 2.87012-0.67334 6.53906 2.19629 8.19629c0.944824 0.545898 1.97656 0.804688 2.99463 0.804688c2.07324 0 4.09033-1.07617 5.20166-3.00098l30-51.9619C363.853 780.598 362.87 776.929 360 775.271zM422.032 153.055c-0.85791-3.20215-4.15088-5.10205-7.34814-4.24268c-3.20117 0.857422-5.10059 4.14746-4.24268 7.34814l15.5293 57.9556c0.718262 2.68115 3.14258 4.44873 5.7915 4.44873c0.51416 0 1.03662-0.0664062 1.55664-0.206055c3.20117-0.857422 5.10059-4.14746 4.24268-7.34814L422.032 153.055zM598.03 809.884c-0.858398-3.2002-4.15039-5.09961-7.34863-4.24316c-3.20117 0.858398-5.10059 4.14746-4.24316 7.34863l15.5283 57.9561c0.71875 2.68066 3.14258 4.44922 5.79199 4.44922c0.513672 0 1.03711-0.0673828 1.55664-0.206055c3.20117-0.858398 5.10059-4.14746 4.24316-7.34863L598.03 809.884zM805.642 433.319c0.71875 2.68066 3.14258 4.44873 5.79199 4.44873c0.513672 0 1.03711-0.0664062 1.55664-0.206055l57.9551-15.5288c3.20117-0.857422 5.10059-4.14746 4.24316-7.34814c-0.858398-3.20117-4.15137-5.10254-7.34863-4.24268l-57.9551 15.5288C806.684 426.828 804.784 430.118 805.642 433.319zM218.358 590.681c-0.85791-3.20117-4.14893-5.0957-7.34814-4.24316l-57.9556 15.5293c-3.20117 0.858398-5.10059 4.14844-4.24268 7.34863c0.718262 2.68066 3.14258 4.44922 5.7915 4.44922c0.51416 0 1.03662-0.0673828 1.55664-0.206055l57.9556-15.5293C217.317 597.171 219.216 593.881 218.358 590.681zM469.654 144.382c-0.432129-3.28467-3.44434-5.60254-6.73193-5.16553c-3.28516 0.432617-5.59814 3.44678-5.16553 6.73193l5.22119 39.6577c0.397461 3.01953 2.97559 5.21729 5.94141 5.21729c0.260742 0 0.524902-0.0170898 0.790527-0.0517578c3.28516-0.432617 5.59814-3.44678 5.16553-6.73193L469.654 144.382zM561.021 838.394c-0.432617-3.28516-3.44531-5.60352-6.73145-5.16504c-3.28516 0.432617-5.59766 3.44629-5.16504 6.73145l5.22168 39.6582c0.397461 3.01953 2.97559 5.21777 5.94043 5.21777c0.260742 0 0.525391-0.0175781 0.791016-0.0527344c3.28516-0.432617 5.59766-3.44629 5.16504-6.73145L561.021 838.394zM833.229 469.709c0.397461 3.01953 2.97559 5.21729 5.94043 5.21729c0.260742 0 0.525391-0.0166016 0.791016-0.0517578l39.6582-5.2207c3.28516-0.432617 5.59766-3.44629 5.16504-6.73193c-0.432617-3.28516-3.44629-5.60547-6.73145-5.16553l-39.6582 5.2207C835.108 463.41 832.796 466.424 833.229 469.709zM190.772 554.29c-0.432617-3.28516-3.44238-5.59766-6.73193-5.16504l-39.6577 5.22168c-3.28564 0.432617-5.59814 3.44629-5.16553 6.73145c0.397461 3.01953 2.97559 5.21777 5.94141 5.21777c0.260742 0 0.524902-0.0175781 0.790527-0.0527344l39.6577-5.22168C188.892 560.589 191.205 557.575 190.772 554.29zM709.239 254.954c1.08887 0.835938 2.37305 1.24023 3.64844 1.24023c1.80078 0 3.58301-0.808106 4.76367-2.34766l24.3506-31.7339c2.01758-2.62939 1.52148-6.39551-1.10742-8.41309c-2.62598-2.01562-6.39551-1.52246-8.41211 1.10742l-24.3506 31.7339C706.114 249.17 706.61 252.936 709.239 254.954zM314.761 769.047c-2.62939-2.01758-6.39551-1.52246-8.4126 1.10742l-24.3506 31.7344c-2.01709 2.62891-1.52148 6.39551 1.10791 8.41211c1.08936 0.835938 2.37354 1.24023 3.64795 1.24023c1.80127 0 3.58301-0.807617 4.76465-2.34766l24.3506-31.7344C317.886 774.83 317.391 771.063 314.761 769.047zM809.193 732.482l-31.7344-24.3506c-2.62598-2.01562-6.39551-1.52344-8.41211 1.10742c-2.01758 2.62891-1.52148 6.39551 1.10742 8.41211l31.7344 24.3506c1.08887 0.835938 2.37305 1.24023 3.64844 1.24023c1.80078 0 3.58301-0.807617 4.76367-2.34766C812.318 738.266 811.822 734.499 809.193 732.482zM214.807 291.519l31.7339 24.3506c1.08936 0.835938 2.37402 1.24023 3.64844 1.24023c1.80127 0 3.58301-0.808106 4.76465-2.34766c2.01709-2.62939 1.52148-6.39551-1.10742-8.41309l-31.7339-24.3506c-2.62939-2.01709-6.39551-1.521-8.41309 1.10742C211.682 285.735 212.178 289.501 214.807 291.519zM375.951 167.869c-1.26807-3.06201-4.7793-4.51611-7.83936-3.24756c-3.06152 1.26807-4.51562 4.77783-3.24756 7.83936l15.3071 36.9551c0.957519 2.31104 3.19141 3.70557 5.5459 3.70557c0.765137 0 1.54297-0.146973 2.29346-0.458008c3.06152-1.26807 4.51562-4.77783 3.24756-7.83936L375.951 167.869zM643.828 814.584c-1.26855-3.0625-4.77832-4.51758-7.83887-3.24707c-3.06152 1.26758-4.51562 4.77734-3.24707 7.83887l15.3076 36.9551c0.957031 2.31055 3.19043 3.70605 5.54492 3.70605c0.765625 0 1.54297-0.147461 2.29395-0.458984c3.06152-1.26758 4.51562-4.77734 3.24707-7.83887L643.828 814.584zM811.337 388.01c0.957031 2.31104 3.19043 3.70557 5.54492 3.70557c0.765625 0 1.54297-0.146973 2.29395-0.458008l36.9561-15.3071c3.06152-1.26807 4.51562-4.77783 3.24707-7.83936c-1.26855-3.0625-4.77832-4.51562-7.83887-3.24756l-36.9561 15.3071C811.522 381.439 810.068 384.949 811.337 388.01zM212.663 635.989c-1.26904-3.06152-4.7793-4.5166-7.83936-3.24707l-36.9551 15.3076c-3.06152 1.26758-4.51562 4.77734-3.24756 7.83887c0.957519 2.31055 3.19141 3.70605 5.5459 3.70605c0.765137 0 1.54297-0.147461 2.29346-0.458984l36.9551-15.3076C212.477 642.561 213.931 639.051 212.663 635.989zM655.889 164.621c-3.06055-1.26758-6.57031 0.185059-7.83887 3.24756l-15.3076 36.9551c-1.26855 3.06104 0.185547 6.5708 3.24707 7.83936c0.750977 0.311035 1.52832 0.458008 2.29395 0.458008c2.35352 0 4.58789-1.39502 5.54492-3.70557l15.3076-36.9551C660.404 169.399 658.95 165.89 655.889 164.621zM388.01 811.337c-3.06201-1.26855-6.5708 0.185547-7.83936 3.24707l-15.3071 36.9551c-1.26807 3.06152 0.186035 6.57129 3.24756 7.83887c0.750977 0.311523 1.52832 0.458984 2.29346 0.458984c2.35449 0 4.58887-1.39551 5.5459-3.70605l15.3071-36.9551C392.526 816.114 391.072 812.604 388.01 811.337zM856.131 648.05l-36.9551-15.3076c-3.06055-1.26953-6.57031 0.18457-7.83887 3.24707c-1.26855 3.06152 0.185547 6.57129 3.24707 7.83887l36.9551 15.3076c0.750977 0.311523 1.52832 0.458984 2.29395 0.458984c2.35352 0 4.58789-1.39551 5.54492-3.70605C860.646 652.827 859.192 649.317 856.131 648.05zM167.869 375.951l36.9551 15.3071c0.750977 0.311035 1.52832 0.458008 2.29346 0.458008c2.35449 0 4.58887-1.39502 5.5459-3.70557c1.26807-3.06152-0.186035-6.57129-3.24756-7.83936l-36.9551-15.3071c-3.06104-1.26709-6.57129 0.186035-7.83936 3.24756S164.807 374.683 167.869 375.951zM291.519 214.807c-2.01807-2.62891-5.78418-3.12402-8.41309-1.10742c-2.62891 2.01758-3.12451 5.78369-1.10742 8.41309l24.3506 31.7339c1.18164 1.53955 2.96289 2.34766 4.76465 2.34766c1.27441 0 2.55908-0.404785 3.64844-1.24023c2.62891-2.01758 3.12451-5.78369 1.10742-8.41309L291.519 214.807zM717.651 770.154c-2.0166-2.62988-5.78516-3.12402-8.41211-1.10742c-2.62891 2.0166-3.125 5.7832-1.10742 8.41211l24.3506 31.7344c1.18066 1.54004 2.96289 2.34766 4.76367 2.34766c1.27441 0 2.55957-0.404297 3.64844-1.24023c2.62891-2.0166 3.125-5.7832 1.10742-8.41211L717.651 770.154zM769.047 314.761c1.18066 1.54004 2.96289 2.34814 4.76367 2.34814c1.27441 0 2.55957-0.404785 3.64844-1.24023l31.7344-24.3506c2.62891-2.01758 3.125-5.78369 1.10742-8.4126c-2.0166-2.62988-5.78516-3.12305-8.41211-1.10791l-31.7344 24.3506C767.525 308.366 767.029 312.132 769.047 314.761zM254.954 709.239c-2.01709-2.62988-5.78418-3.125-8.4126-1.10742l-31.7344 24.3496c-2.62891 2.0166-3.125 5.7832-1.10791 8.41211c1.18164 1.54004 2.96289 2.34766 4.76465 2.34766c1.27441 0 2.55908-0.404297 3.64795-1.24023l31.7344-24.3496C256.475 715.635 256.971 711.868 254.954 709.239zM561.078 139.217c-3.27246-0.431152-6.29883 1.87939-6.73145 5.16553L549.125 184.04c-0.432617 3.28516 1.87988 6.29932 5.16504 6.73193c0.265625 0.0351562 0.529297 0.0517578 0.791016 0.0517578c2.96484 0 5.54297-2.19775 5.94043-5.21729l5.22168-39.6577C566.676 142.664 564.363 139.649 561.078 139.217zM469.709 833.229c-3.29639-0.438477-6.29932 1.87988-6.73193 5.16504l-5.22119 39.6582c-0.432617 3.28516 1.88037 6.2998 5.16553 6.73145c0.266113 0.0351562 0.529785 0.0527344 0.791016 0.0527344c2.96484 0 5.54346-2.19824 5.94092-5.21777L474.875 839.96C475.308 836.675 472.995 833.66 469.709 833.229zM879.618 554.347l-39.6582-5.2207c-3.27344-0.43457-6.29883 1.87891-6.73145 5.16504c-0.432617 3.28516 1.87988 6.2998 5.16504 6.73145l39.6582 5.2207c0.265625 0.0351562 0.529297 0.0527344 0.791016 0.0527344c2.96484 0 5.54297-2.19824 5.94043-5.21777C885.216 557.793 882.903 554.778 879.618 554.347zM144.382 469.654L184.04 474.875c0.266113 0.0351562 0.529785 0.0517578 0.790527 0.0517578c2.96533 0 5.54395-2.19775 5.94141-5.21729c0.432617-3.28516-1.88037-6.29932-5.16553-6.73193l-39.6577-5.22119c-3.29688-0.435547-6.29932 1.88037-6.73193 5.16553S141.097 469.221 144.382 469.654z" fill="#FFFFFF" opacity="0.75" style="opacity:0.75;fill:#FFFFFF;"/>
 </g>
</svg>
