<?xml version="1.0" encoding="UTF-8"?>
<!--Generator: Apple Native CoreSVG 361-->
<!DOCTYPE svg
PUBLIC "-//W3C//DTD SVG 1.1//EN"
       "http://www.w3.org/Graphics/SVG/1.1/DTD/svg11.dtd">
<svg version="1.1" xmlns="http://www.w3.org/2000/svg" xmlns:xlink="http://www.w3.org/1999/xlink" viewBox="0 0 1024 1024">
 <g/>
 <g id="back">
  <path clip-rule="evenodd" d="M896 656c0 4.27661 0.0018311 8.55261-0.0252075 12.8292c-0.0206909 3.60211-0.0622559 7.20349-0.159851 10.8045c-0.212707 7.84711-0.674561 15.7623-2.06952 23.5223c-1.4151 7.87219-3.72449 15.1989-7.36523 22.3514c-3.57831 7.02991-8.25403 13.4631-13.8318 19.0409s-12.011 10.2536-19.041 13.8319c-7.15247 3.64075-14.4791 5.95013-22.3513 7.36523c-7.76001 1.39496-15.6752 1.85681-23.5223 2.06946c-3.60107 0.0976562-7.20245 0.13916-10.8046 0.159851C792.553 768.002 788.277 768 784 768H240c-4.27664 0-8.55261 0.00177-12.8292-0.0252686c-3.60213-0.0206909-7.20349-0.0621948-10.8045-0.159851c-7.84708-0.212646-15.7623-0.6745-23.5223-2.06946c-7.87219-1.4151-15.1988-3.72449-22.3513-7.36523c-7.02991-3.57831-13.4631-8.25409-19.0409-13.8319c-5.5778-5.57782-10.2536-12.011-13.8319-19.0409c-3.64072-7.15253-5.95013-14.4792-7.36523-22.3514c-1.39493-7.75995-1.85678-15.6752-2.06947-23.5223c-0.0976105-3.60101-0.13916-7.20239-0.159851-10.8045C127.998 664.553 128 660.277 128 656V368c0-4.27664-0.0018005-8.55258 0.0252228-12.8292c0.0206909-3.60211 0.0622406-7.20349 0.159851-10.8045c0.212692-7.84708 0.674545-15.7623 2.06947-23.5223c1.4151-7.87219 3.72452-15.1989 7.36523-22.3513c3.57832-7.02991 8.25409-13.4631 13.8319-19.0409c5.57782-5.57779 12.011-10.2536 19.0409-13.8319c7.15251-3.64072 14.4792-5.95013 22.3513-7.36523c7.75996-1.39493 15.6752-1.85678 23.5223-2.06949c3.60104-0.0975952 7.20241-0.13913 10.8045-0.159851c4.27663-0.0270233 8.5526-0.0252075 12.8292-0.0252075h544c4.27661 0 8.55261-0.0018158 12.8292 0.0252075c3.60211 0.0207214 7.20349 0.0622559 10.8046 0.159851c7.84705 0.212707 15.7623 0.674561 23.5223 2.06949c7.87219 1.4151 15.1989 3.72452 22.3513 7.36523c7.02991 3.57831 13.4631 8.25409 19.041 13.8319c5.57782 5.57782 10.2535 12.011 13.8318 19.0409c3.64075 7.1525 5.95013 14.4792 7.36523 22.3513c1.39496 7.75998 1.85681 15.6752 2.06952 23.5223c0.0975952 3.60104 0.13916 7.20242 0.159851 10.8045C896.002 359.447 896 363.723 896 368V656z" fill="#C3D4E8" fill-rule="evenodd" style="fill-rule:evenodd;clip-rule:evenodd;fill:#C3D4E8;"/>
 </g>
</svg>
