<?xml version="1.0" encoding="UTF-8"?>
<!--Generator: Apple Native CoreSVG 361-->
<!DOCTYPE svg
PUBLIC "-//W3C//DTD SVG 1.1//EN"
       "http://www.w3.org/Graphics/SVG/1.1/DTD/svg11.dtd">
<svg version="1.1" xmlns="http://www.w3.org/2000/svg" xmlns:xlink="http://www.w3.org/1999/xlink" viewBox="0 0 1024 1024">
 <g/>
 <g id="bottom">
  <path clip-rule="evenodd" d="M796.829 767.975c3.60211-0.0206909 7.20349-0.0622559 10.8046-0.159851c7.84705-0.212707 15.7623-0.674561 23.5223-2.06946c7.87219-1.4151 15.1989-3.72455 22.3513-7.36523c7.02991-3.57831 13.4631-8.25409 19.041-13.8319s10.2535-12.011 13.8318-19.0409c2.31995-4.55774 4.09503-9.18799 5.4469-13.9833L591.491 445.948c-45.3933-40.1397-113.589-40.1397-158.982 0L132.173 711.524c1.35187 4.79529 3.12695 9.42554 5.4469 13.9833c3.57831 7.02991 8.25403 13.4631 13.8318 19.0409s12.011 10.2536 19.041 13.8319c7.15247 3.64069 14.4791 5.95013 22.3513 7.36523c7.76001 1.3949 15.6752 1.85675 23.5223 2.06946c3.60107 0.0975952 7.20245 0.13916 10.8046 0.159851C231.447 768.002 235.723 768 240 768h544C788.277 768 792.553 768.002 796.829 767.975z" fill="#DEE9F4" fill-rule="evenodd" style="fill-rule:evenodd;clip-rule:evenodd;fill:#DEE9F4;"/>
 </g>
</svg>
