<?xml version="1.0" encoding="UTF-8"?>
<!--Generator: Apple Native CoreSVG 361-->
<!DOCTYPE svg
PUBLIC "-//W3C//DTD SVG 1.1//EN"
       "http://www.w3.org/Graphics/SVG/1.1/DTD/svg11.dtd">
<svg version="1.1" xmlns="http://www.w3.org/2000/svg" xmlns:xlink="http://www.w3.org/1999/xlink" viewBox="0 0 1024 1024">
 <g/>
 <g id="top">
  <path clip-rule="evenodd" d="M886.38 298.493c-3.57831-7.02991-8.25403-13.4631-13.8318-19.041c-5.57782-5.57776-12.011-10.2535-19.041-13.8318c-7.15247-3.64075-14.4791-5.95013-22.3513-7.36523c-7.76001-1.39496-15.6752-1.85681-23.5223-2.06952c-3.60107-0.0975952-7.20245-0.139099-10.8046-0.159851C792.553 255.998 788.277 256 784 256H240c-4.27661 0-8.55261-0.00177-12.8292 0.0252075c-3.60211 0.020752-7.20349 0.0622559-10.8046 0.159851c-7.84705 0.212707-15.7623 0.674561-23.5223 2.06952c-7.87219 1.4151-15.1989 3.72449-22.3513 7.36523c-7.02991 3.57831-13.4631 8.25409-19.041 13.8318c-5.57782 5.57782-10.2535 12.011-13.8318 19.041c-2.31409 4.54614-4.08655 9.16425-5.43713 13.9465l300.326 265.568c45.3933 40.1397 113.589 40.1397 158.982 0l300.326-265.568C890.467 307.657 888.694 303.039 886.38 298.493z" fill="#FFFFFF" fill-rule="evenodd" style="fill-rule:evenodd;clip-rule:evenodd;fill:#FFFFFF;"/>
 </g>
</svg>
