<?xml version="1.0" encoding="UTF-8"?>
<!--Generator: Apple Native CoreSVG 361-->
<!DOCTYPE svg
PUBLIC "-//W3C//DTD SVG 1.1//EN"
       "http://www.w3.org/Graphics/SVG/1.1/DTD/svg11.dtd">
<svg version="1.1" xmlns="http://www.w3.org/2000/svg" xmlns:xlink="http://www.w3.org/1999/xlink" viewBox="0 0 1024 1024">
 <path d="M372.379 308.06c-0.471283-1.25677-1.22534-1.82233-2.45071-1.82233c-1.24109 0-2.01086 0.581268-2.46643 1.83804l-6.89664 18.6947c-0.157074 0.424164-0.21991 0.769806-0.21991 1.03687c0 0.958283 0.70694 1.60239 1.75949 1.60239c0.911163 0 1.4296-0.43988 1.75949-1.461l1.71237-4.87006h8.67181l1.72809 4.88577c0.314179 1.0054 0.832611 1.44528 1.77521 1.44528c1.02115 0 1.75949-0.675507 1.75949-1.60239c0-0.298492-0.0628357-0.596985-0.21994-1.03687L372.379 308.06zM366.472 320.204l3.37762-9.94434h0.0942688l3.40903 9.94434H366.472zM390.713 312.365c-2.38791 0-4.28879 1.20966-5.26279 3.11053h-0.0628357v-1.39816c0-1.08398-0.691254-1.7438-1.64954-1.7438c-0.958313 0-1.63382 0.659821-1.63382 1.7438v19.1346c0 1.11539 0.691223 1.80661 1.69666 1.80661c0.989716 0 1.69666-0.691223 1.69666-1.80661v-6.77094h0.0785522c0.942596 1.83804 2.82776 3.00058 5.19995 3.00058c4.1474 0 6.89661-3.31479 6.89661-8.54614C397.672 315.664 394.907 312.365 390.713 312.365zM389.817 326.566c-2.60782 0-4.33591-2.23077-4.33591-5.67123c0-3.40903 1.7438-5.67123 4.33591-5.67123c2.6864 0 4.36734 2.21506 4.36734 5.67123C394.185 324.367 392.504 326.566 389.817 326.566zM408.889 312.365c-2.38788 0-4.28876 1.20966-5.26279 3.11053h-0.0628357v-1.39816c0-1.08398-0.691223-1.7438-1.64954-1.7438c-0.958283 0-1.63382 0.659821-1.63382 1.7438v19.1346c0 1.11539 0.691254 1.80661 1.69669 1.80661c0.989716 0 1.69666-0.691223 1.69666-1.80661v-6.77094h0.0785522c0.942566 1.83804 2.82776 3.00058 5.19995 3.00058c4.14737 0 6.89661-3.31479 6.89661-8.54614C415.848 315.664 413.083 312.365 408.889 312.365zM407.993 326.566c-2.60782 0-4.33591-2.23077-4.33591-5.67123c0-3.40903 1.74377-5.67123 4.33591-5.67123c2.68637 0 4.36734 2.21506 4.36734 5.67123C412.361 324.367 410.68 326.566 407.993 326.566zM421.975 307.982v19.6844c0 1.11539-0.70694 1.79092-1.69669 1.79092c-0.989716 0-1.69666-0.675537-1.69666-1.79092v-19.6844c0-1.11539 0.70694-1.79089 1.69666-1.79089C421.268 306.191 421.975 306.866 421.975 307.982zM438.141 321.743c1.05258 0 1.68097-0.628387 1.68097-1.72809c0-4.5087-3.03201-7.6821-7.43076-7.6821c-4.68152 0-7.66638 3.39334-7.66638 8.64041c0 5.34134 2.92203 8.49899 7.90204 8.49899c3.07913 0 5.48273-1.24106 6.56671-3.40903c0.141388-0.329895 0.235626-0.644104 0.235626-0.911163c0-0.848328-0.596954-1.38245-1.41388-1.38245c-0.486999 0-0.832611 0.172791-1.19394 0.596954c-1.25677 1.71237-2.41931 2.35648-4.27307 2.35648c-2.70209 0-4.39874-1.88516-4.39874-4.90146v-0.0785522H438.141zM432.375 315.067c2.35648 0 3.97461 1.71237 4.05313 4.30447h-8.26334C428.338 316.795 430.034 315.067 432.375 315.067zM457.872 306.489h-6.7395c-1.0997 0-1.75949 0.691254-1.75949 1.82236v19.2759c0 1.1311 0.65979 1.82233 1.75949 1.82233c1.08398 0 1.75949-0.691223 1.75949-1.82233v-6.17395h4.87006c4.44586 0 7.57211-3.04773 7.57211-7.47787C465.334 309.521 462.271 306.489 457.872 306.489zM456.93 318.46h-4.03741v-9.00171h4.05313c3.0477 0 4.7915 1.63382 4.7915 4.49298C461.737 316.81 459.993 318.46 456.93 318.46zM473.519 312.333c-2.96915 0-5.46701 1.19394-6.33105 3.06342c-0.204224 0.377045-0.298492 0.754089-0.298492 1.0997c0 0.848328 0.612701 1.41388 1.46103 1.41388c0.596985 0 1.03683-0.21994 1.38248-0.722656c0.942566-1.50815 2.02655-2.08942 3.66037-2.08942c2.0737 0 3.31479 1.0997 3.31479 2.93774v1.27249l-4.54016 0.267059c-3.91174 0.21994-6.14252 1.99515-6.14252 4.88577c0 2.96915 2.27792 4.98001 5.51413 4.98001c2.15225 0 4.25735-1.16254 5.21567-3.00058h0.0785522v1.39816c0.0314026 1.00543 0.675507 1.61813 1.6181 1.61813c0.958313 0 1.63382-0.644104 1.63382-1.71237v-9.97574C480.086 314.454 477.525 312.333 473.519 312.333zM476.708 322.969c0 2.15225-1.86948 3.78607-4.24167 3.78607c-1.80661 0-3.01627-0.942596-3.01627-2.38791c0-1.41388 1.14679-2.30933 3.17337-2.45071l4.08456-0.251373V322.969zM491.633 312.773c0.314179 0.251373 0.455566 0.659821 0.455566 1.19394c0 0.534149-0.172791 0.92688-0.502716 1.19394c-0.345612 0.298492-0.848328 0.43988-1.55527 0.43988c-2.32504 0.0157166-3.26764 1.57098-3.26764 3.62897v8.43619c0 1.09967-0.691223 1.79092-1.69666 1.79092c-1.02115 0-1.69666-0.691254-1.69666-1.79092v-13.6204c0-1.03683 0.659821-1.71237 1.6181-1.71237c0.942596 0 1.60242 0.675537 1.60242 1.71237v1.41388h0.0785522c0.455566-1.85376 1.97943-3.09482 3.62897-3.09482C490.894 312.365 491.35 312.506 491.633 312.773zM507.028 326.77c0.361298 0.455597 0.455566 0.769806 0.455566 1.19397c0 0.864014-0.675507 1.49243-1.5867 1.49243c-0.628387 0-1.0054-0.204254-1.461-0.832642l-5.48273-6.78662l-1.50815 1.41388v4.41446c0 1.11539-0.70694 1.79092-1.69666 1.79092s-1.69666-0.675537-1.69666-1.79092v-19.6844c0-1.11539 0.70694-1.79089 1.69666-1.79089s1.69666 0.675507 1.69666 1.79089v11.7038h0.0314331l6.86517-6.72382c0.424164-0.455566 0.785492-0.628387 1.28821-0.628387c0.832611 0 1.47672 0.644104 1.47672 1.44531c0 0.486999-0.141388 0.801208-0.581238 1.20966l-5.10571 4.83862L507.028 326.77zM514.27 326.77c0 0.282776-0.0313721 0.549866-0.109924 0.879761l-1.38251 5.37277c-0.204224 0.801178-0.628357 1.17822-1.44531 1.17822c-0.801208 0-1.33533-0.486999-1.31961-1.24109c0-0.188507 0.0314026-0.314179 0.0471191-0.392731l1.00543-5.79694c0.172791-1.03683 0.722656-1.44528 1.61813-1.44528C513.642 325.325 514.27 325.875 514.27 326.77zM526.634 317.816c0 5.29422 2.63922 8.64041 6.80237 8.64041c2.76489 0 4.88574-1.17825 5.93829-3.62897c0.377014-0.832642 0.832642-1.17825 1.60242-1.17825c0.958313 0 1.6181 0.659821 1.6181 1.5867c0 0.486999-0.125671 0.942596-0.377014 1.46103c-1.46106 3.06338-4.55585 4.83862-8.76611 4.83862c-6.40961 0-10.4156-4.49301-10.4156-11.7195c0-7.17938 4.0531-11.7038 10.3842-11.7038c4.16315 0 7.49359 2.02655 8.90747 5.37274c0.219971 0.455597 0.329895 0.92688 0.329895 1.35104c0 0.942596-0.628357 1.55527-1.57098 1.55527c-0.832581 0-1.38245-0.408447-1.77521-1.31961c-1.05255-2.5293-3.28333-3.88034-5.89117-3.88034C529.305 309.191 526.634 312.569 526.634 317.816zM580.649 306.049c-4.79254 0-8.28009 3.29904-8.28009 7.85489c0 4.35162 3.25299 7.46216 7.52606 7.46216c2.922 0 5.30988-1.47672 6.22107-3.6918h0.0628662v0.251373c-0.0942993 5.45129-1.97949 8.73465-5.6095 8.73465c-2.02551 0-3.17334-0.754059-4.24164-2.32504c-0.5802-0.801208-1.02008-1.13113-1.75952-1.13113c-0.942566 0-1.50812 0.596985-1.50812 1.44531c0 0.408447 0.0942383 0.785492 0.345642 1.25681c0.911133 1.80661 3.41003 3.67609 7.0694 3.67609c5.71838 0 9.09705-4.47729 9.09705-12.0808c0-2.5293-0.408447-4.65012-1.19397-6.39392C586.885 307.84 584.137 306.049 580.649 306.049zM580.649 318.507c-2.75024 0-4.79254-1.97943-4.79254-4.72864c0-2.63925 2.13654-4.72867 4.83862-4.72867c2.71887 0 4.80725 2.10513 4.80725 4.80722C585.503 316.543 583.429 318.507 580.649 318.507zM609.084 321.681c0 4.6658-3.42474 7.90204-8.32623 7.90204c-3.4101 0-6.33209-1.66525-7.41504-4.16312c-0.21991-0.486999-0.345581-0.958283-0.345581-1.52383c0-0.958313 0.596924-1.53958 1.5542-1.53958c0.770813 0 1.22534 0.314209 1.58777 1.13113c0.737305 1.99512 2.35645 3.14194 4.66473 3.14194c2.84454 0 4.83862-2.01083 4.83862-4.85431c0-2.78064-2.01086-4.74438-4.83862-4.74438c-1.49139 0-2.82776 0.581268-3.70752 1.49243c-0.973999 1.00543-1.30286 1.17825-2.13654 1.17825c-1.11432 0-1.69666-0.801208-1.66522-1.79092c0-0.0942688 0-0.172821 0-0.298492l0.754089-8.73465c0.157105-1.71237 0.973999-2.38791 2.70209-2.38791h9.64581c0.942566 0 1.55634 0.581268 1.55634 1.47675c0 0.895447-0.613769 1.49243-1.55634 1.49243h-9.30023l-0.643066 7.03799h0.0628662c0.988648-1.41388 2.85919-2.24652 5.10461-2.24652C605.988 314.25 609.084 317.329 609.084 321.681zM620.45 306.065c-5.4209 0-8.68854 4.55585-8.68854 11.7352c0 7.22653 3.22156 11.7824 8.68854 11.7824c5.45026 0 8.65509-4.57156 8.65509-11.7981C629.105 310.605 625.869 306.065 620.45 306.065zM620.45 326.629c-3.28436 0-5.1214-3.34619-5.1214-8.82892c0-5.40417 1.88519-8.78177 5.1214-8.78177c3.23627 0 5.10468 3.36191 5.10468 8.78177C625.554 323.299 623.717 326.629 620.45 326.629zM641.138 308.154v19.5116c0 1.06827-0.705872 1.79092-1.7113 1.79092c-1.02222 0-1.72809-0.722656-1.72809-1.79092v-17.6107h-0.0795898l-3.91071 2.73352c-0.345581 0.251343-0.65979 0.361328-1.05359 0.361328c-0.768738 0-1.31964-0.549866-1.31964-1.35104c0-0.581268 0.219971-0.989716 0.879761-1.44531l4.71295-3.34619c0.959351-0.675507 1.47668-0.816894 2.23077-0.816894C640.401 306.191 641.138 306.929 641.138 308.154zM662.115 321.696h-1.79089v-12.8506c0-1.69666-1.05365-2.65494-2.89062-2.65494c-1.47675 0-2.37323 0.628387-3.75568 2.67065c-2.92206 4.24164-5.73303 8.45187-7.33545 11.3268c-0.596985 1.03683-0.785523 1.66522-0.785523 2.46643c0 1.20966 0.800171 1.99515 2.05695 1.99515h9.33166v3.0477c0 1.08398 0.707947 1.75952 1.68201 1.75952c0.988648 0 1.69666-0.675537 1.69666-1.75952v-3.0477h1.79089c0.925842 0 1.53955-0.596954 1.53955-1.47672S663.041 321.696 662.115 321.696zM656.977 321.743h-8.12091v-0.0942688c1.83704-3.28336 4.21027-6.83377 8.05811-12.3479h0.0628052V321.743zM556.722 308.06c-0.471252-1.25677-1.22534-1.82233-2.45068-1.82233c-1.24109 0-2.01086 0.581268-2.46649 1.83804l-6.89661 18.6947c-0.157105 0.424164-0.21991 0.769806-0.21991 1.03687c0 0.958283 0.706909 1.60239 1.75946 1.60239c0.911194 0 1.42963-0.43988 1.75952-1.461l1.7124-4.87006h8.67181l1.72809 4.88577c0.314148 1.0054 0.832581 1.44528 1.77521 1.44528c1.02112 0 1.75946-0.675507 1.75946-1.60239c0-0.298492-0.0628052-0.596985-0.21991-1.03687L556.722 308.06zM550.815 320.204l3.37762-9.94434h0.0942383l3.409 9.94434H550.815z" fill="#F0F0F0" style="fill:#F0F0F0;"/>
</svg>
