<?xml version="1.0" encoding="UTF-8"?>
<!--Generator: Apple Native CoreSVG 361-->
<!DOCTYPE svg
PUBLIC "-//W3C//DTD SVG 1.1//EN"
       "http://www.w3.org/Graphics/SVG/1.1/DTD/svg11.dtd">
<svg version="1.1" xmlns="http://www.w3.org/2000/svg" xmlns:xlink="http://www.w3.org/1999/xlink" viewBox="0 0 1024 1024">
 <defs>
  <linearGradient id="SVGID_1_" x1="651.798" y1="280.366" x2="651.798" y2="192" gradientUnits="userSpaceOnUse">
   <stop offset="0" stop-color="#f097c3" stop-opacity="0"/>
   <stop offset="0.32938" stop-color="#cc7a97" stop-opacity="1"/>
  </linearGradient>
 </defs>
 <g/>
 <g id="pinkband">
  <path d="M471.983 280.366c0.212677-7.84711 0.67453-15.7623 2.06949-23.5223c1.4151-7.87218 3.72452-15.1988 7.36523-22.3513c3.57831-7.02991 8.25406-13.4631 13.8319-19.0409c5.57782-5.5778 12.011-10.2536 19.041-13.8319c7.15247-3.64072 14.4791-5.95013 22.3513-7.36523c7.75995-1.39493 15.6752-1.85678 23.5223-2.06947c3.60107-0.0976105 7.20239-0.13916 10.8045-0.159851C575.245 191.998 579.521 192 583.798 192h136c4.27661 0 8.55261-0.0018005 12.8292 0.0252228c3.60211 0.0206909 7.20349 0.0622406 10.8045 0.159851c7.84711 0.212692 15.7623 0.674545 23.5223 2.06947c7.87219 1.4151 15.1988 3.72452 22.3513 7.36523c7.02991 3.57832 13.4631 8.25409 19.0409 13.8319c5.57782 5.57782 10.2536 12.011 13.8319 19.0409c3.64075 7.15251 5.95013 14.4792 7.36523 22.3513c1.39496 7.75998 1.85681 15.6752 2.06952 23.5223H471.983z" fill="url(#SVGID_1_)" opacity="0.3" style="opacity:0.3;fill:url(#SVGID_1_);"/>
 </g>
</svg>
