<?xml version="1.0" encoding="UTF-8"?>
<!--Generator: Apple Native CoreSVG 361-->
<!DOCTYPE svg
PUBLIC "-//W3C//DTD SVG 1.1//EN"
       "http://www.w3.org/Graphics/SVG/1.1/DTD/svg11.dtd">
<svg version="1.1" xmlns="http://www.w3.org/2000/svg" xmlns:xlink="http://www.w3.org/1999/xlink" viewBox="0 0 1024 1024">
 <g/>
 <g id="green">
  <path d="M571.798 564c0 4.27661 0.00177 8.55261-0.0252075 12.8292c-0.020752 3.60211-0.0622559 7.20349-0.159851 10.8046c-0.212707 7.84705-0.674561 15.7623-2.06952 23.5223c-1.4151 7.87219-3.72449 15.1989-7.36523 22.3513c-3.57831 7.02991-8.25409 13.4631-13.8319 19.041c-5.57776 5.57782-12.011 10.2535-19.0409 13.8318c-7.15253 3.64075-14.4791 5.95013-22.3513 7.36523c-7.75998 1.39496-15.6752 1.85681-23.5223 2.06952c-3.60104 0.0975952-7.20242 0.13916-10.8045 0.159851C468.35 676.002 464.074 676 459.798 676h-196c-4.27664 0-8.55263 0.0018311-12.8293-0.0252075c-3.60213-0.0206909-7.20349-0.0622559-10.8045-0.159851c-7.84708-0.212707-15.7623-0.674561-23.5223-2.06952c-7.87219-1.4151-15.1988-3.72449-22.3513-7.36523c-7.02991-3.57831-13.4631-8.25403-19.0409-13.8318c-5.5778-5.57782-10.2536-12.011-13.8319-19.041c-3.64072-7.15247-5.95012-14.4791-7.36523-22.3513c-1.39493-7.76001-1.85678-15.6752-2.06947-23.5223c-0.0976105-3.60107-0.13916-7.20245-0.159851-10.8046c-0.0270233-4.27661-0.0252228-8.55261-0.0252228-12.8292V368c0-4.27664-0.0018005-8.55261 0.0252228-12.8293c0.0206909-3.60211 0.0622406-7.20346 0.159851-10.8045c0.212692-7.84711 0.674545-15.7623 2.06947-23.5223c1.41512-7.87216 3.72452-15.1988 7.36523-22.3513c3.57832-7.02991 8.25409-13.4631 13.8319-19.0409c5.57782-5.57782 12.011-10.2536 19.0409-13.8319c7.15251-3.64072 14.4792-5.95013 22.3513-7.36523c7.75996-1.39493 15.6752-1.85678 23.5223-2.06949c3.60104-0.0975952 7.20241-0.13913 10.8045-0.159851C255.245 255.998 259.521 256 263.798 256h196c4.27664 0 8.55258-0.0018005 12.8292 0.0252075c3.60211 0.0207214 7.20349 0.0622559 10.8045 0.159851c7.84708 0.212707 15.7623 0.674561 23.5223 2.06949c7.87222 1.4151 15.1988 3.72452 22.3513 7.36523c7.02991 3.57831 13.4631 8.25409 19.0409 13.8319c5.57782 5.57779 10.2536 12.011 13.8319 19.0409c3.64075 7.1525 5.95013 14.4792 7.36523 22.3513c1.39496 7.75998 1.85681 15.6752 2.06952 23.5223c0.0975952 3.60104 0.139099 7.20239 0.159851 10.8045c0.0269775 4.27664 0.0252075 8.55261 0.0252075 12.8293V564z" fill="#79D663" style="fill:#79D663;"/>
 </g>
</svg>
