<?xml version="1.0" encoding="UTF-8"?>
<!--Generator: Apple Native CoreSVG 361-->
<!DOCTYPE svg
PUBLIC "-//W3C//DTD SVG 1.1//EN"
       "http://www.w3.org/Graphics/SVG/1.1/DTD/svg11.dtd">
<svg version="1.1" xmlns="http://www.w3.org/2000/svg" xmlns:xlink="http://www.w3.org/1999/xlink" viewBox="0 0 1024 1024">
 <defs>
  <linearGradient id="SVGID_1_" x1="361.798" y1="344.366" x2="361.798" y2="256" gradientUnits="userSpaceOnUse">
   <stop offset="0" stop-color="#79d663" stop-opacity="0"/>
   <stop offset="0.33" stop-color="#75cf51" stop-opacity="1"/>
  </linearGradient>
 </defs>
 <g/>
 <g id="greenband">
  <path d="M151.983 344.366c0.212692-7.84711 0.674545-15.7623 2.06947-23.5223c1.41512-7.87216 3.72452-15.1988 7.36523-22.3513c3.57832-7.02991 8.25409-13.4631 13.8319-19.0409c5.57782-5.57782 12.011-10.2536 19.0409-13.8319c7.15251-3.64072 14.4792-5.95013 22.3513-7.36523c7.75996-1.39493 15.6752-1.85678 23.5223-2.06949c3.60104-0.0975952 7.20241-0.13913 10.8045-0.159851C255.245 255.998 259.521 256 263.798 256h196c4.27664 0 8.55258-0.0018005 12.8292 0.0252075c3.60211 0.0207214 7.20349 0.0622559 10.8045 0.159851c7.84708 0.212707 15.7623 0.674561 23.5223 2.06949c7.87222 1.4151 15.1988 3.72452 22.3513 7.36523c7.02991 3.57831 13.4631 8.25409 19.0409 13.8319c5.57782 5.57779 10.2536 12.011 13.8319 19.0409c3.64075 7.1525 5.95013 14.4792 7.36523 22.3513c1.39496 7.75998 1.85681 15.6752 2.06952 23.5223H151.983z" fill="url(#SVGID_1_)" style="fill:url(#SVGID_1_);"/>
 </g>
</svg>
