<?xml version="1.0" encoding="UTF-8"?>
<!--Generator: Apple Native CoreSVG 361-->
<!DOCTYPE svg
PUBLIC "-//W3C//DTD SVG 1.1//EN"
       "http://www.w3.org/Graphics/SVG/1.1/DTD/svg11.dtd">
<svg version="1.1" xmlns="http://www.w3.org/2000/svg" xmlns:xlink="http://www.w3.org/1999/xlink" viewBox="0 0 1024 1024">
 <g/>
 <g id="greenlines">
  <path d="M509.503 577.885c0 3.03961-1.43237 5.95136-3.83234 7.79095c-2.6684 2.04688-5.43591 2.20905-8.77637 2.20905h-270.193c-3.34045 0-6.10797-0.16217-8.77637-2.20905c-2.39996-1.8396-3.83234-4.75134-3.83234-7.79095c0-3.03967 1.43237-5.95136 3.83234-7.79102c2.6684-2.04681 5.43591-2.20898 8.77637-2.20898h270.193c3.34045 0 6.10797 0.16217 8.77637 2.20898C508.07 571.933 509.503 574.845 509.503 577.885zM505.671 458.209C503.002 456.162 500.235 456 496.894 456h-270.193c-3.34045 0-6.10797 0.16217-8.77637 2.20898c-2.39996 1.83966-3.83234 4.75134-3.83234 7.79102c0 3.03961 1.43237 5.95136 3.83234 7.79095C220.593 475.838 223.361 476 226.701 476h270.193c3.34045 0 6.10797-0.16217 8.77637-2.20905c2.39996-1.8396 3.83234-4.75134 3.83234-7.79095C509.503 462.96 508.07 460.049 505.671 458.209zM217.925 362.157c2.6684 2.04688 5.43591 2.20905 8.77637 2.20905h270.193c3.34045 0 6.10797-0.16217 8.77637-2.20905c2.39996-1.8396 3.83234-4.75134 3.83234-7.79095c0-3.03967-1.43237-5.95136-3.83234-7.79102c-2.6684-2.04681-5.43591-2.20898-8.77637-2.20898h-270.193c-3.34045 0-6.10797 0.16217-8.77637 2.20898c-2.39996 1.83966-3.83234 4.75134-3.83234 7.79102C214.093 357.406 215.525 360.318 217.925 362.157z" opacity="0.1" style="opacity:0.1;"/>
 </g>
</svg>
