<?xml version="1.0" encoding="UTF-8"?>
<!--Generator: Apple Native CoreSVG 361-->
<!DOCTYPE svg
PUBLIC "-//W3C//DTD SVG 1.1//EN"
       "http://www.w3.org/Graphics/SVG/1.1/DTD/svg11.dtd">
<svg version="1.1" xmlns="http://www.w3.org/2000/svg" xmlns:xlink="http://www.w3.org/1999/xlink" viewBox="0 0 1024 1024">
 <g/>
 <g id="yellowlines">
  <path d="M711.798 762c0 3.03961-1.43237 5.95136-3.83234 7.79095C705.297 771.838 702.53 772 699.189 772H400.406c-3.34045 0-6.10797-0.16217-8.77637-2.20905c-2.39996-1.8396-3.83234-4.75134-3.83234-7.79095c0-3.03967 1.43237-5.95136 3.83234-7.79102C394.299 752.162 397.066 752 400.406 752h298.783c3.34045 0 6.10797 0.16217 8.77637 2.20898C710.365 756.049 711.798 758.96 711.798 762zM711.766 528.267c-22.2852-11.5958-43.3814-15.6156-62.7002-11.9429c-10.475 1.9903-17.0372 5.66534-22.31 8.61841c-5.20123 2.9129-8.95844 5.01685-16.0478 5.74939c-11.2744 1.16614-18.1078-2.53375-26.7615-7.21588c-8.69959-4.70746-18.5595-10.0448-32.9922-9.63794c-22.46 0.631287-37.6945 14.5923-48.8185 24.7865c-3.44485 3.15643-8.46701 7.75885-11.0352 8.93451c-2.05334-4.09332-1.90292-17.5338-1.82797-24.2211c0.0802307-7.20685 0.156647-14.0135-0.672333-19.8412c-1.37912-9.69568-5.49634-15.6337-12.2371-17.6494c-16.0587-4.8063-32.9565 17.1618-59.1966 53.3979c-4.46536 6.16583-9.77783 13.5016-14.4428 19.5098c1.63983-15.6801 6.79138-42.2253 19.3479-77.8669c1.79501-5.09427-0.880096-10.6789-5.97433-12.4735c-5.09473-1.79645-10.6794 0.879608-12.4735 5.97433c-17.1188 48.5897-25.2339 95.0549-18.8761 108.083c1.83896 3.76672 4.63583 5.36743 6.65671 6.04645c1.32275 0.444092 2.60873 0.648498 3.86368 0.648498c7.00436-0.0009766 13.0131-6.37787 18.6092-13.0651c5.56271-6.64813 12.1535-15.7498 19.1311-25.3843c7.98282-11.0242 16.2378-22.4227 23.8735-31.4771c6.03546-7.15576 10.0013-10.7954 12.4238-12.6421c0.542481 4.52792 0.46225 11.7147 0.408295 16.521c-0.201996 18.0553-0.430756 38.5201 15.373 43.4444c11.5757 3.60632 21.0756-5.099 30.2637-13.5187c9.83514-9.01282 20.9825-19.2291 36.1536-19.655c9.18854-0.252136 15.3419 3.07239 23.1342 7.28894c9.75012 5.2757 20.7982 11.2496 38.0808 9.46936c11.1082-1.14801 17.7411-4.86316 23.5936-8.13995c4.86023-2.72186 9.05774-5.07227 16.404-6.46857c14.8998-2.82886 31.7278 0.560608 50.0219 10.0787c4.79242 2.49554 10.6975 0.629394 13.1893-4.16211C718.42 536.664 716.557 530.759 711.766 528.267zM707.965 630.209C705.297 628.162 702.53 628 699.189 628H400.406c-3.34045 0-6.10797 0.16217-8.77637 2.20898c-2.39996 1.83966-3.83234 4.75134-3.83234 7.79102c0 3.03961 1.43237 5.95136 3.83234 7.79095C394.299 647.838 397.066 648 400.406 648h298.783c3.34045 0 6.10797-0.16217 8.77637-2.20905c2.39996-1.8396 3.83234-4.75134 3.83234-7.79095C711.798 634.96 710.365 632.049 707.965 630.209z" opacity="0.2" style="opacity:0.2;"/>
 </g>
</svg>
