<?xml version="1.0" encoding="UTF-8"?>
<!--Generator: Apple Native CoreSVG 361-->
<!DOCTYPE svg
PUBLIC "-//W3C//DTD SVG 1.1//EN"
       "http://www.w3.org/Graphics/SVG/1.1/DTD/svg11.dtd">
<svg version="1.1" xmlns="http://www.w3.org/2000/svg" xmlns:xlink="http://www.w3.org/1999/xlink" viewBox="0 0 1024 1024">
 <g/>
 <g id="chiclet">
  <path d="M1024 651c0 14.243 0.0059204 28.483-0.0839844 42.726c-0.0690308 11.9959-0.207031 23.9899-0.532044 35.9829c-0.708984 26.1331-2.24695 52.494-6.89197 78.337c-4.71301 26.218-12.404 50.618-24.529 74.438c-11.917 23.413-27.489 44.837-46.065 63.413c-18.577 18.577-40.001 34.149-63.414 46.066c-23.82 12.125-48.22 19.816-74.437 24.529c-25.844 4.64496-52.204 6.18298-78.338 6.89197c-11.993 0.325012-23.987 0.463013-35.9829 0.531982c-14.243 0.0900879-28.483 0.0840454-42.726 0.0840454H373c-14.243 0-28.483 0.0060425-42.726-0.0840454c-11.996-0.0689697-23.99-0.20697-35.983-0.531982c-26.133-0.708984-52.494-2.24701-78.337-6.89197c-26.218-4.71301-50.618-12.404-74.438-24.529c-23.412-11.9171-44.837-27.489-63.413-46.066c-18.577-18.576-34.148-40-46.066-63.413c-12.124-23.82-19.816-48.22-24.528-74.438c-4.646-25.843-6.18396-52.204-6.89197-78.337c-0.325989-11.993-0.463989-23.987-0.53302-35.9829C-0.0058991 679.483 8.24e-05 665.243 8.24e-05 651V373c0-14.243-0.0059814-28.483 0.0839844-42.726c0.0690308-11.996 0.207031-23.99 0.53302-35.983c0.708008-26.1331 2.24597-52.494 6.89197-78.337c4.71204-26.218 12.4041-50.618 24.528-74.438C43.9551 118.104 59.5261 96.6791 78.1031 78.1031c18.576-18.577 40.001-34.149 63.413-46.066c23.82-12.124 48.22-19.816 74.438-24.528c25.843-4.646 52.204-6.18396 78.337-6.89294c11.993-0.325012 23.987-0.463013 35.983-0.532043c14.243-0.0899658 28.483-0.0839844 42.726-0.0839844H651c14.243 0 28.483-0.0059814 42.726 0.0839844c11.9959 0.0690308 23.9899 0.207031 35.9829 0.532043c26.134 0.708984 52.494 2.24695 78.338 6.89294c26.217 4.71204 50.617 12.4041 74.437 24.528c23.413 11.917 44.837 27.489 63.414 46.066c18.576 18.576 34.148 40.001 46.065 63.413c12.125 23.82 19.816 48.22 24.529 74.438c4.64502 25.843 6.18298 52.204 6.89197 78.337c0.325012 11.993 0.463013 23.987 0.532044 35.983c0.0899048 14.243 0.0839844 28.483 0.0839844 42.726V651z" fill="#FFFFFF" style="fill:#FFFFFF;"/>
 </g>
</svg>
