<?xml version="1.0" encoding="UTF-8"?>
<!--Generator: Apple Native CoreSVG 361-->
<!DOCTYPE svg
PUBLIC "-//W3C//DTD SVG 1.1//EN"
       "http://www.w3.org/Graphics/SVG/1.1/DTD/svg11.dtd">
<svg version="1.1" xmlns="http://www.w3.org/2000/svg" xmlns:xlink="http://www.w3.org/1999/xlink" viewBox="0 0 1024 1024">
 <defs>
  <linearGradient id="SVGID_1_" x1="512" x2="512" y2="1024" gradientUnits="userSpaceOnUse">
   <stop offset="0" stop-color="#85fa6e" stop-opacity="1"/>
   <stop offset="1" stop-color="#0ed219" stop-opacity="1"/>
  </linearGradient>
 </defs>
 <g/>
 <g id="background.gradient_copy">
  <path clip-rule="evenodd" d="M708.789 0C661.961 0 624 37.9615 624 84.7894V546c0 2.97833 0.0012817 5.95624-0.0175781 8.93463c-0.0144043 2.50861-0.043335 5.01672-0.111328 7.5246c-0.148132 5.4649-0.469727 10.9773-1.44122 16.3816c-0.985535 5.48242-2.59387 10.5849-5.12939 15.5661c-2.492 4.89581-5.74835 9.3761-9.63287 13.2606c-3.88458 3.88458-8.36481 7.14093-13.2607 9.63293c-4.9812 2.53552-10.0837 4.14386-15.5661 5.12939c-5.40424 0.971436-10.9166 1.29309-16.3816 1.44122c-2.50787 0.0679932-5.01593 0.0969238-7.5246 0.111328C551.956 624.001 548.978 624 546 624h-68c-2.97839 0-5.9563 0.0012207-8.93463-0.0175781c-2.50867-0.0144043-5.01672-0.043335-7.5246-0.111328c-5.46497-0.148132-10.9774-0.469788-16.3816-1.44122c-5.48242-0.985535-10.5849-2.59387-15.5661-5.12939c-4.89587-2.492-9.3761-5.74835-13.2607-9.63293c-3.88452-3.88452-7.14087-8.36481-9.63287-13.2606c-2.53552-4.9812-4.14386-10.0837-5.12939-15.5661c-0.971497-5.4043-1.29309-10.9167-1.44122-16.3816c-0.0679932-2.50787-0.0969238-5.01599-0.111328-7.5246C399.999 551.956 400 548.978 400 546V84.7894C400 37.9615 362.038 0 315.211 0H0v1024h1024V0H708.789z" fill="url(#SVGID_1_)" fill-rule="evenodd" style="fill-rule:evenodd;clip-rule:evenodd;fill:url(#SVGID_1_);"/>
 </g>
</svg>
