<?xml version="1.0" encoding="UTF-8"?>
<!--Generator: Apple Native CoreSVG 361-->
<!DOCTYPE svg
PUBLIC "-//W3C//DTD SVG 1.1//EN"
       "http://www.w3.org/Graphics/SVG/1.1/DTD/svg11.dtd">
<svg version="1.1" xmlns="http://www.w3.org/2000/svg" xmlns:xlink="http://www.w3.org/1999/xlink" viewBox="0 0 1024 1024">
 <g/>
 <g id="zip">
  <path clip-rule="evenodd" d="M457.217 552H512v40h-54.7825c-6.68097 0-12.2159-0.324341-17.5528-4.41803C434.865 583.903 432 578.079 432 572s2.86481-11.9027 7.66467-15.582C445.002 552.324 450.536 552 457.217 552zM566.783 552c6.68097 0 12.2159-0.324341 17.5528-4.41803C589.135 543.903 592 538.079 592 532s-2.86481-11.9027-7.66467-15.582C578.998 512.324 573.464 512 566.783 512H512v40H566.783zM457.217 472c-6.68097 0-12.2159 0.32428-17.5528 4.41803C434.865 480.097 432 485.921 432 492s2.86481 11.9027 7.66467 15.582C445.002 511.676 450.536 512 457.217 512H512v-40H457.217zM584.335 467.582C589.135 463.903 592 458.079 592 452s-2.86481-11.9027-7.66467-15.582C578.998 432.324 573.464 432 566.783 432H512v40h54.7825C573.464 472 578.998 471.676 584.335 467.582zM457.217 392c-6.68097 0-12.2159 0.32428-17.5528 4.41803C434.865 400.097 432 405.921 432 412s2.86481 11.9027 7.66467 15.582C445.002 431.676 450.536 432 457.217 432H512v-40H457.217zM584.335 387.582C589.135 383.903 592 378.079 592 372s-2.86481-11.9027-7.66467-15.582C578.998 352.324 573.464 352 566.783 352H512v40h54.7825C573.464 392 578.998 391.676 584.335 387.582z" fill="#DCDCDC" fill-rule="evenodd" style="fill-rule:evenodd;clip-rule:evenodd;fill:#DCDCDC;"/>
 </g>
</svg>
