<?xml version="1.0" encoding="UTF-8"?>
<!--Generator: Apple Native CoreSVG 361-->
<!DOCTYPE svg
PUBLIC "-//W3C//DTD SVG 1.1//EN"
       "http://www.w3.org/Graphics/SVG/1.1/DTD/svg11.dtd">
<svg version="1.1" xmlns="http://www.w3.org/2000/svg" xmlns:xlink="http://www.w3.org/1999/xlink" viewBox="0 0 1024 1024">
 <g/>
 <g id="pen">
  <path d="M449.024 698.109c-2.23206 2.23212-4.46259 4.46326-6.71252 6.70422c-1.89371 1.88684-3.80078 3.78009-5.74475 5.69171c-4.23608 4.16559-8.67236 8.44867-13.6441 12.9579c-5.04361 4.57434-10.3934 9.15833-16.5318 14.0895c-6.03323 4.84668-12.4801 9.7431-19.0764 14.4899c-6.59637 4.74683-13.2871 9.30432-19.7993 13.4854c-6.6257 4.25403-12.6717 7.87048-18.6113 11.1998c-5.85495 3.2818-11.3255 6.12769-16.6209 8.82111c-2.43008 1.23602-4.83115 2.44287-7.2218 3.6391c-2.83963 1.42157-5.66376 2.82776-8.48926 4.23523l-81.9012 40.7956c-3.4301 1.70856-6.86037 3.41833-10.2797 5.10522c-2.88083 1.42249-5.75272 2.82794-8.60196 4.18829c-6.20882 2.96442-12.3728 5.75616-18.0394 7.73755c-5.74857 2.01001-10.7023 3.08484-14.9845 3.02228c-4.2088-0.0615234-7.50056-1.24158-9.74588-3.48694c-2.24532-2.2453-3.42542-5.53705-3.48689-9.74585c-0.062561-4.28223 1.01224-9.23596 3.02226-14.9845c1.98137-5.66663 4.77315-11.8306 7.73755-18.0394c1.36037-2.84924 2.76582-5.72113 4.18831-8.60199c1.68689-3.41931 3.39662-6.84955 5.10518-10.2797l40.7956-81.9012c1.40741-2.8255 2.81366-5.6496 4.23518-8.4892c1.19623-2.39069 2.40309-4.79175 3.63911-7.22186c2.69342-5.29547 5.53932-10.766 8.82112-16.6209c3.32925-5.93964 6.94574-11.9855 11.1997-18.6113c4.18109-6.51221 8.73862-13.2029 13.4854-19.7993s9.64319-13.0432 14.4899-19.0764c4.93118-6.13843 9.51514-11.4882 14.0895-16.5318c4.50919-4.97168 8.7923-9.40796 12.9579-13.644c1.91159-1.94397 3.80487-3.85107 5.69174-5.74475c2.24097-2.24994 4.47208-4.48047 6.70416-6.71252c0 0 111.239-111.24 182.517-182.517s187.091-179.717 187.091-179.717c19.3671-19.3671 43.6896-37.1033 69.8997-40.5583c23.5659-3.11449 47.7129 5.10834 64.6088 22.0043c16.896 16.896 25.1188 41.0429 22.0043 64.6089c-3.45496 26.21-21.1912 50.5326-40.5583 69.8997c0 0-108.439 115.814-179.717 187.091C560.263 586.869 449.024 698.109 449.024 698.109z" fill="#F58B34" style="fill:#F58B34;"/>
 </g>
</svg>
