<?xml version="1.0" encoding="UTF-8"?>
<!--Generator: Apple Native CoreSVG 361-->
<!DOCTYPE svg
PUBLIC "-//W3C//DTD SVG 1.1//EN"
       "http://www.w3.org/Graphics/SVG/1.1/DTD/svg11.dtd">
<svg version="1.1" xmlns="http://www.w3.org/2000/svg" xmlns:xlink="http://www.w3.org/1999/xlink" viewBox="0 0 1024 1024">
 <g/>
 <g id="key.back">
  <path d="M857.612 770.483l-17.5253 49.8029c-1.80743 5.13635-5.39319 9.45642-10.1088 12.179l-12.0261 6.94324c-7.87927 4.54907-17.5709 5.19379-25.9312 1.72577c-9.2995-3.85364-13.7668-10.8396-18.7662-19.4987L653.227 613.741c-4.43256 2.55914-9.8847 2.92181-14.5879 0.970825c-5.23151-2.16791-7.74469-6.0979-10.5571-10.9692l-9.27356-16.0623c-61.9318 5.58862-124.396-24.392-157.375-81.9318C416.392 427.163 443.217 327.418 521.538 282c78.377-45.4507 177.933-19.3692 223.914 58.6982c33.8591 57.4872 28.7091 126.981-7.26386 178.058l9.27356 16.0623h-6.1e-05c2.81244 4.87128 4.95935 9.01276 4.22107 14.6274c-0.662048 5.04852-3.70221 9.58887-8.13477 12.148l40.0286 69.3315c3.94495 6.83282 3.68152 15.1727-0.2323 22.0303c-3.87488 6.78955-4.13855 15.0477-0.229858 21.8179l5.64246 9.77301c4.01324 6.95111 11.4513 11.2161 19.4855 11.1617c7.70728-0.0521851 14.9157 3.77423 18.7695 10.4491l28.6685 49.6552C858.244 760.253 858.939 765.53 857.612 770.483z" fill="#969696" style="fill:#969696;"/>
 </g>
</svg>
