<?xml version="1.0" encoding="UTF-8"?>
<!--Generator: Apple Native CoreSVG 361-->
<!DOCTYPE svg
PUBLIC "-//W3C//DTD SVG 1.1//EN"
       "http://www.w3.org/Graphics/SVG/1.1/DTD/svg11.dtd">
<svg version="1.1" xmlns="http://www.w3.org/2000/svg" xmlns:xlink="http://www.w3.org/1999/xlink" viewBox="0 0 1024 1024">
 <g/>
 <g id="key.middle">
  <path d="M561.118 608.753l23.705 23.705c0.713013 0.713257 1.42645 1.42603 2.13483 2.14362c0.597412 0.604065 1.1911 1.21155 1.77515 1.82831c1.27307 1.34399 2.51569 2.74084 3.57739 4.26746c1.07684 1.54858 1.91327 3.15546 2.49866 4.9552c0.575745 1.76904 0.868652 3.6214 0.868652 5.48157c0 1.86023-0.292908 3.71259-0.868652 5.48157c-0.585388 1.79974-1.42181 3.40662-2.49866 4.95526c-1.06171 1.52661-2.30432 2.92346-3.57739 4.26746c-0.584045 0.616699-1.17773 1.22424-1.77515 1.82831c-0.708374 0.71759-1.42181 1.43036-2.13483 2.14355l-23.7719 23.7716l23.7719 23.7717c0.713013 0.713135 1.42645 1.4259 2.13483 2.14349c0.597412 0.604065 1.1911 1.21155 1.77515 1.82831c1.27307 1.34399 2.51569 2.74084 3.57739 4.26746c1.07684 1.54858 1.91327 3.15546 2.49866 4.9552c0.575745 1.76904 0.868652 3.6214 0.868652 5.48157c0 1.86023-0.292908 3.71259-0.868652 5.48157c-0.585388 1.7998-1.42181 3.40668-2.49866 4.95526c-1.06171 1.52661-2.30432 2.92346-3.57739 4.26746c-0.584045 0.61676-1.17773 1.22424-1.77515 1.82831c-0.708374 0.71759-1.42181 1.43036-2.13483 2.14343l-23.7719 23.7718l25.7612 25.7611c0.338501 0.338501 0.677063 0.676819 1.01556 1.01837c0.285095 0.287415 0.570252 0.577087 0.855347 0.873047c0.62085 0.645019 1.24774 1.32324 1.86169 2.09357c0.623169 0.781616 1.20306 1.62 1.7691 2.59381c0.556396 0.956848 1.0658 1.98962 1.50751 3.05554c0.441223 1.0658 0.811523 2.15613 1.09479 3.22632c0.28833 1.08893 0.470764 2.09186 0.58313 3.08514c0.110107 0.978943 0.146912 1.90161 0.163513 2.79688c0.0078125 0.410889 0.0110474 0.817322 0.0128784 1.22217c0.0018311 0.480896 0.0018311 0.959412 0.0018311 1.43811v5.65991c0 0.478638 0 0.957214-0.0018311 1.43805c-0.0018311 0.404846-0.0050659 0.81134-0.0128784 1.22217c-0.0166016 0.895264-0.0534058 1.81793-0.163513 2.79694c-0.112366 0.993286-0.2948 1.99622-0.58313 3.08514c-0.283264 1.07019-0.653564 2.16046-1.09479 3.22632c-0.441711 1.06586-0.951111 2.09863-1.50751 3.05548c-0.56604 0.973816-1.14594 1.81219-1.7691 2.59381c-0.613953 0.770325-1.24084 1.44855-1.86169 2.09363c-0.285095 0.295898-0.570252 0.585632-0.855347 0.873047c-0.338501 0.341492-0.677063 0.67981-1.01556 1.01837l-56.136 56.1357c-0.713013 0.713257-1.42554 1.42657-2.14355 2.13519c-0.603821 0.59729-1.21136 1.19073-1.82806 1.77502c-1.34399 1.27301-2.74097 2.51593-4.26739 3.57727c-1.54895 1.07672-3.15546 1.91339-4.95544 2.4989c-1.76868 0.575623-3.62115 0.86853-5.48145 0.86853s-3.71277-0.292908-5.48145-0.86853c-1.79999-0.58551-3.40649-1.42218-4.95544-2.4989c-1.52643-1.06134-2.9234-2.30426-4.26739-3.57727c-0.616699-0.58429-1.22424-1.17773-1.82806-1.77502c-0.718018-0.708618-1.43054-1.42194-2.14355-2.13519l-23.0183-23.0178c-0.713013-0.713257-1.42603-1.42578-2.13898-2.14532c-0.600647-0.60553-1.20123-1.21582-1.80182-1.83936c-1.30853-1.35864-2.6286-2.78748-3.92236-4.41034c-1.31268-1.64648-2.53418-3.41284-3.72711-5.46411c-1.17218-2.01599-2.24487-4.19135-3.17529-6.43689c-0.929932-2.24536-1.70966-4.54211-2.30615-6.79669c-0.607056-2.2937-0.992554-4.40668-1.22839-6.49915c-0.232605-2.0625-0.309509-4.00604-0.344971-5.89203c-0.0161133-0.865479-0.0230103-1.72168-0.0267334-2.57458c-0.0045776-1.01306-0.0041504-2.02118-0.0041504-3.0296v-73.5762v-62.2567v-22.6388v-62.2567v-15.2344c-60.7738-24.0518-103.761-83.3399-103.761-152.67c0-90.6472 73.484-164.131 164.131-164.131s164.131 73.4841 164.131 164.131C676.131 525.638 627.77 587.876 561.118 608.753z" fill="#BEBEBE" style="fill:#BEBEBE;"/>
 </g>
</svg>
