<?xml version="1.0" encoding="UTF-8"?>
<!--Generator: Apple Native CoreSVG 361-->
<!DOCTYPE svg
PUBLIC "-//W3C//DTD SVG 1.1//EN"
       "http://www.w3.org/Graphics/SVG/1.1/DTD/svg11.dtd">
<svg version="1.1" xmlns="http://www.w3.org/2000/svg" xmlns:xlink="http://www.w3.org/1999/xlink" viewBox="0 0 1024 1024">
 <g/>
 <g id="key.front">
  <path d="M502.428 282c-78.5029-45.3237-178.884-18.4266-224.208 60.0762c-38.9995 67.5491-24.5239 151.295 30.2879 202.226l-40.7419 70.5671l-82.0657 142.142l-7.93964 13.7518c-6.14447 10.6425-10.7184 19.7578-9.10547 32.0243c1.44635 11.0298 8.08832 20.9493 17.7723 26.5404c9.68402 5.59106 21.5956 6.38342 31.8708 2.12109c11.4296-4.73639 17.0367-13.2552 23.1812-23.8978l7.93958-13.7518l24.5073 14.1493c0.873535 0.504333 1.74652 1.00873 2.6228 1.50739c0.738403 0.420593 1.47888 0.836792 2.22552 1.24127c1.62781 0.881836 3.29889 1.72101 5.0481 2.35101c1.77435 0.639099 3.54327 1.03149 5.43323 1.13135c1.85748 0.0980835 3.72272-0.0982666 5.51965-0.579773c1.79651-0.481689 3.50989-1.24408 5.07001-2.25775c1.58685-1.03143 2.92218-2.25549 4.13965-3.69635c1.19977-1.42029 2.22717-2.98242 3.19592-4.55994c0.444519-0.723877 0.877564-1.45459 1.30664-2.18768c0.509888-0.870239 1.01361-1.74365 1.51794-2.61719l55.6536-96.3949c0.504273-0.873413 1.00885-1.74646 1.50751-2.62305c0.42041-0.73822 0.83667-1.47864 1.24127-2.22546c0.881775-1.62769 1.72095-3.29865 2.35114-5.04779c0.638977-1.77466 1.03149-3.54327 1.13129-5.43323c0.0977173-1.85779-0.0986328-3.72296-0.579712-5.51965c-0.481567-1.79681-1.24414-3.51031-2.25775-5.07001c-1.03143-1.58685-2.25574-2.92255-3.69635-4.13965c-1.42035-1.19977-2.98254-2.22748-4.56012-3.19629c-0.723633-0.444336-1.45435-0.87738-2.18781-1.30658c-0.869995-0.509583-1.74335-1.01331-2.61688-1.51764l-24.5073-14.1493l40.7419-70.5671c71.5137 22.0027 151.278-7.33386 190.277-74.883C607.828 427.705 580.931 327.324 502.428 282zM485.548 394.246c-11.4612 19.8513-36.8447 26.653-56.6962 15.1917c-19.8515-11.4612-26.6529-36.8449-15.1917-56.6962c11.4611-19.8513 36.8447-26.653 56.6962-15.1917C490.208 349.011 497.009 374.395 485.548 394.246z" fill="#E6E6E6" style="fill:#E6E6E6;"/>
 </g>
</svg>
