<?xml version="1.0" encoding="UTF-8"?>
<!--Generator: Apple Native CoreSVG 361-->
<!DOCTYPE svg
PUBLIC "-//W3C//DTD SVG 1.1//EN"
       "http://www.w3.org/Graphics/SVG/1.1/DTD/svg11.dtd">
<svg version="1.1" xmlns="http://www.w3.org/2000/svg" xmlns:xlink="http://www.w3.org/1999/xlink" viewBox="0 0 1024 1024">
 <g/>
 <g id="key.details">
  <path d="M839.739 820.486l1.06281-3.02039L710.111 591.103c-2.44025-4.22656-7.84479-5.6745-12.0712-3.23401h-6.1e-05c-4.22638 2.44049-5.67395 7.84509-3.23322 12.0714l134.51 232.906C837.477 828.273 839.739 820.486 839.739 820.486z"/>
  <path d="M521.188 917.135V612.927c0-3.50275-4.3042-5.17822-6.67236-2.59729v6.1e-05c-7.52716 8.20355-11.7034 18.9322-11.7034 30.0658v276.738c0 0 3.6427 2.5614 9.18787 2.5614S521.188 917.135 521.188 917.135z"/>
  <rect height="164.131" transform="matrix(0.8660254 0.5 -0.5 0.8660254 403.7302246 -51.8517075)" width="18.8657" x="289.189" y="645.379"/>
 </g>
</svg>
