<?xml version="1.0" encoding="UTF-8"?>
<!--Generator: Apple Native CoreSVG 361-->
<!DOCTYPE svg
PUBLIC "-//W3C//DTD SVG 1.1//EN"
       "http://www.w3.org/Graphics/SVG/1.1/DTD/svg11.dtd">
<svg version="1.1" xmlns="http://www.w3.org/2000/svg" xmlns:xlink="http://www.w3.org/1999/xlink" viewBox="0 0 1024 1024">
 <g/>
 <g id="ring.front">
  <path d="M658 262c0 2.26178-0.0592651 4.50983-0.16156 6.74683c-7.77875-2.69934-15.7489-4.81635-23.8439-6.31952C633.995 262.285 634 262.143 634 262c0-67.271-54.7285-122-122-122c-67.271 0-122 54.729-122 122c0 59.838 43.3037 109.75 100.218 120.05c-0.881348 4.18018-2.41791 8.29529-4.66992 12.1959c-2.13568 3.6991-4.75586 6.9436-7.73248 9.7027C413.749 388.519 366 330.736 366 262c0-80.5049 65.4951-146 146-146S658 181.495 658 262z" fill="#FFFFFF" style="fill:#FFFFFF;"/>
 </g>
</svg>
