<?xml version="1.0" encoding="UTF-8"?>
<!--Generator: Apple Native CoreSVG 361-->
<!DOCTYPE svg
PUBLIC "-//W3C//DTD SVG 1.1//EN"
       "http://www.w3.org/Graphics/SVG/1.1/DTD/svg11.dtd">
<svg version="1.1" xmlns="http://www.w3.org/2000/svg" xmlns:xlink="http://www.w3.org/1999/xlink" viewBox="0 0 1024 1024">
 <defs>
  <linearGradient id="SVGID_1_" x1="512" y1="841.356" x2="512" y2="239.64" gradientUnits="userSpaceOnUse">
   <stop offset="0" stop-color="#969696" stop-opacity="1"/>
   <stop offset="1" stop-color="#c8c8c8" stop-opacity="1"/>
  </linearGradient>
 </defs>
 <g/>
 <g id="drive.body">
  <g>
   <path d="M253.697 385.641" fill="#FFFFFF" style="fill:#FFFFFF;"/>
  </g>
  <g>
   <path d="M253.697 385.641" fill="#FFFFFF" style="fill:#FFFFFF;"/>
  </g>
  <g>
   <path d="M768.003 841.356H255.997V316.222c0-2.92422-0.0012207-5.84799 0.0172577-8.77222c0.0141602-2.46301 0.0425415-4.92551 0.109283-7.38779c0.145447-5.3656 0.461243-10.7778 1.41504-16.0838c0.967621-5.38275 2.54672-10.3925 5.03613-15.2831c2.44675-4.80682 5.64389-9.20563 9.45779-13.0196c3.81393-3.81393 8.21277-7.01108 13.0196-9.45781c4.89066-2.48941 9.90039-4.06851 15.2831-5.03612c5.306-0.953812 10.7182-1.26961 16.0838-1.41504c2.46228-0.0667419 4.92477-0.0951538 7.38779-0.109299c2.92426-0.0184784 5.84799-0.0172577 8.77225-0.0172577h358.842c2.92419 0 5.84796-0.0012207 8.77222 0.0172577c2.46301 0.0141449 4.92548 0.0425568 7.38776 0.109299c5.3656 0.145431 10.7778 0.461227 16.0838 1.41504c5.38275 0.967606 10.3925 2.54671 15.2831 5.03612c4.80682 2.44673 9.20563 5.64388 13.0196 9.45781c3.8139 3.81393 7.01105 8.21274 9.45782 13.0196c2.48938 4.89066 4.06848 9.90039 5.03607 15.2831c0.953857 5.30603 1.26965 10.7182 1.41504 16.0838c0.0667725 2.46228 0.0951538 4.92477 0.109314 7.38779c0.0184937 2.92422 0.0172729 5.84799 0.0172729 8.77222V841.356z" fill="url(#SVGID_1_)" style="fill:url(#SVGID_1_);"/>
  </g>
 </g>
</svg>
