<?xml version="1.0" encoding="UTF-8"?>
<!--Generator: Apple Native CoreSVG 361-->
<!DOCTYPE svg
PUBLIC "-//W3C//DTD SVG 1.1//EN"
       "http://www.w3.org/Graphics/SVG/1.1/DTD/svg11.dtd">
<svg version="1.1" xmlns="http://www.w3.org/2000/svg" xmlns:xlink="http://www.w3.org/1999/xlink" viewBox="0 0 1024 1024">
 <g/>
 <g id="drive.ports">
  <circle cx="713.301" cy="841.356" r="21.8806"/>
  <circle cx="647.66" cy="841.356" r="21.8806"/>
  <circle cx="582.018" cy="841.356" r="21.8806"/>
  <path d="M406.212 821.664c6.57825 0 12.0281 0.319336 17.2829 4.3501c4.72607 3.62268 7.54684 9.35663 7.54684 15.3424c0 5.98584-2.82077 11.7197-7.54684 15.3425c-5.25479 4.0307-10.7047 4.35004-17.2829 4.35004h-90.3762c-6.57822 0-12.0281-0.319336-17.2829-4.35004c-4.7261-3.62274-7.54684-9.35663-7.54684-15.3425c0-5.98578 2.82074-11.7197 7.54684-15.3424c5.25476-4.03076 10.7047-4.3501 17.2829-4.3501H406.212z"/>
 </g>
</svg>
