<?xml version="1.0" encoding="UTF-8"?>
<!--Generator: Apple Native CoreSVG 361-->
<!DOCTYPE svg
PUBLIC "-//W3C//DTD SVG 1.1//EN"
       "http://www.w3.org/Graphics/SVG/1.1/DTD/svg11.dtd">
<svg version="1.1" xmlns="http://www.w3.org/2000/svg" xmlns:xlink="http://www.w3.org/1999/xlink" viewBox="0 0 1024 1024">
 <g/>
 <g id="arrow">
  <g>
   <path d="M551.926 376.951h-79.8521c-18.2955 0-33.127-14.8315-33.127-33.127V149.628c0-18.2955 14.8314-33.127 33.127-33.127h79.8521c18.2955 0 33.127 14.8314 33.127 33.127v194.196C585.053 362.119 570.222 376.951 551.926 376.951z" fill="#4C4C4C" style="fill:#4C4C4C;"/>
   <g>
    <path d="M365.779 315.641H657.125c6.08759 0 11.3535 2.04056 15.7999 6.1192c4.44427 4.08163 6.66742 9.34708 6.66742 15.8003c0 4.38412-1.03632 8.37396-3.10498 11.9645c-2.07269 3.59308-5.42047 7.82568-10.0463 12.6949L531.636 506.34c-3.28754 3.53037-6.60724 5.96518-9.95502 7.30649c-3.35077 1.33881-6.60724 2.00946-9.77246 2.00946c-2.92239 0-6.09058-0.670654-9.49857-2.00946c-3.40994-1.34131-6.75772-3.77612-10.0463-7.30649L356.281 362.22c-4.01892-4.38409-7.00354-8.55353-8.95081-12.5123c-1.94928-3.95572-2.92239-8.12866-2.92239-12.5123c0-6.21048 2.00946-11.3535 6.02838-15.4352C354.454 317.682 359.568 315.641 365.779 315.641z" fill="#4C4C4C" style="fill:#4C4C4C;"/>
   </g>
  </g>
 </g>
</svg>
