<?xml version="1.0" encoding="UTF-8"?>
<!--Generator: Apple Native CoreSVG 361-->
<!DOCTYPE svg
PUBLIC "-//W3C//DTD SVG 1.1//EN"
       "http://www.w3.org/Graphics/SVG/1.1/DTD/svg11.dtd">
<svg version="1.1" xmlns="http://www.w3.org/2000/svg" xmlns:xlink="http://www.w3.org/1999/xlink" viewBox="0 0 1024 1024">
 <defs/>
 <title>2_S Glyph</title>
 <g fill="none" fill-rule="evenodd" id="2_S-Glyph" stroke="none" href="#path-1">
  <path d="M478.413 329.084C477.747 329.696 414.48 390.026 381.155 426.673C365.415 444.078 357.468 466.28 358.852 489.248C360.39 513.594 372.131 536.409 392.024 553.559C418.223 576.17 469.851 581.065 502.151 552.232C521.377 535.031 544.705 509.766 544.961 509.511C561.06 492.055 588.336 490.933 605.87 507.01C623.353 523.037 624.532 550.292 608.433 567.748C607.357 568.871 582.029 596.229 559.676 616.236C528.555 644.155 487.283 658.141 446.062 658.141C406.123 658.141 366.286 644.972 335.678 618.635C298.046 586.22 275.744 542.131 272.822 494.454C270.002 448.212 285.793 403.603 317.324 368.946C352.7 330.003 416.121 269.469 418.838 266.917C436.013 250.482 463.289 251.145 479.746 268.295C496.204 285.444 495.589 312.649 478.413 329.084L478.413 329.084ZM706.717 655.078C671.341 694.022 607.869 754.556 605.152 757.154C596.846 765.07 586.131 769 575.416 769C564.034 769 552.703 764.565 544.244 755.73C527.786 738.529 528.401 711.376 545.628 694.941C546.243 694.328 609.51 633.947 642.835 597.301C658.575 579.947 666.522 557.693 665.138 534.725C663.6 510.43 651.859 487.564 631.915 470.465C605.767 447.906 554.139 442.904 521.839 471.792C502.613 488.942 479.285 514.207 479.08 514.513C462.93 531.969 435.706 533.092 418.171 517.065C400.637 500.987 399.458 473.783 415.557 456.276C416.633 455.102 441.909 427.745 464.314 407.737C525.633 352.869 626.121 351.797 688.312 405.338C725.944 437.749 748.246 481.898 751.168 529.519C754.039 575.813 738.197 620.422 706.717 655.078L706.717 655.078Z" fill="#FFFFFE" id="Logo"/>
 </g>
</svg>
