<?xml version="1.0" encoding="UTF-8"?>
<!--Generator: Apple Native CoreSVG 361-->
<!DOCTYPE svg
PUBLIC "-//W3C//DTD SVG 1.1//EN"
       "http://www.w3.org/Graphics/SVG/1.1/DTD/svg11.dtd">
<svg version="1.1" xmlns="http://www.w3.org/2000/svg" xmlns:xlink="http://www.w3.org/1999/xlink" viewBox="0 0 1026 1026">
 <g/>
 <g id="chip.top">
  <path d="M348.386 857.61c0 1.50366-0.0006104 3.00714 0.0088806 4.5108c0.0072632 1.26654 0.0218811 2.53278 0.0562134 3.79889c0.0747681 2.75909 0.237152 5.54211 0.727631 8.27057c0.497559 2.76788 1.30954 5.34393 2.58963 7.85883c1.25815 2.47174 2.90216 4.73364 4.86334 6.69482s4.22311 3.60522 6.69489 4.86334c2.51483 1.28009 5.09091 2.0921 7.8588 2.58966c2.72845 0.490478 5.51147 0.652832 8.27054 0.727661c1.26614 0.0343018 2.53238 0.0488892 3.79889 0.0561523c1.50369 0.0095215 3.00714 0.0089111 4.51083 0.0089111h246.138c1.50372 0 3.00714 0.0006104 4.51086-0.0089111c1.26648-0.0072632 2.53278-0.0218506 3.79889-0.0561523c2.75903-0.0748291 5.54211-0.237183 8.27051-0.727661c2.76788-0.497559 5.34399-1.30957 7.85883-2.58966c2.47174-1.25812 4.7337-2.90216 6.69489-4.86334s3.60516-4.22308 4.86334-6.69482c1.28009-2.51489 2.09204-5.09094 2.5896-7.85883c0.490478-2.72845 0.652893-5.51147 0.727661-8.27057c0.0343018-1.26611 0.0489502-2.53235 0.0562134-3.79889c0.0095215-1.50366 0.0088501-3.00714 0.0088501-4.5108v-245.592c0-1.50366 0.0006714-3.00708-0.0088501-4.5108c-0.0072632-1.26648-0.0219116-2.53278-0.0562134-3.79889c-0.0747681-2.75909-0.237183-5.54211-0.727661-8.27051c-0.497559-2.76788-1.30951-5.34399-2.5896-7.85883c-1.25818-2.47174-2.90216-4.7337-4.86334-6.69489s-4.22314-3.60516-6.69489-4.86334c-2.51483-1.28009-5.09094-2.0921-7.85883-2.58966c-2.72839-0.490418-5.51147-0.652832-8.27051-0.7276c-1.26611-0.0343018-2.53241-0.0489502-3.79889-0.0562134c-1.50372-0.0095215-3.00714-0.0088501-4.51086-0.0088501H387.766c-1.50369 0-3.00714-0.0006714-4.51083 0.0088501c-1.26651 0.0072632-2.53275 0.0219116-3.79889 0.0562134c-2.75906 0.0747681-5.54208 0.237183-8.27054 0.7276c-2.76788 0.497559-5.34396 1.30957-7.8588 2.58966c-2.47177 1.25818-4.7337 2.90216-6.69489 4.86334s-3.60519 4.22314-4.86334 6.69489c-1.28009 2.51483-2.09207 5.09094-2.58963 7.85883c-0.490478 2.72839-0.652863 5.51141-0.727631 8.27051c-0.0343323 1.26611-0.0489502 2.53241-0.0562134 3.79889c-0.009491 1.50372-0.0088806 3.00714-0.0088806 4.5108V857.61z" fill="#44494D" style="fill:#44494D;"/>
 </g>
</svg>
