<?xml version="1.0" encoding="UTF-8"?>
<!--Generator: Apple Native CoreSVG 361-->
<!DOCTYPE svg
PUBLIC "-//W3C//DTD SVG 1.1//EN"
       "http://www.w3.org/Graphics/SVG/1.1/DTD/svg11.dtd">
<svg version="1.1" xmlns="http://www.w3.org/2000/svg" xmlns:xlink="http://www.w3.org/1999/xlink" viewBox="0 0 1026 1026">
 <g/>
 <g id="apple.logo">
  <g>
   <path d="M528.598 678.498c4.44562-5.27466 7.59039-12.5934 7.59039-19.9122c0-0.773315-0.0498047-1.55493-0.155701-2.24994c-0.0546875-0.358704-0.37854-0.614929-0.740479-0.589477c-7.09845 0.499329-15.3622 4.95575-20.4026 10.8014c-4.07391 4.63141-7.87625 11.9502-7.87625 19.369c0 0.783691 0.0918274 1.56744 0.176178 2.08801c0.0491943 0.303772 0.292145 0.538086 0.596954 0.580017c0.418549 0.0576172 0.930542 0.105103 1.44254 0.105103C515.718 688.69 523.88 684.345 528.598 678.498z" fill="#828D93" style="fill:#828D93;"/>
   <g>
    <path d="M559.888 705.168c0.216614 0.29834 0.141968 0.717102-0.165832 0.920105c-2.83893 1.87213-14.9105 10.2042-14.9105 26.8591c0 19.2676 15.366 27.2258 18.6022 28.6627c0.33728 0.149719 0.509033 0.526428 0.401733 0.879517c-0.72583 2.3891-3.67664 10.9468-9.64105 19.645c-6.11804 8.80536-12.5077 17.5964-22.2279 17.5964s-12.2217-5.6463-23.4429-5.6463c-10.9353 0-14.8234 5.83215-23.7145 5.83215s-15.0949-8.14783-22.2279-18.154c-8.26221-11.75-14.9377-30.004-14.9377-47.3289c0-27.7884 18.0682-42.526 35.8505-42.526c9.44864 0 17.3249 6.2038 23.2571 6.2038c5.64633 0 14.4517-6.57544 25.2011-6.57544C535.952 691.536 550.253 691.898 559.888 705.168z" fill="#828D93" style="fill:#828D93;"/>
   </g>
  </g>
 </g>
</svg>
