<?xml version="1.0" encoding="UTF-8"?>
<!--Generator: Apple Native CoreSVG 361-->
<!DOCTYPE svg
PUBLIC "-//W3C//DTD SVG 1.1//EN"
       "http://www.w3.org/Graphics/SVG/1.1/DTD/svg11.dtd">
<svg version="1.1" xmlns="http://www.w3.org/2000/svg" xmlns:xlink="http://www.w3.org/1999/xlink" viewBox="0 0 1024 1024">
 <g/>
 <g id="circle.dropper.intersection">
  <path d="M359.418 709.82c-8.53995-20.3831-24.8542-36.6974-45.2373-45.2373c-0.0015259 0.0031738-0.0028687 0.0062256-0.0043945 0.0093994c-5.39532 11.3622-13.4498 23.3534-26.6604 36.564l-18.9444 18.9443c-5.9007 5.9007-10.5029 11.0757-11.6008 19.405c-0.989761 7.48889 1.62332 15.1625 6.99265 20.5319c5.36926 5.36926 13.043 7.98242 20.5319 6.99268c8.32919-1.09796 13.5043-5.70013 19.405-11.6008l18.9443-18.9443c13.2106-13.2106 25.2018-21.2651 36.564-26.6604C359.411 709.823 359.414 709.821 359.418 709.82z" fill="#801F00" style="fill:#801F00;"/>
 </g>
</svg>
