<?xml version="1.0" encoding="UTF-8"?>
<!--Generator: Apple Native CoreSVG 361-->
<!DOCTYPE svg
PUBLIC "-//W3C//DTD SVG 1.1//EN"
       "http://www.w3.org/Graphics/SVG/1.1/DTD/svg11.dtd">
<svg version="1.1" xmlns="http://www.w3.org/2000/svg" xmlns:xlink="http://www.w3.org/1999/xlink" viewBox="0 0 1024 1024">
 <g/>
 <g id="eyedropper.color">
  <path d="M372.191 548.767l-8.83218 8.83215c-41.6225 41.6225-32.1505 71.1603-49.1491 106.959c-5.39532 11.3622-13.4498 23.3534-26.6604 36.564l-18.9444 18.9443c-5.9007 5.9007-10.5029 11.0757-11.6008 19.405c-0.989746 7.48889 1.62332 15.1625 6.99268 20.5319c5.36926 5.36926 13.043 7.98242 20.5319 6.99268c8.32922-1.09796 13.5043-5.70013 19.405-11.6008l18.9443-18.9443c13.2106-13.2106 25.2018-21.2651 36.564-26.6604c35.7986-16.9987 65.3364-7.52661 106.959-49.1491l111.874-111.874C455.985 586.349 372.191 548.767 372.191 548.767z" fill="#F03A00" style="fill:#F03A00;"/>
 </g>
</svg>
