<?xml version="1.0" encoding="UTF-8"?>
<!--Generator: Apple Native CoreSVG 361-->
<!DOCTYPE svg
PUBLIC "-//W3C//DTD SVG 1.1//EN"
       "http://www.w3.org/Graphics/SVG/1.1/DTD/svg11.dtd">
<svg version="1.1" xmlns="http://www.w3.org/2000/svg" xmlns:xlink="http://www.w3.org/1999/xlink" viewBox="0 0 1024 1024">
 <g/>
 <g id="eyedropper.handle.top">
  <path d="M839.527 184.474l-0.0001831-0.0001831c-35.9167-35.9167-95.205-32.1476-126.284 8.02811L624.774 306.863c-2.03278 2.62772-5.91052 2.87424-8.2597 0.525085l0 0c-0.899353-0.899353-1.79816-1.79895-2.70319-2.69257c-0.761841-0.753174-1.52789-1.50171-2.30573-2.23846c-1.69489-1.60547-3.45648-3.17279-5.38165-4.51129c-1.95306-1.35791-3.97943-2.41296-6.24908-3.15143c-2.23083-0.725891-4.56696-1.09546-6.91284-1.09546s-4.68201 0.369568-6.91284 1.09546c-2.26971 0.738464-4.29608 1.79352-6.24908 3.15143c-1.92517 1.3385-3.68677 2.90582-5.38165 4.51129c-0.777832 0.736755-1.54388 1.48529-2.30573 2.23846c-0.905029 0.893616-1.80383 1.79321-2.70319 2.69257l-13.2482 13.2482c-0.899353 0.899353-1.79889 1.79816-2.69257 2.70319c-0.753113 0.761841-1.50171 1.52789-2.23846 2.30566c-1.60547 1.69489-3.17279 3.45654-4.51129 5.38171c-1.35791 1.953-2.41296 3.97937-3.15143 6.24908c-0.72583 2.23083-1.0954 4.56689-1.0954 6.91284c0 2.34589 0.369568 4.68201 1.0954 6.91284c0.738464 2.26965 1.79352 4.29602 3.15143 6.24908c1.3385 1.92517 2.90582 3.68677 4.51129 5.38165c0.736755 0.777832 1.48535 1.54388 2.23846 2.30573c0.893677 0.905029 1.79321 1.80383 2.69257 2.70319l100.098 100.098c0.899353 0.899353 1.79816 1.79889 2.70319 2.69257c0.761841 0.753113 1.52789 1.50171 2.30566 2.23846c1.69489 1.60541 3.45654 3.17279 5.38171 4.51129c1.953 1.35785 3.97937 2.41296 6.24908 3.15143c2.23083 0.72583 4.56689 1.0954 6.91284 1.0954c2.34589 0 4.68201-0.369568 6.91284-1.0954c2.26965-0.738464 4.29602-1.79358 6.24908-3.15143c1.92517-1.3385 3.68677-2.90588 5.38165-4.51129c0.777832-0.736755 1.54388-1.48535 2.30573-2.23846c0.905029-0.893677 1.80383-1.79321 2.70319-2.69257l13.2482-13.2483c0.899353-0.899292 1.79889-1.7981 2.69257-2.70312c0.753113-0.761841 1.50171-1.52789 2.23846-2.30573c1.60541-1.69489 3.17279-3.45648 4.51129-5.38165c1.35785-1.95306 2.41296-3.97943 3.15143-6.24915c0.72583-2.23077 1.0954-4.56689 1.0954-6.91278c0-2.34595-0.369568-4.68201-1.0954-6.91284c-0.738464-2.26971-1.79358-4.29608-3.15143-6.24908c-1.3385-1.92517-2.90588-3.68683-4.51129-5.38171c-0.736755-0.777771-1.48535-1.54382-2.23846-2.30566c-0.893677-0.905029-1.79321-1.80383-2.69257-2.70319l-6.1e-05-6.1e-05c-2.34918-2.34915-2.10266-6.22693 0.525085-8.2597l114.361-88.4682C871.674 279.679 875.443 220.39 839.527 184.474z"/>
 </g>
</svg>
