<?xml version="1.0" encoding="UTF-8"?>
<!--Generator: Apple Native CoreSVG 361-->
<!DOCTYPE svg
PUBLIC "-//W3C//DTD SVG 1.1//EN"
       "http://www.w3.org/Graphics/SVG/1.1/DTD/svg11.dtd">
<svg version="1.1" xmlns="http://www.w3.org/2000/svg" xmlns:xlink="http://www.w3.org/1999/xlink" viewBox="0 0 1032 1024">
 <defs>
  <style>.cls-1{fill:#fff;}</style>
 </defs>
 <path class="cls-1" d="M212.35 259.73c-0.47-0.25-0.94-0.5-1.41-0.76-0.4-0.21-0.79-0.43-1.19-0.66-0.87-0.49-1.74-1.01-2.59-1.64-0.87-0.64-1.68-1.36-2.47-2.24-0.78-0.86-1.48-1.82-2.1-2.85s-1.13-2.1-1.53-3.19c-0.4-1.11-0.66-2.16-0.81-3.23-0.15-1.05-0.2-2.07-0.23-3.06-0.01-0.46-0.02-0.91-0.02-1.36 0-0.54 0-1.07 0-1.61v-12.39c0-0.76 0-1.53 0-2.29 0-0.64 0-1.28 0.02-1.92 0.03-1.38 0.1-2.75 0.32-4.02 0.22-1.28 0.58-2.38 1.14-3.34 0.55-0.94 1.28-1.67 2.14-2.17s1.86-0.77 2.95-0.78c1.11-0.02 2.24 0.22 3.46 0.67 1.2 0.44 2.43 1.06 3.65 1.72 0.56 0.3 1.12 0.61 1.67 0.93 0.66 0.37 1.33 0.75 1.99 1.13l153.74 87.95c0.46 0.27 0.93 0.53 1.39 0.8 0.39 0.23 0.78 0.45 1.17 0.69 0.85 0.51 1.71 1.06 2.55 1.72 0.85 0.67 1.65 1.41 2.43 2.31 0.76 0.88 1.46 1.87 2.07 2.91s1.11 2.14 1.5 3.24c0.4 1.12 0.65 2.18 0.8 3.25 0.15 1.06 0.2 2.07 0.22 3.07 0.01 0.46 0.02 0.91 0.02 1.36 0 0.54 0 1.07 0 1.61v7.99c0 0.53 0 1.07 0 1.61 0 0.45 0 0.9-0.02 1.36-0.02 0.99-0.07 2.01-0.22 3.07-0.15 1.07-0.4 2.13-0.8 3.25-0.39 1.1-0.9 2.2-1.5 3.24s-1.3 2.03-2.07 2.91c-0.78 0.9-1.57 1.64-2.43 2.31-0.84 0.66-1.7 1.21-2.55 1.72-0.39 0.24-0.78 0.46-1.17 0.69-0.46 0.27-0.93 0.53-1.39 0.8l-153.74 87.95c-0.66 0.38-1.33 0.76-1.99 1.13-0.56 0.32-1.12 0.63-1.67 0.93-1.22 0.66-2.44 1.28-3.65 1.72-1.22 0.45-2.36 0.68-3.46 0.67-1.09-0.02-2.09-0.28-2.95-0.78s-1.59-1.24-2.14-2.17c-0.56-0.95-0.92-2.06-1.14-3.34-0.22-1.26-0.29-2.63-0.32-4.02-0.02-0.63-0.02-1.27-0.02-1.92 0-0.76 0-1.53 0-2.29v-12.59c0-0.53 0-1.07 0-1.61 0-0.45 0-0.9 0.02-1.36 0.02-0.99 0.07-2.01 0.23-3.06 0.16-1.07 0.41-2.12 0.81-3.23 0.39-1.09 0.91-2.17 1.53-3.19s1.33-1.99 2.1-2.85c0.79-0.87 1.6-1.59 2.47-2.23 0.86-0.63 1.73-1.15 2.6-1.64 0.4-0.22 0.79-0.44 1.19-0.65 0.47-0.25 0.94-0.51 1.42-0.76l127.63-67.89v-3.54l-127.64-68.09Z" fill="#fff"/>
</svg>
