<?xml version="1.0" encoding="UTF-8"?>
<!--Generator: Apple Native CoreSVG 361-->
<!DOCTYPE svg
PUBLIC "-//W3C//DTD SVG 1.1//EN"
       "http://www.w3.org/Graphics/SVG/1.1/DTD/svg11.dtd">
<svg version="1.1" xmlns="http://www.w3.org/2000/svg" xmlns:xlink="http://www.w3.org/1999/xlink" viewBox="0 0 1032 1024">
 <defs>
  <style>.cls-1{fill:#8c8c8c;}</style>
 </defs>
 <path class="cls-1" d="M426.04 529.99c-0.53 0-1.07 0-1.6 0-0.45 0-0.9 0-1.35-0.02-0.98-0.03-1.97-0.08-2.94-0.26-0.98-0.18-1.9-0.47-2.79-0.92-0.88-0.45-1.68-1.03-2.38-1.73s-1.28-1.5-1.73-2.38c-0.46-0.89-0.74-1.81-0.92-2.79-0.17-0.97-0.23-1.96-0.26-2.94-0.01-0.45-0.02-0.9-0.02-1.35 0-0.53 0-1.07 0-1.6v-7.99c0-0.53 0-1.07 0-1.6 0-0.45 0-0.9 0.02-1.35 0.03-0.98 0.08-1.97 0.26-2.94 0.18-0.98 0.47-1.9 0.92-2.79 0.45-0.88 1.03-1.68 1.73-2.38s1.5-1.28 2.38-1.73c0.89-0.46 1.81-0.74 2.79-0.92 0.97-0.17 1.96-0.23 2.94-0.26 0.45-0.01 0.9-0.02 1.35-0.02 0.53 0 1.07 0 1.6 0h187.91c0.53 0 1.07 0 1.6 0 0.45 0 0.9 0 1.35 0.02 0.98 0.03 1.97 0.08 2.94 0.26 0.98 0.18 1.9 0.47 2.79 0.92 0.88 0.45 1.68 1.03 2.38 1.73s1.28 1.5 1.73 2.38c0.46 0.89 0.74 1.81 0.92 2.79 0.17 0.97 0.23 1.96 0.26 2.94 0.01 0.45 0.02 0.9 0.02 1.35 0 0.53 0 1.07 0 1.6v7.99c0 0.53 0 1.07 0 1.6 0 0.45 0 0.9-0.02 1.35-0.03 0.98-0.08 1.97-0.26 2.94-0.18 0.98-0.47 1.9-0.92 2.79-0.45 0.88-1.03 1.68-1.73 2.38s-1.5 1.28-2.38 1.73c-0.89 0.46-1.81 0.74-2.79 0.92-0.97 0.17-1.96 0.23-2.94 0.26-0.45 0.01-0.9 0.02-1.35 0.02-0.53 0-1.07 0-1.6 0h-187.91Z" fill="#8c8c8c"/>
</svg>
