<?xml version="1.0" encoding="UTF-8"?>
<!--Generator: Apple Native CoreSVG 361-->
<!DOCTYPE svg
PUBLIC "-//W3C//DTD SVG 1.1//EN"
       "http://www.w3.org/Graphics/SVG/1.1/DTD/svg11.dtd">
<svg version="1.1" xmlns="http://www.w3.org/2000/svg" xmlns:xlink="http://www.w3.org/1999/xlink" viewBox="0 0 1024 1024">
 <g/>
 <g id="body.blur.dark">
  <path d="M799.454 263.802c4.44397-9.4326 8.57758-18.8104 12.4188-28.1253c5.86469-14.222 11.0309-28.2929 15.5452-42.1808c2.08765-6.42276-3.26215-12.8084-9.95331-11.8925c-20.5343 2.81082-61.3725 10.0746-109.06 27.4125c-9.44147 3.43265-18.9273 7.16235-28.4468 11.2054c-76.069 32.3133-140.493 75.0672-193.332 128.279c-41.2975 39.7781-79.3922 90.7961-114.3 153.03c-6.75311 12.0396-12.5992 23.3611-17.4774 33.6018c-15.3996 32.3276-17.5059 49.9208-3.28369 66.4834c18.0568 21.0282 40.5948 24.0063 83.0062 8.66278c0.608917-0.220337 55.7481-24.4777 82.1296-40.2892c60.7353-36.4069 111.044-75.2106 150.906-116.425C720.798 400.706 764.74 337.471 799.454 263.802z" fill="#FFBDC9" style="fill:#FFBDC9;"/>
 </g>
</svg>
