<?xml version="1.0" encoding="UTF-8"?>
<!--Generator: Apple Native CoreSVG 361-->
<!DOCTYPE svg
PUBLIC "-//W3C//DTD SVG 1.1//EN"
       "http://www.w3.org/Graphics/SVG/1.1/DTD/svg11.dtd">
<svg version="1.1" xmlns="http://www.w3.org/2000/svg" xmlns:xlink="http://www.w3.org/1999/xlink" viewBox="0 0 1024 1024">
 <g/>
 <g id="flame">
  <path d="M333.33 660.278c-17.564-17.7202-43.013-25.5192-67.3419-19.9871c-17.7599 4.03845-34.697 12.8864-48.5131 26.7024c-21.5688 21.5688-35.3363 44.7231-43.2435 67.7396c-1.84895 5.38208 3.72733 9.39441 8.52061 6.1156c6.5403-4.47394 14.7386-9.65173 22.6392-13.459c3.88551-1.87244 7.99667 0.570435 7.96928 4.68579c-0.156372 23.4932-24.68 60.3051-43.094 84.6597c-9.73712 12.8785-3.4471 30.0729 11.5641 31.3608c24.2023 2.07654 59.7688-0.83075 97.4455-24.3655c5.62506-3.51367 11.2655 2.55872 7.39172 7.96771c-3.5777 4.99548-7.48508 10.0192-11.1089 14.5018c-3.90723 4.83313 0.347076 11.0884 6.02298 8.86218c30.454-11.9451 51.3221-25.7584 74.7626-49.1989c13.6772-13.6771 22.4856-30.413 26.5792-47.9777c5.63727-24.1883-1.97443-49.5646-19.4586-67.2042L333.33 660.278z" fill="#FFFFFF" style="fill:#FFFFFF;"/>
 </g>
</svg>
