<?xml version="1.0" encoding="UTF-8"?>
<!--Generator: Apple Native CoreSVG 361-->
<!DOCTYPE svg
PUBLIC "-//W3C//DTD SVG 1.1//EN"
       "http://www.w3.org/Graphics/SVG/1.1/DTD/svg11.dtd">
<svg version="1.1" xmlns="http://www.w3.org/2000/svg" xmlns:xlink="http://www.w3.org/1999/xlink" viewBox="0 0 1024 1024">
 <defs>
  <linearGradient id="SVGID_00000157294809510538152810000018059712305217449866_" x1="516.239" y1="280.379" x2="209.228" y2="587.39" gradientUnits="userSpaceOnUse">
   <stop offset="0" stop-color="#e93368" stop-opacity="1"/>
   <stop offset="0.491092" stop-color="#ea465e" stop-opacity="1"/>
   <stop offset="1" stop-color="#eb6855" stop-opacity="1"/>
  </linearGradient>
  <linearGradient id="SVGID_1_" x1="743.548" y1="507.688" x2="436.537" y2="814.699" gradientUnits="userSpaceOnUse">
   <stop offset="0" stop-color="#e93368" stop-opacity="1"/>
   <stop offset="0.491092" stop-color="#ea465e" stop-opacity="1"/>
   <stop offset="1" stop-color="#eb6855" stop-opacity="1"/>
  </linearGradient>
 </defs>
 <g/>
 <g id="wings.dark">
  <path d="M679.615 558.041c-0.0145264-0.117004-0.0294189-0.233765-0.0447388-0.350342c-1.97699-15.0581-20.2872-21.4017-31.4019-11.0518c-34.7714 32.3789-77.7249 62.9886-128.037 91.2106c-17.6833 9.91675-35.7893 18.6199-54.0674 26.0165c-7.48712 3.02979-12.2279 10.5-11.7033 18.5599c0.424499 6.52185 1.00574 12.5112 1.6619 17.2969c5.9577 43.4526-33.0995 116.766-47.2094 142.037c-9.81912 17.5859 7.53287 38.0409 26.3704 30.9114c77.6353-29.3831 131.87-65.0674 169.074-102.272C688.226 686.431 686.468 613.244 679.615 558.041z" fill="url(#SVGID_1_)" style="fill:url(#SVGID_1_);"/>
  <path d="M465.886 344.312c0.116974 0.0144958 0.233734 0.0294189 0.350281 0.0447388c15.0581 1.97699 21.4017 20.2872 11.0518 31.4019c-32.3789 34.7714-62.9886 77.7249-91.2105 128.037c-9.91678 17.6833-18.6199 35.7893-26.0165 54.0674c-3.02982 7.48712-10.5 12.2279-18.5599 11.7033c-6.52188-0.424499-12.5112-1.00574-17.297-1.66187c-43.4526-5.9577-116.766 33.0995-142.037 47.2094c-17.5859 9.81909-38.0409-7.5329-30.9114-26.3704c29.383-77.6353 65.0674-131.87 102.272-169.074C337.496 335.701 410.683 337.459 465.886 344.312z" fill="url(#SVGID_00000157294809510538152810000018059712305217449866_)" style="fill:url(#SVGID_00000157294809510538152810000018059712305217449866_);"/>
 </g>
</svg>
