<?xml version="1.0" encoding="UTF-8"?>
<!--Generator: Apple Native CoreSVG 361-->
<!DOCTYPE svg
PUBLIC "-//W3C//DTD SVG 1.1//EN"
       "http://www.w3.org/Graphics/SVG/1.1/DTD/svg11.dtd">
<svg version="1.1" xmlns="http://www.w3.org/2000/svg" xmlns:xlink="http://www.w3.org/1999/xlink" viewBox="0 0 1024 1024">
 <g/>
 <g id="dock">
  <path d="M869 740.409c0-4.73486 0.0020142-9.46893-0.0278931-14.2038c-0.0229492-3.98804-0.0689697-7.97528-0.177002-11.9622c-0.235474-8.68781-0.746826-17.4511-2.2912-26.0425c-1.56671-8.71564-4.1236-16.8273-8.15436-24.7461c-3.96173-7.78314-9.13849-14.9056-15.3139-21.081c-6.17542-6.17548-13.2979-11.3522-21.081-15.3139c-7.91882-4.03076-16.0305-6.58765-24.7461-8.15436c-8.59143-1.54437-17.3547-2.05573-26.0425-2.2912c-3.98682-0.108093-7.97406-0.154053-11.9621-0.177002c-4.73486-0.0299072-9.46899-0.0278931-14.2038-0.0278931H279c-4.73486 0-9.46896-0.0020142-14.2038 0.0278931c-3.98807 0.0229492-7.97528 0.0689087-11.9621 0.177002c-8.68785 0.235474-17.4511 0.746826-26.0425 2.2912c-8.71564 1.56671-16.8273 4.1236-24.7461 8.15436c-7.78311 3.96173-14.9056 9.13843-21.081 15.3139c-6.17543 6.17542-11.3522 13.2979-15.3139 21.081c-4.03079 7.91882-6.58763 16.0305-8.15436 24.7461c-1.5444 8.59137-2.05573 17.3547-2.29121 26.0425c-0.108063 3.98688-0.154053 7.97412-0.176971 11.9622C154.998 730.94 155 735.674 155 740.409v6.00024c0 4.7348-0.0019989 9.46893 0.0279236 14.2037c0.0229187 3.9881 0.0689087 7.97528 0.176971 11.9622c0.235489 8.68787 0.746811 17.4511 2.29121 26.0425c1.56673 8.71564 4.12357 16.8273 8.15436 24.7461c3.9617 7.78308 9.13844 14.9056 15.3139 21.081s13.2979 11.3522 21.081 15.3139c7.91882 4.03076 16.0305 6.58759 24.7461 8.15436c8.59138 1.54437 17.3547 2.05573 26.0425 2.2912c3.98686 0.108032 7.97408 0.154053 11.9621 0.176941c4.73483 0.0299683 9.46893 0.0279541 14.2038 0.0279541h466c4.7348 0 9.46893 0.0020142 14.2038-0.0279541c3.98804-0.0228882 7.97528-0.0689087 11.9621-0.176941c8.68787-0.235474 17.4511-0.746826 26.0425-2.2912c8.71564-1.56677 16.8273-4.1236 24.7461-8.15436c7.78314-3.96173 14.9056-9.13849 21.081-15.3139s11.3522-13.2979 15.3139-21.081c4.03076-7.91882 6.58765-16.0305 8.15436-24.7461c1.54437-8.59143 2.05573-17.3547 2.2912-26.0425c0.108032-3.98688 0.154053-7.97406 0.177002-11.9622C869.002 755.878 869 751.144 869 746.409V740.409z" fill="#F0F0F0" opacity="0.2" style="opacity:0.2;fill:#F0F0F0;"/>
 </g>
</svg>
