<?xml version="1.0" encoding="UTF-8"?>
<!--Generator: Apple Native CoreSVG 361-->
<!DOCTYPE svg
PUBLIC "-//W3C//DTD SVG 1.1//EN"
       "http://www.w3.org/Graphics/SVG/1.1/DTD/svg11.dtd">
<svg version="1.1" xmlns="http://www.w3.org/2000/svg" xmlns:xlink="http://www.w3.org/1999/xlink" viewBox="0 0 1024 1024">
 <defs>
  <linearGradient id="SVGID_1_" x1="3700.54" y1="1916.47" x2="3848.54" y2="1916.47" gradientUnits="userSpaceOnUse" gradientTransform="matrix(0.0000003 1 -1 0.0000003 2428.4724121 -3031.1362305)">
   <stop offset="0" stop-color="#ffffff" stop-opacity="1"/>
   <stop offset="0" stop-color="#85ea96" stop-opacity="1"/>
   <stop offset="1" stop-color="#44df5d" stop-opacity="1"/>
  </linearGradient>
 </defs>
 <g/>
 <g id="chiclet8">
  <path d="M586 763.499c0 2.05853 0.0009155 4.11676-0.012146 6.17523c-0.0099487 1.73389-0.0299683 3.46735-0.0769043 5.20068c-0.102417 3.7771-0.324707 7.58704-0.996155 11.3222c-0.681091 3.78925-1.79272 7.31586-3.54517 10.7586c-1.72235 3.38379-3.97302 6.48035-6.65784 9.16522c-2.68488 2.68481-5.78143 4.93542-9.16516 6.65784c-3.44281 1.75244-6.96942 2.86401-10.7586 3.54517c-3.73523 0.671448-7.54511 0.893799-11.3223 0.996155c-1.73334 0.0469971-3.46686 0.0669556-5.20062 0.0769653c-2.05853 0.0130005-4.1167 0.012085-6.17523 0.012085l-40.1797 6.1e-05c-2.05853 0-4.1167 0.0008545-6.17523-0.012146c-1.73386-0.0099487-3.46732-0.0299683-5.20065-0.0769653c-3.77713-0.102356-7.58704-0.324646-11.3222-0.996094c-3.78922-0.681152-7.31583-1.79279-10.7586-3.54523c-3.38379-1.72235-6.48035-3.97302-9.16516-6.65784c-2.68485-2.68481-4.93549-5.78137-6.65787-9.16516c-1.75244-3.44275-2.86404-6.96942-3.5452-10.7586c-0.671448-3.73517-0.893738-7.54511-0.996124-11.3222c-0.0469971-1.73334-0.0669861-3.46686-0.0769348-5.20068c-0.013031-2.05853-0.012146-4.1167-0.012146-6.17523L438 723.319c0-2.05853-0.0008545-4.1167 0.012146-6.17523c0.0099487-1.73383 0.0299683-3.46729 0.0769348-5.20068c0.102387-3.7771 0.324676-7.58704 0.996124-11.3222c0.681152-3.78918 1.79276-7.31586 3.5452-10.7586c1.72238-3.38373 3.97302-6.48035 6.65784-9.16516c2.68485-2.68481 5.7814-4.93549 9.16516-6.65784c3.44281-1.7525 6.96942-2.86407 10.7586-3.54517c3.7352-0.671509 7.54511-0.893799 11.3222-0.996216c1.73334-0.046936 3.46683-0.0669556 5.20065-0.0769043c2.05853-0.0130615 4.11673-0.012146 6.17526-0.012146h40.1797c2.05853 0 4.1167-0.0009155 6.17523 0.012146c1.73383 0.0098877 3.46729 0.0299683 5.20068 0.0769043c3.7771 0.102417 7.58704 0.324707 11.3222 0.996155c3.78918 0.681091 7.31586 1.79272 10.7586 3.54517c3.38373 1.72235 6.48029 3.97302 9.16516 6.65784c2.68481 2.68488 4.93549 5.78143 6.65784 9.16516c1.75244 3.44275 2.86407 6.96942 3.54517 10.7586c0.671509 3.73523 0.893738 7.54511 0.996155 11.3223c0.0469971 1.73334 0.0670166 3.4668 0.0769653 5.20062C586.001 719.202 586 721.261 586 723.319V763.499z" fill="url(#SVGID_1_)" style="fill:url(#SVGID_1_);"/>
 </g>
</svg>
