<?xml version="1.0" encoding="UTF-8"?>
<!--Generator: Apple Native CoreSVG 361-->
<!DOCTYPE svg
PUBLIC "-//W3C//DTD SVG 1.1//EN"
       "http://www.w3.org/Graphics/SVG/1.1/DTD/svg11.dtd">
<svg version="1.1" xmlns="http://www.w3.org/2000/svg" xmlns:xlink="http://www.w3.org/1999/xlink" viewBox="0 0 1024 1024">
 <defs>
  <linearGradient id="SVGID_1_" x1="1233.41" y1="-280" x2="1381.41" y2="-280" gradientUnits="userSpaceOnUse" gradientTransform="matrix(0 1 -1 0 0 -564)">
   <stop offset="0" stop-color="#ffffff" stop-opacity="1"/>
   <stop offset="0" stop-color="#5dc0ff" stop-opacity="1"/>
   <stop offset="1" stop-color="#069eff" stop-opacity="1"/>
  </linearGradient>
 </defs>
 <g/>
 <g id="chiclet7">
  <path d="M259.91 817.409c-2.05853 0-4.11671 0.0008545-6.17523-0.012146c-1.73384-0.0099487-3.46733-0.0299683-5.20065-0.0769653c-3.77713-0.102356-7.58705-0.324646-11.3222-0.996094c-3.7892-0.681152-7.31583-1.79279-10.7586-3.54523c-3.38379-1.72235-6.48035-3.97302-9.16518-6.65784s-4.93546-5.78137-6.65785-9.16516c-1.75243-3.44281-2.86403-6.96942-3.54518-10.7586c-0.671448-3.73517-0.893753-7.54511-0.996124-11.3223c-0.0469818-1.73328-0.0669861-3.4668-0.0769501-5.20062c-0.0130005-2.05853-0.0121307-4.1167-0.0121307-6.17523v-40.1797c0-2.05853-0.0008698-4.1167 0.0121307-6.17523c0.009964-1.73383 0.0299683-3.46735 0.0769501-5.20068c0.102371-3.7771 0.324676-7.58704 0.996124-11.3222c0.681152-3.78918 1.79276-7.31586 3.54518-10.7586c1.7224-3.38379 3.97302-6.48035 6.65785-9.16516c2.68483-2.68488 5.78139-4.93549 9.16518-6.6579c3.44278-1.75238 6.96941-2.86401 10.7586-3.54517c3.73518-0.671448 7.54511-0.893738 11.3222-0.996094c1.73332-0.0469971 3.46681-0.0670166 5.20065-0.0769653c2.05852-0.0130005 4.1167-0.012146 6.17523-0.012146h40.1797c2.05853 0 4.1167-0.0008545 6.17523 0.012146c1.73386 0.0099487 3.46732 0.0299683 5.20065 0.0769653c3.77713 0.102356 7.58704 0.324646 11.3222 0.996094c3.78922 0.681152 7.31583 1.79279 10.7586 3.54517c3.38379 1.72241 6.48035 3.97302 9.16516 6.6579c2.68485 2.68481 4.93549 5.78137 6.65787 9.16516c1.75241 3.44275 2.86404 6.96942 3.5452 10.7586c0.671417 3.73517 0.893738 7.54511 0.996124 11.3222c0.0469666 1.73334 0.0669556 3.46686 0.0769348 5.20068C354.001 719.203 354 721.261 354 723.319v40.1797c0 2.05853 0.0008545 4.1167-0.012146 6.17523c-0.0099792 1.73383-0.0299683 3.46735-0.0769348 5.20062c-0.102387 3.77716-0.324707 7.5871-0.996124 11.3223c-0.681152 3.78918-1.79279 7.3158-3.5452 10.7586c-1.72238 3.38379-3.97302 6.48035-6.65787 9.16516c-2.68481 2.68481-5.78137 4.93549-9.16516 6.65784c-3.44278 1.75244-6.96939 2.86407-10.7586 3.54523c-3.7352 0.671448-7.54511 0.893738-11.3222 0.996094c-1.73334 0.0469971-3.4668 0.0670166-5.20065 0.0769653c-2.05853 0.0130005-4.1167 0.012146-6.17523 0.012146H259.91z" fill="url(#SVGID_1_)" style="fill:url(#SVGID_1_);"/>
 </g>
</svg>
