<?xml version="1.0" encoding="UTF-8"?>
<!--Generator: Apple Native CoreSVG 361-->
<!DOCTYPE svg
PUBLIC "-//W3C//DTD SVG 1.1//EN"
       "http://www.w3.org/Graphics/SVG/1.1/DTD/svg11.dtd">
<svg version="1.1" xmlns="http://www.w3.org/2000/svg" xmlns:xlink="http://www.w3.org/1999/xlink" viewBox="0 0 1024 1024">
 <defs>
  <linearGradient id="SVGID_1_" x1="512" y1="207.575" x2="512" y2="354.912" gradientUnits="userSpaceOnUse">
   <stop offset="0" stop-color="#6e6e6e" stop-opacity="1"/>
   <stop offset="1" stop-color="#2d2d2e" stop-opacity="1"/>
  </linearGradient>
 </defs>
 <g/>
 <g id="tray">
  <path d="M752.304 358.833c0 4.27664 0.0018311 8.55261-0.0252075 12.8293c-0.0206909 3.60211-0.0622559 7.20349-0.159851 10.8045c-0.212646 7.84708-0.6745 15.7623-2.06946 23.5223c-1.4151 7.87219-3.72455 15.1989-7.36523 22.3513c-3.57831 7.02991-8.25409 13.4631-13.8319 19.0409c-5.57782 5.57779-12.011 10.2536-19.0409 13.8319c-7.15253 3.64072-14.4792 5.95013-22.3514 7.36523c-7.75995 1.39496-15.6752 1.85681-23.5223 2.06949c-3.60101 0.0975952-7.20239 0.13916-10.8045 0.159851c-4.27667 0.0270386-8.55261 0.0252075-12.8293 0.0252075H383.696c-4.27664 0-8.55261 0.0018311-12.8293-0.0252075c-3.60211-0.0206909-7.20346-0.0622559-10.8045-0.159851c-7.84711-0.212677-15.7623-0.67453-23.5223-2.06949c-7.87216-1.4151-15.1988-3.72452-22.3513-7.36523c-7.02991-3.57831-13.4631-8.25409-19.0409-13.8319c-5.57782-5.57782-10.2536-12.011-13.8319-19.0409c-3.64072-7.1525-5.95013-14.4792-7.36523-22.3513c-1.39493-7.75998-1.85678-15.6752-2.06949-23.5223c-0.0975952-3.60104-0.13913-7.20242-0.159851-10.8045c-0.0270081-4.27664-0.0252075-8.55261-0.0252075-12.8293v-80.8346c0-4.27664-0.0018005-8.55261 0.0252075-12.8293c0.0207214-3.60211 0.0622559-7.20346 0.159851-10.8045c0.212707-7.84709 0.674561-15.7623 2.06949-23.5223c1.4151-7.87219 3.72452-15.1989 7.36523-22.3513c3.57831-7.02991 8.25409-13.4631 13.8319-19.0409c5.57779-5.5778 12.011-10.2536 19.0409-13.8319c7.1525-3.64072 14.4792-5.95013 22.3513-7.36523c7.75998-1.39494 15.6752-1.8568 23.5223-2.06947c3.60104-0.0976105 7.20239-0.13916 10.8045-0.159851c4.27664-0.0270233 8.55261-0.0252228 12.8293-0.0252228H640.304c4.27667 0 8.55261-0.0018005 12.8293 0.0252228c3.60211 0.0206909 7.20349 0.0622406 10.8045 0.159851c7.84711 0.212677 15.7623 0.67453 23.5223 2.06947c7.87219 1.4151 15.1989 3.72452 22.3514 7.36523c7.02991 3.57832 13.4631 8.25409 19.0409 13.8319s10.2536 12.011 13.8319 19.0409c3.64069 7.1525 5.95013 14.4792 7.36523 22.3513c1.39496 7.75996 1.85681 15.6752 2.06946 23.5223c0.0975952 3.60106 0.13916 7.20241 0.159851 10.8045c0.0270386 4.27664 0.0252075 8.55261 0.0252075 12.8293V358.833z" fill="url(#SVGID_1_)" style="fill:url(#SVGID_1_);"/>
 </g>
</svg>
