<?xml version="1.0" encoding="UTF-8"?>
<!--Generator: Apple Native CoreSVG 361-->
<!DOCTYPE svg
PUBLIC "-//W3C//DTD SVG 1.1//EN"
       "http://www.w3.org/Graphics/SVG/1.1/DTD/svg11.dtd">
<svg version="1.1" xmlns="http://www.w3.org/2000/svg" xmlns:xlink="http://www.w3.org/1999/xlink" viewBox="0 0 1024 1024">
 <g/>
 <g id="paper.back">
  <path d="M710.924 320.57c0-2.99362 0.0012817-5.98682-0.0176392-8.98047c-0.0145264-2.52148-0.0435791-5.04242-0.111877-7.56317c-0.148926-5.49295-0.472229-11.0336-1.44867-16.4656c-0.99054-5.51053-2.60718-10.6392-5.15564-15.6459c-2.50482-4.92096-5.77789-9.42419-9.68231-13.3287c-3.90448-3.90445-8.40771-7.17749-13.3287-9.68231c-5.00677-2.54851-10.1354-4.16508-15.6459-5.15567c-5.43201-0.976456-10.9727-1.29974-16.4656-1.44862c-2.52075-0.0683289-5.04169-0.0974121-7.56317-0.111908c-2.99365-0.0189056-5.98688-0.0176544-8.98047-0.0176544H391.475c-2.99365 0-5.98682-0.0012512-8.98047 0.0176544c-2.52148 0.0144958-5.04245 0.0435791-7.56317 0.111908c-5.49295 0.14888-11.0336 0.472168-16.4656 1.44862c-5.51053 0.990585-10.6392 2.60716-15.6459 5.15567c-4.92093 2.50482-9.42416 5.77786-13.3286 9.68231c-3.90448 3.90448-7.17749 8.40771-9.68231 13.3287c-2.54852 5.00674-4.1651 10.1354-5.15567 15.6459c-0.976471 5.43198-1.29977 10.9726-1.44864 16.4656c-0.0683289 2.52075-0.0974121 5.04169-0.111908 7.56317c-0.0189209 2.99365-0.0176392 5.98685-0.0176392 8.98047V550.224c0 2.99365-0.0012817 5.98682 0.0176392 8.98047c0.0144958 2.52148 0.0435791 5.04248 0.111908 7.56317c0.148865 5.49298 0.472168 11.0336 1.44864 16.4656c0.99057 5.5105 2.60715 10.6392 5.15567 15.6459c2.50482 4.9209 5.77783 9.42413 9.68231 13.3286s8.40771 7.17749 13.3286 9.68231c5.00674 2.54852 10.1354 4.1651 15.6459 5.1557c5.43198 0.97644 10.9727 1.29974 16.4656 1.44861c2.52072 0.0683594 5.04169 0.0974121 7.56317 0.111938c2.99365 0.0188599 5.98682 0.0176392 8.98047 0.0176392h241.049c2.99359 0 5.98682 0.0012207 8.98047-0.0176392c2.52148-0.0145264 5.04242-0.0435791 7.56317-0.111938c5.49292-0.148865 11.0336-0.472168 16.4656-1.44861c5.5105-0.990601 10.6392-2.60718 15.6459-5.1557c4.92096-2.50482 9.42419-5.77783 13.3287-9.68231c3.90442-3.90448 7.17749-8.40771 9.68231-13.3286c2.54846-5.00677 4.1651-10.1354 5.15564-15.6459c0.97644-5.43201 1.29974-10.9727 1.44867-16.4656c0.0682983-2.52069 0.0973511-5.04169 0.111877-7.56317c0.0189209-2.99365 0.0176392-5.98682 0.0176392-8.98047V320.57z" fill="#F0F0F0" style="fill:#F0F0F0;"/>
 </g>
</svg>
