<?xml version="1.0" encoding="UTF-8"?>
<!--Generator: Apple Native CoreSVG 361-->
<!DOCTYPE svg
PUBLIC "-//W3C//DTD SVG 1.1//EN"
       "http://www.w3.org/Graphics/SVG/1.1/DTD/svg11.dtd">
<svg version="1.1" xmlns="http://www.w3.org/2000/svg" xmlns:xlink="http://www.w3.org/1999/xlink" viewBox="0 0 1024 1024">
 <g/>
 <g id="black">
  <path d="M896 627.992c0 5.34576 0.0022583 10.6907-0.0315552 16.0366c-0.0258179 4.50262-0.0777588 9.00433-0.199768 13.5056c-0.265869 9.8089-0.843201 19.7029-2.58685 29.4029c-1.76892 9.84021-4.65564 18.9985-9.20654 27.9391c-4.4729 8.78741-10.3176 16.8289-17.2899 23.8011c-6.97229 6.97229-15.0138 12.817-23.8012 17.2899c-8.94061 4.5509-18.0989 7.43762-27.9391 9.20654c-9.69995 1.74365-19.594 2.32098-29.4028 2.58685c-4.50134 0.122009-9.00305 0.173889-13.5057 0.199768c-5.34583 0.0338135-10.6907 0.0315552-16.0366 0.0315552H268c-5.34579 0-10.6907 0.0022583-16.0365-0.0315552c-4.50265-0.0258789-9.00436-0.0777588-13.5057-0.199768c-9.80887-0.265869-19.7029-0.843201-29.4029-2.58685c-9.84024-1.76892-18.9986-4.65564-27.9392-9.20654c-8.78738-4.4729-16.8289-10.3176-23.8011-17.2899c-6.97227-6.97223-12.817-15.0137-17.2899-23.8011c-4.5509-8.94061-7.43767-18.0989-9.20654-27.9391c-1.74368-9.69995-2.32098-19.594-2.58685-29.4029c-0.122009-4.50128-0.173935-9.00299-0.199814-13.5056C127.998 638.682 128 633.337 128 627.992V434.747c0-5.34583-0.0022507-10.6908 0.0315247-16.0366c0.0258789-4.50265 0.0778046-9.00436 0.199814-13.5057c0.265869-9.80884 0.84317-19.7029 2.58685-29.4028c1.76888-9.84024 4.65564-18.9986 9.20654-27.9392c4.4729-8.78738 10.3176-16.8289 17.2899-23.8012c6.97226-6.97226 15.0138-12.817 23.8011-17.2899c8.94063-4.5509 18.0989-7.43765 27.9392-9.20654c9.69997-1.74368 19.594-2.32098 29.4029-2.58685c4.5013-0.122009 9.00301-0.17395 13.5057-0.199799c5.34581-0.033783 10.6908-0.0315247 16.0365-0.0315247h488c5.34583 0 10.6907-0.0022583 16.0366 0.0315247c4.50262 0.0258484 9.00433 0.0777893 13.5057 0.199799c9.80884 0.265869 19.7029 0.84317 29.4028 2.58685c9.84021 1.76889 18.9985 4.65564 27.9391 9.20654c8.78741 4.4729 16.8289 10.3176 23.8012 17.2899c6.97223 6.97226 12.817 15.0138 17.2899 23.8012c4.5509 8.94061 7.43762 18.0989 9.20654 27.9392c1.74365 9.69995 2.32098 19.594 2.58685 29.4028c0.122009 4.50131 0.17395 9.00302 0.199768 13.5057C896.002 424.057 896 429.402 896 434.747V627.992z"/>
 </g>
</svg>
