<?xml version="1.0" encoding="UTF-8"?>
<!--Generator: Apple Native CoreSVG 361-->
<!DOCTYPE svg
PUBLIC "-//W3C//DTD SVG 1.1//EN"
       "http://www.w3.org/Graphics/SVG/1.1/DTD/svg11.dtd">
<svg version="1.1" xmlns="http://www.w3.org/2000/svg" xmlns:xlink="http://www.w3.org/1999/xlink" viewBox="0 0 1024 1024">
 <g/>
 <g id="paper.front">
  <g>
   <path d="M704.786 470.46H319.214c-5.03607 0-9.68134 0.115967-14.0848 0.861389v58.762v235.574c0 2.99365-0.0012207 5.98682 0.0176392 8.98047c0.0145264 2.52148 0.0435791 5.04242 0.111938 7.56317c0.148865 5.49298 0.472168 11.0336 1.44861 16.4656c0.990601 5.51056 2.60718 10.6392 5.1557 15.6459c2.50482 4.92096 5.77783 9.42419 9.68231 13.3287s8.40771 7.17749 13.3286 9.68231c5.00677 2.54852 10.1354 4.1651 15.6459 5.1557c5.43201 0.97644 10.9727 1.29974 16.4656 1.44861c2.52075 0.0682983 5.04169 0.0974121 7.56317 0.111877c2.99365 0.0189209 5.98682 0.0177002 8.98047 0.0177002h256.942c2.99365 0 5.98682 0.0012207 8.98047-0.0177002c2.52148-0.0144653 5.04242-0.0435791 7.56317-0.111877c5.49298-0.148865 11.0336-0.472168 16.4656-1.44861c5.5105-0.990601 10.6392-2.60718 15.6459-5.1557c4.9209-2.50482 9.42413-5.77783 13.3286-9.68231s7.17749-8.40771 9.68231-13.3287c2.54852-5.00671 4.1651-10.1354 5.1557-15.6459c0.97644-5.43195 1.29974-10.9726 1.44861-16.4656c0.0683594-2.52075 0.0974121-5.04169 0.111938-7.56317c0.0188599-2.99365 0.0176392-5.98682 0.0176392-8.98047V530.083V471.321C714.467 470.576 709.822 470.46 704.786 470.46z" fill="#FFFFFF" style="fill:#FFFFFF;"/>
  </g>
 </g>
</svg>
