<?xml version="1.0" encoding="UTF-8"?>
<!--Generator: Apple Native CoreSVG 361-->
<!DOCTYPE svg
PUBLIC "-//W3C//DTD SVG 1.1//EN"
       "http://www.w3.org/Graphics/SVG/1.1/DTD/svg11.dtd">
<svg version="1.1" xmlns="http://www.w3.org/2000/svg" xmlns:xlink="http://www.w3.org/1999/xlink" viewBox="0 0 1024 1024">
 <g/>
 <g id="text">
  <path d="M640.887 710.809c4.79364 0 8.76508 0.232727 12.5942 3.16998c3.44397 2.63989 5.49951 6.81824 5.49951 11.1802s-2.05554 8.54028-5.49951 11.1802c-3.82916 2.93726-7.8006 3.16992-12.5942 3.16992H383.036c-4.79364 0-8.76505-0.232666-12.5942-3.16992c-3.44397-2.63995-5.49948-6.8183-5.49948-11.1802s2.05551-8.54028 5.49948-11.1802c3.82919-2.93726 7.8006-3.16998 12.5942-3.16998H640.887z" opacity="0.1" style="opacity:0.1;"/>
  <path d="M640.887 599.989c4.79364 0 8.76508 0.232727 12.5942 3.16998c3.44397 2.63989 5.49951 6.81824 5.49951 11.1802s-2.05554 8.54028-5.49951 11.1802c-3.82916 2.93726-7.8006 3.16992-12.5942 3.16992H383.036c-4.79364 0-8.76505-0.232666-12.5942-3.16992c-3.44397-2.63995-5.49948-6.8183-5.49948-11.1802s2.05551-8.54028 5.49948-11.1802c3.82919-2.93726 7.8006-3.16998 12.5942-3.16998H640.887z" opacity="0.1" style="opacity:0.1;"/>
 </g>
</svg>
