<?xml version="1.0" encoding="UTF-8"?>
<!--Generator: Apple Native CoreSVG 361-->
<!DOCTYPE svg
PUBLIC "-//W3C//DTD SVG 1.1//EN"
       "http://www.w3.org/Graphics/SVG/1.1/DTD/svg11.dtd">
<svg version="1.1" xmlns="http://www.w3.org/2000/svg" xmlns:xlink="http://www.w3.org/1999/xlink" viewBox="0 0 1024 1024">
 <g/>
 <g id="deviceback">
  <g>
   <g>
    <path clip-rule="evenodd" d="M622.144 639.144c0 3.81842 0.0015869 7.63623-0.022522 11.4547c-0.0184937 3.21619-0.055603 6.4317-0.142761 9.64691c-0.18988 7.00635-0.602234 14.0735-1.84772 21.002c-1.26349 7.02875-3.3255 13.5704-6.57611 19.9566c-3.19495 6.27667-7.36969 12.0206-12.3499 17.0008c-4.98016 4.98022-10.7241 9.15497-17.0008 12.3499c-6.38617 3.25061-12.9279 5.31262-19.9566 6.57611c-6.92853 1.24548-13.9957 1.65784-21.002 1.84772c-3.21521 0.0871582-6.43073 0.124268-9.64691 0.142761c-3.81842 0.0241089-7.63623 0.022522-11.4547 0.022522H386.144c-3.81842 0-7.63623 0.0015869-11.4547-0.022522c-3.21616-0.0184937-6.43167-0.055603-9.64688-0.142761c-7.00635-0.18988-14.0735-0.602234-21.002-1.84772c-7.02875-1.26349-13.5704-3.3255-19.9565-6.57611c-6.27673-3.19495-12.0207-7.36969-17.0008-12.3499c-4.98019-4.98016-9.155-10.7241-12.3499-17.0008c-3.25064-6.38617-5.31262-12.9279-6.57611-19.9566c-1.24548-6.92853-1.65784-13.9957-1.84775-21.002c-0.0871582-3.21521-0.124237-6.43073-0.142731-9.64691c-0.0241089-3.81842-0.022522-7.63623-0.022522-11.4547V269.144c0-3.81842-0.0015869-7.63623 0.022522-11.4547c0.0184937-3.21617 0.0555725-6.43167 0.142731-9.64688c0.189911-7.00633 0.602264-14.0735 1.84775-21.002c1.26349-7.02875 3.32547-13.5704 6.57611-19.9566c3.19492-6.2767 7.36972-12.0206 12.3499-17.0008c4.98016-4.98019 10.7241-9.15498 17.0008-12.3499c6.38614-3.25064 12.9278-5.31262 19.9565-6.57611c6.92856-1.24548 13.9957-1.65785 21.002-1.84775c3.21521-0.0871429 6.43073-0.124237 9.64688-0.142715c3.81845-0.0241394 7.63626-0.022522 11.4547-0.022522h136c3.81842 0 7.63623-0.0016174 11.4547 0.022522c3.21619 0.0184784 6.4317 0.0555725 9.64691 0.142715c7.00635 0.189896 14.0735 0.602264 21.002 1.84775c7.02875 1.26349 13.5704 3.32547 19.9566 6.57611c6.27667 3.19492 12.0206 7.36971 17.0008 12.3499c4.98022 4.98019 9.15497 10.7241 12.3499 17.0008c3.25061 6.38617 5.31262 12.9278 6.57611 19.9566c1.24548 6.92854 1.65784 13.9957 1.84772 21.002c0.0871582 3.21521 0.124268 6.43071 0.142761 9.64688c0.0241089 3.81845 0.022522 7.63626 0.022522 11.4547V639.144z" fill="#191E32" fill-rule="evenodd" style="fill-rule:evenodd;clip-rule:evenodd;fill:#191E32;"/>
   </g>
  </g>
 </g>
</svg>
