<?xml version="1.0" encoding="UTF-8"?>
<!--Generator: Apple Native CoreSVG 361-->
<!DOCTYPE svg
PUBLIC "-//W3C//DTD SVG 1.1//EN"
       "http://www.w3.org/Graphics/SVG/1.1/DTD/svg11.dtd">
<svg version="1.1" xmlns="http://www.w3.org/2000/svg" xmlns:xlink="http://www.w3.org/1999/xlink" viewBox="0 0 1024 1024">
 <g/>
 <g id="flower2">
  <g>
   <path d="M746.31 440.322c-9.12952 9.12949-18.2054 18.2944-27.8553 26.8966c-8.76654 7.81699-17.8504 14.8875-28.1417 20.682c-21.6647 12.1963-46.3358 17.0971-71.0295 13.7736c-24.5523-3.3053-47.3527-14.5965-64.8572-32.101c-17.5172-17.5172-28.7957-40.3049-32.101-64.8572c-3.32355-24.6938 1.57733-49.3648 13.7736-71.0295c5.79449-10.2914 12.8651-19.3752 20.682-28.1418c8.60223-9.64996 17.7671-18.7258 26.8966-27.8553l26.3524-26.3524c9.12946-9.12949 18.2053-18.2944 27.8553-26.8966c8.76654-7.81697 17.8504-14.8875 28.1417-20.6821c21.6648-12.1962 46.3358-17.0971 71.0295-13.7736c24.5523 3.3053 47.3401 14.5839 64.8572 32.101c17.5046 17.5046 28.7958 40.3049 32.1011 64.8572c3.32355 24.6938-1.57733 49.3648-13.7736 71.0295c-5.79449 10.2914-12.8651 19.3752-20.682 28.1418c-8.60217 9.64996-17.7671 18.7258-26.8965 27.8553L746.31 440.322z" fill="#FED41A" style="fill:#FED41A;"/>
  </g>
 </g>
</svg>
