<?xml version="1.0" encoding="UTF-8"?>
<!--Generator: Apple Native CoreSVG 361-->
<!DOCTYPE svg
PUBLIC "-//W3C//DTD SVG 1.1//EN"
       "http://www.w3.org/Graphics/SVG/1.1/DTD/svg11.dtd">
<svg version="1.1" xmlns="http://www.w3.org/2000/svg" xmlns:xlink="http://www.w3.org/1999/xlink" viewBox="0 0 1024 1024">
 <g/>
 <g id="flower4">
  <g>
   <path d="M583.678 746.31c-9.12952-9.12952-18.2944-18.2054-26.8965-27.8553c-7.81702-8.76654-14.8875-17.8504-20.6821-28.1417c-12.1962-21.6647-17.0971-46.3358-13.7736-71.0295c3.3053-24.5523 14.5964-47.3527 32.101-64.8572c17.5172-17.5172 40.305-28.7958 64.8572-32.101c24.6938-3.32361 49.3648 1.57727 71.0295 13.7736c10.2914 5.79449 19.3752 12.8651 28.1418 20.682c9.6499 8.60223 18.7258 17.7671 27.8553 26.8966l26.3524 26.3524c9.12946 9.12946 18.2944 18.2053 26.8965 27.8553c7.81702 8.76654 14.8875 17.8504 20.6821 28.1417c12.1962 21.6647 17.0971 46.3358 13.7736 71.0295c-3.3053 24.5523-14.5839 47.3401-32.101 64.8572c-17.5046 17.5046-40.305 28.7958-64.8572 32.1011c-24.6938 3.32355-49.3648-1.57733-71.0295-13.7736c-10.2914-5.79449-19.3752-12.8651-28.1418-20.682c-9.64996-8.60217-18.7258-17.7671-27.8553-26.8965L583.678 746.31z" fill="#00DD88" style="fill:#00DD88;"/>
  </g>
 </g>
</svg>
