<?xml version="1.0" encoding="UTF-8"?>
<!--Generator: Apple Native CoreSVG 361-->
<!DOCTYPE svg
PUBLIC "-//W3C//DTD SVG 1.1//EN"
       "http://www.w3.org/Graphics/SVG/1.1/DTD/svg11.dtd">
<svg version="1.1" xmlns="http://www.w3.org/2000/svg" xmlns:xlink="http://www.w3.org/1999/xlink" viewBox="0 0 1024 1024">
 <g/>
 <g id="flower5">
  <g>
   <path d="M626.999 765.634c0 12.9111 0.0629883 25.8092-0.677917 38.7154c-0.671448 11.7263-2.09509 23.1492-5.27484 34.5237c-6.69519 23.9433-20.6748 44.8538-40.4861 59.9648C560.862 913.862 536.755 922 512 922c-24.773 0-48.8616-8.13824-68.5598-23.1621c-19.8113-15.1111-33.7909-36.0215-40.4861-59.9648c-3.17975-11.3745-4.60333-22.7974-5.27481-34.5237c-0.740845-12.9062-0.677887-25.8043-0.677887-38.7154v-37.2679c0-12.9111-0.0629578-25.8092 0.677887-38.7154c0.671478-11.7264 2.09506-23.1492 5.27481-34.5237c6.69525-23.9433 20.6748-44.8538 40.4861-59.9648C463.138 580.138 487.227 572 512 572c24.7552 0 48.8616 8.13824 68.5598 23.1621c19.8113 15.1111 33.7909 36.0215 40.4861 59.9648c3.17975 11.3745 4.60339 22.7973 5.27484 34.5237c0.740906 12.9062 0.677917 25.8043 0.677917 38.7154V765.634z" fill="#10B6FF" style="fill:#10B6FF;"/>
  </g>
 </g>
</svg>
