<?xml version="1.0" encoding="UTF-8"?>
<!--Generator: Apple Native CoreSVG 361-->
<!DOCTYPE svg
PUBLIC "-//W3C//DTD SVG 1.1//EN"
       "http://www.w3.org/Graphics/SVG/1.1/DTD/svg11.dtd">
<svg version="1.1" xmlns="http://www.w3.org/2000/svg" xmlns:xlink="http://www.w3.org/1999/xlink" viewBox="0 0 1024 1024">
 <g/>
 <g id="flower6">
  <g>
   <path d="M413.97 772.663c-9.12949 9.12946-18.2053 18.2944-27.8553 26.8965c-8.76651 7.81696-17.8504 14.8875-28.1418 20.682c-21.6647 12.1963-46.3357 17.0972-71.0295 13.7736c-24.5523-3.3053-47.3526-14.5965-64.8572-32.1011c-17.5171-17.5172-28.7957-40.3049-32.101-64.8572c-3.32355-24.6938 1.57733-49.3647 13.7736-71.0295c5.79454-10.2913 12.8651-19.3752 20.6821-28.1417c8.6022-9.64996 17.7671-18.7258 26.8966-27.8553l26.3524-26.3524c9.12952-9.12952 18.2054-18.2944 27.8553-26.8966c8.76654-7.81696 17.8504-14.8875 28.1418-20.682c21.6647-12.1962 46.3357-17.0971 71.0295-13.7736c24.5523 3.3053 47.3401 14.5839 64.8572 32.101c17.5046 17.5046 28.7957 40.3049 32.101 64.8572c3.32355 24.6938-1.5773 49.3648-13.7736 71.0295c-5.79453 10.2913-12.865 19.3752-20.682 28.1417c-8.6022 9.64996-17.7671 18.7258-26.8966 27.8553L413.97 772.663z" fill="#A499EC" style="fill:#A499EC;"/>
  </g>
 </g>
</svg>
