<?xml version="1.0" encoding="UTF-8"?>
<!--Generator: Apple Native CoreSVG 361-->
<!DOCTYPE svg
PUBLIC "-//W3C//DTD SVG 1.1//EN"
       "http://www.w3.org/Graphics/SVG/1.1/DTD/svg11.dtd">
<svg version="1.1" xmlns="http://www.w3.org/2000/svg" xmlns:xlink="http://www.w3.org/1999/xlink" viewBox="0 0 1024 1024">
 <g/>
 <g id="flower7">
  <g>
   <path d="M258.366 626.999c-12.9111 0-25.8092 0.0629883-38.7154-0.677917c-11.7263-0.671448-23.1492-2.09509-34.5236-5.27484c-23.9433-6.69519-44.8538-20.6748-59.9648-40.4861C110.138 560.862 102 536.755 102 512c0-24.773 8.13822-48.8616 23.1621-68.5598c15.1111-19.8113 36.0215-33.7909 59.9649-40.4861c11.3745-3.17975 22.7973-4.60336 34.5236-5.27481c12.9062-0.740875 25.8044-0.677917 38.7154-0.677917h37.2679c12.911 0 25.8092-0.0629578 38.7154 0.677887c11.7263 0.671478 23.1492 2.09506 34.5236 5.27481c23.9433 6.69525 44.8538 20.6748 59.9649 40.4861C443.862 463.138 452 487.227 452 512c0 24.7552-8.13821 48.8616-23.1621 68.5598c-15.1111 19.8113-36.0215 33.7909-59.9649 40.4861c-11.3744 3.17975-22.7973 4.60339-34.5236 5.27484c-12.9062 0.740906-25.8044 0.677917-38.7154 0.677917H258.366z" fill="#FE78B6" style="fill:#FE78B6;"/>
  </g>
 </g>
</svg>
