<?xml version="1.0" encoding="UTF-8"?>
<!--Generator: Apple Native CoreSVG 361-->
<!DOCTYPE svg
PUBLIC "-//W3C//DTD SVG 1.1//EN"
       "http://www.w3.org/Graphics/SVG/1.1/DTD/svg11.dtd">
<svg version="1.1" xmlns="http://www.w3.org/2000/svg" xmlns:xlink="http://www.w3.org/1999/xlink" viewBox="0 0 1024 1024">
 <g/>
 <g id="flower8">
  <g>
   <path d="M251.337 413.97c-9.1295-9.12952-18.2944-18.2054-26.8966-27.8553c-7.81699-8.76654-14.8875-17.8504-20.682-28.1418c-12.1963-21.6647-17.0971-46.3357-13.7736-71.0295c3.30528-24.5523 14.5965-47.3526 32.101-64.8572c17.5171-17.5171 40.3049-28.7957 64.8572-32.101c24.6938-3.32355 49.3648 1.57733 71.0295 13.7736c10.2914 5.79453 19.3752 12.8651 28.1418 20.682c9.64993 8.6022 18.7258 17.7671 27.8553 26.8966l26.3524 26.3524c9.12949 9.12952 18.2944 18.2054 26.8966 27.8553c7.81699 8.76654 14.8875 17.8504 20.682 28.1418c12.1963 21.6647 17.0971 46.3357 13.7736 71.0295c-3.3053 24.5523-14.5839 47.3401-32.101 64.8572c-17.5046 17.5046-40.3049 28.7957-64.8572 32.101c-24.6938 3.32355-49.3648-1.5773-71.0295-13.7736c-10.2914-5.79453-19.3752-12.865-28.1418-20.682c-9.64996-8.6022-18.7258-17.7671-27.8553-26.8966L251.337 413.97z" fill="#FF6565" style="fill:#FF6565;"/>
  </g>
 </g>
</svg>
