<?xml version="1.0" encoding="UTF-8"?>
<!--Generator: Apple Native CoreSVG 361-->
<!DOCTYPE svg
PUBLIC "-//W3C//DTD SVG 1.1//EN"
       "http://www.w3.org/Graphics/SVG/1.1/DTD/svg11.dtd">
<svg version="1.1" xmlns="http://www.w3.org/2000/svg" xmlns:xlink="http://www.w3.org/1999/xlink" viewBox="0 0 1024 1024">
 <defs>
  <linearGradient id="SVGID_1_" x1="190.596" y1="344.095" x2="833.404" y2="344.095" gradientUnits="userSpaceOnUse">
   <stop offset="0.130449" stop-color="#4495fb" stop-opacity="1"/>
   <stop offset="1" stop-color="#51c1fd" stop-opacity="1"/>
  </linearGradient>
 </defs>
 <g/>
 <g id="screen">
  <path d="M833.384 462.591v-0.0009155c-0.153809-6.74493-1.19739-13.0231-2.08881-17.7376c-0.359253-1.90112-0.776977-3.96735-1.31372-6.49591c-0.459168-2.1701-0.933411-4.33887-1.40765-6.50995L782.685 227.691l-0.0193481-0.0889282c-0.353455-1.61389-0.706909-3.22955-1.06787-4.83435c-0.440063-1.96008-0.79895-3.48956-1.16113-4.95599c-0.899841-3.64655-2.20258-8.49493-4.30469-13.6705c-2.3634-5.81897-5.31384-11.0508-9.01953-15.9936c-3.76495-5.0213-8.20892-9.57617-13.2098-13.5389c-5.00848-3.96686-10.4963-7.27808-16.3126-9.84155c-5.74963-2.53357-11.628-4.27631-17.9714-5.32849c-5.64697-0.937805-10.788-1.17151-14.6362-1.2713c-1.53571-0.0394897-3.18872-0.0626221-5.1828-0.0739746c-1.46936-0.008606-2.93561-0.0095215-4.40436-0.010437H330.349l-1.44781 0.0018311c-1.23615 0-2.47137 0.0018311-3.69165 0.008606c-2.0744 0.0113525-3.69482 0.0335693-5.27106 0.0717163c-3.86566 0.0957031-9.02582 0.32074-14.6624 1.21869c-6.34363 1.01086-12.2136 2.68463-17.9432 5.11475c-5.85931 2.48273-11.3949 5.70233-16.4545 9.56982c-5.09344 3.89697-9.61969 8.38562-13.4529 13.3434c-3.80872 4.9278-6.83368 10.1537-9.24652 15.9758c-2.14429 5.17377-3.45325 10.0054-4.35278 13.6315c-0.360901 1.45276-0.71637 2.96503-1.14789 4.88287c-0.36615 1.62524-0.721863 3.24951-1.05988 4.79852l-46.0165 203.765l-0.0365601 0.166504c-0.477722 2.18695-0.955078 4.37158-1.41333 6.53583c-0.545593 2.56531-0.971863 4.66602-1.34094 6.60748c-0.903564 4.74365-1.96735 11.0553-2.1767 17.8021c-0.248901 8.03217 0.714356 15.406 2.9444 22.5416c2.4317 7.77808 6.28241 14.8951 11.4459 21.1545c5.17737 6.27673 11.499 11.4777 18.7907 15.4595c6.70892 3.6629 13.9262 6.15106 22.0645 7.60748c6.81122 1.21777 13.3683 1.52454 18.3195 1.65515c2.00476 0.0526733 4.19055 0.0834961 6.8725 0.0985107c2.10907 0.012207 4.22137 0.0131226 6.33093 0.0140381H744.846c2.23785 0 4.47437-0.0009155 6.68884-0.0131836c2.74725-0.0149536 4.97192-0.0457764 6.99158-0.0975342c4.97668-0.123413 11.5676-0.414246 18.4156-1.58667c8.11224-1.38879 15.3198-3.76263 22.0332-7.2572c7.36316-3.8316 13.7858-8.86334 19.0898-14.9536c5.37689-6.17511 9.41974-13.2267 12.0168-20.9581C832.487 478.077 833.568 470.668 833.384 462.591z" fill="url(#SVGID_1_)" style="fill:url(#SVGID_1_);"/>
 </g>
</svg>
