<?xml version="1.0" encoding="UTF-8"?>
<!--Generator: Apple Native CoreSVG 361-->
<!DOCTYPE svg
PUBLIC "-//W3C//DTD SVG 1.1//EN"
       "http://www.w3.org/Graphics/SVG/1.1/DTD/svg11.dtd">
<svg version="1.1" xmlns="http://www.w3.org/2000/svg" xmlns:xlink="http://www.w3.org/1999/xlink" viewBox="0 0 1024 1024">
 <g/>
 <g id="ui.base">
  <path clip-rule="evenodd" d="M804.779 871.974c9.5426 0 19.0763 0.0465088 28.6155-0.50061c8.66681-0.497253 17.11-1.54901 25.5175-3.89978c17.6968-4.948 33.1525-15.2805 44.3217-29.9243c11.105-14.5594 17.1199-32.3766 17.1199-50.6741c0-18.3113-6.01495-36.1153-17.1199-50.6748c-11.1692-14.6436-26.6249-24.9762-44.3217-29.9241c-8.40747-2.35071-16.8507-3.40259-25.5175-3.89972c-9.53925-0.547241-19.0729-0.50061-28.6155-0.500732l-587.558 6.1e-05c-9.5426 0-19.0762-0.0465698-28.6155 0.500549c-8.66681 0.497253-17.11 1.54901-25.5175 3.89978c-17.6969 4.94806-33.1526 15.2805-44.3217 29.9243c-11.105 14.5594-17.1199 32.3766-17.1199 50.6741c0 18.3113 6.01497 36.1153 17.1199 50.6748c11.1692 14.6436 26.6248 24.9762 44.3217 29.9241c8.40744 2.35071 16.8507 3.40265 25.5175 3.89978c9.53926 0.54718 19.0729 0.500549 28.6155 0.500671H804.779z" fill="#FFFFFF" fill-rule="evenodd" style="fill-rule:evenodd;clip-rule:evenodd;fill:#FFFFFF;"/>
 </g>
</svg>
