<?xml version="1.0" encoding="UTF-8"?>
<!--Generator: Apple Native CoreSVG 361-->
<!DOCTYPE svg
PUBLIC "-//W3C//DTD SVG 1.1//EN"
       "http://www.w3.org/Graphics/SVG/1.1/DTD/svg11.dtd">
<svg version="1.1" xmlns="http://www.w3.org/2000/svg" xmlns:xlink="http://www.w3.org/1999/xlink" viewBox="0 0 1024 1024">
 <g/>
 <g id="play.icon">
  <path d="M234.344 777.925c2.55103 1.48376 4.38658 2.92157 5.50664 4.31342c1.11987 1.39203 1.67982 2.97162 1.67982 4.73865s-0.559952 3.34644-1.67982 4.73828c-1.12006 1.39191-2.95561 2.82971-5.50664 4.31348l-43.4954 25.4117c-2.08882 1.10443-4.17143 1.65668-6.24786 1.65668c-2.44069 0-4.48149-0.849487-6.12239-2.54846c-1.64091-1.69885-2.46135-4.08557-2.46136-7.16028v-52.8273c1.53e-05-3.1087 0.82045-5.50403 2.46136-7.18591c1.6409-1.68188 3.6817-2.52283 6.12239-2.52283c2.07643 0 4.15904 0.552246 6.24786 1.65674L234.344 777.925z" fill="#FFFFFF" style="fill:#FFFFFF;"/>
 </g>
</svg>
