<?xml version="1.0" encoding="UTF-8"?>
<!--Generator: Apple Native CoreSVG 361-->
<!DOCTYPE svg
PUBLIC "-//W3C//DTD SVG 1.1//EN"
       "http://www.w3.org/Graphics/SVG/1.1/DTD/svg11.dtd">
<svg version="1.1" xmlns="http://www.w3.org/2000/svg" xmlns:xlink="http://www.w3.org/1999/xlink" viewBox="0 0 1024 1024">
 <g/>
 <g id="cursor">
  <path clip-rule="evenodd" d="M331.361 812.996c2.9213 0 5.83984 0.0142212 8.76013-0.153259c2.6532-0.152222 5.23792-0.474243 7.81171-1.19385c5.4176-1.51477 10.1491-4.67786 13.5683-9.16077c3.3996-4.45715 5.24097-9.91156 5.24097-15.513c0-5.60565-1.84137-11.056-5.24097-15.5132c-3.41925-4.48285-8.15073-7.646-13.5683-9.16071c-2.57379-0.719665-5.15851-1.04169-7.81171-1.19385c-2.92029-0.167542-5.83884-0.153259-8.76013-0.15332l-17.9649 6.1e-05c-2.92133 0-5.83987-0.0142822-8.76013 0.153198c-2.6532 0.152222-5.23795 0.474243-7.81174 1.19385c-5.4176 1.51477-10.1491 4.67786-13.5683 9.16077c-3.3996 4.45715-5.24097 9.91156-5.24097 15.513c0 5.60565 1.84137 11.056 5.24097 15.5132c3.41922 4.48285 8.1507 7.646 13.5683 9.16077c2.57379 0.719604 5.15854 1.04163 7.81174 1.19379c2.92026 0.167542 5.83881 0.153259 8.76013 0.15332H331.361z" fill="#FFFFFF" fill-rule="evenodd" style="fill-rule:evenodd;clip-rule:evenodd;fill:#FFFFFF;"/>
 </g>
</svg>
